<?xml version="1.0" encoding="UTF-8"?><svg id="Layer_2" xmlns="http://www.w3.org/2000/svg" width="2197.94" height="1916.72" viewBox="0 0 2242 1703"><defs><style>.cls-1,.cls-2{fill:#002a5c;}.cls-3{fill:#fcfcfb;}.cls-4{fill:#fdcb26;}.cls-5{fill:#fff;}.cls-6{fill:#b1b5b5;}.cls-7{fill:#b2b5b5;}.cls-8{fill:#440d2e;}.cls-9{fill:#0a0c0c;}.cls-10{fill:none;stroke-linecap:round;stroke-linejoin:round;stroke-width:16px;}.cls-10,.cls-2{stroke:#fff;}.cls-2{stroke-miterlimit:10;stroke-width:6px;}</style></defs><g id="Layer_1-2"><g><g><path class="cls-10" d="M531.46,1222.11c22.1,7.71,44.7,14.3,66.19,23.34,24.82,10.44,48.74,22.85,72.88,34.74,14.05,6.92,19.83,6.29,28.95-5.52,2.9-3.75,5.95-3.24,9.59-2.25,39.71,10.73,79.39,21.53,119.13,32.16,4.72,1.26,6.94,3.62,7.38,8.2,1.47,15.51,12.6,20.1,25,17.59,18.49-3.74,36.9-8.19,54.88-13.66,44.93-13.66,87.81-31.88,129.58-52.46,1.76-.87,4.48-1.12,6.36-.51,18.49,6.04,36.91,12.27,55.31,18.53,52.69,17.93,105.34,36,160.27,46.61,14.11,2.73,28.3,5.81,42.57,6.79,17.17,1.17,34.48,.53,51.71,.2,26.03-.49,52.09-.86,78.06-2.24,32.3-1.72,64.54-4.2,96.77-6.78,28.67-2.3,57.14-6,85.17-12.09,3.45-.75,6.26-.25,9.38,1.75,10.62,6.81,24.81,5.6,33.88-2.72,2.58-2.37,4.55-5.33,6.93-8.18,.42,.08,1.02,.15,1.59,.31,13.79,3.82,25.43,.02,32.05-11.81,5.63-10.05,10.8-20.48,14.68-31.25,17.28-47.98,23.26-98.06,26.69-148.48,1.63-23.94,2.42-47.97,2.64-71.98,.2-21.01-.33-42.08-1.63-63.07-1.54-24.96-4.24-49.86-9.57-74.49-3.97-18.31-8.67-36.39-17.32-53.36-3.97-7.8-8.51-15.42-16.08-20.7-13.25-9.24-28.08-14.32-44.43-15.78-16.52-1.48-32.87-.85-49.27,.89-25.39,2.7-50.85,4.89-76.25,7.55-27.99,2.92-55.96,6.07-83.92,9.23-15.73,1.78-31.43,3.81-47.15,5.68-11.1,1.32-22.2,2.57-33.7,3.9,.28-2.27,.43-4.11,.74-5.93,14.22-84.11,28.43-168.21,42.8-252.29,.3-1.73,2.02-3.84,3.69-4.64,32.29-15.53,64.7-30.81,96.97-46.38,3.69-1.78,7.14-4.56,9.78-7.59,8.15-9.39,7.64-23.75-.63-33.08-7.26-8.19-21.67-12.76-33.42-6.16-6.89,3.87-14.25,7.01-19.36,9.49-4.09-2.52-7.24-4.47-10.63-6.57,16.02-5.68,25.41-15.91,26.28-32.09,.58-10.77-3.72-20.36-10.27-28.98-5.78-7.62-11.88-15.05-18.19-22.29-16.2-18.55-32.29-37.2-49.05-55.29-7.94-8.57-18.03-14.67-30.89-12.86-4.69,.66-9.15,2.72-13.91,4.2-2.99-7.01-8.38-5.37-13-3.65-10.51-15.21-20.38-30.25-31.04-44.76-42.08-57.29-92.57-106.98-151.18-149.28-36.86-26.61-76.03-49.61-117.62-68.82-74.56-34.44-152.88-55.73-235.07-63.68-34.25-3.31-68.51-4.38-102.78-2.89-44.36,1.92-88.16,7.53-131.37,16.98-29.63,6.48-58.8,14.31-87.36,24.02-88.2,30.01-167.36,74.08-235.53,134.99-9.41,8.41-17.84,17.8-27.01,26.45-7.9,7.46-16.4,14.35-24.33,21.78-45.55,42.66-83.82,90.56-114.29,144.09-24.35,42.77-44.58,87.33-57.08,134.55-14.64,55.28-24.58,111.54-27.94,168.77-.55,9.33,1,17.07,8.07,24.8,10.29,11.24,18.86,23.93,27.7,36.3,2.88,4.02,5.25,8.79,6.25,13.5,3.64,17.21,5.52,34.79,10.09,51.76,6.76,25.11,14.27,50.13,23.2,74.65,22.04,60.49,49.75,118.86,78.78,176.67,2.1,4.17,2.07,7.43-.15,11.38-8.36,14.84-16.37,29.85-24.61,44.75-6.03,10.91-5.89,21.62,2.35,31.51,21.79,26.17,44.01,52.02,65.77,78.22,8.33,10.03,19.09,15.61,31.82,18.26,13.19,2.74,26.58,3.57,39.89,2.39,30.65-2.72,61.34-5.34,91.82-9.19,23.55-2.97,46.75-8.11,70.23-11.57,12.08-1.78,24.44-2.87,36.66-2.66,9.04,.15,18.04,3.05,27.11,4.43,11.87,1.8,16.35,.1,20.07-6.67,2.8,1.12,5.51,2.33,8.3,3.3Z"/><g><path class="cls-1" d="M6.96,680.61c-.54,9.34,1.01,17.09,8.07,24.81,10.29,11.23,18.84,23.91,27.7,36.28,2.86,4.03,5.24,8.79,6.25,13.51,3.63,17.2,5.49,34.78,10.08,51.75,6.76,25.12,14.27,50.13,23.2,74.66,22.04,60.48,49.73,118.86,78.77,176.65,2.1,4.19,2.08,7.42-.15,11.4-8.36,14.84-16.37,29.84-24.6,44.74-6.04,10.89-5.91,21.62,2.33,31.52,21.79,26.17,44.02,52,65.78,78.2,8.34,10.06,19.07,15.62,31.82,18.28,13.17,2.74,26.57,3.55,39.91,2.38,24.66-2.19,49.36-4.32,73.96-7.07l-1.24-8.77c-4.76,.52-9.59,.97-14.38,1.36-22.1,1.76-44.14,4.03-66.26,5.33-12.83,.75-25.7-.45-38.1-4.81-6.26-2.2-11.49-5.52-15.71-10.52-22.31-26.49-44.72-52.96-67.07-79.45-3.83-4.52-5.49-9.67-4.18-15.91,7.5,9.23,18.28,9.69,28.64,10.04,28.74,.97,57.52,1.82,86.25,1.92,40.47,.12,80.64,3.94,120.77,8.87,17.48,2.14,35.06,3.7,52.47,6.31,6.8,1.03,13.69,3.5,19.84,6.59,22.52,11.33,44.7,23.27,67.11,34.82,1.98,1.05,3.02,2.04,3.23,3.26l8.36-.17c-.29-2.15-.98-4.41-1.34-6.56l.26-.15-1.17-.87c-.45-.54-.87-1.08-1.32-1.62-.52-.29-1.04-.56-1.56-.85v.19c-17.76-9.18-35.53-18.35-53.29-27.56-6.25-3.25-12.49-6.48-18.64-9.88-11.15-6.22-23.6-7.29-35.9-8.73-30.77-3.55-61.54-7.25-92.39-9.87-9.24-.79-18.54-1.27-27.82-1.66-11.86-.46-23.73-.71-35.56-1.07-5.21-.15-10.39-.26-15.6-.38-9.77-.18-19.57-.28-29.34-.46-4.1-.05-8.23-.14-12.33-.23-2.56-.07-5.08-.18-7.64-.28-4.49-.16-8.95-.41-13.44-.6-2.23-.13-4.49-.19-6.72-.25-1.64-.05-3.28-.09-4.92-.11-.26,0-.52-.01-.75-.05-.52-.01-1.08,0-1.64-.02-3.51,0-6.59-2.33-7.49-5.56-.68-2.38-1.7-4.65-2.58-7-3.84-6.23-4.34-12.12,.03-18.55,5.4-7.99,9.9-16.5,14.82-24.81,2.09-5.44,.52-10.3-2.06-15.41-25.2-49.7-49.17-99.95-69.19-151.67-10.62-27.46-20.45-55.31-28.61-83.48-6.07-20.93-8.52-42.76-13.36-64.06-1.66-7.35-4.89-14.31-9.29-20.62-9.4-13.41-19.63-26.32-29.89-39.17-2.41-2.99-3.25-5.78-3.07-9.19,2.65-58.48,13.18-115.77,27.87-172.25,9.94-38.16,25.85-74.41,44.05-109.64,37.13-71.95,87.88-133.94,150.81-187.03,7.81-6.62,14.39-14.48,21.65-21.67,2.1-2.08,4.59-3.82,6.91-5.68,8.54-7.31,16.92-14.78,25.69-21.83,6.87-5.52,14.23-10.57,21.4-15.8,1.03-.72,2.06-1.43,3.08-2.12l-.03,.09c.89-.44,1.78-.85,2.68-1.29l-.1-.13c.97-1,1.8-2.16,2.93-2.93,55.99-38.59,117.02-68.25,182.86-88.85,27.32-8.55,55.27-15.58,83.31-21.78,40.01-8.84,80.82-13.46,121.96-14.93,12.9-.47,25.75-.6,38.54-.4,6.23,.08,12.46,.23,18.62,.47,82.59,3.06,162.77,19.76,240.37,51,56.84,22.84,109.5,52.53,158.09,88.84,62.98,47.07,115.67,102.83,158.41,167.08,3.36,5.04,6.53,10.19,9.83,15.38-11.21,4.16-14.12,3.08-8.66,17.28,12.01,31.36,23.35,62.91,34.96,94.42,.32,.82,.43,1.72,.77,3.1-7.48,2.52-15,5.11-22.55,7.63-46.22,15.38-92.47,30.78-138.68,46.16-17.14,5.64-34.28,11.27-51.39,16.91,.04-.19,.07-.4,.11-.59-.56,.17-1.12,.37-1.68,.54-6.99,2.38-13.98,4.79-20.97,7.14-24.56,8.31-45.88,21.1-62.16,40.72,.66-.17,1.32-.3,1.97-.47-4.18,7.09-8.35,14.15-12.53,21.21-9.31,27.21-18.75,54.38-27.93,81.63-15.16,44.97-30.52,89.88-45.1,135.03-10.51,32.52-6.9,64.14,10.69,94.53,11.75,20.32,26.19,38.69,45.58,52.7,7.65,5.47,9.12,10.58,7.46,18.21-.64,2.93-.59,6.01-.86,9.05-.52,5.86-1.07,11.75-1.59,17.61l-1.45-1.44-.12,1.4c.89,3.66,.2,5.85-4.37,6.78-7.9,1.61-15.8,3.56-23.35,6.17-24.07,8.36-37.85,25.71-45.81,48.27-1.64,.2-3.38,.31-5.19,.51l.38,9.09c1.35-.05,2.82,.11,4.04-.2-1.38,2.01,2.06,6.52-3.24,6-.62-.05-1.41-.32-2.12-.68l-1.56,3.47c1.5,.63,2.96,1.27,4.46,1.87,3.5,.44,2.02,2.76,1.64,4.3-2.97,11.85-5.65,23.8-9.24,35.48-2.31,7.55-2.52,14.47,2.19,21.23,4.46,3.92,9.24,6.7,14.47,8.12,4.41,1.21,9.13,1.47,14.22,.62,.36-.05,.72-.13,1.12-.22l-.89-3.63c-1.15,.18-2.3,.28-3.42,.34-9.52,.51-17.94-2.19-23.48-10.4-.38-3.21-1.73-6.64-1.03-9.6,3.33-13.77,7.22-27.39,10.94-41.24l3.04,.46c.38-1.08,.76-2.15,1.03-3.02,4.38,1.15,8.75,2.3,13.16,3.45l2.36-8.63c-1.96-.52-3.89-1.1-5.78-1.72-6.52-2.17-6.08-3.25-5.06-9.62,1.35-8.45,5.26-15.61,9.93-22.62,9.17-13.76,22.6-21.49,39.06-25.12,3.26-.72,6.68-1.24,9.71-2.46,8.32-3.34,16.82-1.76,25.69-.61-.48-.82-.6-1.32-.93-1.49-7.84-4.23-10.47-9.96-8.82-18.71,1.86-9.92,1.76-20.21,2.5-30.23,12.27,4.05,24.37,8.09,37.06,12.3-1.54,14.59-3.19,29.81-4.88,45.7,25.18,4.72,50.13,9.23,75.01,14.13,21.87,4.32,43.7,4.91,65.53,1.37,13.91-2.25,27.75-4.81,41.54-7.61,2.34-.46,5.25-2.46,6-4.4,1.03-2.67-.04-5.66-3.46-7.5-1.69-.95-2.61-3.18-3.89-4.83-6.62-8.67-13.24-17.35-20.28-26.5,11.13-2.79,21.83-5.47,32.92-8.26,9.06,12.13,18.15,24.29,27.43,36.74-4.88,3.53-9.42,6.82-13.93,10.11l.38,.66c11.72-2.99,23.41-6.14,35.2-9.01,10.96-2.64,22.05-4.91,33.04-7.42,22.87-5.22,45.78-10.38,68.59-15.83,24.46-5.83,48.94-11.51,73.15-18.09,37.94-10.33,75.66-21.22,113.41-32.11,9.62-2.77,9.53-3.18,7.05-12.39-3.16-11.87-6.32-23.77-9.71-35.61-1.09-3.73-2.84-7.29-4.57-11.72-9.38,2.19-18.59,4.23-27.71,6.48-25.68,6.39-51.36,12.84-77.04,19.29-28.91,7.23-57.84,14.52-86.75,21.74-10.93,2.74-21.86,5.44-32.79,8.14-19.52,4.82-39.01,9.64-58.5,14.5-28.77,7.2-57.89,13.52-86.23,22.01-20.86,6.28-41.77,5.96-63.12,5.66-23.57-.33-46.03-6.9-68.72-11.71-20.2-4.3-40.08-10.06-58.56-19.69-13.96-7.27-24.71-17.67-34.11-29.41-12.25-15.36-22.76-31.69-28.1-50.49-6.09-21.37-5.31-42.48,1.68-63.26,23.35-69.39,46.99-138.7,70.27-208.09,8.6-25.68,27.16-42.8,51.74-54,15.92-7.25,33.05-12.3,49.83-17.91,42.2-14.18,84.43-28.34,126.65-42.43,30.95-10.34,61.94-20.62,92.93-30.86,14.08-4.63,28.65-7.98,43.14-11.48,5.79-1.39,11.91-2.24,17.91-2.26,5.21,0,8.29,4.37,7.76,9.3-.69,6.17-4.65,10.06-10.39,12.11-7.09,2.53-14.37,4.66-21.65,6.75-5.04,1.47-6.17,4.73-2.52,8.35,3.84,3.81,8.33,6.33,13.39,7.44l1.12-8.76-1.77-.24c4.55-1.52,8.24-2.41,11.6-3.96,4.23-1.93,8.62-3.89,12.17-6.71,9.43-7.41,10.36-18.45,2.96-28.14-.67-.89-1.05-2.02-1.56-3.06-6.9-3.24-13.87-6.11-21.85-5.56-.89,.04-2.24-1.74-2.94-2.91-14.66-23.01-29.22-46.05-43.85-69.06-3.78-5.95-8.25-11.33-15.02-14.6,1.95-1.22,3.97-2,6.17-2.16l-.33-8.43c-1.11,0-2.26,.12-3.41,.28-4.7,.67-9.16,2.72-13.9,4.2-3.01-7.02-8.38-5.37-13.03-3.66-10.49-15.18-20.35-30.23-31.05-44.77-42.07-57.26-92.55-106.96-151.18-149.28-36.84-26.59-76.03-49.59-117.61-68.83-74.56-34.44-152.87-55.72-235.05-63.68-34.25-3.3-68.54-4.37-102.79-2.89-44.37,1.94-88.17,7.56-131.37,17-29.62,6.49-58.79,14.3-87.34,24.03-88.22,30-167.38,74.09-235.53,134.99-9.41,8.4-17.85,17.8-27.01,26.46-7.92,7.45-16.42,14.36-24.34,21.78-45.56,42.65-83.82,90.54-114.3,144.09-24.34,42.76-44.55,87.31-57.06,134.53-14.64,55.28-24.6,111.53-27.95,168.77Zm1095.56,340.93c1.3-12.05,2.56-23.52,3.83-35.45,7.78,1.56,15.33,3.02,22.88,4.6,8.99,1.84,17.95,3.71,26.9,5.77,1.57,.36,3.59,1.35,4.26,2.58,6.37,11.9,12.55,23.91,19.3,36.94-26.29-4.91-51.6-9.64-77.17-14.44Zm192.87-38.43c5.33-1.31,10.28-2.97,15.37-3.7,15.15-2.15,30.37-4.2,45.61-5.76,28.02-2.87,56.09-5.27,84.11-8.02,39.67-3.88,79.32-7.91,118.96-11.82,7.19-.7,14.41-1.05,21.64-1.56,.03,.28,.06,.53,.09,.81-22.26,5.99-44.43,12.16-66.78,17.9-27.69,7.11-55.47,13.96-83.32,20.66-21.03,5.06-42.19,9.71-63.29,14.49-14.58,3.32-29.16,6.47-43.7,9.88-2.67,.64-4.17,.22-5.77-1.97-7.35-10.12-14.9-20.16-22.9-30.92Zm44.18-629.02c3.43-1.15,6.26-2.09,9.49-3.18,16.49,31.95,32.88,63.74,49.31,95.57-7.61,2.33-14.56,4.43-22.21,6.73-12.18-32.98-24.35-65.96-36.59-99.12Zm20.39-1.72c3.45-.68,5.63-1.11,7.8-1.55,7.63,.68,11.88,5.81,15.57,11.26,7.47,11.03,14.71,22.2,21.84,33.41,8.42,13.23,16.64,26.55,25.28,40.41-4.15,.97-8,1.89-11.85,2.8-3.06,.81-6.09,1.63-9.32,2.47-16.4-29.46-32.63-58.73-49.31-88.79Zm27.04,608.45c-.06-.22-.09-.44-.15-.66,12.05-3.05,24.07-6.09,36.12-9.07,23.93-5.94,47.87-11.82,71.77-17.76,22.12-5.52,44.15-11.46,66.43-16.45,9.18-2.07,18.89-2.26,28.38-3.14,5.68-.55,11.36-.86,17.93-1.32,2.36,8.24,4.89,16.86,7.56,26.13-76.33,7.46-152.2,14.85-228.03,22.27Z"/><path class="cls-5" d="M25.65,695.28s-.1-.03-.13-.07c-.07-.03-.06-.13-.09-.22,.1,.1,.19,.19,.23,.29Zm.03,0s.1,.06,.13,.07c.03,.03,.06,.06,.06,.1,6.4,1.92,12.83,3.72,19.19,5.77,38.08,12.18,75.99,24.91,114.27,36.53,44.1,13.37,87.34,28.84,129.56,46.91,18.05,7.72,36.03,15.63,54.04,23.48,1.79,.8,3.51,1.72,4.96,3.59-4.87-1.16-9.7-2.33-14.57-3.46-26.79-6.36-53.58-12.77-80.41-19.07-24.41-5.76-48.78-11.77-73.29-17.03-29.61-6.37-59.36-12.29-89.11-17.98-6.54-1.27-13.43-1.07-20.18-1.13-3.18-.03-5.01-.67-6.37-3.69-6.88-15.24-17.63-28.22-28.05-41.39-3.28-4.2-6.66-8.36-10.04-12.53-.03,0-.07-.03-.1-.03-.03-.06-.06-.1-.1-.13Zm-7.66-9.23c-.18,3.41,.66,6.2,3.07,9.19,10.26,12.85,20.49,25.76,29.89,39.17,4.39,6.31,7.63,13.27,9.29,20.62,4.85,21.3,7.3,43.13,13.36,64.06,8.15,28.17,17.98,56.02,28.61,83.48,20.02,51.72,43.99,101.98,69.19,151.67,2.58,5.11,4.14,9.97,2.06,15.41,.98,.25,2.29,.16,2.91,.74,7.3,7.23,17.08,8.72,26.6,10.33,33.62,5.71,67.42,10.65,101.01,16.7,38.42,6.94,76.74,14.71,115.05,22.2,14.48,2.84,28.93,5.98,43.38,8.91,10.1,2.06,18.72,6.87,26.49,13.09,34.36,27.64,70.5,52.82,110.03,73.37,17.11,8.88,34.49,17.3,51.84,25.75,13.05,6.37,26.27,12.46,39.29,18.65-.33,2.04-.62,3.81-.87,5.57,5.9-5.86,13.2-5.22,20.48-3.27,39.97,10.74,79.91,21.63,119.88,32.37,6.63,1.77,11.63,5.15,14.45,11.07,.47,1.6,.9,3.16,1.34,4.76,.77,7.54,1.94,10.09,7.03,9.93-3.73-.42-4.74-3.15-5.42-9.73l-1.11-4.41c1.1-3.26,4.1-4.23,7.1-5.36,21.9-8.11,44.22-15.4,65.55-24.68,22.19-9.66,43.42-21.2,65.04-31.96,.63-.32,1.1-.87,1.6-1.38-.39-.14-.82-.27-1.21-.41-.55-.2-1.07-.47-1.66-.61-17.42-4.07-32.18-11.76-38.81-28.67-5.99-15.21-6.64-30.8-.76-46.11,1.54-4.03,.79-6.35-3.11-8.98-11.81-7.95-18.96-20.83-10.06-38.11,5.11-9.96,9.14-20.38,11.18-31.32,1.94-10.6,8.14-17.48,18.12-20.15,1.71-.45,3.52-.71,5.29-.88,1.81-.2,3.55-.3,5.19-.51,7.96-22.55,21.74-39.91,45.81-48.27,7.55-2.61,15.45-4.56,23.35-6.17,4.57-.93,5.26-3.11,4.37-6.78l.12-1.4c-5.23-5.21-10.53-10.37-15.59-15.77-30.35-32.35-60.64-64.75-90.9-97.22-21.61-23.21-43.12-46.54-64.66-69.81-2.45-2.65-4.87-5.36-7.52-7.8-9.31-8.5-10.01-18.43-5.84-29.01,2.25-5.72,20.12-36.72,22.76-42.27,3.37-6.12,6.29-12.53,10.22-18.33,17.59-25.89,34.69-52.13,53.57-77.14,12.79-17.01,27.92-32.49,42.69-48.08,3.1-3.24,8.96-4.5,13.83-5.82,19.66-5.31,39.45-10.28,59.17-15.38,2.01-.5,4.02-.97,6.02-1.44,16.28-19.61,37.59-32.4,62.16-40.72,6.99-2.35,13.98-4.76,20.97-7.14,.56-.17,1.12-.37,1.68-.54,1.78-11.29,3.5-22.59,5.45-33.85,5.31-31.15,10.74-62.22,15.95-93.37,.36-2.13,.11-4.75-.88-6.71-14.21-28.97-31.22-56.43-50.09-82.88-16.17-22.65-33.48-44.52-52.77-64.9-13.23-13.96-27.05-27.5-41.38-40.49-12.51-11.39-25.73-22.11-39.27-32.38-21.55-16.43-44.61-30.67-68.85-43.29-38.29-19.92-78.76-34.34-120.7-44.92-30.12-7.57-60.84-12.23-91.85-14.82-29.77-2.46-59.51-3.03-89.33-1.82-22.64,.94-44.92,3.66-67.26,6.67-36.54,4.96-71.97,13.68-106.61,25.38-31.22,10.55-61.39,23.3-89.62,39.66-26.87,15.52-52.91,32.28-79.36,48.43-1.19,.74-2.67,1.1-4.03,1.66,8.54-7.31,16.92-14.78,25.69-21.83,6.87-5.52,14.23-10.57,21.4-15.8,.99-.69,2.02-1.4,3.02-2.06,.03-.03,.03-.06,.07-.06l-.03,.09c.89-.44,1.78-.85,2.68-1.29l-.1-.13c.97-1,1.8-2.16,2.93-2.93,55.96-38.59,116.99-68.25,182.83-88.85,27.32-8.55,55.27-15.58,83.34-21.78,39.98-8.84,80.82-13.46,121.96-14.93,12.37-.43,24.7-.57,36.96-.44-12.79-.21-25.64-.08-38.54,.4-41.15,1.47-81.95,6.09-121.96,14.93-28.04,6.2-55.99,13.23-83.31,21.78-65.84,20.6-126.87,50.25-182.86,88.85-1.13,.78-1.96,1.93-2.93,2.93l.1,.13c-.89,.44-1.78,.85-2.68,1.29l.03-.09c-1.03,.69-2.06,1.4-3.08,2.12-7.17,5.24-14.52,10.28-21.4,15.8-8.77,7.05-17.15,14.52-25.69,21.83-2.32,1.86-4.81,3.59-6.91,5.68-7.26,7.19-13.84,15.05-21.65,21.67-62.94,53.1-113.69,115.08-150.81,187.03-18.19,35.22-34.1,71.47-44.05,109.64-14.69,56.49-25.22,113.78-27.87,172.25Zm87.33-65.18c-5.54-8.24-5.86-17.48-3.98-26.28,6.93-32.03,13.59-64.13,22.09-95.78,10.17-37.84,26.73-73.58,42.89-109.33,3.97-8.74,10.52-16.61,16.77-24.2,24.77-30,57.72-50.94,90.65-71.79,32.62-20.61,66.46-39.32,101.9-55.25,24.41-10.99,49.58-20.56,74.4-30.74,.82-.32,1.71-.42,3.02,.12-3.37,1.92-6.75,3.88-10.13,5.8-3.54,2.01-7.15,3.96-10.65,6.04-25.75,15.3-51.73,30.32-77.23,46.07-16.62,10.28-33.05,20.94-48.62,32.62-18.55,13.89-36.42,28.68-53.84,43.81-11.47,9.96-21.68,21.2-32.34,31.96-.8,.82-.86,2.31-1.24,3.51,3.37-1.58,6.61-3.54,10.17-4.62,4.15-1.25,6.81,.85,5.99,4.89-2,10.23-4.48,20.32-6.8,30.48-8.8,38.35-17.69,76.7-22.63,115.75-3.36,26.45-5.84,53.01-8.62,79.56-1,9.17-1.73,18.41-2.64,28.39-9.11-4.49-17.77-8.77-26.42-13.06,1.97,2.08,3.6,4.64,5.97,6.2,37.01,24.24,73.81,48.65,107.98,76.54,13.86,11.33,28.12,22.21,42.21,33.34,.94,.74,1.78,1.67,2.65,2.53-.23,.3-.47,.58-.7,.88-7.84-4.23-15.64-8.49-23.51-12.66-45.14-23.94-89.38-49.53-136.41-70.11-13.09-5.72-26.26-11.25-39.18-17.24-8.73-4.01-16.38-9.51-21.73-17.43ZM320.8,164.33c-1.32,.62-2.77,.92-4.19,1.37,41.19-25.18,83.2-48.29,131.77-61.55-12.79,8.15-24.32,16.15-36.63,22.95-5.46,3.01-12.74,2.99-18.71,5.4-15.77,6.36-31.36,13.16-46.91,19.99-8.55,3.77-16.88,7.91-25.34,11.84Zm7.96,574.75c-.23-.1-.42-.23-.65-.33,.26,.07,.49,.17,.72,.24,.16,.13,.29,.29,.45,.42-.2-.1-.36-.23-.52-.33Zm206.73,178.98c-6.89-10.11-10.14-20.86-6.73-32.86,2.99-10.67,11.8-14.33,21.8-16.57,14.68-3.25,29.66-2.98,44.57-2.12,19.72,1.15,39.47,2.83,59.15,4.85,24.56,2.5,48.69,7.04,71.87,15.75-8.29-10.96-16.61-21.92-24.9-32.87l-25.06-33.25c-.26-.32-.51-.64-.74-.95,0-.06,.2-.18,.3-.27,.19,.35,.42,.7,.61,1.04,1.66,1.01,3.48,1.84,4.97,3,28.7,22.54,56.07,46.41,81.01,72.7,17,17.92,31.22,37.62,42.66,59.11,3.12,5.9,6.11,11.89,8.84,17.93,5.74,12.81,4.22,17.24-5.57,27.04-22.22,22.21-49.5,36.82-79,48.57-23.99,9.54-48.61,17.3-73.88,23.23-6.19,1.44-12.53,2.44-19,3.19,18.61-7.18,37.15-14.27,52.97-25.56-7.14-4.65-13.96-9.04-20.71-13.58-1.2-.81-1.97-2.17-2.93-3.25l-.9-.9c-.2-.1-.36-.23-.52-.36,.1,0,.23-.02,.29,.04,.1,.06,.16,.19,.22,.32,.36,.26,.71,.49,1.04,.74,5.41,2.39,10.64,5.31,16.29,6.99,4.83,1.47,10.14,1.84,15.25,2.11,1.67,.08,3.44-1.74,5.16-2.68-10.65-.49-19.8-4.63-28.53-10.29-37.01-23.96-73.55-48.55-106.65-77.4-11.74-10.25-23.15-20.86-31.84-33.69Zm81.95,260.56c-2.09-21.81,13.81-40.01,36.26-41.61,20.91-1.46,39.98,14.69,41.75,35.44,1.9,21.44-14.33,40.18-36.07,41.71-21.47,1.47-39.95-14.16-41.95-35.53ZM738.72,97.3c-1.46-.85-2.83-1.67-5.43-3.2,3.28-2.02,5.84-4.19,8.87-5.34,7.99-3.16,16.28-3.14,24.74-1.04,39.72,9.96,79.07,20.83,116.39,37.68,12.8,5.8,24.89,12.52,34.81,22.34,1.84,1.82,4.2,3.91,1.93,6.36-1.5,1.57-4.21,3.21-6.28,3.12-15.66-.82-31.32-1.67-46.91-3.32-5.76-.63-11.83-2.54-16.87-5.36-30.59-17.22-63.35-29.55-96.66-40.82-5.35-1.8-10.63-3.72-16.24-5.71,.62-1.75,1.07-3.11,1.65-4.71Zm42.04,734.18c-.58-9.25,7.91-17.43,18.48-17.81,10.5-.39,18.27,5.93,18.85,15.27,.52,8.47-8.4,16.98-18.18,17.35-9.94,.4-18.59-6.31-19.15-14.81Zm13.65,274.87c-5.82-9.46-.02-19.8,11.91-21.45,8.12-1.14,17.98,3.43,22.04,10.2,5.88,9.83-.98,20.83-15.49,21.78-6.75-.13-13.92-3.16-18.46-10.53Zm163.59-602.32l-.03-.03s.03-.03,.07-.03c.07-.12,.14-.28,.2-.4,0,.06,.06,.19,.03,.25-.07,.06-.13,.09-.23,.15,0,.03-.03,.03-.03,.06Z"/><path class="cls-7" d="M25.65,695.28c-.03-.09-.13-.19-.23-.29,.03,.09,.03,.19,.09,.22,.03,.03,.1,.06,.13,.07Z"/><path class="cls-7" d="M25.68,695.28s.06,.06,.1,.13l.03-.06s-.1-.03-.13-.07Z"/><path class="cls-1" d="M25.81,695.35l-.03,.06s.07,.03,.1,.03c0-.03-.03-.06-.06-.1Z"/><path class="cls-1" d="M25.88,695.44c3.38,4.17,6.76,8.33,10.04,12.53,10.42,13.16,21.17,26.15,28.05,41.39,1.36,3.02,3.19,3.66,6.37,3.69,6.75,.07,13.64-.14,20.18,1.13,29.75,5.69,59.5,11.61,89.11,17.98,24.51,5.27,48.88,11.27,73.29,17.03,26.83,6.29,53.62,12.71,80.41,19.07,4.87,1.13,9.7,2.3,14.57,3.46-1.45-1.87-3.17-2.79-4.96-3.59-18.01-7.85-35.99-15.75-54.04-23.48-42.22-18.08-85.46-33.54-129.56-46.91-38.29-11.62-76.19-24.36-114.27-36.53-6.36-2.05-12.8-3.84-19.19-5.77Z"/><path class="cls-1" d="M101.36,594.59c-1.88,8.8-1.56,18.04,3.98,26.28,5.35,7.92,13.01,13.42,21.73,17.43,12.93,5.99,26.09,11.53,39.18,17.24,47.03,20.57,91.27,46.17,136.41,70.11,7.87,4.17,15.67,8.43,23.51,12.66,.23-.3,.47-.58,.7-.88-.87-.86-1.71-1.79-2.65-2.53-14.09-11.12-28.35-22-42.21-33.34-34.16-27.89-70.97-52.3-107.98-76.54-2.37-1.56-4-4.12-5.97-6.2l.03,.28c-.36-.29-.71-.61-1.07-.9-.32-.23-.68-.45-1.01-.68-7.25-4.09-13.73-8.84-17.92-16.11-3.16-5.47-4.72-10.89-3.5-17.16,12.82-64.78,30.86-128.07,58.26-188.58,2.92-6.47,9.65-11.38,14.63-16.99-.16-.44-.35-.88-.5-1.32,.53-.08,1.08-.16,1.61-.26,.06,.22,.19,.32,.42,.32,.38-1.2,.44-2.69,1.24-3.51,10.66-10.76,20.87-22,32.34-31.96,17.42-15.14,35.29-29.92,53.84-43.81,15.56-11.68,31.99-22.34,48.62-32.62,25.5-15.75,51.47-30.77,77.23-46.07,3.51-2.08,7.11-4.02,10.65-6.04,3.37-1.92,6.75-3.88,10.13-5.8-1.3-.53-2.19-.44-3.02-.12-24.82,10.17-49.99,19.74-74.4,30.74-35.44,15.93-69.28,34.64-101.9,55.25-32.92,20.85-65.88,41.79-90.65,71.79-6.25,7.59-12.8,15.46-16.77,24.2-16.17,35.75-32.73,71.48-42.89,109.33-8.5,31.65-15.16,63.75-22.09,95.78Z"/><path class="cls-4" d="M144.62,584.26c-1.21,6.27,.34,11.7,3.5,17.16,4.18,7.27,10.67,12.02,17.92,16.11,.32,.23,.68,.45,1.01,.68,.36,.29,.71,.61,1.07,.9l-.03-.28c8.66,4.29,17.31,8.57,26.42,13.06,.91-9.98,1.64-19.22,2.64-28.39,2.78-26.56,5.26-53.12,8.62-79.56,4.94-39.05,13.83-77.4,22.63-115.75,2.32-10.16,4.81-20.25,6.8-30.48,.82-4.05-1.84-6.14-5.99-4.89-3.56,1.08-6.8,3.04-10.17,4.62-.23,0-.36-.1-.42-.32-.37,.55-.74,1.07-1.11,1.58-4.97,5.61-11.71,10.51-14.63,16.99-27.41,60.51-45.45,123.8-58.26,188.58Z"/><path class="cls-5" d="M143.14,1124.96c-1.31,6.24,.35,11.38,4.18,15.91,22.35,26.49,44.76,52.96,67.07,79.45,4.22,5,9.45,8.32,15.71,10.52,12.39,4.36,25.26,5.57,38.1,4.81,22.12-1.3,44.16-3.56,66.26-5.33,4.79-.39,9.62-.85,14.38-1.36,33.54-3.68,66.5-10.35,99.68-16.06,11.71-2,23.45-2.25,35.28,.13,7.32,1.48,14.71,2.78,22.14,3.74,2.03,.24,5.25-.47,6.19-1.81,3.15-4.6,5.37-9.73,8.2-14.53,.84-1.44,1.25-2.61,1.11-3.64-.21-1.22-1.24-2.21-3.23-3.26-22.41-11.55-44.59-23.49-67.11-34.82-6.15-3.1-13.03-5.56-19.84-6.59-17.41-2.61-34.99-4.16-52.47-6.31-40.13-4.93-80.31-8.75-120.77-8.87-28.73-.1-57.5-.95-86.25-1.92-10.36-.36-21.14-.82-28.64-10.04Z"/><path class="cls-1" d="M158.66,1094.47c-4.36,6.43-3.87,12.32-.03,18.55,.56,.11,1.11,.19,1.67,.33l-.09-.28c6.31,1.11,12.58,2.72,18.97,3.18,6.71,.5,13.5,.91,20.21,1.2,4.85,.17,9.7,.31,14.55,.35,20.26,.27,40.54-.18,60.8,.17l1.57,.04c3.84,.08,7.67,.19,11.47,.33,35.49,1.35,70.71,5.93,105.78,11.46,23.1,3.64,46.08,7.96,69.11,11.82,6.67,1.09,12.17,4.2,17.25,8.1,15.17,11.65,30.26,23.42,45.36,35.2,.52,.39,.64,1.23,.95,1.86-.65-.33-1.33-.69-1.98-1.02,.16,.32,.25,.66,.41,.98v-.19c.52,.29,1.04,.56,1.56,.85,.45,.54,.87,1.08,1.32,1.62l1.17,.87-.26,.15c.59,.27,1.14,.53,1.73,.79-.06-.25-.12-.5-.15-.75,2.51,1.22,5.11,2.26,7.52,3.69,15.5,9.11,30.63,18.96,46.53,27.37,28.78,15.27,58.01,29.74,87.13,44.37,3.71,1.85,7.48,3.88,11.71,4.22,.82,0,1.64-.11,2.5-.27l.3-.15v-.31c.44-.48,.87-.97,1.31-1.49l.4-.11v-.4c.31-.43,.58-.89,.85-1.34l-.04,.15c.3-.36,.63-.7,.93-1.03l.03,.16c.26-1.76,.55-3.53,.87-5.57-13.02-6.18-26.24-12.28-39.29-18.65-17.35-8.45-34.73-16.87-51.84-25.75-39.52-20.55-75.66-45.72-110.03-73.37-7.77-6.22-16.39-11.03-26.49-13.09-14.45-2.93-28.89-6.07-43.38-8.91-38.32-7.49-76.63-15.26-115.05-22.2-33.58-6.05-67.38-10.99-101.01-16.7-9.52-1.61-19.3-3.1-26.6-10.33-.61-.58-1.93-.49-2.91-.74-4.92,8.31-9.41,16.83-14.82,24.81Z"/><path class="cls-1" d="M160.3,1113.35c-.56-.14-1.11-.22-1.67-.33,.88,2.36,1.9,4.62,2.58,7,.9,3.23,3.98,5.55,7.49,5.56,.56,.02,1.11,0,1.64,.02-4.1-.18-6.47-1.61-7.59-5.53-.62-2.29-1.6-4.46-2.45-6.72Z"/><path class="cls-1" d="M160.21,1113.07l.09,.28c5.76,1.06,11.51,2.44,17.3,2.85,7.24,.52,14.51,.97,21.79,1.24-6.72-.28-13.5-.69-20.21-1.2-6.39-.46-12.66-2.07-18.97-3.18Z"/><path class="cls-1" d="M160.3,1113.35c.85,2.26,1.83,4.43,2.45,6.72,1.12,3.92,3.49,5.35,7.59,5.53,1.9,.02,3.77,.08,5.67,.16,2.23,.06,4.49,.13,6.72,.25,4.49,.19,8.95,.41,13.44,.6,2.56,.1,5.08,.21,7.64,.28,4.1,.09,8.23,.17,12.33,.23,9.77,.15,19.57,.28,29.34,.46,5.21,.12,10.39,.23,15.6,.38,11.83,.37,23.7,.61,35.56,1.07,9.8,.37,19.63,.87,29.39,1.71,30.85,2.62,61.62,6.32,92.39,9.87,12.28,1.44,24.75,2.51,35.9,8.73,6.14,3.41,12.39,6.63,18.64,9.88,17.08,8.88,34.19,17.69,51.3,26.54-.13-.38-.28-.69-.54-.89-15.1-11.77-30.16-23.54-45.36-35.2-5.09-3.91-10.58-7.01-17.22-8.1-23.06-3.86-46.05-8.18-69.11-11.82-34.58-5.43-69.3-9.99-104.24-11.42-3.8-.14-7.64-.25-11.47-.33-20.26-.36-40.53,.09-60.83-.18-.52-.01-1.02,0-1.54-.04-4.85-.04-9.7-.18-14.55-.35-7.28-.27-14.55-.72-21.79-1.24-5.8-.41-11.55-1.79-17.3-2.85Z"/><path class="cls-1" d="M170.34,1125.61c.23,.04,.49,.05,.75,.05,1.64,.02,3.28,.06,4.92,.11-1.9-.09-3.77-.14-5.67-.16Z"/><path class="cls-5" d="M217,377.38c.16,.44,.35,.88,.5,1.32,.37-.52,.74-1.04,1.11-1.58-.53,.11-1.09,.19-1.61,.26Z"/><path class="cls-1" d="M216.13,1127.12c9.77,.18,19.57,.28,29.34,.46-9.77-.18-19.57-.31-29.34-.46Z"/><path class="cls-1" d="M270.89,189.83c1.35-.55,2.83-.91,4.03-1.66,26.45-16.15,52.49-32.91,79.36-48.43,28.23-16.35,58.4-29.11,89.62-39.66,34.65-11.7,70.07-20.42,106.61-25.38,22.35-3,44.62-5.72,67.26-6.67,29.83-1.2,59.56-.64,89.33,1.82,31.01,2.59,61.74,7.26,91.85,14.82,41.94,10.58,82.41,25,120.7,44.92,24.23,12.62,47.3,26.86,68.85,43.29,13.55,10.27,26.76,20.99,39.27,32.38,14.32,12.99,28.15,26.53,41.38,40.49,19.29,20.38,36.59,42.25,52.77,64.9,18.87,26.46,35.89,53.92,50.09,82.88,.99,1.95,1.24,4.57,.88,6.71-5.21,31.15-10.64,62.23-15.95,93.37-1.95,11.26-3.66,22.55-5.45,33.85,16.58-5.46,33.13-10.9,49.71-16.36,.49-.17,1.02-.34,1.52-.52v-.31c6.14-42.03,12.17-84.06,18.47-126.06,.77-4.95-.25-9.02-2.94-13.26-20.36-31.87-43.47-61.9-67.94-91.06-22.54-26.9-47.13-51.97-73.96-74.95-22.94-19.64-46.76-38.31-70.63-56.92-8.42-6.61-17.68-12.62-27.37-17.34-21.77-10.56-43.65-21.07-66.24-29.88-25.26-9.89-51.13-18.64-77.14-26.53-32.38-9.84-65.59-16.5-99.23-21.1-28.54-3.89-57.22-6.32-85.9-5.33-27.5,.96-55.13,2.1-82.01,8.17-20.83,4.72-41.72,9.16-62.24,14.83-32.37,8.9-64.06,19.84-94.25,33.99-25.34,11.9-50.04,24.99-74.99,37.56-4.26,2.12-8.49,4.23-12.72,6.35l.1,.13c-.89,.44-1.78,.85-2.68,1.29l.03-.09s-.03,.03-.07,.06c-.99,.66-2.02,1.37-3.02,2.06-7.17,5.24-14.52,10.28-21.4,15.8-8.77,7.05-17.15,14.52-25.69,21.83Z"/><path class="cls-4" d="M316.62,165.7c1.42-.46,2.86-.76,4.19-1.37,8.46-3.92,16.78-8.07,25.34-11.84,15.55-6.83,31.14-13.63,46.91-19.99,5.97-2.41,13.25-2.39,18.71-5.4,12.31-6.8,23.84-14.8,36.63-22.95-48.58,13.26-90.58,36.37-131.77,61.55Z"/><path class="cls-5" d="M323.61,148.75c4.23-2.12,8.46-4.23,12.72-6.35,24.95-12.56,49.66-25.66,74.99-37.56,30.19-14.15,61.88-25.09,94.25-33.99,20.52-5.66,41.41-10.1,62.24-14.83,26.89-6.07,54.52-7.21,82.01-8.17,28.68-.99,57.37,1.44,85.9,5.33,33.64,4.59,66.85,11.26,99.23,21.1,26.01,7.89,51.88,16.64,77.14,26.53,22.59,8.82,44.46,19.32,66.24,29.88,9.7,4.72,18.95,10.73,27.37,17.34,23.88,18.61,47.69,37.28,70.63,56.92,26.83,22.98,51.42,48.05,73.96,74.95,24.47,29.16,47.58,59.19,67.94,91.06,2.69,4.24,3.71,8.31,2.94,13.26-6.3,41.99-12.33,84.03-18.46,126.06v.31c45.75-15.2,91.44-30.44,137.16-45.64,7.55-2.52,15.07-5.1,22.55-7.63-.34-1.38-.46-2.28-.74-3.1-11.61-31.5-22.99-63.06-34.99-94.42-5.42-14.2-2.52-13.12,8.66-17.28-3.3-5.19-6.46-10.35-9.83-15.38-42.71-64.24-95.39-120-158.38-167.07-48.62-36.31-101.25-66-158.09-88.84-77.14-31.03-156.79-47.75-238.83-50.95-6.16-.24-12.39-.38-18.62-.47-12.26-.13-24.6,.02-36.96,.44-41.15,1.47-81.98,6.09-121.96,14.93-28.07,6.19-56.02,13.23-83.34,21.78-65.84,20.6-126.87,50.25-182.83,88.85-1.13,.78-1.96,1.93-2.93,2.93Z"/><path class="cls-1" d="M296.64,1129.04c9.27,.39,18.58,.87,27.82,1.66,30.85,2.62,61.62,6.32,92.39,9.87,12.31,1.44,24.75,2.51,35.9,8.73,6.14,3.41,12.39,6.63,18.64,9.88,17.76,9.21,35.52,18.38,53.29,27.56-.16-.32-.25-.66-.41-.98-17.11-8.85-34.22-17.66-51.3-26.54-6.25-3.25-12.49-6.48-18.64-9.88-11.15-6.22-23.63-7.29-35.9-8.73-30.77-3.55-61.54-7.25-92.39-9.87-9.76-.84-19.59-1.33-29.39-1.71Z"/><path class="cls-6" d="M328.11,738.75c.23,.1,.42,.23,.65,.33l.07-.09c-.23-.07-.46-.17-.72-.24Z"/><path class="cls-6" d="M328.83,738.99l-.07,.09c.16,.1,.32,.23,.52,.33-.16-.13-.29-.29-.45-.42Z"/><path class="cls-1" d="M348.83,1228.95l1.24,8.77c5.95-.67,11.89-1.37,17.84-2.1,23.56-3,46.76-8.12,70.23-11.59,12.1-1.77,24.44-2.88,36.67-2.66,9.05,.13,18.05,3.06,27.12,4.44,11.88,1.8,16.36,.09,20.08-6.7,2.8,1.14,5.51,2.33,8.31,3.31,22.08,7.71,44.67,14.29,66.17,23.33,24.83,10.46,48.74,22.86,72.88,34.74,14.06,6.93,19.84,6.31,28.94-5.52,2.91-3.74,5.95-3.22,9.61-2.24,39.71,10.73,79.38,21.53,119.13,32.17,4.7,1.25,6.93,3.62,7.38,8.2,1.46,15.52,12.57,20.09,24.98,17.59,18.49-3.73,36.92-8.18,54.88-13.67,44.94-13.64,87.83-31.88,129.6-52.44,1.75-.88,4.48-1.12,6.34-.5,18.5,6.03,36.93,12.27,55.33,18.54,52.68,17.91,105.33,36,160.29,46.61,14.09,2.73,28.28,5.81,42.56,6.77,17.17,1.17,34.49,.55,51.71,.2,26.01-.47,52.09-.85,78.05-2.23,32.3-1.72,64.54-4.19,96.78-6.79,28.66-2.29,57.12-5.99,85.16-12.09,3.45-.74,6.27-.26,9.38,1.76,10.62,6.83,24.8,5.62,33.89-2.74,2.56-2.35,4.54-5.31,6.92-8.16,.43,.07,1.01,.15,1.6,.29,13.78,3.81,25.41,0,32.06-11.8,5.63-10.03,10.81-20.48,14.69-31.25,17.28-47.99,23.24-98.05,26.68-148.48,1.62-23.95,2.42-47.98,2.63-71.97,.2-21-.33-42.09-1.61-63.07-1.55-24.97-4.24-49.88-9.59-74.49-3.94-18.32-8.65-36.39-17.3-53.36-3.98-7.82-8.52-15.44-16.07-20.72-13.27-9.23-28.08-14.32-44.42-15.78-16.54-1.5-32.88-.84-49.27,.9-25.39,2.7-50.87,4.89-76.26,7.53-27.99,2.93-55.97,6.09-83.93,9.24-15.74,1.76-31.41,3.8-47.15,5.68-11.1,1.3-22.21,2.57-33.71,3.89,.3-2.26,.46-4.12,.75-5.95,14.23-84.1,28.43-168.2,42.79-252.29,.32-1.73,2.03-3.83,3.71-4.62,32.28-15.55,64.69-30.82,96.94-46.41,3.7-1.76,7.15-4.55,9.79-7.58,8.15-9.37,7.65-23.74-.63-33.09-7.25-8.16-21.67-12.74-33.42-6.14-6.88,3.84-14.24,6.99-19.36,9.49-4.09-2.54-7.24-4.49-10.62-6.58,16.03-5.67,25.4-15.91,26.28-32.07,.59-10.8-3.72-20.37-10.27-29.01-5.78-7.62-11.87-15.04-18.18-22.27-15.69-17.97-31.28-36.07-47.53-53.59l-6.81,5.56c.16,.19,.29,.35,.32,.54,1.89,15.19,12.15,26.45,20.82,38.38,3.47,4.79,7.83,9.11,12.19,13.24,1.45,1.41,4.21,1.61,6.36,2.33,.23-2.04,.46-4.12,.65-6.2,.04-.56-.11-1.12-.25-2.74,3.64,4.3,6.8,7.81,9.72,11.5,6.11,7.73,12.49,15.3,18.03,23.39,4.81,7.1,6.39,15.25,4.58,23.53-2.05,9.2-8.08,15.34-17.6,18.24l.03-.12c-.92,.38-1.85,.72-2.77,1.1-4.33,2.08-9.84,2.52-19.86,1.24l-1.12,8.76c1.76,.39,3.6,.63,5.5,.65,4.88,.14,8.6,1.55,12.22,4.85,11.09,10.07,22.55,19.79,34.6,29.11-4-6.67-7.99-13.34-12.3-20.58,8.06-3.81,15.96-8.03,24.31-11.31,5.35-2.09,10.63-.2,14.76,3.78,4.75,4.55,6.07,10.09,4.63,16.14-1.16,4.94-4.33,8.64-9.06,10.87-6.11,2.87-12.19,5.78-18.3,8.65-27.78,13.13-55.6,26.23-83.45,39.27-2.38,1.14-3.61,2.48-4.05,5.04-14.35,85.12-28.76,170.24-43.27,255.36-.79,4.67-2.24,9.23-3.3,13.86-1.9,8.34-.35,16.43,5.88,22.48,8.53,8.23,18.02,15.65,27.42,23,5.02,3.93,10.91,6.81,16.14,10.47,2.82,2.01,5.44,2.05,8.6,1.33,22.71-5.2,45.45-10.36,68.22-15.4,17.74-3.91,35.5-7.69,53.3-11.32,1.97-.38,4.41,1.15,6.38,.77,4.77-.92,9.42-2.41,14.13-3.67,32.11-8.69,64.19-17.38,96.29-26.1,1.58-.42,3.07-1,4.61-1.48-.06-.28-.12-.53-.18-.81-7.95,1.05-15.94,2.03-23.86,3.18-13.67,1.97-27.31,4.04-40.96,6.14-15.29,2.33-30.57,4.79-45.86,7.06-11.54,1.72-23.11,3.29-34.67,4.83-23.13,3.07-46.27,6.14-69.43,9.12-14.62,1.85-29.31,3.52-43.96,5.18-1.15,.15-2.66,.11-3.5-.5-8.63-6.18-17.75-11.97-23.48-21.06-1.31-2.06-2.1-4.44-3.3-7.06,10.25-1.39,19.79-2.83,29.38-3.92,38.04-4.33,76.09-8.75,114.16-12.73,40.86-4.28,81.75-8.34,122.67-11.99,13.27-1.18,26.72,.17,39.76,3.4,20.25,5.05,33.04,17.57,40.13,36.14,6.36,16.71,11.54,33.68,14.02,51.18,3.19,22.62,6.38,45.31,8.12,68.04,1.56,20.09,1.63,40.29,1.45,60.43-.18,21.97-.88,43.95-2.31,65.88-3.17,49.73-8.79,99.11-25.08,146.63-3.75,10.96-9.25,21.37-14.14,31.95-5.4,11.72-19.18,12.63-27.15,4.26-1.23-1.28-2.49-2.56-4.39-4.54-1.52,4.99-2.66,8.69-3.77,12.42-1.87,6.19-6.48,9.98-12.9,10.98-6.21,.94-12.45-.76-15.64-6.29-1.79-3.07-1.26-7.37-1.56-11.14-.17-1.99,.16-4.04-.56-6.36-2.53,4.81-5.13,9.61-7.6,14.45-1.08,2.21-2.35,3.54-5.28,3.95-21.56,3.09-42.94,7.33-64.59,9.51-35.05,3.54-70.24,6.27-105.43,8.38-27.34,1.65-54.8,2.02-82.22,2.6-18.01,.36-36.05,.96-54.01-.07-13.37-.75-26.67-3.62-39.88-6.17-52.21-10.09-102.49-26.56-152.53-43.84-41.52-14.36-83.11-28.5-124.7-42.64-5.94-2-12.11-3.3-17.98-5.48-13.53-5.05-20.23-15.09-22.71-28.27-2.21-11.62-1.15-22.81,3.4-33.22,10.78,2.51,21.6,4.96,32.35,7.63l2.23-8.48c-5.65-1.43-11.3-2.84-16.95-4.27-4.15-1.05-8.26-2.1-12.38-3.18-1.21-.31-2.21-1.49-3.34-2.3l-9.87-4.48c-9.09-6.01-13.81-14.38-9.23-26.06,5.12-13.09,9.43-26.46,14.16-39.69,.58-1.6,1.59-3.06,1.99-3.8,2.35,.97,4.56,1.9,6.71,2.8l1.56-3.47c-1.24-.56-2.34-1.4-2.33-1.96,.17-2.73,1.75-3.15,3.66-3.16l-.38-9.09c-1.77,.17-3.58,.43-5.29,.88-9.98,2.67-16.18,9.55-18.12,20.15-2.04,10.94-6.07,21.36-11.18,31.32-8.89,17.28-1.75,30.16,10.06,38.11,3.89,2.63,4.65,4.95,3.11,8.98-5.88,15.31-5.24,30.9,.76,46.11,6.62,16.91,21.39,24.6,38.81,28.67,.59,.14,1.11,.4,1.66,.61,.39,.14,.82,.27,1.21,.41,.13-.12,.23-.24,.37-.36,5.74,2,11.45,3.99,17.19,5.96,9.36,3.09,18.69,6.19,28.06,9.28l.08,1.12c-18,7.97-35.87,16.23-54.05,23.82-29.25,12.19-59.12,22.87-90.01,31.01-8.79,2.33-17.84,4.06-26.79,5.89-3.32,.68-5.75,1.02-7.56,.81h-.03c-5.09,.17-6.26-2.39-7.03-9.93-.43-1.6-.87-3.16-1.34-4.76-2.83-5.92-7.82-9.3-14.45-11.07-39.97-10.74-79.91-21.63-119.88-32.37-7.28-1.95-14.59-2.59-20.48,3.27l-.03-.16c-.3,.33-.63,.67-.93,1.03l.04-.15c-.27,.46-.54,.92-.84,1.34v.4l-.4,.11c-.43,.52-.87,1-1.3,1.49v.31l-.3,.15-.2,.27c.59-.05,1.18-.12,1.77-.23-2.21,3.04-3.15,4.14-5.4,3.64-1.48,.33-3.43-.63-7.5-2.61-22.62-11.02-45.24-22.02-67.99-32.79-21.97-10.41-45.11-17.79-68.41-24.76-5.68-1.72-8.71-7.43-7.83-12.9,.18-1.11,.13-2.3-.04-3.48l-8.36,.17c.15,1.03-.26,2.2-1.11,3.64-2.83,4.8-5.04,9.93-8.2,14.53-.94,1.34-4.16,2.06-6.19,1.81-7.43-.96-14.82-2.25-22.14-3.74-11.83-2.39-23.58-2.13-35.28-.13-33.18,5.71-66.14,12.38-99.68,16.06Zm1060.39-337.46c.04-.53,.11-1.02,.16-1.55,9.13-.64,18.22-1.28,27.74-1.98-7.64,1.87-14.88,3.83-22.25,5.3-1.68,.33-3.75-1.13-5.65-1.78Zm-.11-525.08c11.43,11.36,21.57,23.58,27.6,38.39,.36,.35,.71,.67,1.07,1.02-.17,.15-.3,.3-.47,.48-.39-.38-.81-.77-1.2-1.12-11.36-11.48-20.31-24.45-27.01-38.78Z"/><path class="cls-1" d="M287.79,1118.35c34.94,1.43,69.66,5.99,104.24,11.42,23.06,3.64,46.05,7.96,69.11,11.82,6.64,1.09,12.13,4.2,17.22,8.1,15.2,11.65,30.26,23.42,45.36,35.2,.26,.19,.42,.51,.54,.89,.65,.33,1.33,.69,1.98,1.02-.32-.63-.44-1.47-.95-1.86-15.1-11.77-30.2-23.55-45.36-35.2-5.09-3.91-10.58-7.01-17.25-8.1-23.03-3.86-46.01-8.18-69.11-11.82-35.07-5.53-70.28-10.11-105.78-11.46Z"/><path class="cls-5" d="M528.75,885.21c-3.4,11.99-.16,22.75,6.73,32.86,8.69,12.83,20.1,23.45,31.84,33.69,33.1,28.85,69.64,53.45,106.65,77.4,8.73,5.66,17.88,9.8,28.53,10.29,10.1-.02,18.75-3.63,26.58-9.31,16.32-11.87,32.64-23.78,48.93-35.69,1.43-1.08,2.66-2.38,3.86-3.68,7.21-7.97,7.49-11.5,1.57-20.59-16.62-25.4-33.18-50.82-49.97-76.1-1.79-2.69-4.85-4.64-7.34-6.95-23.18-8.71-47.31-13.25-71.87-15.75-19.68-2.02-39.43-3.7-59.15-4.85-14.91-.86-29.89-1.13-44.57,2.12-10,2.23-18.82,5.9-21.8,16.57Z"/><path class="cls-1" d="M530.19,1190.84c-.59-.27-1.14-.53-1.73-.79,.36,2.15,1.05,4.41,1.34,6.56,.18,1.19,.23,2.37,.04,3.48-.87,5.48,2.15,11.19,7.83,12.9,23.31,6.97,46.44,14.34,68.41,24.76,22.75,10.78,45.37,21.77,67.99,32.79,4.07,1.98,6.02,2.94,7.5,2.61-1.31-.32-3.1-1.21-5.93-2.56-22.62-11.02-45.27-22.02-67.99-32.79-21.97-10.41-45.14-17.79-68.41-24.76-5.68-1.72-8.71-7.43-7.83-12.9,.47-2.94-.66-6.17-1.23-9.3Z"/><path class="cls-1" d="M530.03,1190.09c.03,.25,.09,.5,.15,.75,2.08,.96,4.2,1.92,6.15,3.1,13.51,8.25,26.79,16.83,40.81,24.31,30.51,16.31,61.55,31.68,92.53,47.23,4.13,2.08,8.39,4.37,13.25,4.26-4.23-.34-8-2.37-11.71-4.22-29.12-14.63-58.34-29.1-87.13-44.37-15.9-8.41-31.03-18.26-46.53-27.37-2.4-1.44-5.01-2.47-7.52-3.69Z"/><path class="cls-1" d="M531.42,1200.14c-.87,5.48,2.15,11.19,7.83,12.9,23.27,6.97,46.44,14.34,68.41,24.76,22.72,10.78,45.37,21.77,67.99,32.79,2.83,1.35,4.62,2.24,5.93,2.56,1.22-.25,2.12-1.34,3.63-3.41-.79,.07-1.54,.05-2.3,0-4.86,.11-9.12-2.19-13.25-4.26-30.98-15.55-62.02-30.91-92.53-47.23-14.02-7.48-27.3-16.07-40.81-24.31-1.95-1.17-4.07-2.14-6.15-3.1,.57,3.12,1.7,6.36,1.23,9.3Z"/><path class="cls-1" d="M653.71,1137.01c-22.46,1.6-38.35,19.79-36.26,41.61,1.99,21.38,20.48,37.01,41.95,35.53,21.73-1.53,37.96-20.27,36.07-41.71-1.78-20.75-20.84-36.89-41.75-35.44Zm-25.95,40.75c-1.4-15.58,10.46-29.51,26.16-30.77,15.43-1.24,29.28,10.5,30.75,26.11,1.55,16.05-10.14,29.86-26.16,30.96-15.4,1.05-29.34-10.87-30.74-26.3Z"/><path class="cls-3" d="M653.91,1147c-15.69,1.26-27.55,15.19-26.16,30.77,1.4,15.42,15.35,27.35,30.74,26.3,16.02-1.1,27.71-14.91,26.16-30.96-1.46-15.61-15.31-27.35-30.75-26.11Zm-19.81,29.4c-.71-9.16,10.05-19.73,20.68-20.42,11.39-.73,21.56,7.48,22.57,18.23,1.07,11.31-7.67,20.79-19.88,21.62-11.29,.77-22.56-8.6-23.37-19.44Z"/><path class="cls-1" d="M654.79,1155.97c-10.64,.69-21.39,11.26-20.68,20.42,.81,10.84,12.08,20.2,23.37,19.44,12.21-.83,20.95-10.31,19.88-21.62-1.01-10.75-11.18-18.97-22.57-18.23Zm-15.16,21.48c-.94-8.82,5.94-16.83,15.1-17.57,9.23-.73,17.26,5.71,18.1,14.53,.88,8.88-5.9,16.89-15.03,17.72-8.83,.81-17.25-5.99-18.17-14.69Z"/><path class="cls-3" d="M654.73,1159.89c-9.16,.73-16.04,8.74-15.1,17.57,.91,8.7,9.33,15.49,18.17,14.69,9.13-.83,15.91-8.84,15.03-17.72-.85-8.82-8.88-15.26-18.1-14.53Z"/><path class="cls-1" d="M636.36,1075.58c6.47-.75,12.82-1.75,19-3.19,25.28-5.93,49.9-13.69,73.88-23.23,29.5-11.75,56.78-26.36,79-48.57,9.79-9.79,11.31-14.22,5.57-27.04-2.73-6.04-5.72-12.03-8.84-17.93-11.44-21.49-25.66-41.19-42.66-59.11-24.94-26.29-52.31-50.16-81.01-72.7-1.49-1.16-3.31-1.99-4.97-3l-.17,.18,25.06,33.25c8.29,10.96,16.61,21.92,24.9,32.87,2.49,2.31,5.54,4.26,7.34,6.95,16.79,25.28,33.35,50.7,49.97,76.1,5.93,9.09,5.64,12.62-1.57,20.59-1.2,1.3-2.43,2.6-3.86,3.68-16.29,11.91-32.61,23.81-48.93,35.69-7.83,5.68-16.48,9.29-26.58,9.31-1.72,.95-3.49,2.76-5.16,2.68-5.11-.27-10.42-.64-15.25-2.11-5.65-1.68-10.88-4.6-16.29-6.99l-.13,.15c.97,1.08,1.73,2.44,2.93,3.25,6.75,4.54,13.57,8.93,20.71,13.58-15.82,11.3-34.36,18.39-52.97,25.56Z"/><path class="cls-6" d="M664.26,1031.93c.16,.13,.32,.26,.52,.36-.06-.13-.13-.25-.22-.32-.06-.06-.2-.04-.29-.04Z"/><path class="cls-6" d="M664.78,1032.28l.9,.9,.13-.15c-.32-.26-.68-.49-1.04-.74Z"/><path class="cls-6" d="M675.44,820.04c.22,.32,.48,.64,.74,.95l.17-.18c-.19-.35-.42-.7-.61-1.04-.1,.09-.3,.21-.3,.27Z"/><path class="cls-1" d="M681.59,1273.15c2.25,.5,3.19-.59,5.4-3.64-.59,.11-1.18,.18-1.77,.23-1.51,2.07-2.41,3.16-3.63,3.41Z"/><path class="cls-1" d="M682.92,1269.74c.75,.05,1.51,.07,2.3,0l.2-.27c-.86,.16-1.68,.26-2.5,.27Z"/><path class="cls-4" d="M733.29,94.1c2.6,1.53,3.96,2.35,5.43,3.2-.58,1.6-1.03,2.95-1.65,4.71,5.61,1.99,10.89,3.91,16.24,5.71,33.31,11.26,66.07,23.6,96.66,40.82,5.04,2.82,11.11,4.73,16.87,5.36,15.58,1.66,31.25,2.5,46.91,3.32,2.06,.09,4.78-1.54,6.28-3.12,2.27-2.45-.09-4.54-1.93-6.36-9.91-9.82-22.01-16.54-34.81-22.34-37.32-16.85-76.66-27.73-116.39-37.68-8.46-2.11-16.76-2.12-24.74,1.04-3.04,1.16-5.59,3.32-8.87,5.34Z"/><path class="cls-1" d="M799.23,813.68c-10.57,.38-19.06,8.56-18.48,17.81,.56,8.5,9.21,15.21,19.15,14.81,9.78-.37,18.7-8.89,18.18-17.35-.58-9.34-8.35-15.65-18.85-15.27Z"/><path class="cls-1" d="M806.32,1084.91c-11.93,1.65-17.73,11.99-11.91,21.45,4.54,7.37,11.71,10.4,18.46,10.53,14.51-.96,21.37-11.95,15.49-21.78-4.06-6.77-13.92-11.34-22.04-10.2Z"/><path class="cls-1" d="M845.83,1305.67l1.11,4.41c3.16,3.76,6.81,4.64,11.7,2.88,10.72-3.86,21.94-6.59,32.28-11.11,27.34-11.97,54.42-24.4,81.38-37.13,10.27-4.87,19.95-10.99,29.84-16.56-.36-.1-.68-.24-1.04-.34-5.32-1.83-10.63-3.69-15.98-5.55-.5,.51-.97,1.06-1.6,1.38-21.61,10.76-42.85,22.31-65.04,31.96-21.33,9.28-43.64,16.57-65.55,24.68-3,1.13-6,2.1-7.1,5.36Z"/><path class="cls-1" d="M858.42,784.34c-4.17,10.57-3.47,20.51,5.84,29.01,2.65,2.44,5.07,5.15,7.52,7.8,21.54,23.27,43.05,46.6,64.66,69.81,30.25,32.47,60.54,64.87,90.9,97.22,5.06,5.4,10.36,10.55,15.59,15.77,.48-5.39,.99-10.82,1.47-16.21,.04-.31,.04-.62,.08-.93-.68-.39-1.3-.81-1.82-1.36-17.32-18.64-34.64-37.28-51.86-55.99-19.19-20.81-38.24-41.68-57.36-62.54-18.06-19.78-36.11-39.6-54.2-59.35-4.9-5.33-7.4-11.43-5.65-18.22,.11-.43,.24-.86,.38-1.29,.9-3.18,2.16-6.25,3.49-9.32,.17-.49,.38-.98,.61-1.47,.48-1.23,.99-2.49,1.47-3.72h.1c4.05-9.49,9.2-19.94,12.25-22.18l.03-.06c.03-.06,.03-.09,.07-.15-5.58,.65-6.99-6.26-10.81-9.07-2.64,5.55-20.51,36.56-22.76,42.27Z"/><path class="cls-5" d="M846.95,1310.08c.68,6.58,1.69,9.31,5.42,9.73h.03c1.57-.05,3.55-.36,5.98-.85,8.98-1.83,17.99-3.56,26.82-5.89,30.85-8.14,60.73-18.82,89.98-31.01,18.19-7.59,36.06-15.85,54.05-23.82-.02-.56-.02-.59-.08-1.12-8.97-2.99-18.01-5.95-27.01-8.94-9.89,5.56-19.56,11.69-29.84,16.56-26.96,12.72-54.04,25.16-81.38,37.13-10.33,4.52-21.56,7.25-32.28,11.11-4.88,1.76-8.54,.88-11.7-2.88Z"/><path class="cls-1" d="M852.4,1319.81c1.8,.21,4.23-.13,7.56-.81,8.95-1.83,17.99-3.56,26.79-5.89,30.89-8.13,60.76-18.82,90.01-31.01,18.19-7.59,36.06-15.85,54.05-23.82l-.08-1.12c-9.36-3.09-18.69-6.19-28.06-9.28-.17,.09-.36,.21-.53,.3,9,2.99,18.04,5.95,27.01,8.94,.06,.53,.06,.56,.08,1.12-18,7.97-35.87,16.23-54.05,23.82-29.25,12.19-59.12,22.87-89.98,31.01-8.82,2.33-17.84,4.06-26.82,5.89-2.43,.49-4.41,.81-5.98,.86Z"/><path class="cls-5" d="M873.6,789.34c-1.75,6.79,.75,12.89,5.65,18.22,18.09,19.75,36.14,39.56,54.2,59.35,19.12,20.87,38.18,41.74,57.36,62.54,17.22,18.7,34.54,37.34,51.86,55.99,.52,.54,1.13,.96,1.82,1.36,.21-2.73,.22-5.49,.78-8.12,1.66-7.63,.2-12.74-7.42-18.21-19.42-14.01-33.86-32.38-45.61-52.7-17.56-30.4-21.2-62.01-10.69-94.53,14.58-45.15,29.93-90.05,45.1-135.03,9.11-27.03,18.48-53.99,27.73-80.98,.03-.06,.07-.09,.07-.15-18.18,5.02-36.49,9.68-54.45,15.39-5.01,1.6-9.21,6.11-13.08,9.92-18.08,17.7-35.13,36.3-49.26,57.03-1.91,2.8-3.83,5.64-5.67,8.48-13.34,20.29-27.24,43.7-39.85,63.26,2.58,3.06,5.68,5.88,7.63,9.26,4.63,8.15,1.06,13.77-8.68,13.96-3.81,.08-7.6-.53-11.43-.82-.54,1.26-1.09,2.52-1.57,3.72-.24,.49-.44,.98-.61,1.47-1.57,3.9-2.83,7.25-3.49,9.32-.14,.43-.28,.86-.38,1.29Z"/><path class="cls-1" d="M873.98,788.05c.66-2.06,1.92-5.42,3.49-9.32-1.33,3.07-2.59,6.14-3.49,9.32Z"/><path class="cls-1" d="M879.55,773.54c-.48,1.23-.99,2.49-1.47,3.72,.48-1.2,1.02-2.46,1.57-3.72h-.1Z"/><path class="cls-5" d="M891.86,751.51s0-.09,.04-.15c-3.05,2.24-8.2,12.7-12.25,22.18,3.83,.3,7.63,.9,11.43,.82,9.74-.19,13.31-5.81,8.68-13.96-1.95-3.38-5.05-6.2-7.63-9.26-.13,.24-.23,.34-.27,.37Z"/><path class="cls-1" d="M881.19,742.07c4.36,1.99,6.48,7.05,10.85,9.01,.1-.21,.24-.43,.27-.4,.61-1.44,1.1-2.98,1.94-4.33,12.54-19.5,24.81-39.17,37.74-58.47,1.85-2.84,3.76-5.67,5.67-8.48,14.13-20.73,31.18-39.33,49.26-57.03,3.86-3.81,8.07-8.32,13.08-9.92,17.96-5.71,36.27-10.37,54.45-15.39,2.94-5.54,5.78-11.09,8.65-16.66,1.17-1.55,2.38-3.07,3.61-4.53-2.01,.47-4.02,.94-6.02,1.44-19.72,5.1-39.51,10.07-59.17,15.38-4.87,1.32-10.73,2.59-13.83,5.82-14.77,15.59-29.9,31.07-42.69,48.08-18.89,25.01-35.99,51.25-53.57,77.14-3.93,5.79-6.85,12.21-10.22,18.33Z"/><path class="cls-1" d="M892.03,751.08c-4.36-1.96-6.48-7.02-10.85-9.01,3.83,2.81,5.23,9.72,10.81,9.07,0-.03,.03-.03,.03-.06Z"/><path class="cls-1" d="M892.03,751.08s.06,.06,.1,.06c.07-.15,.14-.31,.17-.46-.03-.03-.17,.18-.27,.4Z"/><path class="cls-1" d="M892.3,750.68c-.04,.15-.1,.31-.17,.46,12.6-19.56,26.51-42.97,39.85-63.26-12.93,19.31-25.2,38.97-37.74,58.47-.84,1.34-1.32,2.88-1.94,4.33Z"/><path class="cls-3" d="M938.73,1125.41c-4.58,11.68,.15,20.05,9.23,26.06,3.26-11.41,6.55-22.81,9.72-34.22,2.85-10.21,5.6-20.45,8.38-30.65-1.5-.6-2.96-1.23-4.46-1.87-2.15-.9-4.37-1.83-6.71-2.8-.4,.73-1.41,2.2-1.99,3.8-4.73,13.23-9.04,26.6-14.16,39.69Z"/><path class="cls-8" d="M957.96,504.01l.03,.03s.03-.03,.03-.06c-.03,0-.03,.03-.07,.03Z"/><path class="cls-1" d="M958.23,503.59c-.07,.12-.14,.28-.2,.4,.1-.06,.17-.09,.23-.15,.03-.06-.03-.19-.03-.25Z"/><path class="cls-1" d="M947.96,1151.47l9.87,4.48c.96-2.77,1.89-5.54,2.82-8.34-4.72-6.75-4.51-13.68-2.19-21.23,3.59-11.68,6.27-23.63,9.24-35.48,.38-1.54,1.86-3.86-1.64-4.3-2.78,10.21-5.53,20.45-8.38,30.65-3.16,11.41-6.46,22.81-9.72,34.22Z"/><path class="cls-5" d="M955.93,1166.55c-4.56,10.41-5.62,21.6-3.4,33.22,2.48,13.19,9.18,23.23,22.71,28.27,5.87,2.19,12.05,3.48,17.98,5.48,41.59,14.14,83.18,28.28,124.7,42.64,50.04,17.27,100.31,33.74,152.53,43.84,13.21,2.55,26.51,5.42,39.88,6.17,17.95,1.04,36,.43,54.01,.07,27.42-.59,54.88-.96,82.22-2.6,35.19-2.11,70.38-4.84,105.43-8.38,21.64-2.18,43.03-6.42,64.59-9.51,2.93-.41,4.19-1.75,5.28-3.95,2.47-4.84,5.07-9.65,7.6-14.45,.72,2.32,.39,4.36,.56,6.36,.3,3.77-.22,8.07,1.56,11.14,3.19,5.53,9.43,7.23,15.64,6.29,6.41-1,11.03-4.78,12.9-10.98,1.11-3.73,2.25-7.43,3.77-12.42,1.9,1.98,3.16,3.26,4.39,4.54,7.97,8.37,21.76,7.46,27.15-4.26,4.89-10.58,10.39-20.99,14.14-31.95,16.29-47.52,21.91-96.9,25.08-146.63,1.42-21.93,2.13-43.92,2.31-65.88,.18-20.13,.1-40.34-1.45-60.43-1.74-22.74-4.93-45.42-8.12-68.04-2.48-17.51-7.66-34.47-14.02-51.18-7.09-18.57-19.88-31.08-40.13-36.14-13.03-3.23-26.49-4.58-39.76-3.4-40.92,3.65-81.81,7.71-122.67,11.99-38.07,3.98-76.11,8.4-114.16,12.73-9.59,1.09-19.13,2.53-29.38,3.92,1.21,2.61,1.99,5,3.3,7.06,5.73,9.08,14.85,14.87,23.48,21.06,.84,.61,2.35,.66,3.5,.5,14.65-1.67,29.34-3.33,43.96-5.18,23.17-2.98,46.3-6.05,69.43-9.12,11.57-1.54,23.13-3.1,34.67-4.83,15.28-2.27,30.57-4.73,45.86-7.06,13.64-2.1,27.28-4.17,40.96-6.14,7.92-1.14,15.91-2.13,23.86-3.18,.06,.28,.12,.53,.18,.81-1.55,.48-3.03,1.06-4.61,1.48-32.11,8.72-64.19,17.41-96.29,26.1-4.71,1.26-9.36,2.75-14.13,3.67-1.97,.38-4.41-1.15-6.38-.77-17.8,3.63-35.57,7.41-53.3,11.32-22.77,5.04-45.51,10.21-68.22,15.4-3.16,.72-5.78,.67-8.6-1.33-5.22-3.66-11.11-6.53-16.14-10.47-9.4-7.35-18.89-14.77-27.42-23-6.23-6.05-7.78-14.14-5.88-22.48,1.06-4.63,2.5-9.19,3.3-13.86,14.51-85.12,28.92-170.23,43.27-255.36,.43-2.57,1.67-3.9,4.05-5.04,27.85-13.04,55.66-26.14,83.45-39.27l-4.05-7.54c-12.05-9.32-23.51-19.04-34.6-29.11-3.62-3.3-7.34-4.71-12.22-4.85-1.9-.02-3.73-.26-5.5-.65-5.07-1.11-9.55-3.63-13.39-7.44-3.65-3.62-2.52-6.88,2.52-8.35,7.28-2.09,14.56-4.22,21.65-6.75,5.74-2.04,9.7-5.94,10.39-12.11,.54-4.93-2.54-9.3-7.76-9.3-6,.02-12.11,.87-17.91,2.26-14.48,3.5-29.06,6.85-43.14,11.48-30.99,10.25-61.97,20.52-92.93,30.86l2.55,6.66c1.62,7.5,3.12,14.6,4.74,22.23,7.35-2.68,14.25-5.16,21.14-7.7,20.28-7.38,40.6-14.73,60.85-22.26,7.85-2.92,14.74-.92,20.4,4.15,9.02,8.06,17.41,16.75,26.04,25.2,1.39,1.34,2.71,2.78,4.39,4.48-22.85,12.19-46.59,22.3-70.74,31.55l5.41,6.56c-1.86,11.85-2.7,23.95-5.8,35.51-9.19,34.36-12.96,69.68-19.34,104.53-7.71,42.05-14.63,84.21-21.88,126.33,2.44,9.8-2.07,19.05-2.15,28.66-.07,8.7,2.8,16.33,8.99,22.85,1.07,1.09,2.13,2.14,3.13,3.29,6.54,7.43,14.15,13.89,20.69,21.44,9.63,11.15,22.15,20.08,33.44,29.98,1.1,.96,2.23,1.9,3,3.44l2.3,7.93c10.93-2.7,21.86-5.41,32.79-8.14,28.91-7.23,57.84-14.52,86.75-21.74,25.68-6.45,51.36-12.9,77.04-19.29,9.12-2.26,18.33-4.3,27.71-6.48,1.73,4.43,3.48,7.99,4.57,11.72,3.39,11.84,6.55,23.74,9.71,35.61,2.48,9.21,2.57,9.61-7.05,12.39-37.75,10.89-75.47,21.79-113.41,32.11-24.21,6.58-48.69,12.26-73.15,18.09-22.81,5.44-45.72,10.6-68.59,15.83-10.99,2.52-22.08,4.78-33.04,7.42-11.78,2.87-23.48,6.01-35.2,9.01l-.38-.66c4.51-3.29,9.06-6.58,13.93-10.11-9.28-12.45-18.37-24.61-27.43-36.74-11.09,2.79-21.79,5.47-32.92,8.26,7.04,9.15,13.66,17.82,20.28,26.5,1.29,1.65,2.2,3.89,3.89,4.83,3.41,1.84,4.48,4.82,3.46,7.5-.75,1.94-3.67,3.94-6,4.4-13.78,2.81-27.63,5.37-41.54,7.61-21.83,3.54-43.66,2.95-65.53-1.37-24.88-4.9-49.83-9.4-75.01-14.13,1.69-15.9,3.34-31.11,4.88-45.7-12.69-4.21-24.79-8.26-37.06-12.3-.75,10.02-.64,20.31-2.5,30.23-1.64,8.75,.99,14.48,8.82,18.71,.33,.16,.45,.67,.93,1.49-8.87-1.15-17.37-2.73-25.69,.61-3.04,1.22-6.45,1.74-9.71,2.46-16.45,3.63-29.89,11.36-39.06,25.12-4.67,7.02-8.58,14.18-9.93,22.62-1.02,6.37-1.46,7.45,5.06,9.62,1.89,.61,3.82,1.2,5.78,1.72,5.81,1.53,11.8,2.7,17.68,4.08,3.07,.71,4.73-.39,5.37-3.51,.75-3.68,2.41-7.17,3.22-10.82,1.73-7.6,7.27-11.67,14.51-13.57,12.31-3.22,25.1-3.05,37.53-1.05,24.93,4.03,49.64,9.18,74.49,13.68,24.95,4.53,50,9.22,75.46,6.15,23.82-2.87,47.48-5.92,70.58-13.1,18.09-5.64,37.57-7.39,56.29-11.36,21.65-4.54,43.21-9.46,64.7-14.57,34.07-8.08,68.23-15.9,102.05-24.79,34.81-9.14,69.3-19.32,103.85-29.25,3.99-1.13,7.59-3.33,11.56-5.11,1.13-7.02,2.32-14.35,3.49-21.66,.3,0,.59,.05,.88,.06,1.29,7.99,2.54,15.98,3.79,23.88,4.41,.78,8.57,1.52,14,2.48-4.05,1.31-6.76,2.36-9.56,2.99-3.92,.91-5.39,2.77-4.53,6.77,1.1,5.16,1.9,10.43,2.31,15.67,2.1,27,4.47,53.99,5.85,81,.85,16.74,.69,33.55-.06,50.28-1,21.79-2.88,43.49-4.69,65.23-.89,11.07-2.48,22.12-3.8,33.61-8.61-1.15-16.79-2.22-24.97-3.32-42.05-5.67-84.06-11.68-126.15-16.92-43.07-5.33-86.22-9.91-129.34-14.71-17.38-1.92-34.15-5.69-49.42-14.4-1.14-.65-2.41-1.03-3.81-1.63-6.08,7.19-11.96,14.17-17.91,21.18,15.44,10.57,32.13,17.54,50.52,20.02,38.42,5.16,76.88,9.99,115.33,14.75,36.69,4.55,73.35,8.89,110.04,13.23,16.5,1.96,32.96,3.77,49.46,5.51,1.7,.17,3.49-.62,5.2-.97-.66-1.76-.86-3.97-2.12-5.22-2.2-2.14-5.03-3.69-7.59-5.47,6.77,1.37,13.33,3.14,19.25,6.05,6.61,3.23,6.38,7.39,0,10.85-1.32,.71-2.68,1.45-4.13,1.81-7.57,1.77-15.05,3.92-22.74,5.01-18.83,2.6-37.7,5.3-56.68,6.87-38.65,3.22-77.33,6.26-116.06,8.39-27.67,1.54-55.41,1.63-83.13,2.11-11.55,.17-23.23,.77-34.58-.83-17.54-2.46-34.86-6.52-52.25-10.16-10.3-2.16-20.48-4.93-30.78-7.21-10.16-2.28-20.4-4.28-30.6-6.37l.12-1.12c7.48-.19,14.96-.48,22.47-.54,2.82-.01,4.77-.86,6.54-3.05,8.59-10.7,17.09-21.52,26.14-31.86,20.23-23.11,38.2-47.93,60.41-69.55,19.85-19.33,31.88-42.6,32.61-70.37,.2-8.57-.68-17.11-4.42-25.52-11.84,2.49-23.39,4.93-34.94,7.37,.79,8.35,2.18,16.04,2.09,23.71-.1,10.84-2.21,21.54-9.03,30.48-8.8,11.5-17.74,22.93-27.38,33.75-17.76,19.94-32.89,41.89-52.56,60.45-11.65,11.01-21.13,24.08-31.33,36.43-2.27,2.76-4.12,3.24-7.51,1.96-55.32-20.93-110.65-41.84-166.07-62.56-10.99-4.1-17.7-11.26-20.58-22-.31-1.16-1.76-2.66-2.97-2.94-10.75-2.67-21.56-5.12-32.35-7.63Zm683.61-300.74c-.28-.82-.4-1.69-.89-3.79,5.23,5.12,9.72,9.35,13.92,13.79,2.06,2.2,3.83,2.84,6.67,1.31,5.89-3.22,12.39-5.62,17.89-9.31,11.17-7.51,12.14-17.49,3.45-27.75-1.26-1.5-2.68-2.84-4.03-4.28-.39-.32-.74-.67-1.13-1,.07-.15,.17-.31,.27-.46,.55,.23,1.07,.47,1.63,.7,9.78,3.88,17.56,9.54,18.41,20.48,.57,7.63-3.65,13.42-9.37,18.04-2.79,2.22-2.68,3.93-1.55,6.92,2.74,7.1,4.89,14.37,7.58,22.53l4.26,6.31c.55,.3,1.14,.62,1.69,.92,18.02,7.57,23.76,28.15,12.24,43.83-1.31,1.8-2.55,3.84-4.37,5.03-4.67,3.13-4.44,7.24-4.22,12.12,1.07,23.93,2.3,47.86,2.26,71.79-.04,23.71-1.13,47.42-2.62,71.06-1.84,29.85-5.39,59.49-11.55,88.77-3.19,15.04-6.18,30.13-10.08,45-2.79,10.67-8.12,20.44-16.13,28.88,1.29-9.38,2.29-18.83,3.98-28.17,5.42-30.3,8.29-60.86,10.02-91.58,2.68-47.85,1.1-95.66-4.95-143.41-1.17-9.14-1.91-18.36-3.64-27.42-3.64-19.12-7.7-38.17-11.83-57.18-2.41-11.29-4.93-22.58-8.07-33.7-2.83-9.9-6.55-19.61-9.84-29.43Z"/><path class="cls-5" d="M960.65,1147.6c-.93,2.8-1.86,5.57-2.82,8.34,1.14,.81,2.13,1.99,3.34,2.3,4.12,1.08,8.23,2.13,12.38,3.18l1.56-5.71c-5.22-1.42-10-4.2-14.47-8.12Z"/><path class="cls-1" d="M961.63,1132.84c-.7,2.96,.65,6.39,1.03,9.6,.22-1.55,.21-3.16,.63-4.67,4.07-15.24,8.21-30.47,12.32-45.71l-3.04-.46c-3.72,13.85-7.61,27.47-10.94,41.24Z"/><path class="cls-3" d="M960.83,1079.3c0,.56,1.09,1.4,2.33,1.96,.72,.36,1.5,.63,2.12,.68,5.3,.52,1.87-3.99,3.24-6-1.22,.31-2.69,.14-4.04,.2-1.9,0-3.48,.43-3.66,3.16Z"/><path class="cls-5" d="M963.3,1137.77c-.42,1.51-.41,3.13-.63,4.67,5.55,8.21,13.96,10.9,23.48,10.4,1.12-.06,2.27-.15,3.42-.34,3.16-.56,6.1-1.88,7.5-5.41,3.47-12.24,6.97-24.51,10.51-36.75,.97-3.45,2.11-6.87,3.18-10.29,.15-.99,.29-1.95,.29-2.04-7.19-1.85-14.24-3.7-21.23-5.51-4.41-1.15-8.79-2.3-13.16-3.45-.28,.86-.65,1.94-1.03,3.02-4.11,15.24-8.25,30.47-12.32,45.71Z"/><path class="cls-5" d="M975.12,1155.72l-1.56,5.71c5.65,1.43,11.3,2.84,16.95,4.27,.2,.04,.36,.1,.56,.14,.88-3.55,1.78-7.07,2.66-10.62-1.09,.31-2.17,.65-3.26,.9-.39,.08-.76,.16-1.12,.22-5.1,.85-9.81,.59-14.22-.62Z"/><path class="cls-1" d="M981.54,813.23c-10.51,32.52-6.87,64.14,10.69,94.53,11.75,20.32,26.19,38.69,45.61,52.7,7.62,5.47,9.08,10.58,7.42,18.21-.57,2.63-.58,5.39-.78,8.12,.49,.32,1.01,.65,1.49,.97,.28-3.04,.23-6.12,.86-9.05,1.66-7.63,.2-12.74-7.46-18.21-19.39-14.01-33.83-32.38-45.58-52.7-17.6-30.4-21.2-62.01-10.69-94.53,14.58-45.15,29.93-90.05,45.1-135.03,9.18-27.24,18.62-54.42,27.93-81.63-.56,.17-1.15,.31-1.71,.45,0,.06-.03,.09-.07,.15-9.24,26.99-18.62,53.95-27.73,80.98-15.16,44.97-30.52,89.88-45.1,135.03Z"/><path class="cls-1" d="M770.25,20.28c82.03,3.2,161.69,19.92,238.83,50.95,56.84,22.84,109.46,52.53,158.09,88.84,62.98,47.07,115.67,102.83,158.38,167.07,3.36,5.04,6.53,10.19,9.83,15.38-11.18,4.16-14.08,3.08-8.66,17.28,12.01,31.36,23.38,62.92,34.99,94.42,.28,.82,.4,1.72,.74,3.1-7.48,2.52-15,5.11-22.55,7.63-45.72,15.2-91.41,30.44-137.16,45.64,0,.19,.03,.4,.06,.56,46.22-15.38,92.47-30.78,138.68-46.16,7.55-2.52,15.07-5.1,22.55-7.63-.34-1.38-.46-2.28-.77-3.1-11.61-31.5-22.96-63.06-34.96-94.42-5.45-14.2-2.55-13.13,8.66-17.28-3.3-5.19-6.46-10.35-9.83-15.38-42.74-64.24-95.43-120-158.41-167.08-48.59-36.31-101.25-66-158.09-88.84-77.59-31.23-157.78-47.93-240.37-51Z"/><path class="cls-1" d="M985.11,1242.28c5.35,1.86,10.67,3.72,15.98,5.55,.36,.1,.68,.24,1.04,.34,.17-.09,.36-.21,.53-.3-5.74-1.97-11.45-3.96-17.19-5.96-.13,.12-.23,.24-.37,.36Z"/><path class="cls-5" d="M994.12,814.27c-6.98,20.78-7.77,41.89-1.68,63.26,5.35,18.8,15.85,35.13,28.1,50.49,9.39,11.74,20.15,22.14,34.11,29.41,18.48,9.63,38.36,15.39,58.56,19.69,22.68,4.81,45.14,11.38,68.72,11.71,21.34,.3,42.26,.61,63.12-5.66,28.33-8.49,57.46-14.81,86.23-22.01,19.49-4.85,38.98-9.68,58.5-14.5l-2.3-7.93-22.56-10.62c-13.05-6.15-12.93-5.68-26.88-2.6-27.54,6.12-55.24,11.67-82.88,17.38-1.28,.24-3.18,0-4.12-.77-9.91-7.83-19.59-15.94-29.54-23.74-8-6.26-14.15-13.83-19.46-22.22-4.83-7.63-10.39-14.87-15.06-22.62-7.96-13.22-7.41-27.22-4.5-41.56,4.8-23.86,13.71-46.45,22.17-69.2,15.33-41.15,30.47-82.36,45.88-124.04-7.21-2.41-13.96-4.65-20.75-6.9,0-.22,.04-.47,.04-.68,7-1.04,13.94-2.49,21-3.01,13.56-1.04,25.68-6.29,38.11-10.6,19.98-6.95,39.8-14.28,59.6-21.71,2.11-.78,4.21-2.8,5.16-4.79,4.54-9.41,8.72-19.02,13.72-28.36l-5.41-6.56c-31.08,11.89-62.89,22.33-94.51,33.8,5.4-15.82,10.94-30.67,15.54-45.8,4.5-14.91,8.04-30.1,12.16-45.65l-2.55-6.66c-42.23,14.09-84.46,28.24-126.65,42.43-16.78,5.61-33.91,10.66-49.83,17.91-24.57,11.2-43.14,28.33-51.74,54-23.28,69.39-46.93,138.71-70.27,208.09Zm29.44,53.05c-4.2-14.85-2.72-29.79,2.17-44.29,23-68.28,46.24-136.49,69.01-204.87,5.64-16.93,17.82-27.93,33.67-35.31,12.09-5.62,25.14-9.45,37.86-13.81,23.61-8.09,47.31-15.93,70.88-24.09,4.15-1.44,7.63-1.27,11.52,1.29-6.48,18.25-12.84,36.59-19.51,54.83-22.16,60.66-44.65,121.21-66.65,181.94-7.71,21.19-13.23,43.01-14.53,65.6-.89,15.33,3.8,29.66,11.46,43.25,10.18,18.07,24.78,32.47,41.43,45.22,5.67,4.33,11.11,8.92,17.23,13.85-28.29,9.61-56.25,9.03-84.34,1.64-21.72-5.71-42.78-13.34-62.46-23.87-7.8-4.2-15.39-9.7-21.29-16.08-12.12-13.21-21.66-28.28-26.45-45.29Z"/><path class="cls-1" d="M990.5,1165.7l-2.23,8.48c1.21,.28,2.66,1.78,2.97,2.94,2.88,10.74,9.59,17.89,20.58,22,55.43,20.72,110.75,41.62,166.07,62.56,3.39,1.28,5.23,.8,7.51-1.96,10.19-12.36,19.68-25.42,31.33-36.43,19.67-18.55,34.8-40.5,52.56-60.45,9.65-10.82,18.58-22.25,27.38-33.75,6.83-8.94,8.93-19.64,9.03-30.48,.09-7.67-1.3-15.36-2.09-23.71,11.55-2.44,23.1-4.88,34.94-7.37,3.74,8.4,4.62,16.94,4.42,25.52-.73,27.76-12.77,51.04-32.61,70.37-22.21,21.62-40.17,46.44-60.41,69.55-9.05,10.34-17.55,21.16-26.14,31.86-1.77,2.19-3.72,3.03-6.54,3.05-7.51,.07-14.99,.35-22.47,.54l-.12,1.12c10.2,2.09,20.43,4.09,30.6,6.37,10.29,2.28,20.48,5.06,30.78,7.21,17.39,3.63,34.71,7.7,52.25,10.16,11.35,1.6,23.04,1,34.58,.83,27.72-.49,55.46-.57,83.13-2.11,38.73-2.13,77.41-5.17,116.06-8.39,18.98-1.57,37.84-4.27,56.68-6.87,7.69-1.09,15.17-3.24,22.74-5.01,1.45-.36,2.8-1.1,4.13-1.81,6.38-3.45,6.61-7.61,0-10.85-5.92-2.9-12.49-4.67-19.25-6.05,2.56,1.78,5.39,3.32,7.59,5.47,1.26,1.25,1.45,3.46,2.12,5.22-1.71,.36-3.49,1.14-5.2,.97-16.5-1.74-32.97-3.55-49.46-5.51-36.69-4.34-73.35-8.67-110.04-13.23-38.46-4.76-76.91-9.58-115.33-14.75-18.39-2.48-35.07-9.45-50.52-20.02,5.95-7.01,11.83-13.99,17.91-21.18,1.4,.6,2.67,.98,3.81,1.63,15.28,8.7,32.04,12.47,49.42,14.4,43.11,4.8,86.26,9.38,129.34,14.71,42.09,5.24,84.1,11.25,126.15,16.92,8.18,1.1,16.36,2.17,24.97,3.32,1.33-11.49,2.91-22.54,3.8-33.61,1.81-21.73,3.69-43.44,4.69-65.23,.75-16.73,.92-33.54,.06-50.28-1.38-27.02-3.75-54-5.85-81-.41-5.23-1.21-10.51-2.31-15.67-.86-4,.62-5.86,4.53-6.77,2.8-.64,5.5-1.68,9.56-2.99-5.43-.96-9.58-1.7-14-2.48-1.25-7.9-2.51-15.89-3.79-23.88-.3,0-.59-.05-.88-.06-1.16,7.3-2.36,14.63-3.49,21.66-3.96,1.78-7.57,3.98-11.56,5.11-34.56,9.93-69.05,20.1-103.85,29.25-33.82,8.89-67.98,16.71-102.05,24.79-21.49,5.11-43.05,10.03-64.7,14.57-18.72,3.97-38.2,5.72-56.29,11.36-23.1,7.18-46.76,10.23-70.58,13.1-25.46,3.07-50.51-1.62-75.46-6.15-24.85-4.5-49.56-9.64-74.49-13.68-12.43-2-25.22-2.18-37.53,1.05-7.24,1.91-12.78,5.98-14.51,13.57-.81,3.64-2.47,7.14-3.22,10.82-.64,3.12-2.3,4.22-5.37,3.51-5.88-1.38-11.86-2.54-17.68-4.08l-2.36,8.63c6.99,1.81,14.04,3.66,21.23,5.51,0,.09-.15,1.05-.29,2.04,1.01,.56,2.02,1.15,3.28,1.86-4.41,13.58-8.72,27.13-13.29,40.61-.58,1.72-2.44,3.04-3.68,4.56-1.4,3.53-4.34,4.85-7.5,5.41l.89,3.63c1.09-.25,2.17-.59,3.26-.9,6.36-2.24,10.01-6.74,11.94-12.78,4.31-13.55,8.75-27.1,13.19-40.62,.59-1.79,.79-4.39,4.08-2.74,18.77,3.61,37.53,7.25,56.33,10.83,10.82,2.08,21.75,3.7,32.47,6.14,14.54,3.27,25.08,11,28.49,25.64,4.12,17.65-6.43,33.91-24.42,39.21-14.5,4.28-28.7,2.63-43.16-.01-23.02-4.2-46.08-8.27-69.1-12.41-.39-.17-.78-.33-1.17-.53l-.13-.1c-3.73-.67-7.46-1.36-11.18-2.03-.2-.04-.36-.1-.56-.14Zm21.62,22.59c-4.72-1.94-7.65-5.72-9.11-11.04,19.23,3.47,38.1,6.89,56.97,10.29,7.91,1.53,15.82,3.03,23.74,4.53,22.66,2.07,43.35-1.78,60.02-17.41,12.75-11.98,17.53-26.45,13.89-43.39-5.01-13.07-14.81-21.83-27.67-27.89-22.36-8.65-46.12-11.91-69.32-17.32l-2.03,8.24c18.95,4.39,37.97,8.82,56.95,13.43,9.64,2.33,18.32,6.8,25.16,14.08,9.22,9.9,11.09,22.6,4.87,34.51-.1-4.35,.36-8.63-.33-12.75-2.88-17.49-14.66-27.49-32.05-31.15-27.65-5.88-55.51-10.84-83.27-16.2-1.47-.29-2.94-.61-4.15-.86,1.84-2.53,3.65-5.06,5.36-7.43,.65,.14,1.34,.32,1.99,.46l2.21-9.04c-2.06-.52-4.15-.93-6.21-1.39,.28-5.31,2.29-7.86,8.04-8.63,6.21-.82,12.52-1.35,18.81-1.33,18.04,.05,35.34,4.98,52.79,8.68,8.21,1.45,16.45,2.86,24.66,4.28,16.16,2.51,32.29,5.18,48.48,7.41,6.97,.98,14.05,1.02,21.62,1.55,4.03,8.6,7.04,17.36,3.28,27.47-5.72,15.35-15.04,28.38-26.27,40.34-23.34,24.79-51.26,44.32-80.53,62.29-1.16,.71-3.26,.96-4.53,.49-10.99-4.13-21.87-8.48-32.82-12.77-6.42-2.48-12.88-5-19.3-7.48-10.43-3.96-20.93-7.77-31.26-11.95Zm166.52,63.13c-22.11-8.09-44.25-16.18-66.88-24.43,31.08-18.6,61.5-36.82,92.42-55.37,8.18,5.39,17.33,11.4,26.78,17.57-17.34,20.61-34.68,41.25-52.32,62.22Zm20.54-95.48c4.57-6.89,9.07-13.67,13.77-20.71,13.6,8.68,27.05,17.3,40.91,26.18-5.48,6.65-10.8,13.09-16.41,19.89-12.76-8.44-25.38-16.82-38.27-25.36Zm23.5-47.63c-1.57-6.48-3.08-12.64-4.75-19.34,6.04-.42,11.65-.82,17.27-1.22l.2-.37c-.03,.12-.1,.25-.17,.4-2.23,4.44-4.27,9.02-6.8,13.36-1.48,2.57-3.75,4.74-5.75,7.17Zm11.94,159.62c14.95-16.36,29.43-32.23,44.31-48.53,1.46,.88,3.28,1.9,5,3,19.97,12.87,42.51,18.21,65.85,21.05,29.65,3.61,59.35,7,89.03,10.55,42.72,5.13,85.43,10.32,128.14,15.48-.04,.4-.11,.8-.15,1.24-7.1,.95-14.17,2.24-21.33,2.84-31.75,2.67-63.48,5.69-95.28,7.55-27.51,1.61-55.09,2.04-82.68,2.62-18.14,.39-36.35,.89-54.47-.03-11.53-.58-23-3.3-34.41-5.67-14.35-2.96-28.56-6.53-44.02-10.11Zm104.99-75.02c-9.88-1.34-19.25-6.39-30.44-10.28,7.46-9.17,13.94-17.1,20.36-25.03,14.95-18.47,23.4-39.33,24.2-62.87,.18-5.09,0-10.23-.68-15.28-.65-4.9-2.11-9.66-3.34-15.04,92.46-21.86,185.76-41.4,276.53-70.55,12.02,78.78,11.35,157.18,.98,235.95-16.65-2.46-33.04-5.17-49.54-7.31-33.55-4.37-67.16-8.56-100.77-12.69-45.76-5.59-91.62-10.72-137.3-16.89Z"/><path class="cls-1" d="M993.72,1155.23c-.88,3.55-1.78,7.07-2.66,10.62,3.73,.67,7.46,1.36,11.18,2.03,.22-1.39,.31-2.85,.69-4.21,5.16-17.38,10.28-34.76,15.54-52.11,1.28-4.22,2.95-8.31,4.46-12.46-3.29-1.65-3.49,.96-4.08,2.74-4.44,13.52-8.88,27.07-13.19,40.62-1.93,6.04-5.58,10.53-11.94,12.78Z"/><path class="cls-1" d="M1007.57,1110.34c-3.54,12.24-7.04,24.51-10.51,36.75,1.24-1.52,3.09-2.83,3.68-4.56,4.57-13.48,8.88-27.03,13.29-40.61-1.27-.72-2.28-1.31-3.28-1.86-1.07,3.42-2.21,6.84-3.18,10.29Z"/><path class="cls-3" d="M1002.24,1167.87l.13,.1c.39,.2,.78,.36,1.17,.53,23.02,4.14,46.08,8.21,69.1,12.41,14.45,2.65,28.66,4.3,43.16,.01,17.99-5.3,28.54-21.57,24.42-39.21-3.41-14.64-13.95-22.37-28.49-25.64-10.72-2.45-21.65-4.07-32.47-6.14-18.8-3.58-37.57-7.22-56.33-10.83-1.51,4.15-3.18,8.24-4.46,12.46-5.26,17.35-10.38,34.73-15.54,52.11-.38,1.36-.47,2.81-.69,4.21Z"/><path class="cls-5" d="M1003.02,1177.25c1.46,5.32,4.38,9.11,9.11,11.04,10.33,4.18,20.83,7.99,31.26,11.95,4.71-3.16,9.44-6.26,14.09-9.51,1.06-.75,1.67-2.1,2.51-3.19-18.87-3.4-37.74-6.82-56.97-10.29Z"/><path class="cls-1" d="M1025.72,823.04c-4.88,14.5-6.36,29.44-2.17,44.29,4.78,17.01,14.32,32.08,26.45,45.29,5.9,6.38,13.49,11.88,21.29,16.08,19.68,10.54,40.74,18.16,62.46,23.87,28.09,7.39,56.05,7.96,84.34-1.64-6.12-4.93-11.56-9.53-17.23-13.85-16.66-12.75-31.25-27.15-41.43-45.22-7.66-13.58-12.35-27.92-11.46-43.25,1.3-22.59,6.82-44.4,14.53-65.6,22-60.72,44.49-121.28,66.65-181.94,6.68-18.24,13.03-36.58,19.51-54.83-3.9-2.57-7.37-2.73-11.52-1.29-23.57,8.16-47.28,16-70.88,24.09-12.73,4.36-25.77,8.19-37.86,13.81-15.86,7.38-28.03,18.38-33.67,35.31-22.78,68.38-46.01,136.59-69.01,204.87Zm7.58,37.82c-1.89-11.06-1.27-21.92,2.24-32.35,23.53-70.35,47.32-140.62,71.07-210.87,3.51-10.4,11.84-16.88,20.85-22.84,10.93-7.24,23.74-10.23,36.04-14.42,22.32-7.63,44.74-15.04,67.12-22.52,.53-.17,1.18-.18,1.74-.26-.57,11.11-6.85,16.71-17.8,20.32-19.22,6.35-37.74,14.53-56.61,21.82-5.61,2.17-11.47,3.75-17.18,5.79-13.82,4.95-23.37,13.97-27.81,27.43-8.78,26.73-17.56,53.48-26.11,80.28-12.9,40.47-25.53,81.01-38.49,121.48-7.03,21.99,.02,40.96,14.41,58.31,13.07,15.79,29.74,27.26,48.53,36.28,4.3,2.08,7.92,5.48,11.37,8.9-18.44-5.78-36.58-11.79-52.78-21.86-8.54-5.31-14.92-12.73-20.14-21.02-6.85-10.92-14.22-21.54-16.45-34.47Zm103.79-2.3c-12.46-14.68-20.42-29.79-14.8-47.75,20.53-65.46,41.52-130.81,62.38-196.17,.45-1.39,1.06-2.74,1.54-4.09,2.62-7.91,7.26-13.56,16.35-15.88,6.52-1.65,12.63-4.8,20.12-7.76-4.66,12.98-8.85,25.02-13.27,36.98-19.18,52.13-38.65,104.2-57.57,156.43-8.02,22.15-13.39,45.03-15.04,68.6-.21,2.82,.14,5.72,.28,9.64Z"/><path class="cls-3" d="M1031.17,1087.92c-1.71,2.38-3.52,4.9-5.36,7.43,1.21,.25,2.68,.57,4.15,.86,27.76,5.36,55.62,10.31,83.27,16.2,17.39,3.66,29.17,13.66,32.05,31.15,.69,4.12,.23,8.4,.33,12.75,6.22-11.91,4.35-24.61-4.87-34.51-6.84-7.28-15.52-11.75-25.16-14.08-18.98-4.61-38-9.04-56.95-13.43-8.53-1.95-16.99-3.93-25.45-5.91-.65-.14-1.34-.32-1.99-.46Z"/><path class="cls-5" d="M1035.54,828.5c-3.51,10.44-4.14,21.3-2.24,32.35,2.23,12.93,9.6,23.55,16.45,34.47,5.22,8.29,11.59,15.71,20.14,21.02,16.21,10.06,34.35,16.08,52.78,21.86-3.46-3.42-7.08-6.82-11.37-8.9-18.78-9.02-35.46-20.49-48.53-36.28-14.39-17.35-21.44-36.32-14.41-58.31,12.96-40.47,25.6-81.01,38.49-121.48,8.55-26.8,17.33-53.55,26.11-80.28,4.44-13.46,13.99-22.48,27.81-27.43,5.71-2.04,11.57-3.62,17.18-5.79,18.87-7.3,37.4-15.47,56.61-21.82,10.94-3.6,17.23-9.21,17.8-20.32-.56,.08-1.21,.09-1.74,.26-22.38,7.48-44.8,14.89-67.12,22.52-12.3,4.19-25.1,7.18-36.04,14.42-9.01,5.96-17.34,12.44-20.85,22.84-23.76,70.25-47.54,140.52-71.07,210.87Z"/><path class="cls-5" d="M1037.2,1069.32c-5.75,.77-7.76,3.32-8.04,8.63,2.06,.46,4.15,.86,6.21,1.39,8.43,2.23,16.78,4.73,25.28,6.72,23.2,5.41,46.96,8.67,69.32,17.32-4.05-5.09-8.14-10.18-12.19-15.26-2.99-3.78-5.98-7.63-8.97-11.44-17.45-3.7-34.76-8.63-52.79-8.68-6.3-.02-12.6,.51-18.81,1.33Z"/><path class="cls-1" d="M1035.37,1079.34l-2.21,9.04c8.46,1.98,16.93,3.96,25.45,5.91l2.03-8.24c-8.5-1.98-16.85-4.49-25.28-6.72Z"/><path class="cls-1" d="M1044.4,987.72c-.48,5.39-.99,10.82-1.47,16.21l1.45,1.44c.52-5.86,1.07-11.75,1.59-17.61-.49-.32-1.01-.65-1.49-.97-.04,.31-.04,.62-.08,.93Z"/><path class="cls-1" d="M1043.39,1200.24c6.42,2.48,12.88,5,19.3,7.48,2.82-2.1,5.61-4.25,8.4-6.32,4.21-3.14,8.43-6.22,12.64-9.34-7.91-1.5-15.83-3-23.74-4.53-.84,1.1-1.45,2.45-2.51,3.19-4.64,3.26-9.38,6.35-14.09,9.51Z"/><path class="cls-1" d="M1054.43,597.07c.56-.14,1.15-.28,1.71-.45,4.18-7.06,8.35-14.12,12.53-21.21-.66,.17-1.32,.3-1.97,.47-1.24,1.46-2.44,2.98-3.61,4.53-2.87,5.57-5.72,11.12-8.65,16.66Z"/><path class="cls-5" d="M1071.08,1201.4c-2.79,2.07-5.58,4.22-8.4,6.32,10.95,4.29,21.84,8.64,32.82,12.77,1.27,.47,3.37,.22,4.53-.49,29.27-17.97,57.19-37.5,80.53-62.29,11.24-11.96,20.56-24.99,26.27-40.34,3.77-10.12,.75-18.87-3.28-27.47-7.57-.53-14.65-.57-21.62-1.55-16.2-2.23-32.32-4.9-48.48-7.41,5.24,6.49,10.65,12.89,15.73,19.5,5.59,7.31,10.36,15.03,9.75,24.49-.16,2.14-.89,4.23-1.31,6.33,3.64,16.95-1.15,31.42-13.89,43.39-16.67,15.62-37.36,19.48-60.02,17.41-4.21,3.11-8.43,6.19-12.64,9.34Z"/><path class="cls-5" d="M1106.34,986.1c-1.27,11.93-2.53,23.39-3.83,35.45,25.57,4.8,50.88,9.53,77.17,14.44-6.75-13.03-12.92-25.04-19.3-36.94-.67-1.23-2.69-2.22-4.26-2.58-8.95-2.06-17.91-3.93-26.9-5.77-7.55-1.58-15.1-3.04-22.88-4.6Z"/><path class="cls-1" d="M1133.46,1080.94c-8.21-1.41-16.45-2.83-24.66-4.28,2.99,3.81,5.98,7.66,8.97,11.44,4.05,5.09,8.14,10.18,12.19,15.26,12.86,6.05,22.66,14.82,27.67,27.89,.43-2.1,1.15-4.19,1.31-6.33,.61-9.46-4.16-17.18-9.75-24.49-5.08-6.61-10.49-13.01-15.73-19.5Z"/><path class="cls-1" d="M1151.5,527.48c-.04,.19-.07,.4-.11,.59,17.11-5.64,34.25-11.27,51.39-16.91-.03-.16-.06-.37-.06-.56-.49,.17-1.02,.34-1.52,.52-16.58,5.46-33.13,10.9-49.71,16.36Z"/><path class="cls-1" d="M1182.47,832c-2.91,14.34-3.46,28.34,4.5,41.56,4.67,7.75,10.23,14.99,15.06,22.62,5.31,8.39,11.46,15.96,19.46,22.22,9.95,7.8,19.62,15.91,29.54,23.74,.94,.77,2.84,1.01,4.12,.77,27.64-5.71,55.33-11.26,82.88-17.38,13.95-3.08,13.83-3.55,26.88,2.6l22.56,10.62c-.76-1.54-1.9-2.48-3-3.44-11.29-9.89-23.81-18.83-33.44-29.98-6.54-7.55-14.14-14.01-20.69-21.44-1-1.15-2.06-2.2-3.13-3.29-6.19-6.52-9.06-14.15-8.99-22.85,.08-9.6,4.59-18.86,2.15-28.66,7.25-42.12,14.17-84.29,21.88-126.33,6.38-34.84,10.15-70.17,19.34-104.53,3.1-11.57,3.94-23.66,5.8-35.51-5,9.34-9.18,18.95-13.72,28.36-.95,1.99-3.05,4.02-5.16,4.79-19.79,7.42-39.61,14.76-59.6,21.71-12.43,4.31-24.55,9.56-38.11,10.6-7.06,.51-14,1.96-21,3.01,0,.22-.04,.47-.04,.68,6.79,2.24,13.54,4.49,20.75,6.9-15.41,41.67-30.54,82.89-45.88,124.04-8.45,22.76-17.37,45.35-22.17,69.2Zm11.45,30.91c-4.15-9.19-2.5-18.35-.85-27.5,4.13-22.82,12.63-44.3,20.67-65.95,15.78-42.53,31.37-85.1,46.95-127.7,1.1-3.08,2.67-4.96,6.06-6.14,26.28-9.17,52.43-18.52,78.65-27.82,.4-.14,.89-.07,1.9-.16-13.99,81.31-27.91,162.28-41.8,243.03-14.99,2.12-29.42,4.2-43.84,6.18-21,2.85-42,5.55-63,8.5-2.63,.39-3.67-.01-4.75-2.43Zm25.97,36.14c-5.09-8.01-10.84-15.66-16.84-24.16,34.38-4.74,68.13-9.41,102.34-14.15,1.07,11.5,6.16,21.28,14.61,30.41-13.47,1.7-26.09,3.21-38.67,4.87-17.05,2.25-34.11,4.47-51.1,7-4.6,.68-7.64,.25-10.33-3.96Zm14.45,13.22c6.54-.96,12.13-1.95,17.72-2.64,24.71-3.09,49.42-6.09,74.12-9.05,1.25-.15,2.99-.1,3.83,.61,4.73,3.96,9.22,8.16,14.43,12.81-15.73,3.72-30.58,7.4-45.52,10.64-13.1,2.83-26.35,5.25-39.57,7.7-1.41,.27-3.58,.12-4.51-.72-6.69-6.06-13.15-12.37-20.49-19.35Z"/><path class="cls-3" d="M1212.96,1135.23c-4.7,7.05-9.2,13.82-13.77,20.71,12.89,8.54,25.51,16.92,38.27,25.36,5.62-6.8,10.93-13.24,16.41-19.89-13.86-8.88-27.31-17.5-40.91-26.18Z"/><path class="cls-5" d="M1203.05,874.88c6,8.5,11.75,16.15,16.84,24.16,2.69,4.21,5.73,4.64,10.33,3.96,16.99-2.53,34.05-4.75,51.1-7,12.59-1.66,25.2-3.17,38.67-4.87-8.45-9.13-13.54-18.91-14.61-30.41-34.21,4.75-67.96,9.41-102.34,14.15Z"/><path class="cls-1" d="M1217.94,1088.97c1.67,6.7,3.18,12.86,4.75,19.34,2.01-2.43,4.27-4.6,5.75-7.17,2.53-4.34,4.57-8.91,6.8-13.36l-.03-.03c-5.61,.4-11.23,.8-17.27,1.22Z"/><path class="cls-1" d="M1235.41,1087.38l-.2,.37,.03,.03c.07-.15,.14-.28,.17-.4Z"/><path class="cls-1" d="M1283.01,544.15c-4.6,15.13-10.14,29.98-15.54,45.8,31.63-11.47,63.44-21.91,94.51-33.8,24.15-9.26,47.89-19.37,70.74-31.55-1.68-1.69-3-3.13-4.39-4.48-8.62-8.45-17.01-17.14-26.04-25.2-5.66-5.07-12.55-7.07-20.4-4.15-20.25,7.54-40.57,14.88-60.85,22.26-6.89,2.54-13.79,5.02-21.14,7.7-1.62-7.63-3.12-14.73-4.74-22.23-4.11,15.55-7.66,30.74-12.16,45.65Zm2.27,28.78c1.38-6.61,3.06-11.38,10.25-13.73,17.37-5.69,34.4-12.35,51.55-18.61,1.25-.46,2.67-1.17,3.92-.98,13.22,2.02,24.43-3.94,36.22-7.55,5.44-1.65,10.78-3.49,16.34-4.82-37.9,18.22-77.92,31.54-118.28,45.68Zm8.43-25.68c1.65-4.99,3.04-9.58,4.71-14.1,.34-.86,1.66-1.54,2.72-1.91,23.35-8.63,46.77-17.19,70.15-25.73,.4-.14,.89-.1,2.4-.18-22.54,21.58-50.13,32.85-79.98,41.92Zm75.13-21.27c9-7.3,18.13-14.31,21.16-27.77,6.28,5.31,11.59,9.84,17.57,14.92-13.48,4.47-26.11,8.64-38.73,12.85Z"/><path class="cls-3" d="M1295.53,559.2c-7.19,2.34-8.87,7.11-10.25,13.73,40.36-14.14,80.38-27.46,118.28-45.68-5.56,1.33-10.9,3.17-16.34,4.82-11.8,3.61-23.01,9.57-36.22,7.55-1.24-.19-2.66,.51-3.92,.98-17.15,6.26-34.18,12.92-51.55,18.61Z"/><path class="cls-3" d="M1298.43,533.15c-1.68,4.52-3.06,9.11-4.71,14.1,29.85-9.07,57.44-20.34,79.98-41.92-1.51,.08-2,.04-2.4,.18-23.38,8.53-46.8,17.1-70.15,25.73-1.06,.37-2.38,1.05-2.72,1.91Z"/><path class="cls-3" d="M1310.75,979.41c-5.09,.73-10.04,2.39-15.37,3.7,8,10.76,15.55,20.8,22.9,30.92,1.61,2.19,3.11,2.61,5.77,1.97,14.55-3.41,29.12-6.57,43.7-9.88,21.1-4.78,42.25-9.43,63.29-14.49,27.85-6.7,55.63-13.55,83.32-20.66,22.36-5.74,44.52-11.91,66.78-17.9-.03-.28-.06-.53-.09-.81-7.22,.51-14.44,.86-21.64,1.56-39.64,3.91-79.29,7.94-118.96,11.82-28.02,2.75-56.09,5.15-84.11,8.02-15.24,1.56-30.46,3.61-45.61,5.76Z"/><path class="cls-3" d="M1349.05,350.91c-3.23,1.09-6.07,2.03-9.49,3.18,12.24,33.17,24.42,66.15,36.59,99.12,7.64-2.3,14.6-4.4,22.21-6.73-16.43-31.83-32.82-63.62-49.31-95.57Z"/><path class="cls-1" d="M1367.74,350.82c-2.17,.44-4.34,.87-7.8,1.55,16.68,30.06,32.92,59.33,49.31,88.79,3.23-.84,6.26-1.66,9.32-2.47-16.96-29.29-33.88-58.58-50.84-87.87Z"/><path class="cls-3" d="M1367.74,350.82c16.96,29.29,33.88,58.58,50.84,87.87,3.85-.92,7.7-1.83,11.85-2.8-8.64-13.86-16.86-27.18-25.28-40.41-7.14-11.2-14.38-22.38-21.84-33.41-3.69-5.45-7.94-10.57-15.57-11.26Z"/><path class="cls-3" d="M1380.21,346.02c-2.2,.16-4.21,.94-6.17,2.16,6.77,3.27,11.24,8.65,15.02,14.6,14.63,23.01,29.19,46.05,43.85,69.06,.7,1.17,2.05,2.95,2.94,2.91,7.98-.55,14.95,2.32,21.85,5.56,13.94,3.85,19.49,17.99,11,28.69-2.71,3.4-6.55,5.97-9.85,8.98-.73,.66-1.3,1.45-1.97,2.21,9.52-2.9,15.55-9.04,17.6-18.24,1.8-8.28,.22-16.43-4.58-23.53-5.55-8.08-11.92-15.66-18.03-23.39-2.93-3.69-6.09-7.2-9.72-11.5,.14,1.62,.29,2.18,.25,2.74-.2,2.08-.43,4.15-.65,6.2-2.15-.71-4.9-.92-6.36-2.33-4.36-4.13-8.72-8.45-12.19-13.24-8.67-11.93-18.92-23.19-20.82-38.38-.03-.19-.16-.35-.32-.54-.16-.16-.36-.32-.55-.45-4.83-3.37-9.43-7.14-14.64-9.9-2.37-1.25-4.6-1.72-6.66-1.62Z"/><path class="cls-1" d="M1379.89,337.58l.33,8.43c2.07-.1,4.29,.37,6.66,1.62,5.2,2.76,9.8,6.53,14.64,9.9,.19,.13,.39,.29,.55,.45l6.81-5.56c-.48-.57-1-1.12-1.51-1.69-7.22-7.82-16.22-13.58-27.47-13.15Z"/><path class="cls-3" d="M1390.01,498.21c-3.03,13.46-12.16,20.48-21.16,27.77,12.63-4.21,25.25-8.39,38.73-12.85-5.99-5.08-11.29-9.61-17.57-14.92Z"/><path class="cls-5" d="M1386.84,960.16c.06,.22,.09,.44,.15,.66,75.84-7.42,151.7-14.8,228.03-22.27-2.68-9.28-5.2-17.89-7.56-26.13-6.57,.47-12.24,.77-17.93,1.32-9.49,.88-19.2,1.07-28.38,3.14-22.28,4.99-44.31,10.92-66.43,16.45-23.9,5.94-47.83,11.82-71.77,17.76-12.05,2.98-24.07,6.03-36.12,9.07Z"/><path class="cls-3" d="M1409.38,889.94c-.04,.53-.11,1.02-.16,1.55,1.89,.64,3.97,2.1,5.65,1.78,7.37-1.47,14.61-3.44,22.25-5.3-9.52,.69-18.61,1.34-27.74,1.98Z"/><path class="cls-3" d="M1436.72,404.81c-6.03-14.81-16.17-27.03-27.6-38.39,6.7,14.33,15.64,27.3,27.01,38.78,.2-.15,.4-.27,.6-.39Z"/><path class="cls-1" d="M1432.53,482.17l1.77,.24c10.01,1.28,15.53,.85,19.86-1.24,.92-.38,1.85-.72,2.77-1.1l-.03,.12c.67-.76,1.24-1.55,1.97-2.21,3.29-3.01,7.14-5.58,9.85-8.98,8.5-10.7,2.95-24.84-11-28.69,.51,1.04,.88,2.17,1.56,3.06,7.39,9.69,6.47,20.73-2.96,28.14-3.55,2.82-7.94,4.78-12.17,6.71-3.37,1.55-7.06,2.44-11.6,3.96Z"/><path class="cls-3" d="M1436.12,405.19c.39,.35,.81,.74,1.2,1.12,.17-.18,.3-.33,.47-.48-.36-.35-.71-.67-1.07-1.02-.2,.12-.4,.24-.6,.39Z"/><path class="cls-5" d="M1473.19,505.2c4.31,7.24,8.31,13.91,12.3,20.58l4.05,7.54c6.11-2.87,12.19-5.78,18.3-8.65,4.72-2.23,7.9-5.93,9.06-10.87,1.44-6.05,.12-11.59-4.63-16.14-4.14-3.97-9.42-5.86-14.76-3.78-8.35,3.27-16.25,7.49-24.31,11.31Z"/><path class="cls-1" d="M1638.65,862.03c.49,2.1,.61,2.97,.89,3.79,3.29,9.82,7.01,19.53,9.84,29.43,3.14,11.12,5.65,22.41,8.07,33.7,4.13,19.01,8.2,38.06,11.83,57.18,1.73,9.06,2.47,18.28,3.64,27.42,6.04,47.75,7.63,95.57,4.95,143.41-1.73,30.72-4.6,61.28-10.02,91.58-1.69,9.34-2.69,18.79-3.98,28.17,8-8.44,13.34-18.21,16.13-28.88,3.9-14.87,6.89-29.95,10.08-45,6.16-29.29,9.71-58.93,11.55-88.77,1.48-23.64,2.57-47.35,2.62-71.06,.05-23.93-1.19-47.86-2.26-71.79-.22-4.89-.45-8.99,4.22-12.12,1.82-1.19,3.07-3.24,4.37-5.03,11.53-15.68,5.78-36.26-12.24-43.83-.27,.24-.5,.48-.77,.72,1.38,1.78,2.83,3.5,4.11,5.34,9.24,13.38,7.42,26.75-5.17,36.96-1.76,1.41-4.39,1.8-6.34,3.05-4.07,2.59-7.99,5.43-12.36,8.41-4.17-20.38-8.1-39.67-12.25-59.8,8.86-.65,17.53-1.24,26.82-1.91-2.69-8.16-4.84-15.43-7.58-22.53-1.13-2.98-1.24-4.7,1.55-6.92,5.71-4.62,9.93-10.41,9.37-18.04-.85-10.93-8.63-16.59-18.41-20.48-.23,.24-.5,.51-.77,.76,1.35,1.44,2.78,2.78,4.03,4.28,8.69,10.25,7.72,20.23-3.45,27.75-5.5,3.7-12,6.09-17.89,9.31-2.84,1.54-4.61,.89-6.67-1.31-4.19-4.44-8.69-8.67-13.92-13.79Zm23.72,31.01c-.69-1.7-.83-3.63-1.26-5.72,4.09-1.69,8.22-3.37,12.74-5.26,1.51,4.11,2.86,7.79,4.53,12.28-4.69,.33-9.03,.8-13.39,.86-.85,0-2.24-1.24-2.62-2.16Zm28.19,217.26c-.05-45.47-5.87-90.57-11.06-136.07,3.6-1.67,7.23-3.34,11.4-5.27,4.21,47.45,2.99,94.38-.33,141.34Z"/><path class="cls-9" d="M1675.68,834.33c-.1,.15-.2,.31-.27,.46,.39,.32,.74,.67,1.13,1,.27-.24,.53-.51,.77-.76-.55-.23-1.07-.47-1.63-.7Z"/><path class="cls-5" d="M1665.56,904.9c4.15,20.13,8.08,39.42,12.25,59.8,4.38-2.98,8.29-5.82,12.36-8.41,1.95-1.25,4.58-1.64,6.34-3.05,12.59-10.21,14.4-23.58,5.17-36.96-1.28-1.84-2.73-3.56-4.11-5.34l-1.19-1.18c.1-.15,.17-.31,.27-.46l-4.26-6.31c-9.29,.67-17.96,1.26-26.82,1.91Z"/><path class="cls-9" d="M1696.64,909.3c-.1,.15-.17,.31-.27,.46l1.19,1.18c.27-.24,.5-.48,.77-.72-.55-.3-1.14-.62-1.69-.92Z"/></g></g><g><path class="cls-1" d="M873.27,402.88c-1.67-2.51-3.46-4.91-5.3-7.26-.36-.46-.72-.94-1.09-1.39-1.66-2.04-3.38-4.02-5.16-5.95-.72-.79-1.46-1.56-2.2-2.33-1.4-1.45-2.84-2.87-4.31-4.25-1.36-1.29-2.75-2.54-4.17-3.77-.54-.47-1.09-.94-1.64-1.4-2.61-2.21-5.29-4.35-8.05-6.41-9.28-6.9-19.34-13.03-29.95-18.56-19.44-10.13-41.44-18.37-65.66-24.28-19.18-4.76-39.63-8.12-60.81-9.75v1.59l.04,5.49,.59,99.18v1.59l200.01,1.37c-.14-.54-.32-1.06-.49-1.59-2.49-8.22-7.26-15.43-11.82-22.28Zm-172.88,8.49l-.47-78.18c14.38,1.75,28.53,4.34,42.29,7.76,22.54,5.49,43.45,13.22,62.15,22.96,10.52,5.48,19.64,11.13,27.89,17.27,2.46,1.83,4.92,3.78,7.31,5.82l1.46,1.24c1.27,1.11,2.52,2.23,3.77,3.41,1.31,1.23,2.58,2.49,3.82,3.76,.66,.68,1.3,1.36,1.97,2.08,1.62,1.75,3.15,3.51,4.53,5.21l.97,1.24c1.83,2.33,3.35,4.41,4.64,6.34,.48,.72,.97,1.45,1.45,2.18l-161.76-1.11Z"/><path class="cls-1" d="M930.9,472.14c-14.65-.11-29.3-.23-45.07-.34l-10.85-.07-3.27,9.76c-2.78,8.32-8.95,16.35-16.23,24.01-2.68-13.48-9.58-27.8-23.84-41.22l167.69,1.15-.49-14.49c-1.56-46.21-26.5-76.97-45.12-96.09-20.73-21.27-46.49-38.93-81.06-55.59-64.91-31.28-149.96-48.86-239.49-49.48l-14.9-.1,.96,160.76-162.89-1.12c10.06-16.37,25.69-30.3,47.96-42.96,28.42-16.16,60.22-26.95,94.51-32.07l12.46-1.86-.49-81.48-16.57,1.67c-65.44,6.6-126.15,25.17-175.57,53.68-26.59,15.32-47.5,32.27-63.95,51.83-18.66,22.18-40.16,52.33-40.87,88.84l-.28,14.45,305.98,2.11,.62,103.71c-14.42-1.63-29.77-4.54-46.51-8.8-63.17-16.05-105.75-43.78-126.57-82.42l-4.18-7.77-128.32-.82,9.44,19.91c1.49,3.15,37.71,77.54,140.19,121.56,54.88,23.57,125.67,36.32,204.72,36.86,6.01,.04,12.15,.01,18.25-.09l14.52-.23-.91-162.46c.47,0,.94,0,1.41,0,40.83,.28,48.17,19.86,50.59,26.3,5.34,14.22,4.38,33.66,3.45,52.47-.32,6.46-.65,13.15-.71,19.54-.02,1.34-.05,2.7-.08,4.08-.23,10.59-.47,21.55,4.55,29.87,8.34,13.91,25.74,14.03,32.29,14.08,2.6,.02,5.38-.06,8.48-.25,16.32-.98,56.14-16.84,64.18-20.11,93.18-39.57,123.69-114.09,124.94-117.24l7.59-19.09-21.62-.15c-15.73-.11-30.35-.22-44.98-.34Zm-72.17,123.92s-44.48,18.04-59.08,18.92c-15.98,.95-23.44-1.14-26.71-6.59-3.46-5.73-2.63-16.85-2.51-26.76,.26-25.25,4.77-54.64-3.61-76.94-10.31-27.48-38.6-38.98-80.99-35.1l.91,161.96c-83.64,1.36-158.76-10.7-216.51-35.5-98.44-42.28-132.62-114.36-132.62-114.36l96.24,.61c25.34,47.04,76.78,74.68,136.13,89.76,20.01,5.09,42.22,9.39,65.18,10.56l-.79-133.1-305.62-2.11c.64-32.92,21.22-60.85,37.67-80.4,16.68-19.83,37.3-35.48,60.11-48.63,46.07-26.58,103.67-45.09,169.48-51.73l.32,53.7c-38.19,5.7-71.78,17.95-99.79,33.88-27.88,15.84-52.12,37.09-63.03,69.04l200.72,1.38-.96-160.76c91.85,.63,172.84,19.03,232.79,47.92,29.71,14.31,55.63,30.82,76.79,52.53,21.06,21.62,39.85,49.08,41.12,86.86l-193.92-1.33c1.56,7.68,10.69,9.24,16.15,12.74,20.51,13.19,41.28,34.56,34.53,70.09,5.4-.89,12.18-4.3,15.81-7.74,11.5-10.81,24.3-23.88,29.38-39.04,31.52,.22,58.57,.46,90.05,.67,0,0-28.54,71.81-117.23,109.47Z"/><path class="cls-4" d="M856.54,524.96c-3.63,3.44-10.41,6.85-15.81,7.74,6.75-35.53-14.02-56.9-34.53-70.09-5.46-3.5-14.58-5.05-16.15-12.74l193.92,1.33c-1.27-37.78-20.06-65.23-41.12-86.86-21.16-21.71-47.08-38.21-76.79-52.53-59.95-28.9-140.94-47.29-232.79-47.92l.96,160.76-200.72-1.38c10.91-31.96,35.15-53.2,63.03-69.04,28.02-15.93,61.61-28.18,99.79-33.88l-.32-53.7c-65.81,6.64-123.4,25.15-169.48,51.73-22.81,13.15-43.44,28.8-60.11,48.63-16.44,19.55-37.03,47.48-37.67,80.4l305.62,2.11,.79,133.1c-22.96-1.17-45.17-5.46-65.18-10.56-59.35-15.08-110.79-42.72-136.13-89.76l-96.24-.61s34.18,72.08,132.62,114.36c57.75,24.81,132.87,36.86,216.51,35.5l-.91-161.96c42.39-3.87,70.68,7.63,80.99,35.1,8.38,22.29,3.87,51.69,3.61,76.94-.12,9.9-.95,21.03,2.51,26.76,3.27,5.45,10.73,7.54,26.71,6.59,14.6-.88,59.08-18.92,59.08-18.92,88.69-37.66,117.23-109.47,117.23-109.47-31.47-.22-58.53-.46-90.05-.67-5.08,15.16-17.87,28.23-29.38,39.04Zm-170.96-99.58v-1.59l-.6-99.18-.03-5.49v-1.59c21.18,1.63,41.63,4.99,60.81,9.75,24.22,5.9,46.22,14.15,65.66,24.28,10.61,5.53,20.67,11.65,29.95,18.56,2.76,2.06,5.45,4.2,8.05,6.41,.55,.47,1.1,.93,1.64,1.4,1.41,1.24,2.81,2.49,4.17,3.77,1.47,1.38,2.9,2.8,4.31,4.25,.74,.77,1.48,1.54,2.2,2.33,1.78,1.93,3.5,3.9,5.16,5.95,.37,.46,.72,.93,1.09,1.39,1.84,2.35,3.63,4.75,5.3,7.26,4.56,6.85,9.33,14.06,11.82,22.28,.16,.53,.34,1.05,.49,1.59l-200-1.37Z"/></g></g><g><path class="cls-2" d="M46.65,1747.14l-39.35-54.74v-232.66l39.35-54.74H115.52l39.35,54.74v47.9h-49.19v-34.21H56.49v205.29h49.19v-34.21h49.19v47.9l-39.35,54.74H46.65Z"/><path class="cls-2" d="M177.42,1747.14v-68.43h24.6v-205.29h-24.6v-68.43h94.87v68.43h-21.08v68.43h49.19v-68.43h-21.08v-68.43h94.87v68.43h-24.6v205.29h24.6v68.43h-94.87v-68.43h21.08v-68.43h-49.19v68.43h21.08v68.43h-94.87Z"/><path class="cls-2" d="M396.73,1747.14v-68.43h24.6l49.19-273.71h49.19l49.19,273.71h24.6v68.43h-94.87v-68.43h21.08l-6.15-34.21h-36.9l-6.15,34.21h21.08v68.43h-94.87Zm98.38-205.29l-6.15,34.21h12.3l-6.15-34.21Z"/><path class="cls-2" d="M616.04,1747.14v-68.43h24.6v-205.29h-24.6v-68.43h73.79l49.19,166.18,49.19-166.18h70.27v68.43h-24.6v205.29h24.6v68.43h-94.87v-68.43h24.6v-97.75c-16.3,51.78-32.6,103.56-48.9,155.35-16.5-51.78-32.99-103.56-49.49-155.35v97.75h23.89v68.43h-97.68Z"/><path class="cls-2" d="M881.04,1747.14v-68.43h24.6v-205.29h-24.6v-68.43h132.82l39.35,54.74v95.8l-39.35,54.74h-59.03v68.43h24.6v68.43h-98.38Zm73.79-205.29h49.19v-68.43h-49.19v68.43Z"/><path class="cls-2" d="M1075.75,1747.14v-68.43h24.6v-205.29h-24.6v-68.43h94.87v68.43h-21.08v205.29h21.08v68.43h-94.87Z"/><path class="cls-2" d="M1232.52,1747.14l-39.35-54.74v-232.66l39.35-54.74h68.87l39.35,54.74v232.66l-39.35,54.74h-68.87Zm9.84-68.43h49.19v-205.29h-49.19v205.29Z"/><path class="cls-2" d="M1363.29,1747.14v-68.43h24.6v-205.29h-24.6v-68.43h73.79l73.79,195.51v-127.08h-24.6v-68.43h98.38v68.43h-24.6v273.71h-49.19l-73.79-195.51v127.08h24.6v68.43h-98.38Z"/><path class="cls-2" d="M1607.2,1644.5h49.19v34.21h49.19v-68.43h-59.03l-39.35-54.74v-95.8l39.35-54.74h68.87l39.35,54.74v47.9h-49.19v-34.21h-49.19v68.43h58.33l40.06,54.74v95.8l-39.35,54.74h-68.87l-39.35-54.74v-47.9Z"/></g></g></svg>