<?xml version="1.0" encoding="UTF-8"?><svg id="Layer_2" xmlns="http://www.w3.org/2000/svg" viewBox="0 0 1019.88 811.95"><defs><style>.cls-1{fill:#002a5c;}.cls-2{fill:#fcfcfc;}.cls-3{fill:#fdcb26;}.cls-4{fill:#fff;}.cls-5{fill:#b3b6b6;}.cls-6{fill:#b2b5b6;}.cls-7{fill:#0b0c0c;}.cls-8{fill:#440d2e;}.cls-9{fill:none;stroke:#fff;stroke-linecap:round;stroke-linejoin:round;stroke-width:16px;}</style></defs><g id="Layer_1-2"><g><g><path class="cls-9" d="M295.34,709.12c12.62,5.22,25.57,9.8,37.8,15.77,14.12,6.9,27.65,14.92,41.32,22.64,7.96,4.49,11.35,4.32,17.05-2.27,1.81-2.09,3.58-1.69,5.66-1,22.78,7.56,45.55,15.16,68.36,22.65,2.71,.89,3.93,2.34,4.03,5.02,.35,9.09,6.68,12.13,13.99,11.07,10.9-1.57,21.77-3.56,32.43-6.15,26.63-6.48,52.21-15.69,77.23-26.3,1.05-.45,2.65-.5,3.72-.09,10.57,4.12,21.1,8.36,31.62,12.62,30.11,12.18,60.2,24.44,91.86,32.43,8.13,2.05,16.3,4.32,24.58,5.35,9.97,1.25,20.07,1.44,30.12,1.82,15.18,.57,30.38,1.21,45.56,1.26,18.88,.06,37.75-.32,56.61-.77,16.78-.4,33.49-1.61,50.02-4.24,2.03-.32,3.65,.06,5.41,1.33,5.97,4.32,14.27,4.08,19.83-.47,1.58-1.29,2.82-2.96,4.31-4.54,.24,.06,.59,.12,.92,.23,7.91,2.68,14.82,.85,19.06-5.83,3.61-5.67,6.97-11.58,9.58-17.72,11.65-27.39,16.78-56.37,20.43-85.64,1.74-13.89,2.99-27.87,3.91-41.85,.8-12.24,1.19-24.53,1.12-36.8-.08-14.6-.83-29.19-3.13-43.72-1.71-10.8-3.86-21.49-8.33-31.66-2.06-4.68-4.45-9.27-8.69-12.59-7.41-5.82-15.89-9.27-25.37-10.66-9.58-1.41-19.13-1.57-28.74-1.1-14.88,.74-29.79,1.18-44.68,1.89-16.41,.78-32.81,1.69-49.2,2.62-9.23,.52-18.44,1.18-27.66,1.76-6.51,.41-13.02,.77-19.77,1.16,.24-1.31,.39-2.38,.63-3.43,11.05-48.54,22.1-97.08,33.24-145.6,.23-1,1.3-2.17,2.3-2.58,19.32-7.99,38.71-15.83,58.02-23.84,2.21-.92,4.31-2.42,5.95-4.1,5.06-5.2,5.23-13.59,.72-19.29-3.96-5.01-12.21-8.15-19.27-4.69-4.14,2.03-8.53,3.61-11.59,4.89-2.3-1.61-4.07-2.84-5.98-4.18,9.52-2.78,15.33-8.44,16.37-17.83,.69-6.26-1.5-11.98-5.03-17.23-3.12-4.63-6.42-9.16-9.87-13.58-8.83-11.34-17.59-22.74-26.76-33.83-4.34-5.25-10.02-9.14-17.58-8.51-2.76,.23-5.42,1.28-8.24,1.99-1.51-4.19-4.7-3.41-7.46-2.55-5.63-9.21-10.88-18.29-16.62-27.1-22.64-34.76-50.42-65.38-83.18-91.95-20.61-16.72-42.67-31.41-66.27-43.97-42.31-22.52-87.25-37.5-134.88-44.83-19.85-3.06-39.78-4.8-59.79-5.06-25.91-.34-51.62,1.49-77.1,5.58-17.48,2.8-34.73,6.4-51.69,11.13-52.38,14.58-99.95,37.66-141.67,70.91-5.76,4.59-10.98,9.78-16.61,14.52-4.85,4.08-10.03,7.82-14.89,11.89-27.94,23.36-51.82,50.01-71.33,80.2-15.59,24.12-28.85,49.42-37.68,76.52-10.35,31.73-17.99,64.18-21.83,97.42-.63,5.42,.02,9.98,3.89,14.71,5.62,6.89,10.2,14.57,14.95,22.06,1.54,2.44,2.77,5.3,3.2,8.07,1.56,10.15,2.07,20.45,4.18,30.49,3.11,14.85,6.67,29.68,11.06,44.26,10.85,35.97,25.08,70.89,40.1,105.53,1.08,2.5,.96,4.4-.46,6.63-5.36,8.37-10.52,16.86-15.81,25.26-3.87,6.16-4.14,12.4,.33,18.44,11.84,15.96,23.93,31.76,35.75,47.74,4.52,6.12,10.61,9.72,17.94,11.69,7.59,2.03,15.37,2.96,23.17,2.7,17.95-.58,35.91-1.09,53.8-2.33,13.82-.96,27.51-3.19,41.3-4.43,7.1-.64,14.33-.87,21.45-.35,5.26,.38,10.41,2.37,15.65,3.47,6.86,1.44,9.52,.6,11.91-3.23,1.6,.75,3.13,1.54,4.73,2.2Z"/><g><path class="cls-1" d="M7.52,376.35c-.62,5.42,.03,9.99,3.89,14.72,5.62,6.88,10.21,14.57,14.95,22.05,1.55,2.44,2.78,5.31,3.2,8.08,1.57,10.16,2.07,20.46,4.19,30.51,3.11,14.84,6.65,29.68,11.05,44.24,10.86,35.97,25.09,70.89,40.11,105.54,1.09,2.49,.97,4.39-.46,6.62-5.36,8.37-10.52,16.85-15.83,25.26-3.86,6.17-4.14,12.4,.34,18.44,11.84,15.96,23.94,31.77,35.75,47.75,4.53,6.12,10.6,9.73,17.94,11.68,7.59,2.03,15.37,2.96,23.15,2.71,14.46-.46,28.92-.89,43.35-1.7l-.43-5.15c-2.81,.14-5.62,.25-8.45,.32-12.92,.32-25.83,.9-38.76,.93-7.52,.02-14.98-1.11-22.04-4.06-3.58-1.49-6.53-3.59-8.81-6.64-12.13-16.17-24.32-32.31-36.47-48.5-2.08-2.76-2.9-5.81-1.93-9.39,4.09,5.61,10.35,6.25,16.38,6.78,16.72,1.53,33.44,2.97,50.19,3.96,23.57,1.4,46.84,4.95,70.06,9.14,10.13,1.83,20.33,3.31,30.38,5.4,3.93,.83,7.86,2.51,11.34,4.49,12.75,7.36,25.28,15.05,37.96,22.5,1.12,.66,1.67,1.29,1.75,2.01l4.9,.2c-.1-1.28-.43-2.6-.56-3.89l.16-.06c-.22-.18-.45-.37-.67-.55-.22-.35-.45-.68-.69-1.01-.29-.17-.59-.36-.9-.53v.11c-10.04-5.95-20.1-11.88-30.13-17.83-3.53-2.08-7.09-4.17-10.53-6.37-6.29-3.99-13.53-5.03-20.63-6.25-17.81-3.1-35.62-6.27-53.51-8.81-5.39-.77-10.8-1.35-16.23-1.89-6.88-.66-13.75-1.19-20.61-1.79-3.03-.26-6.07-.5-9.1-.74-5.69-.43-11.38-.8-17.06-1.23-2.39-.17-4.79-.35-7.18-.54-1.53-.13-3.03-.26-4.54-.42-2.88-.26-5.75-.58-8.63-.86-1.96-.2-3.91-.39-5.87-.52l-.25-.02c-.38-.03-.74-.05-1.13-.08-2.06-.14-3.76-1.58-4.2-3.5-.3-1.39-.84-2.76-1.26-4.15-2.05-3.78-2.13-7.22,.63-10.83,3.41-4.46,6.31-9.29,9.43-13.96,1.41-3.1,.66-5.98-.69-9.05-13.05-29.8-25.35-59.85-35.31-90.67-5.31-16.35-10.1-32.9-13.92-49.58-2.85-12.4-3.56-25.19-5.68-37.75-.74-4.34-2.38-8.52-4.73-12.32-5.04-8.12-10.57-15.98-16.15-23.81-1.29-1.82-1.69-3.49-1.49-5.48,3.47-33.99,11.51-67.02,21.92-99.45,7.05-21.91,17.49-42.51,29.25-62.44,24.02-40.7,55.61-75.15,94.04-104.02,4.77-3.58,8.86-7.96,13.33-11.91,1.29-1.15,2.8-2.06,4.21-3.08,5.22-3.98,10.35-8.05,15.69-11.88,4.19-2.99,8.64-5.67,12.99-8.5,.62-.38,1.24-.75,1.87-1.13l-.02,.05c.53-.21,1.07-.44,1.6-.65l-.05-.1c.59-.53,1.12-1.2,1.8-1.61,33.87-20.65,70.41-35.92,109.45-45.74,16.2-4.08,32.72-7.28,49.28-9.97,23.59-3.82,47.53-5.19,71.56-4.69,7.53,.15,15.03,.49,22.47,1.04,3.63,.25,7.23,.54,10.83,.88,48,4.5,94.19,16.87,138.38,37.62,32.37,15.18,62.07,34.21,89.19,56.96,35.15,29.5,64.01,63.72,86.81,102.56,1.79,3.05,3.47,6.17,5.22,9.29-6.67,2.05-8.33,1.33-5.64,9.78,5.96,18.67,11.56,37.45,17.29,56.17,.16,.49,.2,1.02,.33,1.85-4.42,1.23-8.91,2.46-13.37,3.69-27.45,7.46-54.89,14.9-82.32,22.33l-30.52,8.16c.03-.11,.06-.23,.08-.34-.33,.08-.65,.18-.98,.26-4.15,1.16-8.3,2.33-12.45,3.47-14.6,4.05-27.45,10.8-37.56,21.7,.39-.08,.76-.14,1.15-.21-2.65,3.98-5.31,7.95-7.98,11.95-6.32,15.55-12.73,31.05-18.98,46.64-10.31,25.69-20.74,51.35-30.72,77.18-7.17,18.6-6.11,37.16,3.14,55.44,6.18,12.22,13.97,23.42,24.83,32.21,4.28,3.46,4.94,6.46,3.73,10.85-.47,1.69-.54,3.5-.78,5.25-.51,3.41-1.01,6.81-1.52,10.22l-.8-.89-.12,.81c.42,2.15-.05,3.4-2.77,3.79-4.65,.68-9.3,1.56-13.79,2.83-14.32,4.08-22.9,13.74-28.3,26.62-.71,.05-1.46,.06-2.23,.08l-.29,5.38c.61,.05,1.24,.11,1.79-.01-.89,1.13,.99,3.87-2.11,3.41-.34-.05-.79-.23-1.21-.47l-1.04,1.95c.87,.42,1.7,.84,2.56,1.25,2.05,.36,1.11,1.66,.83,2.55-2.12,6.82-4.08,13.68-6.55,20.37-1.6,4.32-1.94,8.35,.58,12.46,2.44,2.41,5.15,4.19,8.14,5.19,2.53,.87,5.29,1.18,8.29,.83,.21-.02,.43-.05,.66-.09l-.4-2.16c-.66,.09-1.35,.1-2.02,.1-5.54-.02-10.36-1.86-13.32-6.81-.13-1.89-.79-3.94-.28-5.63,2.39-7.91,5.11-15.74,7.73-23.67,.59,.1,1.17,.23,1.76,.35,.26-.62,.49-1.23,.7-1.72,2.49,.81,5.01,1.61,7.52,2.42l1.68-4.93c-1.11-.37-2.21-.75-3.31-1.19-3.71-1.46-3.44-2.09-2.64-5.76,1.08-4.88,3.6-8.92,6.55-12.87,5.79-7.71,13.86-11.78,23.58-13.33,1.92-.33,3.91-.52,5.74-1.13,4.96-1.67,9.84-.47,14.99,.49-.27-.5-.31-.79-.49-.9-4.43-2.72-5.77-6.15-4.53-11.19,1.41-5.72,1.69-11.7,2.45-17.53,7.01,2.78,13.93,5.51,21.19,8.39-1.4,8.45-2.84,17.28-4.34,26.47,14.5,3.58,28.91,7.02,43.24,10.7,12.6,3.24,25.3,4.3,38.14,2.97,8.18-.87,16.33-1.91,24.45-3.09,1.38-.19,3.14-1.24,3.64-2.37,.67-1.53,.16-3.3-1.77-4.48-.96-.59-1.43-1.94-2.11-2.94-3.57-5.27-7.16-10.53-10.95-16.11,6.56-1.26,12.9-2.47,19.45-3.73,4.88,7.38,9.76,14.75,14.76,22.31-2.94,1.9-5.69,3.66-8.43,5.43,.07,.13,.12,.26,.18,.42,6.95-1.37,13.86-2.82,20.82-4.09,6.47-1.18,12.99-2.15,19.48-3.26,13.52-2.29,27.03-4.53,40.5-6.95,14.42-2.61,28.88-5.11,43.2-8.16,22.45-4.77,44.8-9.88,67.16-14.98,5.68-1.3,5.66-1.54,4.51-6.99-1.45-7.02-2.92-14.06-4.51-21.07-.49-2.21-1.39-4.34-2.28-6.96-5.52,.97-10.95,1.83-16.34,2.85-15.19,2.88-30.35,5.81-45.52,8.7-17.1,3.28-34.18,6.56-51.28,9.82-6.46,1.23-12.92,2.45-19.37,3.67-11.51,2.17-23.05,4.34-34.54,6.53-17.02,3.25-34.18,5.97-50.97,10.01-12.36,2.95-24.56,2.1-36.98,1.21-13.72-.97-26.58-5.53-39.64-9.08-11.63-3.15-23.02-7.16-33.47-13.38-7.91-4.71-13.84-11.13-18.9-18.27-6.64-9.35-12.24-19.22-14.73-30.35-2.83-12.63-1.68-24.92,3.08-36.8,15.89-39.66,31.94-79.26,47.79-118.94,5.85-14.66,17.21-24.03,31.9-29.75,9.53-3.72,19.68-6.1,29.63-8.82,25.07-6.88,50.14-13.73,75.21-20.56,18.38-5.01,36.75-9.98,55.14-14.93,8.35-2.24,16.98-3.69,25.51-5.26,3.44-.64,7.03-.91,10.53-.74,3.04,.17,4.69,2.82,4.19,5.69-.58,3.57-3.02,5.69-6.43,6.7-4.23,1.24-8.55,2.24-12.84,3.24-2.98,.67-3.75,2.54-1.74,4.76,2.11,2.34,4.66,3.98,7.6,4.79l.94-5.07c-.34-.07-.7-.13-1.08-.2,2.72-.73,4.9-1.15,6.91-1.92,2.53-.99,5.13-2,7.29-3.51,5.74-4.01,6.66-10.42,2.67-16.29-.38-.56-.54-1.23-.83-1.84-3.89-2.13-7.86-4.03-12.53-3.98-.54,0-1.25-1.09-1.64-1.78-7.77-13.89-15.49-27.81-23.26-41.7-2.01-3.59-4.46-6.86-8.27-9,1.34-.74,2.73-1.13,4.2-1.01l.22-4.93c-.88-.07-1.76-.08-2.69,0-2.74,.24-5.41,1.29-8.24,1.99-1.5-4.19-4.7-3.4-7.45-2.54-5.63-9.21-10.88-18.3-16.62-27.1-22.63-34.77-50.43-65.39-83.18-91.95-20.61-16.73-42.67-31.41-66.26-43.97-42.31-22.52-87.26-37.51-134.89-44.83-19.85-3.05-39.77-4.8-59.78-5.06-25.91-.35-51.62,1.49-77.11,5.57-17.49,2.81-34.73,6.42-51.7,11.13-52.37,14.6-99.95,37.67-141.68,70.91-5.76,4.61-10.97,9.78-16.61,14.53-4.84,4.08-10.02,7.83-14.88,11.89-27.95,23.37-51.82,50.02-71.34,80.2-15.59,24.11-28.85,49.42-37.69,76.51-10.35,31.75-17.98,64.19-21.83,97.42Zm627.16,234.68c1.15-6.96,2.25-13.62,3.4-20.53,4.48,1.16,8.84,2.26,13.18,3.43,5.16,1.38,10.33,2.75,15.46,4.24,.9,.28,2.06,.9,2.4,1.64,3.34,7.14,6.52,14.35,10.05,22.18-15.17-3.75-29.77-7.33-44.49-10.97Zm113.64-16.05c3.15-.59,6.07-1.39,9.06-1.65,8.92-.73,17.83-1.43,26.78-1.85,16.42-.75,32.84-1.23,49.27-1.91,23.23-.96,46.46-2,69.7-2.96,4.22-.19,8.43-.14,12.66-.22,0,.16,.01,.33,.02,.48-13.17,2.76-26.31,5.64-39.5,8.23-16.39,3.23-32.8,6.31-49.23,9.3-12.42,2.26-24.9,4.27-37.35,6.38-8.6,1.43-17.22,2.81-25.79,4.32-1.57,.27-2.43-.02-3.3-1.35-3.95-6.14-8.02-12.24-12.33-18.77Zm46.42-365.06c2.04-.55,3.72-1.01,5.64-1.54,8.56,19.16,17.06,38.22,25.59,57.31-4.53,1.11-8.65,2.1-13.16,3.21-6.01-19.62-12.02-39.25-18.06-58.98Zm11.94-.31c2.04-.3,3.32-.48,4.59-.66,4.42,.65,6.73,3.79,8.7,7.07,3.99,6.67,7.82,13.42,11.61,20.18,4.47,7.99,8.82,16.03,13.42,24.38-2.45,.45-4.72,.84-7,1.24-1.81,.37-3.6,.75-5.53,1.13-8.57-17.7-17.06-35.29-25.8-53.34Zm-4.25,355.4c-.03-.13-.04-.26-.07-.39,7.12-1.36,14.22-2.74,21.34-4.1,14.12-2.66,28.26-5.3,42.4-7.99,13.07-2.47,26.1-5.22,39.25-7.4,5.42-.9,11.08-.68,16.64-.9,3.33-.14,6.65-.11,10.47-.17,1.13,4.88,2.29,9.97,3.57,15.46-44.72,1.84-89.17,3.65-133.6,5.48Z"/><path class="cls-4" d="M13.79,379.88c-.2,1.98,.2,3.66,1.49,5.48,5.58,7.82,11.11,15.68,16.15,23.81,2.35,3.8,3.99,7.98,4.73,12.32,2.13,12.55,2.83,25.35,5.68,37.75,3.82,16.68,8.62,33.23,13.92,49.58,9.96,30.81,22.26,60.86,35.31,90.67,1.35,3.06,2.1,5.95,.69,9.05,.56,.16,1.35,.15,1.67,.52,4.01,4.45,9.69,5.63,15.16,6.87,19.42,4.45,38.95,8.44,58.3,13.07,22.18,5.31,44.23,11.07,66.33,16.72,8.35,2.11,16.64,4.42,24.98,6.62,5.82,1.51,10.68,4.6,15,8.5,19.09,17.23,39.34,33.08,61.7,46.35,9.68,5.75,19.53,11.21,29.36,16.72,7.39,4.14,14.88,8.12,22.28,12.14-.26,1.18-.48,2.2-.71,3.21,3.65-3.22,7.86-2.61,12.06-1.21,22.94,7.57,45.85,15.21,68.79,22.79,3.8,1.25,6.59,3.38,8.06,6.94,.22,.93,.42,1.86,.62,2.8,.2,4.42,.8,5.95,3.77,6.02-2.18-.37-2.68-1.99-2.86-5.85-.17-.87-.34-1.74-.5-2.59,.77-1.88,2.53-2.35,4.32-2.91,13.05-4,26.27-7.52,39.02-12.22,13.25-4.9,26-10.93,38.95-16.49,.38-.17,.67-.47,.98-.75-.22-.09-.47-.19-.69-.28-.32-.14-.63-.31-.95-.41-10.03-2.95-18.37-7.91-21.69-17.98-2.97-9.06-2.84-18.15,1.09-26.89,1.03-2.3,.67-3.67-1.53-5.33-6.62-5-10.34-12.76-4.59-22.53,3.3-5.63,6-11.57,7.52-17.87,1.5-6.13,5.34-9.94,11.24-11.16,1.29-.27,2.61-.32,3.9-.38,.77-.03,1.52-.03,2.23-.08,5.4-12.88,13.98-22.54,28.3-26.62,4.49-1.27,9.13-2.15,13.79-2.83,2.71-.39,3.19-1.64,2.77-3.79l.12-.81c-2.86-3.23-5.79-6.39-8.57-9.7-16.6-19.86-33.2-39.74-49.75-59.65-11.85-14.24-23.59-28.53-35.4-42.8-1.34-1.62-2.64-3.28-4.12-4.79-5.15-5.24-5.21-11.07-2.43-17.09,1.5-3.24,12.91-20.72,14.63-23.87,2.19-3.47,4.08-7.11,6.58-10.36,11.1-14.49,21.92-29.21,33.73-43.19,8.03-9.49,17.36-17.99,26.47-26.59,1.9-1.8,5.37-2.35,8.25-2.94,11.63-2.45,23.3-4.7,34.98-7.02,1.17-.25,2.37-.45,3.56-.64,10.11-10.9,22.95-17.65,37.56-21.7,4.15-1.14,8.3-2.31,12.45-3.47,.33-.08,.65-.18,.98-.26,1.43-6.52,2.8-13.03,4.29-19.54,4.11-17.96,8.31-35.9,12.38-53.88,.28-1.23,.2-2.75-.29-3.94-7.33-17.33-16.34-33.89-26.46-49.94-8.68-13.73-18.04-27.04-28.61-39.53-7.27-8.59-14.86-16.93-22.78-24.97-6.92-7.03-14.28-13.71-21.82-20.16-12.02-10.26-25.01-19.34-38.71-27.49-21.63-12.87-44.74-22.6-68.83-30.12-17.32-5.42-35.05-9.15-53.03-11.66-17.27-2.41-34.57-3.72-51.99-4-13.22-.21-26.31,.64-39.41,1.67-21.45,1.67-42.4,5.59-62.95,11.26-18.54,5.12-36.56,11.58-53.54,20.16-16.15,8.18-31.89,17.07-47.82,25.61-.74,.39-1.61,.55-2.42,.83,5.22-3.98,10.35-8.05,15.69-11.88,4.21-2.99,8.66-5.67,12.99-8.5l1.2-.72c.2-.13,.4-.24,.6-.37,.02-.02,.06-.03,.08-.05l-.04,.05c.53-.21,1.07-.44,1.6-.65l-.05-.1c.59-.53,1.12-1.2,1.82-1.61,33.87-20.65,70.41-35.92,109.45-45.74,16.2-4.08,32.72-7.28,49.28-9.97,23.59-3.82,47.51-5.19,71.56-4.69,7.22,.14,14.41,.48,21.55,.96-7.44-.54-14.94-.89-22.47-1.04-24.02-.5-47.97,.87-71.56,4.69-16.56,2.69-33.08,5.89-49.28,9.97-39.04,9.82-75.58,25.09-109.45,45.74-.68,.42-1.21,1.08-1.8,1.61l.05,.1c-.53,.21-1.07,.44-1.6,.65l.02-.05c-.62,.38-1.24,.75-1.87,1.13-4.35,2.83-8.8,5.51-12.99,8.5-5.34,3.82-10.47,7.9-15.69,11.88-1.42,1.03-2.92,1.94-4.21,3.08-4.47,3.95-8.56,8.33-13.33,11.91-38.44,28.87-70.03,63.32-94.04,104.02-11.76,19.93-22.2,40.53-29.25,62.44-10.41,32.43-18.46,65.46-21.92,99.45Zm4.07,5.6s-.01-.09-.03-.13c.05,.06,.11,.14,.16,.2,.02,0,.04,0,.06,.02s.02,.02,.02,.04c3.67,1.31,7.37,2.59,11.01,3.99,21.79,8.35,43.46,17.01,65.38,25.04,25.23,9.26,49.92,19.67,73.95,31.59,10.26,5.09,20.48,10.29,30.7,15.45,1.02,.52,2.01,1.12,2.79,2.26-2.8-.84-5.6-1.66-8.38-2.5-15.42-4.59-30.82-9.19-46.22-13.75-14.05-4.16-28.04-8.44-42.16-12.34-17.04-4.69-34.17-9.09-51.31-13.4-3.77-.94-7.79-1.06-11.72-1.31-1.85-.12-2.89-.57-3.59-2.36-3.51-9.12-9.34-17.04-14.98-25.05-1.79-2.55-3.62-5.09-5.45-7.63t-.04-.02l-.04-.04s-.09-.04-.13-.07Zm48.98-40.71c-2.98-4.98-2.86-10.36-1.46-15.44,5.09-18.44,10.01-36.92,16.02-55.08,7.17-21.72,17.99-41.99,28.59-62.29,2.58-4.97,6.66-9.33,10.57-13.55,15.42-16.67,35.31-27.77,55.18-38.83,19.67-10.96,40.02-20.73,61.19-28.86,14.58-5.6,29.54-10.34,44.36-15.44,.47-.18,1.01-.21,1.75,.17-2.03,1.01-4.06,2.02-6.11,3.03-2.13,1.06-4.27,2.07-6.39,3.17-15.53,8.07-31.16,15.98-46.51,24.3-10.02,5.44-19.97,11.13-29.4,17.41-11.27,7.5-22.16,15.51-32.81,23.76-7.01,5.43-13.33,11.64-19.9,17.56-.51,.45-.57,1.32-.85,2,2.03-.81,3.99-1.84,6.08-2.34,2.48-.61,3.96,.72,3.35,3.05-1.52,5.88-3.28,11.69-4.97,17.52-6.39,22.06-12.83,44.11-17.01,66.7-2.81,15.3-5.13,30.71-7.64,46.08-.86,5.33-1.59,10.67-2.47,16.48-5.14-2.93-10.05-5.69-14.93-8.47,.02,.04,.05,.06,.07,.1,1.04,1.25,1.89,2.73,3.19,3.69,20.75,15.34,41.41,30.78,60.4,48.15,7.7,7.06,15.65,13.87,23.48,20.81,.54,.48,1,1.05,1.48,1.56-.15,.17-.29,.32-.44,.49-4.43-2.72-8.85-5.47-13.3-8.15-25.52-15.43-50.43-31.8-77.18-45.32-7.42-3.76-14.91-7.44-22.26-11.34-4.93-2.64-9.23-6.08-12.07-10.89ZM207.38,85.86c-.79,.3-1.66,.44-2.48,.64,24.81-13.3,50.06-25.4,78.8-31.51-7.74,4.31-14.72,8.59-22.1,12.15-3.3,1.58-7.52,1.34-11.08,2.55-9.42,3.17-18.7,6.63-27.99,10.09-5.11,1.91-10.1,4.07-15.15,6.08Zm-14.28,335.13c-.11-.06-.24-.13-.35-.21,.13,.07,.26,.11,.41,.16,.07,.1,.16,.18,.25,.28-.11-.08-.2-.14-.31-.23Zm114.57,111.11c-3.66-6.13-5.2-12.51-2.84-19.37,2.11-6.13,7.35-7.98,13.27-8.95,8.64-1.41,17.38-.76,26.02,.25,11.48,1.3,22.91,2.95,34.31,4.75,14.23,2.26,28.15,5.72,41.38,11.54-4.49-6.66-8.96-13.3-13.43-19.97-4.52-6.72-9.01-13.47-13.51-20.2-.14-.19-.28-.37-.4-.58,0-.02,.1-.1,.16-.15,.12,.21,.22,.44,.34,.65,.93,.63,1.95,1.17,2.8,1.91,15.98,14.06,31.15,28.87,44.82,45,9.32,11,16.95,22.97,22.89,35.86,1.65,3.52,3.17,7.11,4.56,10.74,2.94,7.64,1.91,10.19-4.11,15.55-13.7,12.21-30.07,19.84-47.63,25.7-14.29,4.77-28.89,8.48-43.81,11.11-3.67,.63-7.38,1.01-11.18,1.23,11.08-3.57,22.11-7.09,31.7-13.14-4.01-2.96-7.85-5.74-11.64-8.61-.66-.49-1.06-1.31-1.58-1.99-.18-.18-.34-.36-.52-.54-.09-.08-.18-.16-.27-.22,.06,0,.14-.02,.17,.01,.05,.04,.07,.13,.12,.19,.18,.16,.38,.32,.58,.47,3.07,1.57,6.03,3.44,9.24,4.62,2.79,1,5.85,1.41,8.84,1.72,.97,.1,2.04-.9,3.07-1.39-6.19-.64-11.37-3.35-16.27-6.93-20.8-15.18-41.26-30.71-59.6-48.61-6.51-6.36-12.81-12.9-17.47-20.66Zm39.19,154.52c-.48-12.8,9.36-22.88,22.52-23.07,12.23-.16,22.79,9.87,23.16,22.02,.38,12.55-9.67,22.94-22.39,23.12-12.56,.17-22.81-9.54-23.29-22.07ZM453.08,60.53c-.81-.54-1.59-1.06-3.04-2.04,1.96-1.05,3.54-2.23,5.33-2.82,4.77-1.56,9.61-1.29,14.47,.23,22.8,7.11,45.39,14.72,66.56,25.78,7.29,3.79,14.11,8.1,19.57,14.15,.99,1.12,2.32,2.42,.9,3.77-.93,.89-2.54,1.75-3.76,1.61-9.08-.97-18.18-2-27.2-3.48-3.34-.56-6.83-1.85-9.65-3.68-17.26-11.02-35.95-19.29-54.98-26.94-3.06-1.24-6.09-2.54-9.3-3.87,.42-1,.74-1.79,1.12-2.71Zm.37,429.19c-.03-5.42,5.18-9.91,11.35-9.79,6.13,.12,10.45,4.05,10.48,9.52,0,4.97-5.45,9.62-11.16,9.53-5.81-.11-10.64-4.31-10.67-9.26Zm-1.1,160.59c-3.08-5.7,.66-11.52,7.65-12.11,4.77-.4,10.38,2.59,12.51,6.67,3.12,5.92-1.24,12.12-9.72,12.18-3.95-.3-8.03-2.28-10.43-6.75Zm115.14-345.57l-.04-.02s.04-.01,.06-.03l.13-.21c0,.05,.03,.11-.01,.14-.02,.03-.08,.05-.12,.06,0,.02-.02,.03-.02,.05Z"/><path class="cls-5" d="M17.82,385.36s.01,.09,.03,.13c.04,.02,.09,.04,.13,.07-.05-.06-.11-.14-.16-.2Z"/><path class="cls-5" d="M17.98,385.55l.04,.04,.02-.02s-.04-.02-.06-.02Z"/><path class="cls-1" d="M18.02,385.59s.02,0,.04,.02t-.02-.04l-.02,.02Z"/><path class="cls-1" d="M18.05,385.61c1.83,2.54,3.66,5.08,5.45,7.63,5.64,8.01,11.48,15.93,14.98,25.05,.7,1.79,1.74,2.24,3.59,2.36,3.93,.24,7.95,.37,11.72,1.31,17.15,4.31,34.27,8.72,51.31,13.4,14.13,3.89,28.11,8.18,42.16,12.34,15.4,4.57,30.8,9.17,46.22,13.75,2.78,.84,5.58,1.66,8.38,2.5-.78-1.14-1.77-1.73-2.79-2.26-10.22-5.16-20.43-10.36-30.7-15.45-24.02-11.92-48.71-22.34-73.95-31.59-21.93-8.03-43.59-16.7-65.38-25.04-3.64-1.4-7.35-2.68-11.01-3.99Z"/><path class="cls-1" d="M65.38,329.33c-1.4,5.08-1.52,10.46,1.46,15.44,2.84,4.81,7.14,8.25,12.07,10.89,7.35,3.9,14.84,7.58,22.26,11.34,26.75,13.52,51.66,29.88,77.18,45.32,4.45,2.69,8.88,5.43,13.3,8.15,.15-.17,.29-.32,.44-.49-.48-.51-.94-1.08-1.48-1.56-7.83-6.94-15.78-13.75-23.48-20.81-18.99-17.37-39.65-32.81-60.4-48.15-1.29-.97-2.15-2.44-3.19-3.69-.04-.04-.07-.06-.11-.1l.03,.17c-.2-.2-.41-.38-.61-.58-.2-.14-.36-.29-.57-.41-4.07-2.64-7.69-5.62-9.89-9.99-1.66-3.29-2.41-6.5-1.48-10.11,9.58-37.32,22.19-73.61,40.13-107.95,1.94-3.69,6.02-6.31,9.1-9.43-.08-.26-.17-.52-.25-.77,.31-.05,.62-.07,.95-.1,.03,.11,.1,.17,.22,.18,.28-.69,.34-1.55,.85-2,6.57-5.92,12.88-12.13,19.9-17.56,10.65-8.25,21.55-16.26,32.81-23.76,9.43-6.28,19.38-11.96,29.4-17.41,15.35-8.32,30.98-16.24,46.51-24.3,2.11-1.09,4.26-2.11,6.39-3.17,2.05-1.01,4.08-2.02,6.11-3.03-.74-.37-1.28-.35-1.75-.17-14.82,5.11-29.78,9.84-44.36,15.44-21.17,8.14-41.52,17.91-61.19,28.86-19.87,11.07-39.76,22.17-55.18,38.83-3.91,4.22-7.99,8.58-10.57,13.55-10.6,20.3-21.42,40.58-28.59,62.29-6.01,18.16-10.93,36.65-16.02,55.08Z"/><path class="cls-3" d="M102.85,345.26c.2,.2,.41,.38,.61,.58l-.03-.17v-.02s.02,.02,.04,.02c4.88,2.78,9.79,5.54,14.93,8.47,.88-5.8,1.61-11.14,2.47-16.48,2.51-15.36,4.83-30.78,7.64-46.08,4.18-22.59,10.62-44.64,17.01-66.7,1.69-5.82,3.45-11.64,4.97-17.52,.61-2.33-.87-3.66-3.35-3.05-2.09,.5-4.04,1.53-6.08,2.34-.11,0-.19-.07-.22-.18l-.7,.87c-3.08,3.12-7.17,5.74-9.1,9.43-17.94,34.34-30.55,70.62-40.13,107.95-.93,3.61-.19,6.83,1.48,10.11,2.2,4.37,5.82,7.35,9.89,9.99,.2,.13,.36,.27,.57,.41Z"/><path class="cls-4" d="M72.26,639.76c-.97,3.58-.15,6.63,1.93,9.39,12.15,16.19,24.34,32.33,36.47,48.5,2.27,3.05,5.23,5.16,8.81,6.64,7.06,2.95,14.52,4.07,22.04,4.06,12.93-.03,25.85-.61,38.76-.93,2.83-.07,5.63-.18,8.45-.32,19.66-1.02,39.09-3.85,58.59-6.08,6.89-.78,13.76-.52,20.55,1.26,4.24,1.11,8.5,2.11,12.8,2.89,1.17,.23,3.08-.1,3.67-.85,1.97-2.58,3.45-5.49,5.25-8.2,.54-.81,.82-1.48,.74-2.08-.08-.72-.63-1.35-1.75-2.01-12.68-7.45-25.21-15.13-37.96-22.5-3.48-1.99-7.41-3.67-11.34-4.49-10.06-2.09-20.25-3.58-30.38-5.4-23.22-4.19-46.49-7.74-70.06-9.14-16.75-.99-33.48-2.43-50.19-3.96-6.02-.53-12.29-1.17-16.38-6.78Z"/><path class="cls-1" d="M82.33,622.49c-2.75,3.61-2.68,7.05-.63,10.83,.32,.08,.62,.14,.94,.23-.02-.06-.03-.09-.05-.15,3.66,.84,7.26,1.98,10.95,2.46,4.03,.54,8.06,.99,12.12,1.39,2.69,.26,5.39,.49,8.09,.67,11.82,.8,23.65,1.21,35.44,2.08l.92,.08c2.23,.17,4.46,.36,6.67,.57,20.64,1.95,41.01,5.78,61.26,10.17,13.34,2.88,26.57,6.15,39.88,9.14,3.85,.87,6.95,2.85,9.79,5.29,8.45,7.31,16.86,14.64,25.25,22,.29,.24,.35,.74,.49,1.13-.37-.21-.72-.42-1.09-.64,.06,.19,.11,.37,.19,.56v-.11c.3,.17,.6,.36,.89,.53,.24,.33,.47,.66,.69,1.01,.22,.18,.45,.37,.67,.55l-.16,.06c.31,.17,.65,.35,.96,.52,0-.15-.04-.29-.04-.44,1.42,.79,2.9,1.5,4.24,2.4,8.75,5.84,17.22,12.05,26.23,17.5,16.27,9.83,32.82,19.22,49.31,28.7,2.1,1.2,4.23,2.51,6.68,2.84,.48,.02,.96,0,1.46-.08l.18-.06v-.2c.28-.27,.55-.53,.82-.8l.24-.07,.02-.24c.17-.24,.34-.5,.53-.74l-.02,.07c.19-.18,.39-.39,.58-.57v.09c.22-1.02,.45-2.04,.7-3.21-7.4-4.01-14.89-8-22.28-12.14-9.83-5.51-19.68-10.97-29.36-16.72-22.35-13.27-42.6-29.11-61.7-46.35-4.32-3.9-9.19-6.99-15-8.5-8.34-2.2-16.64-4.51-24.98-6.62-22.1-5.64-44.15-11.41-66.33-16.72-19.35-4.63-38.88-8.62-58.3-13.07-5.47-1.25-11.14-2.42-15.16-6.87-.32-.37-1.11-.37-1.67-.52-3.12,4.67-6.02,9.5-9.43,13.96Z"/><path class="cls-1" d="M82.64,633.54c-.32-.08-.62-.14-.94-.23,.42,1.38,.95,2.76,1.26,4.15,.44,1.93,2.14,3.37,4.2,3.5,.38,.03,.74,.05,1.13,.08-2.46-.21-3.87-1.11-4.41-3.5-.31-1.34-.81-2.67-1.23-4Z"/><path class="cls-1" d="M82.6,633.39c.02,.06,.03,.09,.05,.15,3.32,.81,6.62,1.8,10.01,2.23,4.31,.57,8.67,1.06,13.02,1.47-4.06-.4-8.09-.85-12.12-1.39-3.69-.48-7.29-1.62-10.95-2.46Z"/><path class="cls-3" d="M103.43,345.65v.02s.07,.06,.11,.1c-.02-.04-.05-.06-.07-.1-.02,0-.02-.02-.04-.02Z"/><path class="cls-1" d="M82.64,633.54c.42,1.33,.92,2.66,1.23,4,.54,2.39,1.95,3.3,4.41,3.5l.25,.02c1.97,.13,3.91,.31,5.87,.52,2.88,.26,5.75,.58,8.63,.86,1.5,.16,3.01,.29,4.54,.42,2.38,.18,4.79,.37,7.18,.54,5.69,.41,11.38,.8,17.06,1.23,3.03,.24,6.07,.48,9.1,.74,6.86,.6,13.73,1.13,20.61,1.79,5.72,.54,11.45,1.15,17.13,1.96,17.89,2.54,35.71,5.71,53.53,8.81,7.11,1.22,14.34,2.26,20.63,6.25,3.45,2.2,7,4.29,10.51,6.37,9.68,5.74,19.38,11.45,29.05,17.19-.06-.22-.14-.43-.3-.57-8.41-7.36-16.82-14.69-25.27-22-2.84-2.44-5.94-4.42-9.79-5.29-13.29-2.99-26.54-6.26-39.88-9.14-19.97-4.32-40.03-8.11-60.34-10.1-2.21-.21-4.44-.4-6.67-.57-11.81-.88-23.64-1.28-35.44-2.08l-.92-.08c-2.69-.17-5.4-.4-8.09-.67-4.35-.41-8.7-.9-13.02-1.47-3.38-.43-6.69-1.42-10.01-2.23Z"/><path class="cls-4" d="M139.9,206.59c.08,.24,.17,.51,.25,.77l.7-.87c-.33,.03-.64,.06-.95,.1Z"/><path class="cls-1" d="M114.74,643.4c5.69,.43,11.38,.8,17.06,1.23-5.69-.43-11.38-.82-17.06-1.23Z"/><path class="cls-1" d="M177.44,99.06c.81-.28,1.68-.44,2.42-.83,15.93-8.54,31.67-17.43,47.82-25.61,16.98-8.58,35-15.04,53.54-20.16,20.55-5.68,41.5-9.59,62.95-11.26,13.1-1.03,26.19-1.89,39.41-1.67,17.42,.28,34.73,1.59,51.99,4,17.99,2.51,35.72,6.24,53.03,11.66,24.09,7.52,47.2,17.26,68.83,30.12,13.71,8.15,26.69,17.23,38.71,27.49,7.54,6.44,14.9,13.13,21.82,20.16,7.92,8.04,15.51,16.38,22.78,24.97,10.57,12.49,19.93,25.8,28.61,39.53,10.12,16.05,19.14,32.61,26.46,49.94,.49,1.19,.57,2.71,.29,3.94-4.08,17.98-8.27,35.93-12.38,53.88-1.49,6.52-2.86,13.02-4.29,19.54,9.82-2.64,19.68-5.26,29.52-7.9,.29-.08,.61-.17,.9-.23-.02-.06,0-.13,0-.2,4.95-24.27,9.87-48.56,14.92-72.82,.59-2.86,.13-5.28-1.3-7.83-10.79-19.26-23.29-37.5-36.57-55.31-12.25-16.42-25.77-31.83-40.65-46.11-12.7-12.2-25.98-23.86-39.27-35.49-4.71-4.11-9.88-7.94-15.38-10.99-12.34-6.87-24.76-13.71-37.61-19.61-14.41-6.59-29.18-12.52-44.08-17.99-18.56-6.78-37.7-11.77-57.13-15.55-16.5-3.2-33.14-5.55-49.9-5.91-16.05-.36-32.19-.61-48.06,2.07-12.27,2.05-24.61,3.97-36.75,6.57-19.16,4.14-37.98,9.47-56.02,16.71-15.16,6.1-29.98,12.92-44.95,19.42-2.53,1.09-5.07,2.19-7.62,3.28l.05,.1c-.53,.21-1.07,.44-1.6,.65l.04-.05s-.06,.03-.08,.05c-.2,.13-.4,.24-.6,.37l-1.2,.72c-4.33,2.83-8.78,5.51-12.99,8.5-5.34,3.82-10.47,7.9-15.69,11.88Z"/><path class="cls-3" d="M204.9,86.51c.82-.2,1.69-.35,2.48-.64,5.06-2.01,10.05-4.17,15.15-6.08,9.29-3.45,18.57-6.92,27.99-10.09,3.56-1.21,7.78-.98,11.08-2.55,7.37-3.56,14.36-7.84,22.1-12.15-28.74,6.11-54,18.21-78.8,31.51Z"/><path class="cls-4" d="M209.51,76.86c2.55-1.09,5.09-2.19,7.62-3.28,14.97-6.5,29.8-13.32,44.95-19.42,18.04-7.24,36.86-12.57,56.02-16.71,12.14-2.61,24.48-4.52,36.75-6.57,15.87-2.67,32-2.43,48.06-2.07,16.76,.37,33.4,2.71,49.9,5.91,19.43,3.78,38.56,8.77,57.13,15.55,14.9,5.47,29.66,11.4,44.08,17.99,12.85,5.9,25.27,12.74,37.61,19.61,5.5,3.05,10.67,6.88,15.38,10.99,13.28,11.63,26.56,23.29,39.27,35.49,14.88,14.27,28.4,29.69,40.65,46.11,13.28,17.81,25.78,36.05,36.57,55.31,1.43,2.54,1.89,4.96,1.3,7.83-5.05,24.26-9.97,48.55-14.92,72.82,0,.07-.01,.14,0,.2,27.14-7.37,54.28-14.73,81.42-22.1,4.48-1.22,8.95-2.46,13.39-3.68-.15-.83-.19-1.36-.35-1.85-5.73-18.72-11.3-37.5-17.27-56.16-2.71-8.45-1.05-7.73,5.62-9.78-1.75-3.11-3.43-6.24-5.22-9.29-22.79-38.84-51.66-73.06-86.81-102.56-27.12-22.76-56.83-41.79-89.19-56.96-43.91-20.62-89.77-32.98-137.46-37.54-3.6-.34-7.21-.63-10.83-.88-7.14-.48-14.33-.82-21.55-.96-24.04-.5-47.97,.87-71.56,4.69-16.56,2.69-33.08,5.89-49.28,9.97-39.04,9.82-75.58,25.09-109.45,45.74-.7,.41-1.23,1.08-1.82,1.61Z"/><path class="cls-1" d="M161.51,647.16c5.43,.53,10.84,1.12,16.23,1.89,17.89,2.54,35.7,5.71,53.51,8.81,7.11,1.22,14.34,2.26,20.63,6.25,3.45,2.2,7,4.29,10.53,6.37,10.03,5.95,20.09,11.88,30.14,17.83-.08-.19-.13-.37-.19-.56-9.68-5.74-19.38-11.45-29.05-17.19-3.51-2.08-7.07-4.17-10.51-6.37-6.29-3.99-13.53-5.03-20.63-6.25-17.81-3.1-35.64-6.27-53.53-8.81-5.68-.81-11.41-1.42-17.13-1.96Z"/><path class="cls-6" d="M192.76,420.79c.11,.08,.24,.15,.35,.21l.06-.05c-.15-.05-.28-.1-.41-.16Z"/><path class="cls-6" d="M193.11,421c.11,.08,.2,.14,.31,.23-.09-.1-.18-.18-.25-.28l-.06,.05Z"/><path class="cls-1" d="M188.71,707.1l.43,5.15c3.49-.18,6.97-.39,10.46-.64,13.82-.95,27.51-3.19,41.3-4.44,7.11-.63,14.34-.86,21.45-.34,5.27,.39,10.42,2.38,15.65,3.48,6.86,1.44,9.51,.59,11.92-3.23,1.6,.74,3.13,1.54,4.72,2.18,12.63,5.22,25.58,9.82,37.81,15.79,14.1,6.89,27.65,14.9,41.32,22.64,7.94,4.5,11.33,4.31,17.05-2.26,1.8-2.1,3.58-1.7,5.66-1.01,22.78,7.56,45.57,15.17,68.36,22.66,2.72,.89,3.94,2.34,4.03,5.02,.34,9.09,6.69,12.12,13.99,11.07,10.9-1.57,21.76-3.55,32.43-6.14,26.64-6.49,52.22-15.7,77.22-26.32,1.07-.44,2.66-.5,3.73-.08,10.58,4.12,21.1,8.36,31.63,12.62,30.11,12.17,60.19,24.44,91.84,32.42,8.14,2.06,16.3,4.32,24.59,5.37,9.96,1.25,20.06,1.43,30.12,1.81,15.17,.56,30.38,1.22,45.55,1.25,18.87,.06,37.74-.32,56.6-.78,16.8-.39,33.5-1.61,50.03-4.23,2.02-.34,3.64,.05,5.41,1.32,5.96,4.33,14.27,4.09,19.83-.46,1.57-1.3,2.82-2.96,4.3-4.55,.25,.06,.59,.12,.92,.22,7.9,2.69,14.81,.86,19.05-5.82,3.61-5.66,6.97-11.58,9.59-17.73,11.64-27.38,16.78-56.36,20.45-85.64,1.73-13.88,2.99-27.86,3.9-41.85,.81-12.23,1.19-24.54,1.12-36.81-.08-14.6-.83-29.18-3.12-43.72-1.71-10.81-3.86-21.49-8.33-31.66-2.06-4.69-4.45-9.28-8.68-12.6-7.43-5.82-15.91-9.27-25.38-10.65-9.57-1.4-19.13-1.57-28.74-1.1-14.88,.74-29.78,1.18-44.67,1.9-16.42,.77-32.81,1.69-49.21,2.6-9.23,.53-18.45,1.18-27.66,1.76-6.51,.41-13.02,.77-19.77,1.16,.23-1.31,.38-2.37,.63-3.42,11.04-48.54,22.1-97.09,33.23-145.6,.23-1,1.31-2.18,2.3-2.59,19.32-7.98,38.73-15.83,58.03-23.84,2.22-.92,4.32-2.42,5.96-4.12,5.06-5.19,5.22-13.59,.72-19.28-3.97-5.01-12.21-8.15-19.27-4.69-4.16,2.03-8.53,3.61-11.6,4.89-2.3-1.61-4.07-2.84-5.97-4.18,9.52-2.78,15.32-8.43,16.36-17.82,.68-6.26-1.5-11.99-5.03-17.22-3.12-4.63-6.42-9.17-9.86-13.59-8.55-10.99-17.06-22.03-25.94-32.79l-4.15,3.01c.09,.12,.16,.23,.17,.34,.61,8.89,6.19,15.79,10.85,23.03,1.88,2.91,4.26,5.57,6.67,8.14,.82,.85,2.42,1.06,3.65,1.57,.2-1.2,.4-2.4,.57-3.59,.06-.34,0-.67-.04-1.62,1.98,2.62,3.7,4.77,5.29,7.02,3.31,4.7,6.77,9.33,9.72,14.24,2.59,4.28,3.24,9.1,1.9,13.84-1.48,5.3-5.19,8.67-10.84,10.05l.02-.05c-.55,.17-1.1,.36-1.65,.53-2.57,1.07-5.8,1.14-11.58,.09l-.94,5.07c1,.28,2.06,.47,3.14,.56,2.82,.22,4.96,1.19,6.96,3.21,6.13,6.23,12.49,12.27,19.2,18.12-2.11-4.02-4.22-8.04-6.51-12.4,4.84-1.95,9.59-4.17,14.56-5.8,3.16-1.04,6.2,.24,8.48,2.69,2.6,2.8,3.19,6.08,2.17,9.56-.86,2.86-2.81,4.89-5.63,6.04-3.66,1.47-7.29,2.96-10.95,4.44-16.62,6.74-33.26,13.48-49.92,20.16-1.44,.57-2.19,1.31-2.52,2.79-11.16,49.13-22.37,98.25-33.61,147.37-.62,2.7-1.63,5.3-2.4,7.97-1.36,4.8-.75,9.58,2.71,13.29,4.7,5.09,9.97,9.71,15.22,14.32,2.78,2.44,6.12,4.3,9.04,6.61,1.6,1.26,3.12,1.38,4.97,1.06,13.42-2.28,26.84-4.54,40.28-6.73,10.44-1.7,20.92-3.3,31.41-4.83,1.16-.17,2.53,.8,3.71,.64,2.81-.36,5.57-1.09,8.33-1.68,18.99-4.01,37.99-8.02,56.99-12.04,.92-.2,1.82-.46,2.72-.72-.03-.15-.05-.31-.06-.46-4.69,.35-9.35,.64-14,1.05-8.03,.7-16.07,1.45-24.09,2.23-8.98,.86-17.95,1.79-26.93,2.61-6.78,.62-13.57,1.16-20.36,1.67-13.58,1.03-27.16,2.08-40.76,3.03-8.6,.6-17.19,1.09-25.79,1.59-.67,.03-1.57-.04-2.02-.43-4.84-3.89-9.95-7.56-13.01-13.02-.7-1.26-1.06-2.66-1.67-4.24,6.02-.47,11.62-1,17.25-1.3,22.31-1.27,44.62-2.59,66.93-3.66,23.95-1.15,47.89-2.19,71.85-2.95,7.79-.25,15.59,.96,23.07,3.27,11.63,3.61,18.68,11.34,22.18,22.37,3.18,9.95,5.64,20,6.49,30.28,1.11,13.29,2.23,26.61,2.51,39.92,.25,11.76-.39,23.53-1.14,35.26-.85,12.79-1.96,25.6-3.51,38.31-3.5,28.87-8.38,57.48-19.43,84.61-2.56,6.26-6.1,12.16-9.29,18.17-3.55,6.65-11.61,6.71-15.96,1.59-.67-.8-1.36-1.59-2.41-2.79-1.05,2.84-1.83,4.96-2.6,7.09-1.31,3.56-4.11,5.6-7.87,5.97-3.65,.36-7.25-.85-8.91-4.16-.94-1.86-.51-4.36-.56-6.56-.03-1.17,.23-2.35-.12-3.72-1.64,2.74-3.29,5.43-4.89,8.17-.72,1.25-1.49,1.98-3.2,2.13-12.66,1.09-25.26,2.87-37.95,3.43-20.55,.89-41.13,1.33-61.71,1.4-15.99,.06-31.99-.63-47.99-1.19-10.51-.37-21.04-.62-31.49-1.8-7.74-.89-15.42-3-23.01-4.92-30.09-7.6-58.85-18.83-87.43-30.56-23.72-9.73-47.51-19.32-71.28-28.95-3.37-1.36-6.95-2.32-10.28-3.77-7.72-3.39-11.29-9.46-12.3-17.22-.91-6.86,.06-13.35,3.06-19.26,6.22,1.82,12.42,3.6,18.6,5.51l1.58-4.87c-3.25-1.02-6.49-2.03-9.74-3.05-2.36-.75-4.73-1.49-7.09-2.26-.71-.22-1.26-.94-1.87-1.43-1.87-1-3.73-1.97-5.6-2.95-5.12-3.8-7.59-8.83-4.52-15.49,3.41-7.44,6.37-15.11,9.56-22.66,.39-.91,1.03-1.73,1.29-2.15,1.32,.64,2.56,1.25,3.78,1.85l1.04-1.95c-.68-.39-1.3-.91-1.27-1.22,.23-1.87,1.47-1.82,2.81-1.71l.29-5.38c-1.29,.05-2.62,.11-3.9,.38-5.9,1.23-9.74,5.03-11.24,11.16-1.53,6.29-4.22,12.23-7.52,17.87-5.75,9.77-2.03,17.53,4.59,22.53,2.2,1.66,2.56,3.04,1.53,5.33-3.93,8.75-4.07,17.83-1.09,26.89,3.32,10.07,11.66,15.04,21.69,17.98,.32,.1,.63,.27,.95,.41,.22,.09,.47,.19,.69,.28,.08-.07,.14-.13,.23-.2,3.26,1.35,6.54,2.7,9.82,4.06,5.34,2.09,10.69,4.2,16.04,6.31,0,.22,0,.44,0,.67-10.77,4.03-21.45,8.28-32.3,12.08-17.44,6.14-35.2,11.38-53.45,15.13-5.22,1.05-10.53,1.76-15.8,2.53-1.96,.29-3.41,.4-4.43,.22h-.02c-2.97-.07-3.57-1.6-3.77-6.02-.2-.95-.4-1.87-.62-2.8-1.47-3.56-4.25-5.69-8.06-6.94-22.94-7.57-45.85-15.21-68.79-22.79-4.2-1.39-8.41-2.01-12.06,1.21v-.09c-.18,.18-.39,.39-.57,.57l.02-.07c-.19,.24-.36,.5-.53,.74l-.02,.24-.24,.07c-.27,.27-.54,.54-.83,.8v.2l-.17,.06-.13,.15c.33,0,.67-.03,1.02-.08-1.39,1.7-1.95,2.31-3.25,1.94-.87,.14-1.98-.48-4.29-1.77-12.82-7.17-25.66-14.32-38.56-21.35-12.44-6.77-25.7-11.83-39.03-16.67-3.25-1.17-4.83-4.61-4.14-7.76,.14-.66,.15-1.33,.09-2.03l-4.9-.2c.07,.61-.21,1.27-.74,2.08-1.81,2.7-3.28,5.62-5.25,8.2-.59,.75-2.5,1.08-3.67,.85-4.3-.78-8.56-1.78-12.8-2.89-6.8-1.78-13.67-2.03-20.55-1.26-19.5,2.24-38.93,5.06-58.59,6.08Zm628.94-161.76c.06-.3,.1-.59,.16-.9,5.32-.08,10.66-.15,16.23-.24-4.51,.85-8.8,1.76-13.14,2.36-.99,.13-2.15-.78-3.25-1.22Zm17.22-305.95c6.29,7.01,11.79,14.45,14.8,23.27,.2,.22,.39,.43,.61,.63-.1,.08-.21,.18-.29,.27-.23-.24-.45-.46-.66-.69-6.24-7.06-11.03-14.89-14.46-23.48Z"/><path class="cls-1" d="M156.78,640.64c20.31,1.98,40.37,5.78,60.34,10.1,13.34,2.88,26.59,6.15,39.88,9.14,3.85,.87,6.95,2.85,9.79,5.29,8.45,7.31,16.86,14.64,25.27,22,.16,.14,.24,.35,.3,.57,.37,.21,.72,.42,1.09,.64-.14-.39-.2-.89-.49-1.13-8.39-7.35-16.8-14.69-25.25-22-2.84-2.44-5.94-4.42-9.79-5.29-13.31-2.99-26.54-6.26-39.88-9.14-20.25-4.4-40.62-8.22-61.26-10.17Z"/><path class="cls-4" d="M304.83,512.74c-2.36,6.86-.82,13.23,2.84,19.37,4.66,7.77,10.96,14.31,17.47,20.66,18.34,17.9,38.8,33.43,59.6,48.61,4.9,3.58,10.08,6.3,16.27,6.93,5.89,.32,11.06-1.5,15.81-4.55,9.9-6.36,19.78-12.77,29.66-19.19,.88-.56,1.65-1.3,2.39-2.02,4.46-4.39,4.74-6.46,1.57-11.95-8.83-15.34-17.66-30.69-26.6-45.98-.96-1.63-2.69-2.87-4.05-4.29-13.22-5.82-27.15-9.28-41.38-11.54-11.4-1.81-22.83-3.45-34.31-4.75-8.64-1.01-17.38-1.66-26.02-.25-5.92,.97-11.16,2.82-13.27,8.95Z"/><path class="cls-1" d="M295.62,690.85c-.31-.17-.65-.35-.96-.52,.14,1.29,.46,2.61,.56,3.89,.06,.7,.05,1.37-.09,2.03-.69,3.14,.89,6.59,4.14,7.76,13.33,4.84,26.59,9.9,39.03,16.67,12.9,7.03,25.74,14.18,38.56,21.35,2.31,1.29,3.41,1.91,4.29,1.77-.75-.23-1.76-.81-3.37-1.69-12.82-7.17-25.66-14.32-38.56-21.35-12.44-6.77-25.7-11.83-39.05-16.67-3.25-1.17-4.83-4.61-4.12-7.76,.37-1.72-.2-3.64-.43-5.48Z"/><path class="cls-1" d="M295.57,690.41c0,.15,.04,.29,.04,.44,1.18,.65,2.38,1.26,3.48,2.01,7.62,5.25,15.08,10.71,22.98,15.51,17.26,10.51,34.84,20.5,52.36,30.56,2.34,1.35,4.77,2.83,7.6,2.92-2.45-.34-4.58-1.64-6.68-2.84-16.49-9.48-33.04-18.87-49.31-28.7-9.01-5.44-17.48-11.66-26.23-17.5-1.34-.9-2.82-1.6-4.24-2.4Z"/><path class="cls-1" d="M296.05,696.33c-.71,3.14,.87,6.59,4.12,7.76,13.35,4.85,26.61,9.9,39.05,16.67,12.9,7.03,25.74,14.18,38.56,21.35,1.61,.88,2.62,1.46,3.37,1.69,.72-.1,1.28-.71,2.23-1.87-.46,.02-.92-.02-1.34-.08-2.83-.1-5.26-1.58-7.6-2.92-17.52-10.06-35.1-20.05-52.36-30.56-7.9-4.8-15.36-10.26-22.98-15.51-1.1-.75-2.3-1.36-3.48-2.01,.23,1.84,.8,3.76,.43,5.48Z"/><path class="cls-1" d="M369.38,663.55c-13.16,.19-23,10.27-22.52,23.07,.48,12.52,10.73,22.24,23.29,22.07,12.71-.17,22.77-10.57,22.39-23.12-.37-12.15-10.93-22.18-23.16-22.02Zm-16.46,22.89c-.32-9.11,7.05-16.85,16.25-17.07,9.01-.22,16.7,7.1,17.06,16.22,.36,9.4-6.89,17.06-16.26,17.18-9.01,.13-16.76-7.3-17.05-16.33Z"/><path class="cls-2" d="M369.17,669.38c-9.21,.22-16.57,7.96-16.25,17.07,.29,9.03,8.04,16.46,17.05,16.33,9.37-.11,16.62-7.78,16.26-17.18-.36-9.13-8.04-16.44-17.06-16.22Zm-12.51,16.48c-.11-5.34,6.48-11.17,12.72-11.22,6.66-.05,12.3,5.07,12.53,11.36,.25,6.63-5.13,11.86-12.28,11.95-6.61,.08-12.86-5.75-12.98-12.09Z"/><path class="cls-1" d="M369.38,674.63c-6.24,.05-12.84,5.88-12.72,11.22,.12,6.34,6.37,12.17,12.98,12.09,7.14-.08,12.53-5.32,12.28-11.95-.24-6.3-5.87-11.42-12.53-11.36Zm-9.56,12.02c-.24-5.17,4.03-9.61,9.39-9.74,5.38-.12,9.85,3.89,10.07,9.08,.22,5.2-4.01,9.65-9.34,9.83-5.19,.16-9.86-4.06-10.12-9.18Z"/><path class="cls-2" d="M369.22,676.91c-5.36,.13-9.63,4.57-9.39,9.74,.26,5.12,4.93,9.33,10.12,9.18,5.33-.18,9.56-4.63,9.34-9.83-.22-5.19-4.69-9.21-10.07-9.08Z"/><path class="cls-1" d="M361.29,627.18c3.8-.22,7.51-.6,11.18-1.23,14.92-2.63,29.52-6.33,43.81-11.11,17.56-5.86,33.93-13.49,47.63-25.7,6.03-5.36,7.06-7.92,4.11-15.55-1.39-3.63-2.91-7.22-4.56-10.74-5.94-12.9-13.58-24.86-22.89-35.86-13.67-16.14-28.83-30.94-44.82-45-.85-.75-1.86-1.29-2.8-1.91l-.1,.08c4.5,6.73,8.99,13.48,13.51,20.2,4.47,6.68,8.94,13.31,13.43,19.97,1.36,1.43,3.09,2.66,4.05,4.29,8.93,15.3,17.76,30.64,26.6,45.98,3.17,5.49,2.89,7.56-1.57,11.95-.74,.72-1.51,1.46-2.39,2.02-9.88,6.42-19.76,12.82-29.66,19.19-4.75,3.05-9.92,4.87-15.81,4.55-1.03,.49-2.1,1.5-3.07,1.39-2.99-.31-6.05-.71-8.84-1.72-3.21-1.18-6.17-3.05-9.24-4.62l-.08,.08c.53,.68,.93,1.5,1.58,1.99,3.78,2.87,7.63,5.65,11.64,8.61-9.59,6.04-20.62,9.56-31.7,13.14Z"/><path class="cls-6" d="M378.98,602.69c.09,.06,.18,.14,.27,.22l.02-.02c-.05-.06-.07-.15-.12-.19-.04-.04-.11,0-.17-.01Z"/><path class="cls-6" d="M379.25,602.91c.18,.18,.34,.36,.52,.54l.08-.08c-.2-.14-.4-.31-.58-.47l-.02,.02Z"/><path class="cls-6" d="M392.63,479.42c-.06,.05-.16,.13-.16,.15,.12,.21,.26,.39,.4,.58l.1-.08c-.12-.21-.22-.44-.34-.65Z"/><path class="cls-1" d="M381.15,743.79c1.3,.37,1.86-.24,3.25-1.94-.35,.04-.7,.07-1.02,.08-.95,1.16-1.51,1.76-2.23,1.87Z"/><path class="cls-1" d="M382.03,741.85c.42,.05,.88,.09,1.34,.08l.13-.15c-.5,.07-.99,.1-1.46,.08Z"/><path class="cls-3" d="M450.04,58.49c1.45,.98,2.23,1.5,3.04,2.04-.37,.91-.7,1.71-1.12,2.71,3.2,1.33,6.24,2.62,9.3,3.87,19.04,7.66,37.72,15.92,54.98,26.94,2.82,1.82,6.32,3.12,9.65,3.68,9.03,1.48,18.12,2.5,27.2,3.48,1.22,.14,2.83-.72,3.76-1.61,1.42-1.35,.09-2.65-.9-3.77-5.45-6.05-12.28-10.36-19.57-14.15-21.17-11.06-43.76-18.68-66.56-25.78-4.86-1.52-9.69-1.79-14.47-.23-1.79,.59-3.37,1.77-5.33,2.82Z"/><path class="cls-1" d="M464.8,479.94c-6.17-.12-11.38,4.36-11.35,9.79,.03,4.95,4.87,9.15,10.67,9.26,5.71,.09,11.17-4.56,11.16-9.53-.03-5.46-4.35-9.39-10.48-9.52Z"/><path class="cls-1" d="M459.99,638.21c-6.99,.59-10.73,6.4-7.65,12.11,2.4,4.46,6.48,6.45,10.43,6.75,8.48-.06,12.85-6.26,9.72-12.18-2.12-4.07-7.74-7.06-12.51-6.67Z"/><path class="cls-1" d="M475.76,768.16c.17,.85,.34,1.72,.5,2.59,1.73,2.29,3.84,2.95,6.74,2.06,6.35-1.9,13-3.1,19.17-5.39,16.32-6.07,32.52-12.45,48.62-18.98,6.17-2.5,11.98-5.73,17.95-8.65-.21-.07-.39-.16-.6-.23-3.06-1.26-6.07-2.52-9.13-3.78-.31,.28-.6,.59-.98,.75-12.95,5.56-25.7,11.59-38.95,16.49-12.75,4.7-25.98,8.22-39.02,12.22-1.79,.56-3.55,1.03-4.32,2.91Z"/><path class="cls-1" d="M500.26,464.79c-2.77,6.02-2.72,11.85,2.43,17.09,1.48,1.51,2.78,3.17,4.12,4.79,11.81,14.27,23.55,28.57,35.4,42.8,16.54,19.91,33.14,39.79,49.75,59.65,2.77,3.31,5.71,6.47,8.57,9.7,.48-3.14,.93-6.27,1.41-9.41,.03-.18,.04-.34,.08-.52-.38-.27-.73-.54-1.01-.87-9.48-11.43-18.96-22.85-28.4-34.33-10.48-12.75-20.91-25.54-31.35-38.33-9.89-12.12-19.74-24.24-29.65-36.35-2.66-3.26-3.92-6.9-2.67-10.82,.08-.25,.17-.5,.26-.72,.63-1.82,1.47-3.57,2.34-5.31,.25-.58,.54-1.14,.81-1.71,.18-.42,.39-.82,.57-1.24h.06c2.67-5.41,6.02-11.33,7.87-12.54l.02-.03s.02-.05,.04-.09c-3.28,.21-3.86-3.88-6.02-5.62-1.72,3.15-13.13,20.63-14.63,23.87Z"/><path class="cls-4" d="M476.26,770.75c.18,3.85,.68,5.48,2.86,5.85h.02c.92,.03,2.08-.09,3.51-.3,5.27-.77,10.6-1.48,15.8-2.53,18.27-3.74,36.03-8.98,53.47-15.13,10.85-3.81,21.53-8.05,32.28-12.09,0-.33,0-.35,0-.67-5.15-2.04-10.3-4.06-15.45-6.08-5.97,2.91-11.78,6.15-17.95,8.65-16.11,6.53-32.3,12.9-48.62,18.98-6.17,2.3-12.82,3.5-19.17,5.39-2.9,.88-5,.23-6.74-2.06Z"/><path class="cls-1" d="M479.14,776.6c1.02,.18,2.47,.06,4.43-.22,5.27-.77,10.58-1.48,15.8-2.53,18.25-3.74,36.01-8.99,53.45-15.13,10.85-3.81,21.53-8.05,32.3-12.08,0-.24,0-.46,0-.67-5.35-2.11-10.71-4.22-16.04-6.31-.1,.05-.22,.11-.32,.15,5.15,2.02,10.3,4.04,15.45,6.08,.01,.33,.01,.35,0,.67-10.75,4.04-21.43,8.28-32.28,12.09-17.44,6.14-35.2,11.38-53.47,15.13-5.2,1.05-10.53,1.76-15.8,2.53-1.43,.21-2.59,.33-3.51,.3Z"/><path class="cls-4" d="M508.93,468.2c-1.24,3.92,.01,7.55,2.67,10.82,9.91,12.11,19.76,24.22,29.65,36.35,10.44,12.79,20.87,25.57,31.35,38.33,9.44,11.48,18.92,22.9,28.4,34.33,.28,.33,.63,.6,1.01,.87,.21-1.58,.31-3.19,.72-4.72,1.22-4.39,.53-7.4-3.75-10.85-10.84-8.78-18.65-19.98-24.83-32.21-9.25-18.27-10.31-36.83-3.12-55.43,9.98-25.83,20.4-51.49,30.72-77.18,6.2-15.47,12.55-30.85,18.82-46.27,.02-.03,.04-.05,.04-.09-10.76,2.32-21.6,4.44-32.23,7.16-2.97,.77-5.57,3.26-7.94,5.35-11.12,9.72-21.68,19.99-30.58,31.61-1.21,1.57-2.42,3.16-3.59,4.75-8.44,11.38-17.33,24.57-25.3,35.55,1.4,1.88,3.1,3.61,4.12,5.66,2.45,4.88,.17,8.04-5.51,7.83-2.2-.08-4.41-.56-6.62-.84-.22,.42-.42,.84-.63,1.24-.27,.58-.56,1.13-.81,1.71-1.04,2.22-1.89,4.13-2.34,5.31-.09,.23-.19,.48-.26,.72Z"/><path class="cls-1" d="M509.2,467.48c.45-1.18,1.3-3.09,2.34-5.31-.87,1.75-1.71,3.49-2.34,5.31Z"/><path class="cls-1" d="M512.92,459.21c-.18,.42-.39,.82-.57,1.24,.2-.4,.4-.82,.63-1.24h-.06Z"/><path class="cls-4" d="M520.82,446.76s0-.05,.03-.09c-1.85,1.21-5.2,7.13-7.87,12.54,2.21,.28,4.42,.76,6.62,.84,5.68,.21,7.96-2.94,5.51-7.83-1.02-2.05-2.72-3.78-4.12-5.66-.09,.12-.15,.19-.17,.2Z"/><path class="cls-1" d="M514.89,440.92c2.5,1.29,3.57,4.31,6.04,5.59,.07-.12,.15-.22,.17-.22,.4-.82,.74-1.72,1.27-2.46,7.94-10.93,15.75-22.01,23.91-32.83,1.17-1.59,2.38-3.18,3.59-4.75,8.9-11.62,19.46-21.89,30.58-31.61,2.38-2.09,4.97-4.58,7.94-5.35,10.63-2.72,21.47-4.83,32.23-7.16,1.88-3.15,3.71-6.27,5.59-9.42,.73-.87,1.47-1.71,2.25-2.52-1.18,.19-2.39,.4-3.56,.64-11.68,2.32-23.35,4.57-34.98,7.02-2.88,.59-6.36,1.13-8.25,2.94-9.12,8.6-18.44,17.1-26.47,26.59-11.81,13.97-22.64,28.7-33.73,43.19-2.5,3.24-4.39,6.89-6.58,10.36Z"/><path class="cls-1" d="M520.93,446.51c-2.48-1.28-3.55-4.3-6.04-5.59,2.16,1.75,2.74,5.84,6.02,5.62t.02-.03Z"/><path class="cls-1" d="M520.93,446.51s.04,.04,.05,.04c.04-.09,.09-.17,.11-.26-.02,0-.1,.1-.17,.22Z"/><path class="cls-1" d="M521.1,446.29c-.03,.09-.07,.18-.11,.26,7.97-10.99,16.86-24.17,25.3-35.55-8.17,10.82-15.97,21.9-23.91,32.83-.53,.74-.87,1.64-1.27,2.46Z"/><path class="cls-2" d="M535.83,666.16c-3.07,6.65-.59,11.69,4.52,15.49,2.26-6.54,4.55-13.08,6.79-19.62,2-5.85,3.91-11.71,5.87-17.57-.85-.42-1.69-.83-2.56-1.25-1.22-.6-2.46-1.21-3.78-1.85-.26,.41-.89,1.23-1.29,2.15-3.19,7.55-6.14,15.22-9.56,22.66Z"/><path class="cls-8" d="M567.45,304.72l.04,.02s.02-.03,.02-.05c-.02,.02-.04,.01-.06,.03Z"/><path class="cls-1" d="M567.64,304.48l-.13,.21s.1-.03,.12-.06c.04-.03,0-.09,.01-.14Z"/><path class="cls-1" d="M540.36,681.65c1.87,.98,3.73,1.96,5.6,2.95,.63-1.6,1.28-3.18,1.92-4.77-2.52-4.11-2.18-8.14-.58-12.46,2.48-6.69,4.43-13.54,6.55-20.37,.27-.89,1.21-2.19-.83-2.55-1.96,5.86-3.88,11.72-5.87,17.57-2.24,6.54-4.53,13.08-6.79,19.62Z"/><path class="cls-4" d="M544.48,690.7c-3,5.91-3.96,12.4-3.06,19.26,1.01,7.76,4.59,13.84,12.3,17.22,3.33,1.45,6.91,2.41,10.28,3.77,23.77,9.63,47.56,19.22,71.28,28.95,28.59,11.73,57.34,22.96,87.43,30.56,7.59,1.92,15.27,4.03,23.01,4.92,10.45,1.18,20.98,1.44,31.49,1.8,16,.56,32.01,1.25,47.99,1.19,20.57-.07,41.15-.51,61.71-1.4,12.68-.56,25.28-2.35,37.95-3.43,1.72-.15,2.48-.88,3.2-2.13,1.6-2.74,3.25-5.44,4.89-8.17,.34,1.38,.08,2.55,.12,3.72,.05,2.21-.38,4.7,.56,6.56,1.66,3.31,5.26,4.52,8.91,4.16,3.77-.37,6.56-2.41,7.87-5.97,.77-2.14,1.55-4.25,2.6-7.09,1.05,1.2,1.74,1.99,2.41,2.79,4.35,5.12,12.41,5.06,15.96-1.59,3.2-6.01,6.73-11.91,9.29-18.17,11.05-27.14,15.93-55.74,19.43-84.61,1.55-12.71,2.66-25.52,3.51-38.31,.75-11.73,1.39-23.5,1.14-35.26-.29-13.31-1.4-26.63-2.51-39.92-.85-10.28-3.31-20.33-6.49-30.28-3.5-11.03-10.54-18.76-22.18-22.37-7.49-2.31-15.29-3.52-23.07-3.27-23.96,.77-47.9,1.81-71.85,2.95-22.31,1.07-44.63,2.39-66.93,3.66-5.62,.3-11.23,.83-17.25,1.3,.62,1.58,.97,2.98,1.67,4.24,3.06,5.46,8.17,9.14,13.01,13.02,.45,.38,1.35,.46,2.02,.43,8.59-.51,17.19-1,25.79-1.59,13.59-.96,27.18-2,40.76-3.03,6.79-.51,13.58-1.05,20.36-1.67,8.98-.82,17.95-1.75,26.93-2.61,8.02-.77,16.05-1.53,24.09-2.23,4.65-.41,9.32-.7,14-1.05,0,.15,.04,.31,.06,.46-.9,.25-1.8,.52-2.72,.72-19,4.03-37.99,8.03-56.99,12.04-2.77,.58-5.52,1.31-8.33,1.68-1.18,.15-2.55-.82-3.71-.64-10.49,1.53-20.97,3.13-31.41,4.83-13.43,2.19-26.85,4.45-40.28,6.73-1.85,.32-3.37,.2-4.97-1.06-2.92-2.3-6.26-4.17-9.04-6.61-5.25-4.61-10.52-9.23-15.22-14.32-3.45-3.71-4.07-8.5-2.71-13.29,.77-2.66,1.78-5.27,2.4-7.97,11.23-49.12,22.45-98.24,33.61-147.37,.34-1.48,1.08-2.22,2.52-2.79,16.66-6.68,33.3-13.42,49.92-20.16l-2.11-4.51c-6.72-5.85-13.07-11.88-19.2-18.12-2-2.03-4.14-2.99-6.96-3.21-1.09-.09-2.15-.27-3.14-.56-2.93-.81-5.48-2.45-7.6-4.79-2.01-2.23-1.24-4.09,1.74-4.76,4.29-1,8.6-2,12.84-3.24,3.41-1,5.85-3.12,6.43-6.7,.49-2.87-1.16-5.52-4.19-5.69-3.5-.17-7.09,.11-10.53,.74-8.54,1.57-17.16,3.02-25.51,5.26-18.39,4.95-36.77,9.92-55.14,14.93l1.27,3.97c.68,4.44,1.34,8.61,2.03,13.11,4.37-1.3,8.47-2.54,12.57-3.77,12.06-3.65,24.14-7.26,36.19-10.99,4.67-1.44,8.62-.05,11.75,3.09,4.97,4.99,9.58,10.33,14.34,15.54,.77,.83,1.49,1.71,2.41,2.77-13.73,6.35-27.88,11.46-42.27,16.06l2.96,3.98c-1.47,6.84-2.36,13.88-4.55,20.5-6.49,19.74-9.84,40.18-14.7,60.27-5.87,24.25-11.29,48.59-16.92,72.89,1.12,5.79-1.81,11.04-2.18,16.63-.33,5.07,1.07,9.61,4.49,13.61,.57,.67,1.17,1.32,1.72,2.02,3.57,4.54,7.77,8.56,11.35,13.17,5.25,6.81,12.24,12.45,18.48,18.57,.63,.6,1.24,1.18,1.63,2.12l1.08,4.68c6.46-1.22,12.91-2.43,19.37-3.67,17.1-3.26,34.18-6.54,51.28-9.82,15.17-2.9,30.33-5.83,45.52-8.7,5.39-1.02,10.82-1.88,16.34-2.85,.89,2.62,1.79,4.76,2.28,6.96,1.59,7.01,3.05,14.05,4.51,21.07,1.14,5.45,1.16,5.68-4.51,6.99-22.35,5.11-44.71,10.21-67.16,14.98-14.32,3.04-28.78,5.54-43.2,8.16-13.47,2.42-26.98,4.66-40.5,6.95-6.49,1.1-13,2.08-19.48,3.26-6.96,1.26-13.88,2.71-20.82,4.09-.07-.15-.11-.28-.18-.42,2.74-1.77,5.49-3.54,8.43-5.43-5-7.56-9.88-14.92-14.76-22.31-6.56,1.26-12.9,2.47-19.45,3.73,3.78,5.58,7.37,10.83,10.95,16.11,.68,1,1.15,2.35,2.11,2.94,1.93,1.18,2.43,2.95,1.77,4.48-.5,1.12-2.27,2.17-3.64,2.37-8.12,1.18-16.28,2.22-24.45,3.09-12.84,1.33-25.54,.27-38.14-2.97-14.34-3.67-28.74-7.12-43.24-10.7,1.51-9.19,2.95-18.02,4.34-26.47-7.26-2.87-14.18-5.61-21.19-8.39-.77,5.83-1.04,11.81-2.45,17.53-1.25,5.04,.1,8.47,4.53,11.19,.18,.11,.22,.4,.49,.9-5.15-.97-10.03-2.16-14.99-.49-1.83,.61-3.82,.8-5.74,1.13-9.72,1.56-17.79,5.62-23.58,13.33-2.95,3.95-5.47,8-6.55,12.87-.8,3.66-1.08,4.29,2.64,5.76,1.1,.44,2.2,.82,3.31,1.19,3.35,1.1,6.8,1.98,10.19,2.96,1.75,.51,2.75-.06,3.22-1.87,.57-2.12,1.64-4.08,2.25-6.2,1.26-4.37,4.6-6.56,8.9-7.43,7.28-1.47,14.73-.95,21.9,.64,14.37,3.15,28.62,6.96,42.96,10.4,14.39,3.46,28.81,7.02,43.75,6.07,13.99-.89,27.88-1.89,41.57-5.31,10.73-2.67,22.13-3.07,33.17-4.75,12.75-1.96,25.47-4.11,38.16-6.36,20.13-3.58,40.28-7.04,60.3-11.11,20.58-4.16,41.01-8.98,61.47-13.61,2.36-.55,4.54-1.71,6.88-2.62,.91-4.05,1.82-8.27,2.76-12.5,.17,.03,.34,.05,.51,.08,.47,4.7,.95,9.4,1.42,14.04,2.53,.6,4.92,1.16,8.06,1.9-2.4,.61-4,1.13-5.65,1.43-2.33,.38-3.25,1.43-2.86,3.8,.47,3.04,.77,6.12,.83,9.19,.32,15.8,.83,31.6,.75,47.39-.05,9.78-.7,19.59-1.71,29.31-1.28,12.65-3.09,25.25-4.86,37.83-.91,6.44-2.17,12.81-3.32,19.48-5-.97-9.71-1.86-14.44-2.77-24.32-4.69-48.6-9.57-72.97-13.99-24.9-4.52-49.9-8.61-74.86-12.84-10.07-1.69-19.71-4.42-28.33-10.01-.64-.4-1.39-.68-2.19-1.06-3.76,3.97-7.43,7.85-11.11,11.74,8.63,6.67,18.14,11.28,28.76,13.33,22.22,4.27,44.48,8.35,66.74,12.39,21.21,3.86,42.45,7.59,63.69,11.33,9.53,1.68,19.08,3.3,28.64,4.85,.97,.15,2.03-.26,3.06-.41-.33-1.05-.39-2.34-1.06-3.09-1.21-1.32-2.81-2.31-4.24-3.45,3.9,1.02,7.64,2.27,11.02,4.16,3.74,2.12,3.45,4.53-.36,6.32-.79,.37-1.61,.77-2.46,.92-4.47,.78-8.92,1.79-13.41,2.17-11.08,.9-22.16,1.85-33.25,2.14-22.63,.61-45.26,1.1-67.92,1.07-16.15,0-32.34-.86-48.51-1.5-6.72-.26-13.56-.32-20.11-1.62-10.14-2.01-20.12-4.93-30.11-7.62-5.93-1.6-11.77-3.55-17.7-5.23-5.85-1.64-11.75-3.15-17.64-4.72,.05-.21,.09-.43,.12-.64,4.36,.13,8.73,.21,13.09,.44,1.66,.07,2.83-.36,3.91-1.58,5.38-5.95,10.68-11.96,16.3-17.68,12.55-12.8,23.83-26.69,37.49-38.55,12.2-10.59,19.98-23.78,21.3-39.93,.42-4.99,.16-9.99-1.74-15-6.96,1.06-13.79,2.1-20.58,3.13,.18,4.89,.72,9.43,.44,13.88-.42,6.31-1.99,12.49-6.27,17.48-5.51,6.39-11.09,12.76-17.07,18.76-11,11.04-20.56,23.31-32.63,33.49-7.13,6.02-13.1,13.32-19.43,20.18-1.43,1.53-2.52,1.75-4.44,.9-31.55-14.02-63.12-28.02-94.71-41.91-6.29-2.75-9.96-7.12-11.27-13.49-.14-.69-.96-1.59-1.65-1.81-6.17-1.91-12.38-3.69-18.6-5.51Zm408.23-152.74c-.14-.5-.18-1.02-.39-2.25,2.86,3.17,5.34,5.77,7.66,8.49,1.13,1.35,2.13,1.8,3.82,.98,3.55-1.66,7.4-2.86,10.75-4.84,6.75-4.01,7.65-9.78,2.92-16.05-.68-.91-1.47-1.74-2.21-2.63-.22-.2-.43-.4-.65-.62l.19-.26c.3,.15,.61,.31,.93,.46,5.57,2.6,9.92,6.16,10.03,12.53,.1,4.47-2.57,7.7-6.05,10.2-1.68,1.22-1.67,2.2-1.11,3.98,1.36,4.23,2.38,8.55,3.68,13.38l2.28,3.81c.31,.21,.62,.4,.93,.61,10.25,4.98,12.94,17.17,5.71,25.94-.84,.98-1.61,2.14-2.71,2.77-2.84,1.67-2.85,4.09-2.88,6.94-.14,13.96-.21,27.97-1.02,41.89-.82,13.81-2.22,27.6-3.86,41.34-2.07,17.31-5.1,34.48-9.67,51.33-2.33,8.66-4.57,17.37-7.34,25.91-1.98,6.11-5.4,11.62-10.36,16.28,1.08-5.42,1.97-10.9,3.26-16.26,4.14-17.48,6.82-35.21,8.85-53.05,3.14-27.79,3.77-55.7,1.83-83.71-.38-5.38-.51-10.78-1.22-16.12-1.49-11.24-3.23-22.49-5.01-33.71-1.05-6.66-2.13-13.32-3.61-19.89-1.3-5.88-3.15-11.66-4.75-17.47Z"/><path class="cls-4" d="M547.88,679.83c-.63,1.58-1.28,3.17-1.92,4.77,.62,.49,1.16,1.21,1.87,1.43,2.36,.76,4.73,1.51,7.09,2.26l1.1-3.27c-3-1-5.71-2.78-8.14-5.19Z"/><path class="cls-1" d="M548.93,671.26c-.51,1.69,.15,3.74,.28,5.63,.16-.91,.23-1.85,.52-2.72,2.88-8.74,5.79-17.49,8.68-26.23-.59-.12-1.17-.25-1.76-.35-2.62,7.93-5.34,15.76-7.73,23.67Z"/><path class="cls-2" d="M550.23,640.04c-.02,.31,.59,.83,1.27,1.22,.42,.24,.87,.42,1.21,.47,3.09,.46,1.22-2.28,2.11-3.41-.55,.12-1.17,.06-1.79,.01-1.33-.11-2.58-.16-2.81,1.71Z"/><path class="cls-4" d="M549.74,674.17c-.29,.87-.36,1.81-.52,2.72,2.96,4.95,7.78,6.79,13.32,6.81,.67,0,1.36-.01,2.02-.1,1.84-.21,3.59-.9,4.53-2.89,2.44-7.02,4.87-14.05,7.33-21.07,.7-1.98,1.47-3.91,2.21-5.89,.12-.55,.23-1.13,.24-1.16-4.12-1.33-8.19-2.64-12.22-3.95-2.51-.81-5.03-1.61-7.52-2.42-.21,.49-.44,1.11-.7,1.72-2.89,8.74-5.81,17.48-8.68,26.23Z"/><path class="cls-4" d="M556.02,685.02l-1.1,3.27c3.25,1.02,6.49,2.03,9.74,3.05,.11,.03,.21,.07,.32,.1,.65-2.04,1.27-4.06,1.92-6.1-.64,.13-1.29,.31-1.93,.42-.23,.03-.45,.07-.66,.09-3,.35-5.76,.04-8.29-.83Z"/><path class="cls-1" d="M571.04,485.67c-7.19,18.6-6.13,37.16,3.12,55.43,6.18,12.22,13.99,23.42,24.83,32.21,4.28,3.46,4.96,6.46,3.75,10.85-.42,1.53-.51,3.14-.72,4.72,.27,.21,.57,.39,.84,.6,.24-1.74,.31-3.56,.78-5.25,1.22-4.39,.55-7.4-3.73-10.85-10.86-8.78-18.65-19.98-24.83-32.21-9.25-18.27-10.31-36.83-3.14-55.44,9.98-25.83,20.4-51.49,30.72-77.18,6.25-15.59,12.66-31.09,18.98-46.64-.33,.08-.68,.14-1.01,.21,0,.04-.02,.05-.04,.09-6.27,15.42-12.62,30.81-18.82,46.27-10.31,25.69-20.74,51.35-30.72,77.18Z"/><path class="cls-1" d="M474,16.69c47.69,4.56,93.56,16.92,137.46,37.54,32.37,15.18,62.07,34.21,89.19,56.96,35.15,29.5,64.01,63.72,86.81,102.56,1.79,3.05,3.47,6.17,5.22,9.29-6.67,2.05-8.33,1.33-5.62,9.78,5.96,18.67,11.54,37.44,17.27,56.16,.16,.49,.2,1.02,.35,1.85-4.44,1.22-8.91,2.46-13.39,3.68-27.14,7.37-54.28,14.73-81.42,22.1,0,.11,0,.2,.02,.31,27.43-7.44,54.87-14.88,82.32-22.33,4.46-1.22,8.95-2.46,13.37-3.69-.13-.83-.17-1.36-.33-1.85-5.73-18.72-11.32-37.5-17.29-56.17-2.69-8.45-1.04-7.73,5.64-9.78-1.75-3.11-3.43-6.24-5.22-9.29-22.79-38.84-51.66-73.06-86.81-102.56-27.12-22.76-56.83-41.79-89.19-56.96-44.19-20.75-90.38-33.12-138.38-37.62Z"/><path class="cls-1" d="M559.02,735.79c3.06,1.26,6.07,2.52,9.13,3.78,.21,.07,.39,.16,.6,.23,.1-.05,.22-.11,.32-.15-3.28-1.35-6.56-2.7-9.82-4.06-.08,.07-.14,.13-.23,.2Z"/><path class="cls-4" d="M578.34,486.69c-4.75,11.88-5.91,24.17-3.08,36.8,2.5,11.13,8.1,20.99,14.73,30.35,5.07,7.14,10.99,13.56,18.9,18.27,10.45,6.22,21.84,10.23,33.47,13.38,13.06,3.55,25.91,8.12,39.64,9.08,12.43,.89,24.62,1.75,36.98-1.21,16.79-4.03,33.95-6.76,50.97-10.01,11.5-2.19,23.03-4.36,34.54-6.53l-1.08-4.68c-4.27-2.31-8.53-4.64-12.79-6.95-7.39-3.99-7.33-3.73-15.56-2.4-16.25,2.66-32.57,5-48.88,7.4-.74,.12-1.83-.1-2.38-.58-5.52-4.89-10.87-9.93-16.41-14.8-4.48-3.91-7.81-8.52-10.61-13.57-2.56-4.62-5.57-9.02-8.03-13.67-4.22-7.96-3.42-16.1-1.28-24.36,3.6-13.76,9.52-26.63,15.21-39.61,10.27-23.47,20.46-46.97,30.81-70.76-4.12-1.62-8-3.17-11.86-4.7l.03-.4c4.11-.38,8.22-.98,12.34-1.06,7.94-.16,15.19-2.82,22.55-4.92,11.89-3.39,23.68-7.01,35.46-10.69,1.26-.38,2.53-1.5,3.14-2.61,2.98-5.35,5.73-10.81,8.95-16.09l-2.96-3.98c-18.5,5.91-37.36,10.94-56.18,16.59,3.68-9.06,7.4-17.53,10.56-26.2,3.13-8.54,5.7-17.26,8.6-26.2l-1.27-3.97c-25.07,6.82-50.14,13.68-75.21,20.56-9.94,2.72-20.09,5.1-29.63,8.82-14.69,5.72-26.05,15.09-31.9,29.75-15.85,39.68-31.9,79.28-47.79,118.94Zm15.39,31.88c-1.96-8.79-.58-17.44,2.74-25.73,15.63-39.03,31.43-78.01,46.95-117.1,3.84-9.68,11.28-15.69,20.78-19.47,7.23-2.86,14.96-4.66,22.52-6.8,14.02-3.94,28.09-7.73,42.09-11.71,2.45-.7,4.49-.47,6.65,1.13-4.36,10.42-8.66,20.9-13.15,31.31-14.93,34.61-30,69.16-44.84,103.82-5.17,12.1-9.11,24.65-10.61,37.75-1.03,8.9,1.24,17.41,5.24,25.57,5.34,10.86,13.37,19.73,22.68,27.71,3.16,2.73,6.18,5.57,9.56,8.64-16.8,4.69-33.05,3.43-49.18-1.81-12.47-4.04-24.49-9.18-35.61-15.96-4.43-2.71-8.67-6.16-11.88-10.07-6.63-8.1-11.69-17.17-13.94-27.26Z"/><path class="cls-1" d="M564.66,691.34l-1.58,4.87c.69,.22,1.51,1.13,1.65,1.81,1.31,6.37,4.98,10.74,11.27,13.49,31.59,13.89,63.16,27.89,94.71,41.91,1.91,.85,3,.64,4.44-.9,6.33-6.87,12.3-14.17,19.43-20.18,12.07-10.18,21.63-22.45,32.63-33.49,5.98-6.01,11.56-12.37,17.07-18.76,4.27-4.99,5.85-11.17,6.27-17.48,.28-4.45-.25-8.99-.44-13.88,6.79-1.02,13.62-2.06,20.58-3.13,1.9,5,2.16,10.01,1.74,15-1.32,16.15-9.1,29.34-21.3,39.93-13.65,11.87-24.94,25.76-37.49,38.55-5.61,5.73-10.92,11.74-16.3,17.68-1.09,1.22-2.25,1.65-3.91,1.58-4.36-.22-8.73-.3-13.09-.44-.03,.22-.07,.43-.12,.64,5.89,1.57,11.79,3.08,17.64,4.72,5.92,1.69,11.77,3.64,17.7,5.23,9.99,2.69,19.97,5.61,30.11,7.62,6.54,1.3,13.39,1.36,20.11,1.62,16.17,.65,32.35,1.49,48.51,1.5,22.66,.03,45.29-.46,67.92-1.07,11.09-.29,22.17-1.25,33.25-2.14,4.5-.38,8.94-1.39,13.41-2.17,.85-.15,1.67-.55,2.46-.92,3.81-1.79,4.1-4.2,.36-6.32-3.37-1.89-7.12-3.13-11.02-4.16,1.43,1.14,3.03,2.13,4.24,3.45,.68,.75,.74,2.05,1.06,3.09-1.03,.15-2.09,.57-3.06,.41-9.56-1.56-19.11-3.17-28.64-4.85-21.24-3.73-42.48-7.47-63.69-11.33-22.25-4.04-44.52-8.11-66.74-12.39-10.62-2.05-20.13-6.66-28.76-13.33,3.68-3.89,7.35-7.76,11.11-11.74,.8,.38,1.54,.66,2.19,1.06,8.61,5.59,18.26,8.32,28.33,10.01,24.96,4.23,49.95,8.32,74.86,12.84,24.37,4.42,48.66,9.3,72.97,13.99,4.73,.91,9.44,1.8,14.44,2.77,1.15-6.67,2.42-13.04,3.32-19.48,1.77-12.59,3.58-25.19,4.86-37.83,1.01-9.72,1.66-19.53,1.71-29.31,.08-15.79-.43-31.59-.75-47.39-.07-3.06-.36-6.14-.83-9.19-.39-2.36,.53-3.41,2.86-3.8,1.65-.3,3.24-.82,5.65-1.43-3.13-.74-5.53-1.31-8.06-1.9-.47-4.64-.96-9.34-1.42-14.04-.17-.03-.34-.05-.51-.08-.94,4.23-1.86,8.45-2.76,12.5-2.35,.91-4.52,2.07-6.88,2.62-20.46,4.63-40.89,9.44-61.47,13.61-20.02,4.07-40.16,7.52-60.3,11.11-12.69,2.25-25.41,4.41-38.16,6.36-11.04,1.68-22.44,2.08-33.17,4.75-13.7,3.42-27.58,4.42-41.57,5.31-14.94,.95-29.36-2.6-43.75-6.07-14.33-3.44-28.58-7.25-42.96-10.4-7.18-1.59-14.62-2.12-21.9-.64-4.3,.87-7.65,3.06-8.9,7.43-.61,2.11-1.68,4.08-2.25,6.2-.48,1.82-1.48,2.39-3.22,1.87-3.38-.98-6.83-1.85-10.19-2.96l-1.68,4.93c4.03,1.31,8.1,2.62,12.22,3.95,0,.04-.12,.61-.24,1.16,.57,.38,1.12,.73,1.83,1.19-3.02,7.77-5.97,15.52-9.06,23.23-.4,.99-1.52,1.71-2.31,2.53-.93,2-2.69,2.68-4.53,2.89l.4,2.16c.64-.11,1.29-.29,1.93-.42,3.78-1.1,6.03-3.58,7.36-7.05,2.98-7.75,5.99-15.5,9.02-23.23,.4-1.02,.62-2.53,2.48-1.46,10.82,2.72,21.63,5.46,32.45,8.16,6.24,1.57,12.55,2.89,18.74,4.65,8.37,2.39,14.25,7.23,15.76,15.88,1.82,10.42-4.86,19.55-15.54,22.06-8.57,2-16.81,.57-25.13-1.43-13.27-3.22-26.57-6.35-39.87-9.52-.2-.11-.43-.22-.65-.33l-.07-.06c-2.15-.53-4.32-1.06-6.47-1.57-.11-.03-.21-.07-.32-.1Zm11.87,13.87c-2.69-1.28-4.29-3.57-4.96-6.74,11.09,2.67,21.99,5.27,32.87,7.89,4.56,1.13,9.12,2.27,13.68,3.42,13.14,1.94,25.32,.37,35.53-8.19,7.84-6.56,11.08-14.83,9.52-24.83-2.47-7.76-7.89-13.21-15.19-17.16-12.74-5.78-26.5-8.46-39.84-12.37l-1.45,4.73c10.9,3.18,21.83,6.39,32.74,9.7,5.56,1.69,10.47,4.57,14.22,9.05,5.05,6.05,5.72,13.51,1.69,20.25,.11-2.54,.5-5.02,.25-7.42-1.1-10.28-7.66-16.5-17.65-19.22-15.92-4.34-31.99-8.14-48.01-12.18-.83-.2-1.67-.45-2.37-.64,1.14-1.4,2.29-2.83,3.35-4.16,.4,.11,.77,.23,1.17,.34l1.58-5.18c-1.18-.39-2.39-.69-3.59-1.03,.36-3.08,1.61-4.5,4.98-4.74,3.65-.27,7.34-.38,10.99-.18,10.53,.62,20.43,4.08,30.49,6.79,4.74,1.11,9.47,2.21,14.23,3.32,9.34,1.98,18.64,4.06,28.01,5.91,4.03,.78,8.15,1.06,12.55,1.59,2.07,5.14,3.53,10.34,1.01,16.12-3.86,8.77-9.71,16.04-16.64,22.64-14.42,13.68-31.34,24.16-48.97,33.65-.72,.38-1.93,.45-2.68,.14-6.25-2.77-12.47-5.66-18.69-8.5-3.66-1.68-7.34-3.33-11.02-5.01-5.93-2.65-11.92-5.2-17.8-7.99Zm94.95,42.26c-12.64-5.42-25.27-10.86-38.19-16.42,18.74-9.83,37.05-19.45,55.67-29.22,4.61,3.39,9.75,7.2,15.05,11.12-10.78,11.44-21.56,22.88-32.53,34.52Zm15.09-54.94c2.91-3.87,5.75-7.66,8.72-11.63,7.64,5.53,15.17,10.97,22.98,16.6-3.43,3.69-6.74,7.27-10.24,11.05-7.14-5.34-14.24-10.64-21.47-16.02Zm15.28-27c-.72-3.83-1.4-7.45-2.13-11.41,3.53-.06,6.82-.11,10.1-.16l.13-.21c-.04,.07-.07,.16-.11,.23-1.45,2.53-2.81,5.13-4.4,7.56-.97,1.45-2.34,2.64-3.59,3.99Zm1.71,93.42c9.23-9.06,18.21-17.83,27.41-26.84,.82,.56,1.85,1.21,2.82,1.91,11.19,8.16,24.15,12.01,37.68,14.43,17.16,3.08,34.35,6.03,51.51,9.07,24.74,4.4,49.46,8.83,74.18,13.24-.06,.23-.09,.48-.13,.72-4.19,.34-8.35,.84-12.52,.96-18.59,.51-37.17,1.23-55.77,1.26-16.08,.03-32.17-.62-48.26-1.19-10.58-.35-21.21-.67-31.76-1.81-6.68-.71-13.29-2.68-19.85-4.42-8.26-2.21-16.45-4.75-25.31-7.34Zm63.65-40.28c-5.71-1.1-11.02-4.36-17.4-6.99,4.65-5.1,8.67-9.49,12.67-13.92,9.34-10.27,14.93-22.15,16.19-35.83,.27-2.94,.33-5.96,.11-8.93-.22-2.86-.91-5.7-1.47-8.88,54.61-9.68,109.62-18.01,163.45-32.02,4.43,46.3,1.47,91.98-7.17,137.53-9.64-2-19.1-4.12-28.62-5.91-19.42-3.65-38.85-7.2-58.3-10.7-26.5-4.76-53.03-9.24-79.45-14.36Z"/><path class="cls-1" d="M566.89,685.34c-.65,2.04-1.27,4.06-1.92,6.1,2.15,.51,4.32,1.04,6.47,1.57,.17-.82,.25-1.67,.54-2.45,3.56-9.96,7.13-19.92,10.75-29.86,.88-2.42,2.01-4.74,3.03-7.11-1.86-1.07-2.08,.44-2.48,1.46-3.03,7.73-6.05,15.48-9.02,23.23-1.32,3.47-3.58,5.96-7.36,7.05Z"/><path class="cls-1" d="M569.09,680.71c.79-.82,1.92-1.55,2.31-2.53,3.09-7.71,6.05-15.46,9.06-23.23-.72-.46-1.26-.82-1.83-1.19-.74,1.98-1.51,3.91-2.21,5.89-2.46,7.01-4.89,14.05-7.33,21.07Z"/><path class="cls-2" d="M571.45,693.01l.07,.06c.22,.11,.44,.22,.65,.33,13.3,3.17,26.6,6.3,39.87,9.52,8.32,2,16.56,3.43,25.13,1.43,10.68-2.51,17.36-11.64,15.54-22.06-1.51-8.64-7.39-13.49-15.76-15.88-6.18-1.76-12.5-3.08-18.74-4.65-10.82-2.7-21.63-5.44-32.45-8.16-1.02,2.37-2.14,4.69-3.03,7.11-3.61,9.94-7.19,19.9-10.75,29.86-.29,.78-.37,1.62-.54,2.45Z"/><path class="cls-4" d="M571.57,698.48c.67,3.17,2.27,5.45,4.96,6.74,5.88,2.79,11.87,5.34,17.8,7.99,2.84-1.67,5.73-3.32,8.52-5.08,.66-.4,1.06-1.17,1.58-1.76-10.88-2.62-21.78-5.22-32.87-7.89Z"/><path class="cls-1" d="M596.47,492.84c-3.32,8.29-4.69,16.94-2.74,25.73,2.25,10.09,7.31,19.16,13.94,27.26,3.21,3.91,7.45,7.37,11.88,10.07,11.12,6.79,23.14,11.92,35.61,15.96,16.12,5.25,32.38,6.5,49.18,1.81-3.39-3.07-6.4-5.91-9.56-8.64-9.31-7.98-17.34-16.85-22.68-27.71-4-8.16-6.26-16.67-5.24-25.57,1.5-13.1,5.44-25.65,10.61-37.75,14.83-34.66,29.91-69.2,44.84-103.82,4.49-10.41,8.8-20.89,13.15-31.31-2.17-1.6-4.2-1.83-6.65-1.13-14,3.98-28.07,7.77-42.09,11.71-7.56,2.14-15.29,3.94-22.52,6.8-9.5,3.78-16.94,9.79-20.78,19.47-15.52,39.09-31.32,78.07-46.95,117.1Zm3.17,22.29c-.74-6.49-.02-12.81,2.37-18.78,16.02-40.22,32.19-80.36,48.33-120.53,2.39-5.95,7.47-9.45,12.92-12.62,6.61-3.86,14.17-5.16,21.45-7.2,13.26-3.71,26.56-7.3,39.85-10.93,.33-.08,.69-.05,1.02-.08-.7,6.45-4.54,9.49-11.02,11.24-11.41,3.09-22.47,7.24-33.71,10.85-3.34,1.08-6.83,1.82-10.2,2.81-8.23,2.43-14.08,7.37-17.11,15.09-5.99,15.28-11.99,30.57-17.85,45.9-8.86,23.16-17.56,46.36-26.42,69.52-4.82,12.58-1.34,23.89,6.46,34.47,7.1,9.61,16.46,16.85,27.1,22.72,2.43,1.35,4.41,3.45,6.31,5.56-10.54-3.95-20.91-8.07-30.02-14.47-4.8-3.37-8.27-7.91-11.04-12.91-3.63-6.59-7.6-13.02-8.45-20.62Zm60.55,2.07c-6.78-8.96-10.94-18.03-7.07-28.31,14.12-37.47,28.51-74.84,42.82-112.25,.29-.79,.71-1.54,1.01-2.33,1.8-4.5,4.68-7.66,10.05-8.7,3.87-.76,7.54-2.4,12-3.87-3.14,7.43-5.98,14.3-8.95,21.11-12.89,29.76-25.95,59.44-38.69,89.26-5.4,12.66-9.28,25.79-11.02,39.48-.22,1.66-.11,3.34-.16,5.63Z"/><path class="cls-2" d="M587.56,651.51c.7,.19,1.54,.44,2.37,.64,16.02,4.04,32.09,7.84,48.01,12.18,9.99,2.72,16.55,8.94,17.65,19.22,.25,2.4-.14,4.88-.25,7.42,4.03-6.74,3.36-14.2-1.69-20.25-3.74-4.49-8.66-7.36-14.22-9.05-10.91-3.31-21.84-6.51-32.74-9.7-4.89-1.42-9.75-2.85-14.62-4.28-.4-.11-.77-.23-1.17-.34-1.06,1.33-2.21,2.76-3.35,4.16Z"/><path class="cls-4" d="M602.01,496.35c-2.39,5.97-3.11,12.29-2.37,18.78,.85,7.61,4.82,14.04,8.45,20.62,2.77,5,6.24,9.54,11.04,12.91,9.11,6.4,19.48,10.52,30.02,14.47-1.9-2.11-3.88-4.21-6.31-5.56-10.65-5.87-20.01-13.11-27.1-22.72-7.79-10.58-11.28-21.88-6.46-34.47,8.86-23.16,17.56-46.36,26.42-69.52,5.86-15.33,11.86-30.62,17.85-45.9,3.03-7.71,8.87-12.66,17.11-15.09,3.37-.99,6.86-1.73,10.2-2.81,11.23-3.61,22.3-7.77,33.71-10.85,6.48-1.74,10.32-4.78,11.02-11.24-.33,.03-.69,0-1.02,.08-13.29,3.64-26.59,7.22-39.85,10.93-7.28,2.04-14.84,3.34-21.45,7.2-5.45,3.18-10.53,6.67-12.92,12.62-16.13,40.17-32.3,80.32-48.33,120.53Z"/><path class="cls-4" d="M595.05,636.73c-3.37,.24-4.63,1.66-4.98,4.74,1.2,.34,2.41,.64,3.59,1.03,4.84,1.58,9.62,3.29,14.49,4.73,13.34,3.92,27.09,6.6,39.84,12.37-2.21-3.1-4.41-6.18-6.6-9.29-1.64-2.3-3.23-4.64-4.85-6.96-10.07-2.71-19.97-6.17-30.49-6.79-3.65-.2-7.34-.1-10.99,.18Z"/><path class="cls-1" d="M593.66,642.51l-1.58,5.18c4.87,1.43,9.73,2.87,14.62,4.28l1.45-4.73c-4.87-1.43-9.65-3.15-14.49-4.73Z"/><path class="cls-1" d="M601.94,589.41c-.48,3.14-.93,6.27-1.41,9.41l.8,.89c.51-3.41,1.01-6.81,1.52-10.22-.27-.21-.57-.39-.84-.6-.03,.18-.04,.34-.08,.52Z"/><path class="cls-1" d="M594.34,713.2c3.68,1.68,7.36,3.34,11.02,5.01,1.69-1.15,3.39-2.3,5.1-3.42,2.56-1.67,5.11-3.35,7.67-5.01-4.56-1.15-9.12-2.29-13.68-3.42-.52,.59-.92,1.36-1.58,1.76-2.79,1.76-5.68,3.41-8.52,5.08Z"/><path class="cls-1" d="M620.62,362.13c.33-.06,.68-.12,1.01-.21,2.67-3.99,5.33-7.97,7.98-11.95-.39,.08-.76,.14-1.15,.21-.79,.81-1.52,1.65-2.25,2.52-1.88,3.15-3.71,6.27-5.59,9.42Z"/><path class="cls-4" d="M610.45,714.79c-1.71,1.13-3.41,2.28-5.1,3.42,6.22,2.84,12.44,5.73,18.69,8.5,.74,.32,1.96,.24,2.68-.14,17.63-9.49,34.55-19.97,48.97-33.65,6.92-6.6,12.78-13.87,16.64-22.64,2.53-5.77,1.06-10.97-1.01-16.12-4.39-.54-8.52-.81-12.55-1.59-9.36-1.85-18.67-3.93-28.01-5.91,2.84,3.95,5.79,7.84,8.51,11.88,3.02,4.42,5.56,9.08,4.88,14.57-.15,1.24-.64,2.44-.97,3.65,1.56,9.99-1.68,18.27-9.52,24.83-10.21,8.56-22.39,10.12-35.53,8.19-2.56,1.66-5.11,3.33-7.67,5.01Z"/><path class="cls-4" d="M638.08,590.5c-1.15,6.91-2.24,13.57-3.4,20.53,14.72,3.63,29.31,7.22,44.49,10.97-3.52-7.83-6.71-15.04-10.05-22.18-.33-.74-1.49-1.36-2.4-1.64-5.13-1.49-10.31-2.86-15.46-4.24-4.35-1.17-8.7-2.27-13.18-3.43Z"/><path class="cls-1" d="M650.76,646.67c-4.75-1.11-9.49-2.21-14.23-3.32,1.62,2.32,3.21,4.66,4.85,6.96,2.19,3.12,4.39,6.2,6.6,9.29,7.29,3.95,12.71,9.4,15.19,17.16,.34-1.21,.83-2.4,.97-3.65,.68-5.49-1.86-10.15-4.88-14.57-2.72-4.03-5.66-7.92-8.51-11.88Z"/><path class="cls-1" d="M679.45,324.76c-.03,.11-.06,.23-.08,.34l30.52-8.16c-.01-.11-.02-.2-.02-.31-.29,.07-.61,.15-.9,.23-9.84,2.64-19.7,5.26-29.52,7.9Z"/><path class="cls-1" d="M687.48,503.23c-2.15,8.26-2.95,16.4,1.28,24.36,2.47,4.65,5.47,9.05,8.03,13.67,2.8,5.04,6.13,9.66,10.61,13.57,5.54,4.87,10.89,9.91,16.41,14.8,.54,.48,1.64,.7,2.38,.58,16.31-2.4,32.63-4.74,48.88-7.4,8.23-1.34,8.17-1.6,15.56,2.4,4.27,2.31,8.53,4.64,12.79,6.95-.39-.94-1-1.52-1.63-2.12-6.24-6.12-13.24-11.75-18.48-18.57-3.58-4.62-7.78-8.63-11.35-13.17-.54-.7-1.15-1.35-1.72-2.02-3.41-4-4.81-8.54-4.49-13.61,.36-5.59,3.29-10.84,2.18-16.63,5.63-24.3,11.05-48.64,16.92-72.89,4.86-20.09,8.22-40.53,14.7-60.27,2.18-6.62,3.08-13.66,4.55-20.5-3.22,5.28-5.97,10.74-8.95,16.09-.62,1.11-1.89,2.22-3.14,2.61-11.78,3.68-23.57,7.29-35.46,10.69-7.37,2.1-14.62,4.76-22.55,4.92-4.11,.09-8.22,.68-12.34,1.06l-.03,.4c3.86,1.53,7.74,3.08,11.86,4.7-10.35,23.79-20.54,47.29-30.81,70.76-5.69,12.98-11.61,25.85-15.21,39.61Zm5.66,18.37c-2.1-5.49-.84-10.77,.43-16.05,3.15-13.14,8.81-25.4,14.21-37.75,10.59-24.25,21.07-48.56,31.54-72.87,.76-1.74,1.74-2.8,3.75-3.37,15.59-4.46,31.16-9.07,46.72-13.62,.25-.07,.54,0,1.13-.01-10.82,46.9-21.6,93.62-32.36,140.23-8.8,.73-17.26,1.46-25.75,2.14-12.31,.97-24.65,1.87-36.97,2.9-1.54,.12-2.14-.15-2.71-1.59Zm13.94,21.91c-2.7-4.83-5.8-9.46-9-14.61,20.19-1.65,40.01-3.26,60.1-4.88,.24,6.72,2.89,12.6,7.49,18.2-7.89,.53-15.29,.99-22.69,1.55-9.99,.75-20,1.48-29.99,2.4-2.7,.26-4.48-.11-5.91-2.65Zm8,8.2c3.84-.36,7.12-.76,10.41-.97,14.48-.99,28.97-1.92,43.47-2.84,.73-.05,1.76,.04,2.21,.48,2.62,2.46,5.12,5.06,8,7.94-9.31,1.65-18.06,3.3-26.87,4.7-7.74,1.23-15.53,2.19-23.31,3.19-.85,.11-2.09-.05-2.61-.57-3.7-3.75-7.28-7.64-11.3-11.93Z"/><path class="cls-2" d="M695.3,680.9c-2.97,3.97-5.82,7.77-8.72,11.63,7.23,5.38,14.33,10.68,21.47,16.02,3.5-3.78,6.8-7.36,10.24-11.05-7.81-5.63-15.34-11.07-22.98-16.6Z"/><path class="cls-4" d="M698.08,528.89c3.2,5.15,6.3,9.78,9,14.61,1.43,2.54,3.21,2.91,5.91,2.65,9.99-.92,20-1.65,29.99-2.4,7.41-.55,14.81-1.02,22.69-1.55-4.6-5.6-7.25-11.48-7.49-18.2-20.09,1.62-39.91,3.23-60.1,4.88Z"/><path class="cls-1" d="M699.72,654.13c.73,3.96,1.41,7.58,2.13,11.41,1.25-1.35,2.62-2.54,3.59-3.99,1.59-2.43,2.95-5.03,4.4-7.56l-.02-.02c-3.28,.05-6.57,.1-10.1,.16Z"/><path class="cls-1" d="M709.96,653.76l-.13,.21,.02,.02c.04-.07,.07-.16,.11-.23Z"/><path class="cls-1" d="M755.53,338.79c-3.16,8.67-6.88,17.14-10.56,26.2,18.82-5.64,37.68-10.68,56.18-16.59,14.39-4.6,28.54-9.71,42.27-16.06-.92-1.06-1.64-1.94-2.41-2.77-4.77-5.21-9.37-10.55-14.34-15.54-3.13-3.14-7.08-4.53-11.75-3.09-12.05,3.73-24.13,7.34-36.19,10.99-4.1,1.23-8.2,2.47-12.57,3.77-.69-4.5-1.35-8.67-2.03-13.11-2.91,8.94-5.47,17.66-8.6,26.2Zm.4,16.85c1.02-3.81,2.14-6.51,6.42-7.66,10.31-2.74,20.43-6.07,30.65-9.13,.75-.23,1.6-.61,2.3-.46,7.63,1.61,14.38-1.49,21.35-3.21,3.22-.78,6.41-1.67,9.7-2.25-22.68,9.35-46.46,15.79-70.42,22.71Zm5.76-14.67c1.11-2.87,2.08-5.5,3.21-8.08,.21-.49,1.02-.84,1.63-1.03,13.91-4.24,27.82-8.46,41.74-12.68,.24-.07,.52-.01,1.38-.03-13.84,11.83-30.29,17.51-47.96,21.82Zm44.48-9.94c5.48-3.96,11.03-7.74,13.24-15.47,3.47,3.3,6.43,6.1,9.75,9.25-8,2.16-15.5,4.2-22.99,6.22Z"/><path class="cls-2" d="M762.35,347.98c-4.28,1.15-5.4,3.85-6.42,7.66,23.96-6.92,47.74-13.36,70.42-22.71-3.28,.58-6.48,1.47-9.7,2.25-6.97,1.72-13.72,4.82-21.35,3.21-.7-.15-1.55,.23-2.3,.46-10.22,3.06-20.34,6.39-30.65,9.13Z"/><path class="cls-2" d="M764.9,332.89c-1.13,2.58-2.1,5.21-3.21,8.08,17.67-4.3,34.12-9.98,47.96-21.82-.86,.02-1.15-.04-1.38,.03-13.93,4.22-27.83,8.44-41.74,12.68-.61,.18-1.42,.53-1.63,1.03Z"/><path class="cls-2" d="M757.38,593.32c-2.99,.26-5.91,1.06-9.06,1.65,4.31,6.53,8.38,12.63,12.33,18.77,.86,1.33,1.73,1.62,3.3,1.35,8.57-1.51,17.19-2.89,25.79-4.32,12.45-2.11,24.93-4.12,37.35-6.38,16.43-2.99,32.84-6.07,49.23-9.3,13.19-2.59,26.33-5.48,39.5-8.23,0-.15-.02-.31-.02-.48-4.23,.08-8.44,.03-12.66,.22-23.25,.95-46.48,2-69.7,2.96-16.43,.68-32.85,1.16-49.27,1.91-8.95,.42-17.87,1.12-26.78,1.85Z"/><path class="cls-2" d="M800.38,228.37c-1.92,.53-3.6,.99-5.64,1.54,6.04,19.73,12.05,39.36,18.06,58.98,4.51-1.11,8.63-2.1,13.16-3.21-8.52-19.08-17.03-38.15-25.59-57.31Z"/><path class="cls-1" d="M811.28,228.93c-1.28,.18-2.56,.36-4.59,.66,8.73,18.05,17.23,35.64,25.8,53.34,1.93-.38,3.72-.76,5.53-1.13-8.92-17.63-17.83-35.25-26.73-52.87Z"/><path class="cls-2" d="M811.28,228.93c8.9,17.62,17.81,35.25,26.73,52.87,2.27-.41,4.55-.8,7-1.24-4.6-8.34-8.95-16.39-13.42-24.38-3.79-6.76-7.62-13.51-11.61-20.18-1.97-3.28-4.28-6.42-8.7-7.07Z"/><path class="cls-2" d="M819.24,226.59c-1.47-.12-2.86,.27-4.2,1.01,3.82,2.14,6.27,5.41,8.27,9,7.77,13.89,15.49,27.81,23.26,41.7,.39,.69,1.1,1.79,1.64,1.78,4.67-.06,8.63,1.84,12.53,3.98,8,2.68,10.79,11.11,5.47,17.06-1.69,1.89-4,3.28-6.01,4.91-.45,.36-.83,.8-1.22,1.22,5.64-1.38,9.36-4.75,10.84-10.05,1.34-4.74,.69-9.57-1.9-13.84-2.95-4.91-6.41-9.53-9.72-14.24-1.58-2.25-3.31-4.39-5.29-7.02,.03,.95,.1,1.28,.04,1.62-.16,1.19-.36,2.39-.57,3.59-1.23-.5-2.83-.71-3.65-1.57-2.4-2.57-4.78-5.23-6.67-8.14-4.66-7.24-10.24-14.14-10.85-23.03-.01-.11-.08-.23-.17-.34-.09-.1-.2-.2-.31-.28-2.73-2.11-5.28-4.47-8.22-6.25-1.14-.68-2.23-1.03-3.28-1.12Z"/><path class="cls-1" d="M819.46,221.66l-.22,4.93c1.05,.09,2.14,.44,3.28,1.12,2.94,1.78,5.5,4.14,8.22,6.25,.11,.08,.22,.18,.31,.28l4.15-3.01c-.26-.35-.55-.68-.83-1.03-3.83-4.6-8.66-8.16-14.91-8.53Z"/><path class="cls-2" d="M819.4,315.56c-2.21,7.73-7.76,11.51-13.24,15.47,7.49-2.02,14.99-4.06,22.99-6.22-3.32-3.16-6.29-5.96-9.75-9.25Z"/><path class="cls-4" d="M802.37,584.61c.03,.13,.04,.26,.07,.39,44.43-1.83,88.88-3.64,133.6-5.48-1.27-5.49-2.44-10.58-3.57-15.46-3.82,.06-7.14,.03-10.47,.17-5.56,.22-11.22,0-16.64,.9-13.15,2.18-26.18,4.93-39.25,7.4-14.14,2.69-28.28,5.33-42.4,7.99-7.12,1.36-14.22,2.74-21.34,4.1Z"/><path class="cls-2" d="M817.81,544.44c-.06,.3-.1,.59-.16,.9,1.1,.44,2.26,1.36,3.25,1.22,4.34-.6,8.63-1.5,13.14-2.36-5.57,.09-10.91,.16-16.23,.24Z"/><path class="cls-2" d="M849.67,262.66c-3.01-8.83-8.52-16.26-14.8-23.27,3.43,8.59,8.22,16.42,14.46,23.48,.12-.06,.22-.14,.34-.21Z"/><path class="cls-1" d="M844.69,307.61c.38,.07,.74,.14,1.08,.2,5.78,1.05,9,.98,11.58-.09,.55-.17,1.1-.36,1.65-.53l-.02,.05c.39-.42,.77-.86,1.22-1.22,2.02-1.63,4.32-3.02,6.01-4.91,5.32-5.95,2.53-14.38-5.47-17.06,.28,.61,.45,1.28,.83,1.84,3.99,5.87,3.07,12.29-2.67,16.29-2.16,1.51-4.77,2.52-7.29,3.51-2.01,.78-4.19,1.19-6.91,1.92Z"/><path class="cls-2" d="M849.33,262.86c.21,.24,.43,.45,.66,.69,.08-.08,.19-.18,.29-.27-.22-.2-.41-.42-.61-.63-.12,.06-.22,.14-.34,.21Z"/><path class="cls-4" d="M867.63,322.37c2.29,4.36,4.4,8.38,6.51,12.4l2.11,4.51c3.66-1.47,7.29-2.96,10.95-4.44,2.83-1.14,4.78-3.18,5.63-6.04,1.02-3.48,.43-6.75-2.17-9.56-2.28-2.45-5.31-3.73-8.48-2.69-4.97,1.63-9.72,3.85-14.56,5.8Z"/><path class="cls-1" d="M952.32,535.71c.22,1.24,.26,1.75,.39,2.25,1.6,5.81,3.44,11.59,4.75,17.47,1.48,6.57,2.56,13.23,3.61,19.89,1.78,11.21,3.52,22.46,5.01,33.71,.71,5.34,.84,10.73,1.22,16.12,1.93,28,1.3,55.92-1.83,83.71-2.03,17.84-4.71,35.57-8.85,53.05-1.29,5.37-2.18,10.84-3.26,16.26,4.96-4.66,8.39-10.17,10.36-16.28,2.76-8.54,5-17.24,7.34-25.91,4.57-16.84,7.59-34.02,9.67-51.33,1.64-13.74,3.04-27.53,3.86-41.34,.81-13.92,.88-27.93,1.02-41.89,.03-2.85,.03-5.27,2.88-6.94,1.1-.63,1.87-1.79,2.71-2.77,7.23-8.77,4.54-20.96-5.71-25.94-.14,.13-.31,.25-.45,.38,.73,1.08,1.53,2.13,2.2,3.24,4.96,8.1,3.46,15.85-4.23,21.37-1.05,.77-2.6,.91-3.78,1.57-2.46,1.37-4.83,2.9-7.48,4.5-1.76-12.01-3.44-23.38-5.17-35.25,5.19-.07,10.24-.15,15.69-.23-1.3-4.82-2.31-9.15-3.68-13.38-.56-1.78-.57-2.76,1.11-3.98,3.48-2.51,6.15-5.74,6.05-10.2-.12-6.38-4.46-9.93-10.03-12.53-.16,.15-.31,.28-.47,.41,.74,.88,1.53,1.71,2.21,2.63,4.73,6.28,3.83,12.04-2.92,16.05-3.35,1.97-7.19,3.17-10.75,4.84-1.69,.82-2.69,.37-3.82-.98-2.32-2.73-4.8-5.32-7.66-8.49Zm12.8,18.85c-.35-1.01-.36-2.14-.54-3.36,2.42-.85,4.9-1.71,7.6-2.65,.75,2.43,1.41,4.61,2.24,7.3-2.75,.04-5.29,.15-7.83,.04-.52-.03-1.27-.78-1.46-1.34Zm9.26,127.52c1.47-26.5-.44-52.97-1.95-79.64,2.15-.85,4.32-1.71,6.81-2.7,.89,27.79-1.36,55.11-4.86,82.34Z"/><path class="cls-7" d="M974.81,520.79l-.19,.26c.21,.22,.43,.42,.65,.62,.16-.13,.31-.27,.47-.41-.32-.15-.63-.31-.93-.46Z"/><path class="cls-4" d="M966.59,561.58c1.73,11.87,3.41,23.23,5.17,35.25,2.65-1.59,5.02-3.12,7.48-4.5,1.18-.66,2.72-.81,3.78-1.57,7.69-5.51,9.19-13.27,4.23-21.37-.67-1.11-1.47-2.16-2.2-3.24-.23-.24-.45-.47-.66-.73,.04-.09,.11-.17,.17-.26l-2.28-3.81c-5.45,.08-10.51,.16-15.69,.23Z"/><path class="cls-7" d="M984.56,565.16c-.06,.09-.13,.17-.17,.26,.21,.25,.43,.49,.66,.73,.14-.13,.31-.25,.45-.38-.31-.21-.62-.4-.93-.61Z"/></g></g><g><path class="cls-1" d="M485.52,213.62c-1.27-1.21-2.6-2.35-3.95-3.45-.27-.22-.53-.44-.8-.65-1.2-.95-2.44-1.85-3.7-2.72-.51-.36-1.03-.7-1.55-1.04-.99-.64-1.98-1.27-3-1.86-.94-.56-1.89-1.09-2.86-1.61-.37-.2-.74-.39-1.11-.59-1.77-.92-3.57-1.8-5.41-2.61-6.17-2.74-12.68-4.93-19.44-6.71-12.37-3.27-25.95-5.13-40.5-5.38-11.53-.25-23.6,.48-35.87,2.27l.21,.9,.72,3.12,13.09,56.38,.21,.9,114.03-24.94c-.15-.29-.32-.56-.48-.84-2.48-4.36-6.12-7.85-9.6-11.16Zm-97.32,27.07l-10.32-44.44c8.41-.85,16.8-1.2,25.07-1.02,13.54,.23,26.44,1.94,38.33,5.08,6.69,1.77,12.61,3.81,18.1,6.24,1.64,.73,3.28,1.52,4.91,2.37l.99,.52c.86,.47,1.72,.94,2.58,1.46,.9,.53,1.79,1.09,2.66,1.65,.46,.3,.92,.61,1.39,.93,1.15,.79,2.24,1.6,3.25,2.39l.71,.58c1.34,1.09,2.47,2.08,3.46,3.01,.37,.35,.74,.7,1.11,1.06l-92.23,20.17Z"/><path class="cls-1" d="M527.23,245.64c-8.35,1.82-16.71,3.64-25.7,5.6l-6.19,1.35-.6,5.98c-.52,5.09-2.99,10.46-6.15,15.75-3.26-7.33-9.03-14.59-18.87-20.4l95.61-20.91-2.14-8.18c-6.83-26.1-24.98-40.41-38.04-48.9-14.54-9.44-31.47-16.18-53.29-21.22-40.97-9.46-91.65-8.53-142.69,2.63l-8.49,1.86,21.22,91.39-92.87,20.31c3.62-10.61,10.73-20.56,21.78-30.62,14.1-12.85,30.82-23.09,49.68-30.41l6.86-2.66-10.76-46.32-9.22,3.08c-36.4,12.17-68.58,30.55-93.04,53.14-13.16,12.14-22.89,24.48-29.74,37.73-7.77,15.03-16.13,34.95-11.84,55.83l1.7,8.26,174.46-38.14,13.69,58.96c-8.42,.93-17.53,1.24-27.61,.97-38.02-1.01-65.83-11.32-82.65-30.64l-3.38-3.88-73.15,16.04,7.93,10.12c1.25,1.6,31.44,39.29,95.44,51.17,34.27,6.36,76.21,4.51,121.28-5.34,3.43-.75,6.92-1.55,10.38-2.4l8.24-2-21.41-92.36c.27-.06,.53-.12,.8-.18,23.28-5.09,29.97,5.11,32.18,8.47,4.87,7.41,6.82,18.6,8.71,29.43,.65,3.72,1.32,7.57,2.11,11.21,.16,.77,.32,1.55,.48,2.33,1.23,6.06,2.51,12.33,6.43,16.42,6.53,6.85,16.46,4.68,20.19,3.86,1.48-.32,3.05-.73,4.8-1.23,9.16-2.65,29.79-16.81,33.95-19.7,47.96-34.51,55.74-80.85,56.05-82.81l1.86-11.84-12.33,2.7c-8.97,1.96-17.31,3.78-25.65,5.59Zm-25.15,79.83s-23,15.99-31.2,18.36c-8.97,2.6-13.49,2.37-16.05-.32-2.7-2.82-3.67-9.26-4.87-14.91-3.1-14.41-4.31-31.72-11.95-43.33-9.4-14.32-26.98-17.22-50.62-9.57l21.35,92.08c-47.44,11.53-91.75,14.33-127.82,7.63-61.47-11.41-90.2-48.05-90.2-48.05l54.86-12.03c20.47,23.52,53.31,32.64,89.04,33.59,12.04,.33,25.24-.08,38.46-2.37l-17.57-75.67-174.25,38.1c-3.87-18.82,4.26-37.37,11.1-50.61,6.94-13.43,16.67-24.99,27.97-35.41,22.81-21.06,53.22-39,89.82-51.24l7.09,30.53c-21.01,8.16-38.55,19.45-52.45,32.12-13.83,12.6-24.9,27.81-27,47.41l114.44-25.03-21.22-91.39c52.37-11.45,100.84-11.39,138.68-2.65,18.76,4.33,35.63,10.39,50.47,20.03,14.77,9.6,28.99,22.81,34.58,44.16l-110.56,24.18c1.88,4.17,7.27,3.88,10.83,5.17,13.37,4.87,27.94,14.36,28.67,35.46,2.96-1.2,6.38-4.02,8-6.44,5.16-7.63,10.76-16.72,11.7-26,17.97-3.93,33.4-7.27,51.35-11.2,0,0-7.01,44.55-52.66,77.39Z"/><path class="cls-3" d="M491.69,285.27c-1.63,2.42-5.04,5.24-8,6.44-.73-21.09-15.3-30.59-28.67-35.46-3.56-1.29-8.95-1-10.83-5.17l110.56-24.18c-5.58-21.34-19.81-34.56-34.58-44.16-14.84-9.64-31.71-15.7-50.47-20.03-37.84-8.74-86.31-8.8-138.68,2.65l21.22,91.39-114.44,25.03c2.1-19.59,13.17-34.81,27-47.41,13.9-12.67,31.44-23.97,52.45-32.12l-7.09-30.53c-36.61,12.24-67.02,30.18-89.82,51.24-11.3,10.42-21.02,21.98-27.97,35.41-6.85,13.24-14.97,31.79-11.1,50.61l174.25-38.1,17.57,75.67c-13.22,2.29-26.42,2.7-38.46,2.37-35.73-.95-68.56-10.07-89.04-33.59l-54.86,12.03s28.73,36.64,90.2,48.05c36.07,6.7,80.38,3.9,127.82-7.63l-21.35-92.08c23.64-7.66,41.22-4.75,50.62,9.57,7.64,11.61,8.85,28.93,11.95,43.33,1.2,5.65,2.17,12.09,4.87,14.91,2.56,2.68,7.08,2.91,16.05,.32,8.2-2.38,31.2-18.36,31.2-18.36,45.64-32.84,52.66-77.39,52.66-77.39-17.94,3.92-33.38,7.27-51.35,11.2-.94,9.28-6.55,18.37-11.7,26Zm-110.13-34.7l-.21-.9-13.09-56.38-.72-3.12-.21-.9c12.27-1.79,24.34-2.52,35.87-2.27,14.54,.25,28.13,2.11,40.5,5.38,6.75,1.78,13.27,3.98,19.44,6.71,1.84,.82,3.64,1.69,5.41,2.61,.37,.2,.75,.39,1.11,.59,.96,.52,1.92,1.05,2.86,1.61,1.01,.6,2.01,1.22,3,1.86,.52,.34,1.04,.69,1.55,1.04,1.26,.87,2.49,1.77,3.7,2.72,.27,.21,.53,.44,.8,.65,1.35,1.1,2.68,2.24,3.95,3.45,3.48,3.31,7.12,6.81,9.6,11.16,.16,.28,.33,.55,.48,.84l-114.03,24.94Z"/></g></g></g></svg>