<?xml version="1.0" encoding="UTF-8"?><svg id="Layer_2" xmlns="http://www.w3.org/2000/svg" viewBox="0 0 364.56 123.18"><defs><style>.cls-1{letter-spacing:-.02em;}.cls-2,.cls-3{fill:#00275e;}.cls-4,.cls-5{fill:#fdd100;}.cls-6{fill:#f8b62d;font-family:Alfarn2, 'Alfarn 2';font-size:37.52px;}.cls-5,.cls-3{fill-rule:evenodd;}.cls-7{letter-spacing:-.07em;}</style></defs><g id="Layer_1-2"><g><g><path class="cls-2" d="M49.56,.12C40.74,.12,10.91,.05,10.91,.05l-2.93,17.57h7.8L6.53,62.53H28.49l5.4,24.17,21.15-.07-6.47-30.27c8.77,0,11.03-11.7,11.03-11.7,0,0,3.45-16.24,5.68-27.06C67.5,6.8,58.38,.12,49.56,.12Zm-4.6,22.32s-3.05,14.8-3.62,17.59c-.57,2.79-3.62,4.65-5.27,4.65h-5.55l5.55-27.06h7.15c1.97,0,1.74,4.82,1.74,4.82Z"/><polygon class="cls-2" points="21.87 86.71 1.2 86.71 4.61 71.88 24.92 71.88 21.87 86.71"/><polygon class="cls-4" points="4.61 71.88 24.92 71.88 26.12 66.06 5.81 66.06 4.61 71.88"/></g><g><path class="cls-2" d="M103.69,0h-5.28c-13.65,0-20.18,5.54-22.5,16.35l-9.17,46.13h17.54l8.6-43.37c.6-2.79,2.28-4.21,5.8-4.21h1.36c3.52,0,5.38,1.34,5.01,4.21l-9.62,48.49s0,.01,0,.02l-.83,4.2h-29.56c-.63,10.15,6.56,14.89,19.59,14.89h5.28c13.65,0,20.18-5.54,22.5-16.35l10.74-54.01c1.44-11.16-5.81-16.35-19.46-16.35Z"/><path class="cls-4" d="M83.58,66.01h-17.54l-.86,4.35c-.06,.5-.11,.99-.14,1.46h29.56l.83-4.2,.32-1.61h-12.17Z"/></g><g><polygon class="cls-2" points="174.73 .23 160.49 37.14 159.29 37.14 157.74 .23 134.93 .23 131.08 17.73 138.33 17.73 145.21 62.69 165.97 62.69 196.86 .23 174.73 .23"/><polygon class="cls-4" points="145.44 66.24 144.22 72.05 164 72.05 165.26 66.24 145.44 66.24"/><polygon class="cls-2" points="141.16 86.71 160.84 86.71 164 72.05 144.22 72.05 141.16 86.71"/></g><g><polygon class="cls-2" points="189.5 71.88 182.97 86.71 203.16 86.62 208.41 71.88 189.5 71.88"/><path class="cls-2" d="M205.33,.05l-3.86,17.57h7.28l-10.1,27.06h-8.03l-3.84,17.85h38.04l-2.44,24.17h20.7L247.75,.12l-42.42-.06Zm21.19,44.63h-8.51l9.73-26.99h1.59l-2.8,26.99Z"/><polygon class="cls-4" points="208.41 71.88 210.67 66.06 191.88 66.06 189.5 71.88 208.41 71.88"/></g><g><polygon class="cls-2" points="291.71 .05 284.76 33.32 281.18 50.74 278.75 62.53 258.89 62.53 268.14 17.62 260.64 17.62 264.26 .05 291.71 .05"/><polygon class="cls-4" points="258.17 66.06 298.1 66.06 297.02 71.88 256.97 71.88 258.17 66.06"/><polygon class="cls-2" points="253.81 86.71 256.97 71.88 297.02 71.88 294.26 86.71 253.81 86.71"/></g><g><path class="cls-3" d="M364.56,.17l-3.59,17.45h-20.62c-3.37,0-7.61,11.7-3.05,14.81,4.56,3.11,18.64,9.62,17.01,17.54-.68,3.3-2.61,12.66-2.61,12.66l-20.6-.09s.8-3.9,1.27-6.16c.46-2.26,2.85-4.43-8.99-11.28-11.83-6.85-8.67-12.66-8.67-12.66l3.62-14.81S321.73-.75,343.94,.17"/><path class="cls-3" d="M306.81,86.71h19.31c4.83,0,22.03-6.85,23.67-14.83h-45.27l2.29,14.83Z"/><polygon class="cls-5" points="350.99 66.06 349.8 71.88 304.53 71.88 303.63 66.06 350.99 66.06"/></g></g><text class="cls-6" transform="translate(0 114.74) scale(.82 1)"><tspan class="cls-1" x="0" y="0">S</tspan><tspan class="cls-7" x="26" y="0">T</tspan><tspan x="48.14" y="0">AFF TEAM</tspan></text></g></svg>