<?xml version="1.0" encoding="UTF-8"?><svg id="Layer_2" xmlns="http://www.w3.org/2000/svg" width="2197.94" height="1916.72" viewBox="0 0 1121.04 851.8"><defs><style>.cls-1,.cls-2,.cls-3,.cls-4{fill:#002a5c;}.cls-5{fill:#fcfcfc;}.cls-6{fill:#fdcb26;}.cls-7{fill:#fff;}.cls-8{fill:#b3b6b6;}.cls-9{fill:#b2b5b6;}.cls-10{fill:#0b0c0c;}.cls-11{fill:#440d2e;}.cls-2{stroke-width:9px;}.cls-2,.cls-3,.cls-12,.cls-4{stroke-miterlimit:10;}.cls-2,.cls-13,.cls-4{stroke:#fff;}.cls-3,.cls-12{stroke:#002a5c;}.cls-3,.cls-12,.cls-13{stroke-width:16px;}.cls-12{fill:#231f20;}.cls-13{fill:none;stroke-linecap:round;stroke-linejoin:round;}.cls-4{stroke-width:6px;}</style></defs><g id="Layer_1-2"><g><g><path class="cls-4" d="M53.34,1720.08l-49.18-68.4v-290.72l49.18-68.4h86.06l49.18,68.4v59.85h-61.47v-42.75h-61.47v256.52h61.47v-42.75h61.47v59.85l-49.18,68.4H53.34Z"/><path class="cls-4" d="M216.74,1720.08v-85.51h30.74v-256.52h-30.74v-85.5h118.55v85.5h-26.34v85.51h61.47v-85.51h-26.34v-85.5h118.55v85.5h-30.74v256.52h30.74v85.51h-118.55v-85.51h26.34v-85.51h-61.47v85.51h26.34v85.51h-118.55Z"/><path class="cls-4" d="M490.79,1720.08v-85.51h30.74l61.47-342.02h61.47l61.47,342.02h30.74v85.51h-118.55v-85.51h26.34l-7.68-42.75h-46.1l-7.68,42.75h26.34v85.51h-118.55Zm122.94-256.52l-7.68,42.75h15.37l-7.68-42.75Z"/><path class="cls-4" d="M764.83,1720.08v-85.51h30.74v-256.52h-30.74v-85.5h92.2l61.47,207.65,61.47-207.65h87.81v85.5h-30.73v256.52h30.73v85.51h-118.55v-85.51h30.73v-122.15c-20.37,64.7-40.73,129.41-61.1,194.11-20.61-64.7-41.22-129.41-61.83-194.11v122.15h29.86v85.51h-122.06Z"/><path class="cls-4" d="M1095.95,1720.08v-85.51h30.74v-256.52h-30.74v-85.5h165.96l49.18,68.4v119.71l-49.18,68.4h-73.76v85.51h30.73v85.51h-122.94Zm92.2-256.52h61.47v-85.51h-61.47v85.51Z"/><path class="cls-4" d="M1339.26,1720.08v-85.51h30.74v-256.52h-30.74v-85.5h118.55v85.5h-26.34v256.52h26.34v85.51h-118.55Z"/><path class="cls-4" d="M1535.15,1720.08l-49.18-68.4v-290.72l49.18-68.4h86.06l49.18,68.4v290.72l-49.18,68.4h-86.06Zm12.29-85.51h61.47v-256.52h-61.47v256.52Z"/><path class="cls-4" d="M1698.55,1720.08v-85.51h30.74v-256.52h-30.74v-85.5h92.2l92.2,244.3v-158.8h-30.74v-85.5h122.94v85.5h-30.73v342.02h-61.47l-92.2-244.3v158.79h30.73v85.51h-122.94Z"/><path class="cls-4" d="M2003.33,1591.82h61.47v42.75h61.47v-85.51h-73.76l-49.18-68.4v-119.71l49.18-68.4h86.06l49.18,68.4v59.85h-61.47v-42.75h-61.47v85.51h72.88l50.05,68.4v119.71l-49.18,68.4h-86.06l-49.18-68.4v-59.85Z"/></g><g><line class="cls-3" x1="1.91" y1="44.63" x2="2197.91" y2="37.47"/><line class="cls-12" x1=".03" y1="891.01" x2="2195.77" y2="883.84"/><path class="cls-2" d="M9.64,824.08V505.43l111.33-115.87h166.99V244.72H148.8v72.42H9.64v-101.39L120.97,99.88h194.83l111.33,115.87v202.78l-111.33,115.87H148.8v144.84h139.16v-72.42h139.16v217.26H9.64Z"/><path class="cls-2" d="M1767.03,824.08V505.43l111.33-115.87h166.99V244.72h-139.16v72.42h-139.16v-101.39l111.33-115.87h194.83l111.33,115.87v202.78l-111.33,115.87h-166.99v144.84h139.16v-72.42h139.16v217.26h-417.48Z"/><path class="cls-2" d="M1252.11,824.08V505.43l111.33-115.87h166.99V244.72h-139.16v72.42h-139.16v-101.39l111.33-115.87h194.83l111.33,115.87v202.78l-111.33,115.87h-166.99v144.84h139.16v-72.42h139.16v217.26h-417.48Z"/></g></g><g><path class="cls-7" d="M546.58,1034.9v178.03h-49.97v-178.03h-35.92v-46.85h121.81v46.85h-35.92Z"/><path class="cls-7" d="M595.61,1212.93v-46.85h9.37v-131.18h-9.37v-46.85h68.71v46.85h-9.37v131.18h9.37v46.85h-68.71Z"/><path class="cls-7" d="M708.04,1212.93c-13.74-5-24.36-13.74-24.36-37.48v-149.92c0-23.74,10.62-32.48,24.36-37.48h73.09c13.74,5,24.36,13.74,24.36,37.48v37.48h-49.97v-31.23l-3.12-3.12h-15.61l-3.12,3.12v137.43l3.12,3.12h15.61l3.12-3.12v-40.6h-12.49v-46.85h62.47v93.7c0,23.74-10.62,32.48-24.36,37.48h-73.09Z"/><path class="cls-7" d="M824.84,988.05h103.07v46.85h-53.1v40.6h49.97v46.85h-49.97v43.73h54.66v46.85h-104.63v-224.88Z"/><path class="cls-7" d="M948.83,1212.93v-224.88h97.45c13.74,5,24.36,13.74,24.36,37.48v47.79c0,21.55-8.74,30.92-20.92,36.23l26.86,71.84v31.54h-43.73l-28.73-87.45h-5.31v87.45h-49.97Zm49.97-184.27v56.22h18.74l3.12-3.12v-49.97l-3.12-3.12h-18.74Z"/><path class="cls-7" d="M1139.96,1212.93v-224.88h97.45c13.74,5,24.36,13.74,24.36,37.48v33.42c0,18.11-6.25,30.92-24.67,37.48,18.43,6.56,24.67,19.36,24.67,37.48v41.54c0,23.74-10.62,32.48-24.36,37.48h-97.45Zm49.97-131.18h18.74l3.12-3.12v-49.97l-3.12-3.12h-18.74v56.22Zm21.86,90.58v-49.97l-3.12-3.12h-18.74v56.22h18.74l3.12-3.12Z"/><path class="cls-7" d="M1402.93,1175.45c0,23.74-10.62,32.48-24.36,37.48h-73.09c-13.74-5-24.36-13.74-24.36-37.48v-149.92c0-23.74,10.62-32.48,24.36-37.48h73.09c13.74,5,24.36,13.74,24.36,37.48v149.92Zm-49.97-143.67l-3.12-3.12h-15.61l-3.12,3.12v137.43l3.12,3.12h15.61l3.12-3.12v-137.43Z"/><path class="cls-7" d="M1517.86,1076.44h-3.12l-9.68,136.49h-61.22l-24.99-185.84v-39.04h44.35l9.68,133.36h3.12l9.37-133.36h61.53l9.68,133.36h3.12l9.68-133.36h44.35v39.04l-24.99,185.84h-61.21l-9.68-136.49Z"/><path class="cls-7" d="M1629.66,988.05h49.97v178.03h51.53v46.85h-101.51v-224.88Z"/></g><g><rect class="cls-7" x=".95" y="988.06" width="413.76" height="224.86"/><rect class="cls-6" x=".95" y="1058.77" width="413.76" height="76.43"/></g><g><rect class="cls-7" x="1778.12" y="984.55" width="413.76" height="224.86"/><rect class="cls-6" x="1778.12" y="1055.26" width="413.76" height="76.43"/></g><g><g><path class="cls-13" d="M582.88,668.39c11,8.1,22.47,15.66,32.89,24.4,12.04,10.09,23.25,21.13,34.67,31.91,6.65,6.28,9.98,6.92,17.09,1.9,2.26-1.59,3.88-.78,5.74,.39,20.3,12.82,40.57,25.67,60.9,38.43,2.41,1.52,3.25,3.22,2.7,5.84-1.85,8.9,3.57,13.38,10.91,14.11,10.96,1.09,21.99,1.78,32.96,1.83,27.4,.11,54.46-2.67,81.29-6.96,1.13-.18,2.69,.15,3.63,.81,9.27,6.55,18.47,13.19,27.66,19.85,26.3,19.06,52.55,38.2,81.36,53.57,7.4,3.95,14.78,8.11,22.57,11.11,9.37,3.61,19.14,6.23,28.8,9.01,14.6,4.21,29.2,8.48,43.92,12.18,18.31,4.6,36.72,8.76,55.13,12.87,16.38,3.65,32.89,6.49,49.57,7.91,2.05,.18,3.53,.93,4.93,2.59,4.75,5.63,12.87,7.39,19.36,4.31,1.84-.88,3.45-2.19,5.27-3.37,.22,.12,.54,.26,.84,.45,7.03,4.5,14.18,4.38,19.9-1.07,4.87-4.63,9.55-9.56,13.56-14.9,17.89-23.78,29.84-50.68,40.43-78.21,5.03-13.07,9.6-26.33,13.86-39.68,3.72-11.68,7.05-23.52,9.94-35.45,3.43-14.19,6.22-28.54,7.48-43.19,.94-10.9,1.43-21.79-.47-32.74-.87-5.03-2.09-10.06-5.4-14.31-5.8-7.43-13.2-12.82-22.06-16.45-8.96-3.67-18.19-6.13-27.63-7.98-14.62-2.87-29.2-6.02-43.82-8.91-16.11-3.19-32.25-6.25-48.39-9.29-9.08-1.72-18.18-3.29-27.27-4.95-6.42-1.17-12.82-2.39-19.47-3.62,.55-1.22,.95-2.22,1.43-3.18,22.4-44.46,44.8-88.91,67.28-133.33,.46-.92,1.79-1.79,2.86-1.95,20.68-3.1,41.39-6.05,62.06-9.18,2.36-.36,4.77-1.31,6.76-2.55,6.16-3.83,8.35-11.93,5.34-18.55-2.64-5.82-9.89-10.84-17.58-9.19-4.51,.97-9.15,1.46-12.43,1.96-1.84-2.11-3.27-3.74-4.8-5.49,9.91-.41,16.91-4.5,20.18-13.37,2.18-5.91,1.43-11.99-.74-17.93-1.91-5.25-4.03-10.44-6.31-15.56-5.84-13.13-11.6-26.3-17.84-39.28-2.95-6.14-7.53-11.28-15.02-12.49-2.73-.44-5.57-.06-8.48-.05-.46-4.43-3.75-4.44-6.62-4.27-3.25-10.29-6.16-20.37-9.61-30.3-13.61-39.19-33.22-75.58-58.62-109.26-15.98-21.18-33.86-40.75-53.75-58.62-35.65-32.04-75.67-57.38-120.13-75.96-18.53-7.74-37.45-14.23-56.82-19.3-25.07-6.56-50.46-10.97-76.18-13.13-17.64-1.48-35.25-2.14-52.85-1.63-54.35,1.56-106.07,12.51-154.57,34.76-6.69,3.07-13.01,6.85-19.61,10.1-5.69,2.8-11.61,5.18-17.32,7.96-32.74,15.95-62.32,36.08-88.53,60.69-20.94,19.66-39.89,41.03-54.98,65.21-17.68,28.31-32.9,57.97-44.62,89.31-1.91,5.11-2.38,9.69,.23,15.22,3.8,8.04,6.4,16.59,9.2,25.01,.91,2.74,1.42,5.81,1.16,8.61-.93,10.22-2.91,20.35-3.28,30.6-.55,15.17-.67,30.41,.09,45.62,1.88,37.53,7.29,74.84,13.54,112.08,.45,2.69-.12,4.5-2.04,6.32-7.21,6.84-14.26,13.83-21.42,20.72-5.24,5.04-7,11.04-4.11,17.98,7.65,18.34,15.59,36.58,23.22,54.94,2.92,7.03,7.96,11.99,14.6,15.66,6.88,3.8,14.21,6.57,21.84,8.2,17.56,3.75,35.12,7.58,52.79,10.68,13.64,2.39,27.47,3.52,41.16,5.63,7.04,1.08,14.12,2.61,20.9,4.82,5.01,1.64,9.54,4.81,14.36,7.13,6.31,3.05,9.1,2.87,12.34-.27,1.37,1.11,2.67,2.25,4.06,3.27Z"/><g><path class="cls-1" d="M383.55,276.16c-1.91,5.12-2.38,9.71,.23,15.23,3.8,8.03,6.41,16.6,9.21,25,.92,2.74,1.42,5.83,1.16,8.61-.92,10.24-2.91,20.36-3.27,30.62-.55,15.15-.69,30.41,.08,45.6,1.89,37.52,7.3,74.85,13.54,112.09,.45,2.68-.12,4.5-2.04,6.32-7.22,6.83-14.26,13.82-21.44,20.71-5.23,5.06-7,11.04-4.11,17.98,7.65,18.34,15.59,36.59,23.22,54.94,2.92,7.03,7.95,11.99,14.61,15.65,6.88,3.79,14.2,6.57,21.82,8.2,14.15,3.03,28.28,6.09,42.48,8.77l.82-5.1c-2.76-.54-5.52-1.11-8.27-1.72-12.61-2.79-25.29-5.34-37.85-8.42-7.3-1.79-14.27-4.68-20.42-9.24-3.11-2.3-5.48-5.06-6.95-8.57-7.88-18.61-15.83-37.21-23.73-55.85-1.36-3.18-1.42-6.34,.38-9.58,2.62,6.42,8.54,8.55,14.26,10.52,15.86,5.51,31.74,10.92,47.77,15.91,22.54,7.03,44.28,16.07,65.8,25.72,9.4,4.21,18.94,8.1,28.19,12.55,3.62,1.75,7.02,4.32,9.93,7.09,10.6,10.21,20.91,20.69,31.43,30.96,.93,.91,1.31,1.65,1.22,2.37l4.71,1.37c.21-1.27,.21-2.63,.39-3.91l.17-.02c-.17-.23-.35-.46-.52-.69-.13-.39-.27-.76-.43-1.14-.24-.24-.48-.49-.75-.73l-.02,.11c-8.32-8.19-16.67-16.37-24.97-24.55-2.93-2.87-5.88-5.75-8.69-8.72-5.15-5.39-11.92-8.13-18.53-11.03-16.54-7.29-33.06-14.65-49.82-21.42-5.05-2.04-10.16-3.91-15.3-5.74-6.52-2.29-13.06-4.46-19.58-6.69-2.88-.98-5.77-1.94-8.65-2.9-5.42-1.78-10.85-3.52-16.27-5.3-2.28-.74-4.56-1.49-6.84-2.25-1.45-.49-2.88-.98-4.3-1.5-2.73-.95-5.44-1.95-8.17-2.91-1.86-.67-3.7-1.31-5.58-1.91l-.24-.08c-.36-.12-.71-.22-1.07-.35-1.97-.63-3.27-2.43-3.23-4.41,.04-1.42-.15-2.88-.22-4.33-1.08-4.16-.33-7.52,3.21-10.36,4.38-3.51,8.36-7.5,12.51-11.28,2.12-2.67,2.08-5.65,1.51-8.95-5.5-32.07-10.21-64.19-12.46-96.5-1.22-17.15-1.89-34.36-1.59-51.48,.22-12.72,2.61-25.31,3.56-38.01,.32-4.39-.26-8.84-1.63-13.1-2.93-9.1-6.42-18.06-9.95-26.99-.81-2.08-.8-3.79-.12-5.67,11.54-32.15,27.29-62.28,45.2-91.26,12.11-19.57,27.2-37.06,43.41-53.57,33.1-33.73,72.05-59.57,116.3-78.35,5.49-2.33,10.52-5.6,15.8-8.36,1.53-.8,3.21-1.32,4.83-1.98,6.02-2.61,11.98-5.33,18.08-7.76,4.78-1.9,9.75-3.43,14.65-5.13,.7-.22,1.39-.43,2.08-.65l-.03,.05c.57-.08,1.14-.17,1.71-.24l-.03-.1c.71-.37,1.38-.89,2.14-1.13,37.85-11.89,76.98-17.93,117.24-18.07,16.71-.07,33.51,.8,50.23,2.18,23.81,1.97,47.38,6.4,70.58,12.66,7.27,1.96,14.47,4.09,21.56,6.41,3.46,1.12,6.89,2.27,10.3,3.46,45.51,15.91,87.37,39.03,125.27,69.8,27.76,22.52,52.02,48.13,72.87,76.74,27.02,37.09,46.81,77.25,59.59,120.43,1.01,3.39,1.88,6.83,2.83,10.27-6.97,.39-8.4-.71-7.82,8.14,1.3,19.55,2.21,39.13,3.27,58.67,.04,.51-.06,1.03-.13,1.87-4.59,.13-9.24,.25-13.86,.36-28.44,.63-56.86,1.26-85.28,1.88l-31.58,.58c.05-.1,.11-.21,.16-.31-.34,0-.67,.02-1.01,.02-4.31,.13-8.62,.27-12.92,.38-15.15,.42-29.24,3.89-41.67,12.03,.4,.02,.77,.05,1.16,.07-3.53,3.22-7.07,6.44-10.62,9.68-9.87,13.57-19.83,27.08-29.64,40.71-16.19,22.45-32.48,44.85-48.38,67.52-11.44,16.33-14.87,34.6-10.29,54.56,3.06,13.35,7.92,26.09,16.35,37.23,3.32,4.38,3.25,7.46,1.01,11.43-.86,1.53-1.37,3.27-2.02,4.9-1.32,3.19-2.62,6.37-3.94,9.56l-.56-1.05-.31,.76c-.11,2.18-.87,3.29-3.6,3.01-4.68-.46-9.4-.73-14.06-.57-14.88,.51-25.53,7.83-33.87,19.03-.7-.12-1.43-.3-2.19-.46l-1.58,5.15c.58,.2,1.18,.4,1.74,.42-1.13,.88,.03,3.99-2.86,2.8-.32-.13-.71-.41-1.07-.75l-1.48,1.64c.74,.62,1.45,1.22,2.18,1.83,1.9,.84,.68,1.88,.2,2.67-3.7,6.11-7.25,12.3-11.26,18.19-2.59,3.81-3.9,7.64-2.43,12.23,1.78,2.92,3.99,5.3,6.66,6.99,2.24,1.45,4.85,2.41,7.84,2.8,.21,.03,.43,.05,.66,.07l.13-2.2c-.66-.07-1.34-.22-1.99-.39-5.38-1.35-9.61-4.3-11.29-9.81,.32-1.86,.18-4.02,1.08-5.53,4.23-7.1,8.74-14.05,13.2-21.12,.54,.24,1.08,.5,1.62,.76,.4-.54,.77-1.08,1.09-1.5,2.22,1.39,4.47,2.77,6.72,4.16l2.82-4.39c-.98-.62-1.96-1.26-2.93-1.95-3.25-2.31-2.83-2.86-1.17-6.22,2.22-4.47,5.64-7.79,9.45-10.92,7.48-6.09,16.28-8.1,26.1-7.27,1.95,.14,3.92,.43,5.84,.28,5.21-.43,9.66,1.91,14.43,4.08-.14-.55-.11-.84-.26-.99-3.64-3.71-4.12-7.36-1.7-11.95,2.74-5.21,4.45-10.95,6.6-16.43,6.14,4.38,12.2,8.7,18.55,13.24-3.39,7.87-6.91,16.09-10.58,24.65,13.21,6.96,26.37,13.77,39.4,20.79,11.45,6.17,23.53,10.26,36.3,12.05,8.15,1.12,16.31,2.08,24.48,2.88,1.38,.14,3.35-.45,4.11-1.42,1.01-1.32,.95-3.16-.64-4.77-.78-.8-.92-2.23-1.34-3.37-2.2-5.98-4.42-11.94-6.75-18.27,6.67,.35,13.11,.7,19.78,1.06,2.96,8.34,5.92,16.66,8.96,25.2-3.31,1.14-6.41,2.19-9.49,3.25,.03,.15,.05,.28,.08,.45,7.07,.34,14.14,.59,21.2,1.04,6.57,.41,13.13,1.03,19.69,1.52,13.67,1.03,27.33,2.11,40.98,3,14.63,.93,29.26,1.98,43.89,2.47,22.93,.77,45.86,1.19,68.79,1.61,5.82,.1,5.86-.13,6.06-5.69,.28-7.16,.55-14.35,.7-21.54,.05-2.26-.31-4.55-.54-7.31-5.59-.39-11.07-.85-16.55-1.16-15.44-.86-30.85-1.66-46.28-2.5-17.39-.93-34.76-1.86-52.14-2.81-6.57-.36-13.13-.73-19.69-1.1-11.7-.66-23.41-1.33-35.1-1.97-17.3-.94-34.61-2.42-51.88-2.55-12.7-.11-24.34-3.87-36.19-7.72-13.09-4.24-24.46-11.76-36.29-18.35-10.53-5.86-20.63-12.49-29.27-21.04-6.54-6.48-10.75-14.13-13.95-22.28-4.19-10.67-7.25-21.6-7-33,.29-12.94,4.37-24.6,11.84-34.98,24.96-34.68,50.07-69.25,75-103.95,9.21-12.82,22.49-19.18,38.12-21.2,10.15-1.32,20.57-1.18,30.88-1.43,25.99-.64,51.97-1.27,77.95-1.86,19.04-.44,38.07-.85,57.11-1.23,8.65-.16,17.37,.5,26.03,1.04,3.49,.21,7.04,.81,10.4,1.81,2.91,.89,3.87,3.86,2.7,6.53-1.43,3.33-4.3,4.8-7.85,4.95-4.41,.19-8.83,.12-13.24,.06-3.06-.06-4.25,1.56-2.84,4.21,1.49,2.78,3.57,4.99,6.22,6.48l2.13-4.69c-.31-.15-.65-.3-1-.45,2.82-.06,5.03,.06,7.17-.2,2.69-.35,5.46-.71,7.92-1.65,6.53-2.51,8.97-8.52,6.51-15.17-.24-.64-.23-1.32-.36-1.98-3.27-3.01-6.66-5.81-11.21-6.87-.52-.12-.95-1.36-1.16-2.12-4.2-15.35-8.35-30.72-12.55-46.07-1.08-3.97-2.68-7.73-5.86-10.73,1.48-.4,2.92-.44,4.32,.03l1.4-4.73c-.83-.28-1.69-.5-2.61-.64-2.72-.43-5.56-.05-8.48-.05-.45-4.42-3.75-4.43-6.62-4.26-3.25-10.3-6.16-20.38-9.61-30.31-13.6-39.19-33.22-75.6-58.62-109.26-15.98-21.19-33.86-40.75-53.74-58.62-35.65-32.04-75.67-57.4-120.14-75.96-18.53-7.74-37.45-14.22-56.81-19.29-25.07-6.57-50.46-10.97-76.18-13.14-17.65-1.48-35.25-2.12-52.86-1.64-54.35,1.57-106.07,12.52-154.57,34.75-6.7,3.08-13,6.86-19.61,10.11-5.68,2.8-11.61,5.19-17.3,7.96-32.75,15.96-62.33,36.09-88.54,60.69-20.93,19.65-39.89,41.03-54.99,65.2-17.68,28.32-32.89,57.98-44.63,89.31Zm552.31,378.64c2.79-6.48,5.46-12.68,8.24-19.11,4.07,2.21,8.03,4.32,11.97,6.5,4.67,2.58,9.37,5.16,13.99,7.84,.81,.49,1.79,1.37,1.93,2.17,1.52,7.74,2.88,15.5,4.42,23.94-13.83-7.29-27.13-14.28-40.54-21.35Zm114.17,11.75c3.2,.19,6.22,.11,9.19,.58,8.83,1.43,17.65,2.9,26.44,4.64,16.12,3.22,32.17,6.7,48.28,10,22.77,4.66,45.58,9.23,68.37,13.9,4.14,.83,8.22,1.89,12.34,2.84-.03,.16-.06,.32-.09,.47-13.44-.49-26.89-.85-40.32-1.51-16.68-.81-33.36-1.77-50.02-2.82-12.6-.8-25.2-1.85-37.79-2.79-8.7-.68-17.39-1.41-26.07-2.01-1.59-.12-2.36-.61-2.88-2.11-2.36-6.91-4.84-13.81-7.45-21.18Zm132.87-343.18c2.11-.05,3.85-.09,5.84-.14,3.7,20.66,7.37,41.21,11.05,61.78-4.66-.02-8.9-.04-13.55-.05-1.12-20.49-2.23-40.99-3.35-61.59Zm11.66,2.57c2.05,.2,3.33,.33,4.62,.46,4.14,1.69,5.62,5.3,6.74,8.96,2.27,7.43,4.36,14.91,6.42,22.38,2.42,8.83,4.71,17.68,7.16,26.89-2.49-.16-4.78-.32-7.09-.48-1.85-.07-3.68-.14-5.64-.23-4.06-19.25-8.07-38.36-12.21-57.98Zm-89.61,343.94c0-.13,.02-.26,.03-.39,7.24,.39,14.46,.76,21.7,1.15,14.34,.82,28.7,1.66,43.08,2.45,13.28,.74,26.59,1.21,39.88,2.26,5.48,.43,10.92,2.01,16.37,3.13,3.26,.67,6.48,1.49,10.2,2.36-.08,5.01-.17,10.23-.26,15.86-43.85-8.97-87.43-17.91-131-26.82Z"/><path class="cls-7" d="M388.78,281.1c-.67,1.88-.69,3.6,.12,5.67,3.53,8.94,7.01,17.89,9.95,26.99,1.37,4.26,1.95,8.71,1.63,13.1-.96,12.7-3.35,25.29-3.56,38.01-.3,17.11,.37,34.33,1.59,51.48,2.26,32.31,6.97,64.43,12.46,96.5,.58,3.3,.61,6.28-1.51,8.95,.51,.29,1.28,.47,1.49,.91,2.83,5.29,8.05,7.79,13.06,10.32,17.78,8.99,35.78,17.56,53.45,26.71,20.25,10.48,40.27,21.39,60.36,32.18,7.59,4.06,15.09,8.29,22.66,12.43,5.28,2.87,9.26,7.04,12.52,11.86,14.39,21.32,30.23,41.57,48.74,59.83,8.01,7.91,16.26,15.58,24.47,23.29,6.18,5.8,12.49,11.46,18.71,17.14-.53,1.08-1,2.02-1.46,2.95,4.31-2.25,8.26-.64,12,1.72,20.44,12.87,40.84,25.8,61.29,38.66,3.39,2.13,5.58,4.87,6.15,8.68,0,.95-.04,1.9-.07,2.87-.87,4.34-.65,5.96,2.21,6.75-2.03-.88-2.12-2.58-1.37-6.36,.05-.88,.09-1.77,.13-2.64,1.2-1.64,3.02-1.67,4.89-1.79,13.63-.75,27.31-.98,40.82-2.48,14.03-1.57,27.86-4.35,41.77-6.64,.41-.07,.76-.3,1.13-.5-.19-.14-.41-.29-.6-.43-.27-.21-.54-.45-.82-.62-9.03-5.27-15.92-12.1-16.73-22.67-.71-9.51,1.61-18.29,7.53-25.84,1.55-1.98,1.53-3.4-.21-5.55-5.23-6.45-6.97-14.87,.96-22.98,4.56-4.67,8.6-9.79,11.6-15.53,2.93-5.59,7.57-8.36,13.6-8.13,1.31,.04,2.61,.31,3.88,.57,.75,.16,1.48,.33,2.19,.46,8.34-11.2,18.99-18.51,33.87-19.03,4.66-.16,9.38,.11,14.06,.57,2.73,.28,3.49-.82,3.6-3.01l.31-.76c-2-3.82-4.09-7.59-5.98-11.47-11.34-23.27-22.67-46.56-33.94-69.87-8.08-16.67-16.04-33.37-24.07-50.06-.91-1.9-1.77-3.82-2.85-5.64-3.74-6.33-2.39-12,1.75-17.18,2.23-2.78,17.51-17.01,19.94-19.65,2.96-2.84,5.67-5.92,8.88-8.47,14.26-11.39,28.31-23.08,43.13-33.8,10.08-7.28,21.17-13.29,32.09-19.44,2.27-1.3,5.78-.99,8.71-.87,11.88,.42,23.75,1.05,35.64,1.6,1.19,.04,2.41,.13,3.61,.23,12.43-8.14,26.52-11.61,41.67-12.03,4.3-.11,8.61-.25,12.92-.38,.34,0,.67-.02,1.01-.02,2.96-5.98,5.85-11.97,8.86-17.94,8.31-16.44,16.7-32.85,24.98-49.32,.57-1.13,.85-2.62,.66-3.89-2.94-18.58-7.71-36.82-13.68-54.84-5.12-15.41-11.01-30.59-18.27-45.25-4.99-10.08-10.35-20.01-16.1-29.72-5.02-8.49-10.57-16.75-16.33-24.82-9.2-12.85-19.62-24.79-30.96-35.99-17.91-17.69-37.99-32.7-59.57-45.8-15.51-9.43-31.82-17.31-48.67-24.07-16.18-6.5-32.66-11.93-49.5-16.39-12.78-3.39-25.69-5.71-38.66-7.86-21.23-3.54-42.5-4.78-63.81-4.21-19.23,.51-38.27,2.44-56.82,6.69-17.64,4.06-35.06,8.9-52.57,13.36-.81,.2-1.7,.15-2.55,.23,6.02-2.61,11.98-5.33,18.08-7.76,4.8-1.89,9.77-3.42,14.65-5.13l1.34-.41c.23-.08,.45-.14,.67-.21,.02-.01,.07-.02,.09-.03l-.05,.04c.57-.08,1.14-.17,1.71-.24l-.03-.1c.71-.37,1.38-.89,2.16-1.12,37.85-11.89,76.98-17.93,117.24-18.07,16.71-.07,33.51,.8,50.23,2.18,23.81,1.97,47.37,6.39,70.58,12.66,6.98,1.87,13.87,3.93,20.69,6.11-7.09-2.32-14.29-4.45-21.56-6.41-23.2-6.26-46.77-10.69-70.58-12.66-16.72-1.38-33.52-2.24-50.23-2.18-40.26,.14-79.39,6.18-117.24,18.07-.76,.24-1.43,.76-2.14,1.13l.03,.1c-.57,.08-1.14,.17-1.71,.24l.03-.05c-.7,.22-1.39,.43-2.08,.65-4.9,1.7-9.87,3.23-14.65,5.13-6.1,2.43-12.06,5.15-18.08,7.76-1.62,.65-3.3,1.18-4.83,1.98-5.29,2.76-10.32,6.03-15.8,8.36-44.25,18.77-83.2,44.62-116.3,78.35-16.21,16.51-31.3,34-43.41,53.57-17.91,28.97-33.66,59.1-45.2,91.26Zm2.6,6.42s0-.09,0-.13c.04,.07,.07,.16,.11,.23,.02,0,.04,.01,.05,.04s.01,.02,0,.04c3.24,2.16,6.53,4.29,9.73,6.52,19.14,13.34,38.09,26.97,57.44,40.04,22.27,15.06,43.73,31.1,64.18,48.45,8.74,7.41,17.4,14.92,26.08,22.38,.86,.75,1.68,1.57,2.17,2.86-2.51-1.49-5.03-2.96-7.53-4.44-13.87-8.16-27.71-16.33-41.56-24.47-12.64-7.42-25.18-14.94-37.96-22.11-15.42-8.65-30.98-17.04-46.58-25.35-3.43-1.82-7.31-2.9-11.07-4.09-1.77-.56-2.67-1.25-2.92-3.16-1.21-9.7-4.97-18.79-8.52-27.92-1.13-2.91-2.29-5.82-3.46-8.72t-.03-.03l-.03-.05s-.08-.07-.11-.09Zm57.33-27.73c-1.69-5.55-.28-10.74,2.3-15.34,9.37-16.67,18.6-33.43,28.8-49.61,12.18-19.36,27.56-36.43,42.73-53.59,3.7-4.2,8.71-7.46,13.52-10.61,18.97-12.47,40.95-18.46,62.9-24.42,21.73-5.9,43.83-10.49,66.34-13.3,15.5-1.93,31.16-2.93,46.77-4.32,.5-.06,1.03,.04,1.66,.58-2.21,.49-4.43,.98-6.66,1.47-2.32,.51-4.65,.99-6.96,1.54-17.01,4.1-34.09,8.02-50.99,12.4-11.04,2.87-22.06,6-32.72,9.82-12.74,4.57-25.24,9.72-37.56,15.17-8.11,3.58-15.74,8.09-23.53,12.26-.6,.31-.87,1.14-1.31,1.74,2.17-.3,4.32-.83,6.46-.81,2.55,0,3.67,1.65,2.52,3.77-2.89,5.34-6,10.56-9.03,15.81-11.5,19.87-23.06,39.73-32.55,60.65-6.41,14.18-12.37,28.58-18.5,42.89-2.12,4.97-4.11,9.98-6.36,15.4-4.29-4.08-8.38-7.94-12.45-11.82,0,.04,.04,.07,.04,.11,.71,1.47,1.18,3.1,2.21,4.35,16.45,19.88,32.79,39.83,47.04,61.26,5.78,8.7,11.86,17.23,17.78,25.85,.41,.6,.72,1.26,1.06,1.87-.18,.13-.36,.24-.54,.37-3.64-3.71-7.28-7.43-10.95-11.11-21.06-21.12-41.3-42.99-64.01-62.55-6.3-5.44-12.68-10.8-18.88-16.36-4.15-3.75-7.5-8.12-9.1-13.47ZM647.41,42.28c-.84,.1-1.72,.03-2.57,.03,27.28-6.95,54.7-12.62,84.07-11.63-8.55,2.32-16.36,4.8-24.37,6.48-3.58,.74-7.62-.5-11.37-.19-9.9,.81-19.75,1.94-29.59,3.06-5.42,.63-10.78,1.52-16.17,2.26Zm-94.47,321.86c-.09-.09-.2-.18-.29-.29,.11,.09,.23,.17,.36,.26,.04,.11,.11,.21,.18,.33-.09-.11-.16-.19-.25-.29Zm84.48,135.4c-2.08-6.84-2.04-13.39,1.9-19.48,3.52-5.45,9.05-5.98,15.03-5.5,8.73,.71,17.05,3.44,25.19,6.5,10.82,4.02,21.52,8.37,32.16,12.87,13.26,5.62,25.95,12.33,37.39,21.15-2.76-7.54-5.5-15.06-8.23-22.62-2.77-7.61-5.5-15.24-8.25-22.86-.09-.22-.18-.43-.25-.66,0-.02,.12-.07,.2-.11,.07,.23,.11,.48,.17,.71,.76,.83,1.61,1.6,2.26,2.53,12.13,17.49,23.29,35.51,32.68,54.46,6.4,12.92,10.93,26.37,13.6,40.32,.75,3.82,1.37,7.67,1.84,11.52,1.02,8.12-.59,10.35-7.73,14.11-16.23,8.56-33.96,12.03-52.41,13.49-15.02,1.19-30.08,1.28-45.2,.24-3.72-.27-7.41-.8-11.15-1.49,11.61-.8,23.17-1.56,33.93-5.13-3.18-3.84-6.24-7.46-9.23-11.16-.52-.64-.71-1.52-1.06-2.31-.13-.22-.24-.43-.37-.64-.07-.1-.14-.2-.21-.28,.05,.02,.14,0,.16,.06,.04,.05,.03,.15,.07,.22,.14,.2,.29,.41,.45,.59,2.6,2.26,5.02,4.79,7.86,6.71,2.46,1.64,5.34,2.77,8.16,3.79,.92,.33,2.2-.38,3.32-.61-5.86-2.11-10.23-5.99-14.12-10.64-16.54-19.73-32.66-39.73-46.16-61.52-4.79-7.74-9.33-15.6-11.98-24.26Zm.87,159.41c2.61-12.54,14.59-19.95,27.41-16.98,11.91,2.79,19.75,15.06,17.19,26.94-2.65,12.27-14.91,19.94-27.29,17.05-12.23-2.86-19.85-14.75-17.3-27.02ZM891.99,76.78c-.65-.72-1.29-1.42-2.46-2.71,2.15-.55,3.97-1.31,5.85-1.46,5.01-.37,9.64,1.06,13.99,3.7,20.42,12.38,40.51,25.21,58.4,41.03,6.16,5.43,11.75,11.25,15.59,18.44,.69,1.33,1.67,2.9-.03,3.88-1.11,.64-2.89,1.09-4.04,.66-8.58-3.13-17.16-6.31-25.57-9.92-3.1-1.34-6.18-3.44-8.49-5.89-14.1-14.85-30.25-27.37-46.89-39.38-2.67-1.94-5.3-3.93-8.09-5.99,.65-.87,1.15-1.56,1.73-2.36Zm-102.87,416.68c1.27-5.27,7.42-8.37,13.37-6.77,5.92,1.59,9.17,6.45,7.88,11.76-1.19,4.82-7.6,8.02-13.13,6.57-5.61-1.5-9.3-6.74-8.13-11.55Zm-39.7,155.61c-1.62-6.28,3.41-11.02,10.33-9.91,4.72,.76,9.46,5.01,10.54,9.48,1.61,6.5-4.12,11.47-12.37,9.49-3.76-1.24-7.24-4.15-8.5-9.06Zm194.88-307.73l-.03-.03s.04,0,.07-.02l.18-.17c-.02,.05,0,.12-.04,.14-.03,.03-.09,.03-.13,.03,0,.02-.03,.03-.03,.05Z"/><path class="cls-8" d="M391.38,287.38s0,.09,0,.13c.03,.03,.08,.07,.11,.09-.04-.07-.07-.16-.11-.23Z"/><path class="cls-8" d="M391.49,287.61l.03,.05h.02s-.03-.04-.05-.05Z"/><path class="cls-1" d="M391.52,287.66s.02,0,.03,.03t0-.04h-.02Z"/><path class="cls-1" d="M391.55,287.69c1.17,2.91,2.33,5.81,3.46,8.72,3.55,9.13,7.31,18.22,8.52,27.92,.25,1.9,1.15,2.59,2.92,3.16,3.76,1.18,7.63,2.27,11.07,4.09,15.61,8.31,31.17,16.7,46.58,25.35,12.78,7.18,25.32,14.7,37.96,22.11,13.85,8.14,27.69,16.31,41.56,24.47,2.5,1.48,5.02,2.95,7.53,4.44-.48-1.29-1.31-2.11-2.17-2.86-8.68-7.47-17.34-14.97-26.08-22.38-20.45-17.35-41.91-33.4-64.18-48.45-19.35-13.07-38.3-26.69-57.44-40.04-3.2-2.24-6.49-4.37-9.73-6.52Z"/><path class="cls-1" d="M451.01,244.44c-2.58,4.6-3.99,9.79-2.3,15.34,1.6,5.35,4.94,9.72,9.1,13.47,6.2,5.55,12.58,10.92,18.88,16.36,22.71,19.56,42.96,41.43,64.01,62.55,3.67,3.68,7.31,7.41,10.95,11.11,.18-.13,.36-.24,.54-.37-.34-.61-.65-1.27-1.06-1.87-5.93-8.62-12.01-17.14-17.78-25.85-14.25-21.43-30.6-41.38-47.04-61.26-1.02-1.25-1.5-2.88-2.21-4.35-.03-.05-.06-.08-.08-.12v.17c-.16-.24-.32-.47-.47-.71-.16-.19-.28-.36-.45-.54-3.31-3.54-6.11-7.31-7.2-12.08-.82-3.59-.77-6.89,1-10.17,18.27-33.92,39.24-66.11,64.91-95.13,2.77-3.12,7.36-4.68,11.1-6.97-.01-.27-.04-.55-.06-.81,.31,.03,.62,.08,.94,.13,0,.12,.06,.19,.17,.23,.44-.6,.71-1.43,1.31-1.74,7.8-4.17,15.42-8.68,23.53-12.26,12.32-5.44,24.82-10.6,37.56-15.17,10.66-3.82,21.69-6.95,32.72-9.82,16.9-4.38,33.98-8.31,50.99-12.4,2.31-.55,4.64-1.03,6.96-1.54,2.23-.49,4.44-.98,6.66-1.47-.63-.54-1.16-.64-1.66-.58-15.61,1.4-31.27,2.39-46.77,4.32-22.51,2.8-44.61,7.39-66.34,13.3-21.95,5.96-43.92,11.95-62.9,24.42-4.81,3.15-9.82,6.41-13.52,10.61-15.17,17.15-30.55,34.23-42.73,53.59-10.2,16.18-19.42,32.94-28.8,49.61Z"/><path class="cls-6" d="M483.56,268.91c.14,.24,.31,.47,.45,.71v-.17l.02-.02s.01,.02,.03,.03c4.07,3.87,8.17,7.74,12.45,11.82,2.25-5.42,4.24-10.43,6.36-15.4,6.13-14.31,12.09-28.71,18.5-42.89,9.49-20.92,21.05-40.77,32.55-60.65,3.04-5.25,6.15-10.47,9.03-15.81,1.15-2.12,.04-3.76-2.52-3.77-2.15-.02-4.29,.51-6.46,.81-.11-.04-.16-.11-.17-.23l-.88,.68c-3.74,2.29-8.34,3.85-11.1,6.97-25.67,29.02-46.64,61.2-64.91,95.13-1.77,3.28-1.82,6.58-1,10.17,1.08,4.77,3.88,8.54,7.2,12.08,.17,.17,.29,.35,.45,.54Z"/><path class="cls-7" d="M383.03,547.4c-1.8,3.24-1.74,6.4-.38,9.58,7.9,18.64,15.85,37.23,23.73,55.85,1.47,3.51,3.84,6.26,6.95,8.57,6.14,4.56,13.11,7.44,20.42,9.24,12.56,3.08,25.24,5.63,37.85,8.42,2.76,.61,5.51,1.18,8.27,1.72,19.33,3.74,38.87,5.67,58.33,8.19,6.87,.9,13.48,2.8,19.65,6.16,3.85,2.09,7.74,4.09,11.73,5.88,1.08,.5,3.01,.64,3.77,.05,2.53-2.03,4.67-4.5,7.07-6.69,.72-.66,1.15-1.24,1.22-1.84,.09-.72-.29-1.46-1.22-2.37-10.52-10.28-20.83-20.75-31.43-30.96-2.9-2.77-6.31-5.34-9.93-7.09-9.26-4.45-18.8-8.34-28.19-12.55-21.53-9.66-43.26-18.69-65.8-25.72-16.03-4.99-31.91-10.41-47.77-15.91-5.72-1.96-11.65-4.09-14.26-10.52Z"/><path class="cls-1" d="M396.96,533.07c-3.54,2.84-4.29,6.2-3.21,10.36,.29,.16,.57,.29,.86,.45,0-.06,0-.1,0-.16,3.35,1.69,6.57,3.67,10.04,5.02,3.78,1.5,7.59,2.9,11.43,4.27,2.54,.9,5.12,1.78,7.69,2.59,11.28,3.62,22.66,6.86,33.9,10.55l.87,.3c2.13,.7,4.25,1.42,6.34,2.16,19.56,6.86,38.41,15.47,57.01,24.61,12.25,6,24.31,12.36,36.51,18.46,3.53,1.77,6.06,4.44,8.23,7.49,6.45,9.12,12.85,18.27,19.22,27.43,.22,.31,.16,.8,.21,1.22-.31-.3-.59-.59-.9-.88,.02,.2,.01,.39,.05,.59l.02-.11c.26,.24,.5,.5,.75,.73,.16,.38,.3,.75,.43,1.14,.17,.23,.35,.46,.52,.69l-.17,.02c.26,.24,.54,.49,.81,.73,.03-.14,.04-.29,.06-.44,1.19,1.11,2.46,2.16,3.54,3.35,7.09,7.77,13.82,15.84,21.25,23.29,13.43,13.45,27.24,26.55,40.96,39.72,1.75,1.67,3.5,3.45,5.8,4.37,.46,.14,.93,.22,1.44,.28h.19l.04-.21c.34-.19,.67-.39,.99-.58h.25l.07-.24c.22-.19,.45-.4,.69-.59l-.04,.06c.22-.13,.47-.28,.7-.41l-.03,.09c.47-.93,.93-1.87,1.46-2.95-6.22-5.68-12.53-11.34-18.71-17.14-8.21-7.71-16.46-15.38-24.47-23.29-18.51-18.26-34.35-38.51-48.74-59.83-3.26-4.82-7.24-8.99-12.52-11.86-7.57-4.14-15.06-8.38-22.66-12.43-20.09-10.79-40.11-21.7-60.36-32.18-17.67-9.15-35.67-17.72-53.45-26.71-5.01-2.53-10.24-5.03-13.06-10.32-.22-.44-.98-.62-1.49-.91-4.15,3.78-8.13,7.77-12.51,11.28Z"/><path class="cls-1" d="M394.6,543.87c-.29-.16-.57-.29-.86-.45,.07,1.44,.26,2.9,.22,4.33-.04,1.98,1.26,3.78,3.23,4.41,.36,.12,.71,.22,1.07,.35-2.34-.79-3.49-2.01-3.44-4.46,.02-1.37-.14-2.79-.23-4.18Z"/><path class="cls-1" d="M394.6,543.72c0,.06,0,.1,0,.16,3.03,1.58,6,3.34,9.18,4.57,4.05,1.59,8.16,3.12,12.28,4.56-3.84-1.36-7.65-2.77-11.43-4.27-3.46-1.35-6.69-3.33-10.04-5.02Z"/><path class="cls-6" d="M484.03,269.44v.02s.05,.08,.08,.12c0-.04-.04-.07-.04-.11-.02,0-.01-.02-.03-.03Z"/><path class="cls-1" d="M394.6,543.87c.09,1.39,.25,2.81,.23,4.18-.05,2.45,1.1,3.67,3.44,4.46l.24,.08c1.88,.6,3.72,1.25,5.58,1.91,2.73,.95,5.44,1.95,8.17,2.91,1.42,.52,2.85,1.01,4.3,1.5,2.27,.75,4.56,1.51,6.84,2.25,5.42,1.77,10.85,3.52,16.27,5.3,2.89,.96,5.77,1.92,8.65,2.9,6.52,2.23,13.06,4.4,19.58,6.69,5.42,1.9,10.83,3.87,16.15,6.03,16.75,6.77,33.29,14.13,49.84,21.42,6.6,2.9,13.38,5.64,18.53,11.03,2.82,2.97,5.76,5.85,8.67,8.71,8.01,7.89,16.05,15.78,24.07,23.67,0-.23-.03-.45-.16-.63-6.39-9.16-12.79-18.31-19.24-27.43-2.17-3.05-4.7-5.71-8.23-7.49-12.18-6.09-24.26-12.46-36.51-18.46-18.34-8.99-36.9-17.51-56.14-24.31-2.1-.73-4.22-1.45-6.34-2.16-11.26-3.69-22.64-6.93-33.9-10.55l-.87-.3c-2.57-.82-5.14-1.69-7.69-2.59-4.12-1.44-8.23-2.97-12.28-4.56-3.18-1.23-6.15-2.99-9.18-4.57Z"/><path class="cls-7" d="M552.87,143.22c.02,.25,.05,.53,.06,.81l.88-.68c-.32-.05-.63-.1-.94-.13Z"/><path class="cls-1" d="M423.39,561.16c5.42,1.78,10.85,3.52,16.27,5.3-5.42-1.78-10.84-3.53-16.27-5.3Z"/><path class="cls-1" d="M615.18,47.88c.85-.08,1.74-.02,2.55-.23,17.51-4.46,34.93-9.3,52.57-13.36,18.55-4.25,37.59-6.18,56.82-6.69,21.32-.57,42.59,.67,63.81,4.21,12.97,2.15,25.87,4.47,38.66,7.86,16.84,4.46,33.33,9.89,49.5,16.39,16.86,6.76,33.17,14.65,48.67,24.07,21.57,13.1,41.66,28.1,59.57,45.8,11.34,11.21,21.77,23.14,30.96,35.99,5.76,8.07,11.31,16.33,16.33,24.82,5.75,9.71,11.11,19.63,16.1,29.72,7.26,14.67,13.14,29.84,18.27,45.25,5.97,18.02,10.73,36.26,13.68,54.84,.19,1.27-.1,2.76-.66,3.89-8.28,16.47-16.67,32.88-24.98,49.32-3.01,5.97-5.91,11.95-8.86,17.94,10.17-.2,20.37-.37,30.55-.57,.31-.01,.63-.02,.93,0,0-.06,.02-.13,.04-.2,10.65-22.37,21.26-44.76,32-67.1,1.26-2.64,1.4-5.1,.62-7.91-5.85-21.29-13.59-42-22.19-62.48-7.94-18.88-17.36-37.1-28.37-54.53-9.4-14.89-19.48-29.41-29.58-43.89-3.58-5.12-7.68-10.08-12.29-14.36-10.32-9.64-20.73-19.27-31.79-28.08-12.4-9.87-25.31-19.18-38.46-28.07-16.39-11.05-33.76-20.49-51.71-28.84-15.24-7.08-30.83-13.35-47.01-17.74-15.49-4.21-31.1-8.33-47.14-9.55-12.41-.96-24.85-2.07-37.26-2.46-19.59-.59-39.14,.06-58.39,2.75-16.18,2.28-32.21,5.33-48.3,8.03-2.72,.45-5.45,.91-8.19,1.35l.03,.1c-.57,.08-1.14,.17-1.71,.24l.05-.04s-.07,.02-.09,.03c-.23,.08-.45,.14-.67,.21l-1.34,.41c-4.88,1.71-9.85,3.24-14.65,5.13-6.1,2.43-12.06,5.15-18.08,7.76Z"/><path class="cls-6" d="M644.85,42.31c.85,0,1.73,.07,2.57-.03,5.39-.73,10.75-1.63,16.17-2.26,9.84-1.12,19.69-2.25,29.59-3.06,3.75-.32,7.79,.92,11.37,.19,8.01-1.68,15.82-4.16,24.37-6.48-29.36-.98-56.79,4.69-84.07,11.63Z"/><path class="cls-7" d="M651.65,34.05c2.74-.45,5.47-.9,8.19-1.35,16.1-2.7,32.12-5.76,48.3-8.03,19.25-2.69,38.8-3.34,58.39-2.75,12.41,.39,24.85,1.5,37.26,2.46,16.04,1.22,31.65,5.34,47.14,9.55,16.18,4.39,31.77,10.66,47.01,17.74,17.95,8.34,35.32,17.79,51.71,28.84,13.14,8.89,26.05,18.2,38.46,28.07,11.06,8.81,21.46,18.44,31.79,28.08,4.6,4.28,8.7,9.24,12.29,14.36,10.1,14.48,20.18,29,29.58,43.89,11.01,17.43,20.43,35.65,28.37,54.53,8.6,20.48,16.35,41.19,22.19,62.48,.78,2.81,.64,5.27-.62,7.91-10.74,22.34-21.35,44.73-32,67.1-.02,.07-.04,.14-.04,.2,28.12-.63,56.23-1.24,84.35-1.87,4.64-.11,9.27-.24,13.88-.36,.05-.84,.14-1.37,.11-1.88-1.06-19.55-1.95-39.12-3.25-58.67-.6-8.86,.84-7.76,7.81-8.15-.95-3.44-1.82-6.88-2.83-10.27-12.78-43.18-32.57-83.34-59.59-120.43-20.85-28.61-45.11-54.23-72.87-76.74-37.66-30.57-79.2-53.6-124.4-69.5-3.41-1.2-6.84-2.35-10.3-3.46-6.82-2.18-13.71-4.24-20.69-6.11-23.22-6.26-46.77-10.69-70.58-12.66-16.72-1.38-33.52-2.24-50.23-2.18-40.26,.14-79.39,6.18-117.24,18.07-.78,.23-1.45,.75-2.16,1.12Z"/><path class="cls-1" d="M467.88,576.06c5.14,1.82,10.25,3.69,15.3,5.74,16.75,6.77,33.27,14.13,49.82,21.42,6.6,2.9,13.38,5.64,18.53,11.03,2.82,2.97,5.76,5.85,8.69,8.72,8.3,8.18,16.65,16.36,24.97,24.55-.03-.2-.03-.39-.05-.59-8.01-7.89-16.05-15.78-24.07-23.67-2.91-2.87-5.86-5.74-8.67-8.71-5.15-5.39-11.92-8.13-18.53-11.03-16.54-7.29-33.08-14.66-49.84-21.42-5.32-2.15-10.73-4.13-16.15-6.03Z"/><path class="cls-9" d="M552.66,363.85c.09,.11,.2,.2,.29,.29l.07-.03c-.13-.08-.25-.16-.36-.26Z"/><path class="cls-9" d="M552.95,364.14c.09,.11,.16,.19,.25,.29-.06-.12-.13-.22-.18-.33l-.07,.03Z"/><path class="cls-1" d="M479.87,640.78l-.82,5.1c3.43,.67,6.86,1.3,10.31,1.9,13.65,2.4,27.47,3.52,41.16,5.62,7.05,1.09,14.12,2.62,20.91,4.83,5.02,1.65,9.54,4.81,14.36,7.14,6.31,3.05,9.09,2.86,12.34-.27,1.37,1.1,2.67,2.25,4.05,3.25,11,8.11,22.46,15.68,32.9,24.42,12.03,10.08,23.25,21.12,34.67,31.91,6.63,6.28,9.97,6.91,17.09,1.9,2.25-1.61,3.88-.79,5.73,.38,20.3,12.82,40.58,25.69,60.9,38.44,2.43,1.51,3.26,3.21,2.71,5.84-1.85,8.91,3.57,13.37,10.92,14.11,10.95,1.1,21.98,1.78,32.95,1.84,27.42,.11,54.47-2.68,81.28-6.97,1.14-.17,2.71,.15,3.64,.82,9.28,6.54,18.47,13.19,27.66,19.86,26.3,19.05,52.54,38.2,81.35,53.56,7.41,3.95,14.79,8.11,22.58,11.12,9.37,3.61,19.13,6.22,28.8,9.01,14.59,4.2,29.19,8.49,43.91,12.17,18.31,4.6,36.71,8.77,55.12,12.86,16.4,3.66,32.9,6.49,49.58,7.93,2.04,.16,3.52,.93,4.94,2.58,4.75,5.63,12.87,7.4,19.36,4.32,1.84-.89,3.45-2.2,5.27-3.38,.22,.11,.54,.26,.84,.44,7.02,4.51,14.17,4.39,19.89-1.07,4.87-4.63,9.55-9.56,13.57-14.9,17.89-23.77,29.85-50.67,40.45-78.21,5.02-13.06,9.6-26.32,13.85-39.68,3.72-11.68,7.06-23.53,9.94-35.46,3.43-14.19,6.21-28.53,7.48-43.18,.94-10.9,1.42-21.79-.47-32.73-.87-5.05-2.09-10.08-5.4-14.32-5.81-7.43-13.21-12.82-22.07-16.45-8.95-3.66-18.19-6.13-27.63-7.98-14.62-2.86-29.19-6.02-43.81-8.9-16.12-3.2-32.26-6.25-48.39-9.31-9.08-1.71-18.19-3.29-27.27-4.94-6.42-1.17-12.83-2.39-19.47-3.63,.54-1.22,.94-2.21,1.43-3.17,22.39-44.46,44.8-88.92,67.28-133.33,.46-.92,1.79-1.8,2.85-1.96,20.67-3.1,41.4-6.05,62.06-9.18,2.37-.36,4.77-1.31,6.77-2.56,6.16-3.82,8.33-11.93,5.33-18.54-2.65-5.82-9.89-10.85-17.57-9.19-4.52,.97-9.15,1.45-12.43,1.96-1.85-2.12-3.27-3.74-4.79-5.5,9.91-.4,16.9-4.5,20.17-13.36,2.17-5.91,1.43-12-.74-17.93-1.91-5.25-4.02-10.44-6.3-15.57-5.66-12.72-11.26-25.49-17.29-38.07l-4.75,1.93c.06,.13,.1,.26,.08,.37-1.55,8.78,2.21,16.82,4.99,24.96,1.13,3.27,2.8,6.43,4.51,9.5,.59,1.02,2.09,1.61,3.16,2.4,.48-1.12,.97-2.24,1.41-3.35,.14-.32,.15-.66,.35-1.58,1.29,3.02,2.45,5.52,3.44,8.08,2.08,5.36,4.33,10.68,6.01,16.16,1.48,4.77,.95,9.61-1.49,13.89-2.71,4.79-7.13,7.17-12.93,7.15l.03-.05c-.57,.03-1.16,.09-1.73,.12-2.75,.42-5.9-.28-11.26-2.7l-2.13,4.69c.9,.52,1.89,.95,2.92,1.3,2.69,.89,4.53,2.34,5.99,4.79,4.45,7.53,9.17,14.91,14.28,22.2-1.08-4.41-2.16-8.82-3.34-13.6,5.17-.73,10.31-1.74,15.53-2.13,3.32-.25,5.96,1.72,7.58,4.65,1.85,3.35,1.63,6.66-.19,9.8-1.52,2.57-3.9,4.07-6.92,4.5-3.9,.55-7.79,1.12-11.69,1.67-17.75,2.54-35.53,5.08-53.3,7.56-1.54,.21-2.44,.74-3.12,2.1-22.65,45-45.35,89.98-68.07,134.96-1.25,2.47-2.86,4.75-4.24,7.16-2.48,4.33-3.03,9.12-.57,13.56,3.33,6.07,7.34,11.82,11.33,17.56,2.11,3.03,4.9,5.65,7.18,8.59,1.25,1.61,2.7,2.09,4.57,2.22,13.58,1.02,27.15,2.05,40.71,3.16,10.55,.87,21.1,1.83,31.65,2.87,1.17,.11,2.27,1.38,3.45,1.52,2.81,.32,5.66,.28,8.49,.38,19.4,.68,38.8,1.36,58.21,2.02,.94,.03,1.88-.01,2.81-.04,0-.15,.02-.32,.05-.46-4.63-.79-9.23-1.63-13.85-2.35-7.96-1.25-15.95-2.45-23.91-3.63-8.93-1.33-17.85-2.58-26.77-3.95-6.73-1.02-13.45-2.14-20.17-3.27-13.43-2.27-26.87-4.52-40.29-6.86-8.49-1.49-16.95-3.08-25.41-4.66-.66-.13-1.51-.42-1.86-.9-3.77-4.94-7.84-9.73-9.49-15.77-.37-1.39-.39-2.83-.6-4.51,5.96,.99,11.52,1.83,17.05,2.89,21.96,4.13,43.93,8.21,65.85,12.54,23.52,4.65,47.01,9.39,70.45,14.41,7.62,1.63,14.9,4.68,21.61,8.73,10.43,6.3,15.4,15.5,16.14,27.05,.69,10.42,.66,20.77-.99,30.95-2.11,13.16-4.24,26.36-7.16,39.35-2.59,11.47-6.04,22.75-9.59,33.95-3.9,12.21-8.06,24.38-12.62,36.34-10.34,27.18-21.96,53.77-39.21,77.46-3.99,5.46-8.84,10.34-13.39,15.4-5.04,5.6-12.88,3.72-15.88-2.29-.46-.94-.94-1.87-1.67-3.29-1.7,2.5-2.97,4.37-4.23,6.26-2.13,3.14-5.33,4.45-9.08,3.9-3.63-.53-6.83-2.57-7.65-6.18-.46-2.03,.55-4.35,1.03-6.5,.25-1.14,.78-2.22,.78-3.64-2.25,2.26-4.5,4.48-6.71,6.76-1,1.04-1.92,1.57-3.62,1.3-12.55-1.99-25.21-3.29-37.66-5.79-20.17-4.08-40.24-8.61-60.23-13.49-15.53-3.79-30.9-8.3-46.3-12.69-10.11-2.88-20.27-5.67-30.13-9.32-7.3-2.73-14.24-6.62-21.15-10.31-27.38-14.61-52.59-32.43-77.52-50.69-20.68-15.15-41.47-30.18-62.22-45.24-2.95-2.13-6.19-3.92-9.07-6.13-6.68-5.14-8.68-11.89-7.8-19.68,.77-6.88,3.27-12.94,7.6-17.96,5.6,3.26,11.19,6.49,16.73,9.82l2.7-4.35c-2.9-1.77-5.81-3.53-8.72-5.3-2.11-1.29-4.23-2.59-6.34-3.9-.64-.39-.99-1.22-1.47-1.84-1.57-1.42-3.15-2.81-4.73-4.21-4.05-4.92-5.25-10.4-.67-16.12,5.1-6.4,9.81-13.13,14.73-19.7,.6-.79,1.41-1.43,1.77-1.77,1.12,.94,2.18,1.83,3.22,2.7l1.48-1.64c-.57-.54-1.04-1.2-.94-1.49,.67-1.76,1.87-1.41,3.14-.98l1.58-5.15c-1.26-.26-2.57-.53-3.88-.57-6.02-.23-10.67,2.54-13.6,8.13-3,5.74-7.04,10.86-11.6,15.53-7.93,8.1-6.19,16.53-.96,22.98,1.74,2.14,1.76,3.57,.21,5.55-5.92,7.54-8.24,16.33-7.53,25.84,.8,10.57,7.7,17.4,16.73,22.67,.29,.17,.55,.42,.82,.62,.19,.14,.41,.29,.6,.43,.09-.04,.17-.09,.27-.14,2.84,2.1,5.7,4.2,8.55,6.3,4.68,3.31,9.37,6.65,14.06,9.99-.05,.21-.1,.43-.15,.66-11.42,1.33-22.81,2.87-34.26,3.96-18.41,1.77-36.91,2.58-55.52,1.83-5.32-.24-10.64-.82-15.95-1.34-1.97-.19-3.4-.43-4.35-.85h-.02c-2.86-.79-3.08-2.41-2.21-6.75,.03-.97,.06-1.91,.07-2.87-.57-3.81-2.76-6.55-6.15-8.68-20.44-12.87-40.84-25.8-61.29-38.66-3.74-2.36-7.68-3.97-12-1.72l.03-.09c-.22,.13-.47,.28-.7,.41l.04-.06c-.24,.19-.47,.4-.69,.59l-.07,.22h-.25c-.33,.21-.65,.4-.99,.59l-.04,.2h-.19l-.16,.13c.32,.07,.66,.13,1.01,.17-1.76,1.32-2.45,1.77-3.62,1.11-.88-.07-1.81-.94-3.74-2.74-10.72-10.04-21.46-20.07-32.29-29.99-10.45-9.57-22.1-17.66-33.87-25.57-2.88-1.92-3.58-5.64-2.15-8.53,.3-.61,.47-1.26,.57-1.95l-4.71-1.37c-.08,.61-.51,1.19-1.22,1.84-2.4,2.19-4.54,4.66-7.07,6.69-.75,.59-2.68,.45-3.77-.05-3.98-1.79-7.88-3.79-11.73-5.88-6.17-3.36-12.78-5.26-19.65-6.16-19.47-2.52-39-4.45-58.33-8.19Zm649.38-5.74c.13-.28,.24-.55,.37-.83,5.18,1.21,10.38,2.42,15.81,3.67-4.59-.26-8.96-.41-13.32-.87-.99-.11-1.9-1.28-2.86-1.97Zm90.3-292.83c4.42,8.32,7.97,16.86,8.77,26.15,.14,.26,.28,.51,.44,.76-.12,.06-.24,.13-.34,.19-.17-.29-.32-.55-.47-.83-4.36-8.36-7.13-17.11-8.39-26.27Z"/><path class="cls-1" d="M464.86,568.6c19.24,6.81,37.8,15.32,56.14,24.31,12.25,6,24.33,12.37,36.51,18.46,3.53,1.77,6.06,4.44,8.23,7.49,6.45,9.12,12.85,18.27,19.24,27.43,.12,.18,.15,.4,.16,.63,.31,.3,.59,.59,.9,.88-.05-.42,.02-.91-.21-1.22-6.38-9.16-12.78-18.3-19.22-27.43-2.17-3.05-4.7-5.71-8.23-7.49-12.2-6.1-24.26-12.46-36.51-18.46-18.6-9.14-37.45-17.75-57.01-24.61Z"/><path class="cls-7" d="M639.33,480.06c-3.94,6.09-3.98,12.65-1.9,19.48,2.65,8.66,7.2,16.52,11.98,24.26,13.49,21.78,29.62,41.78,46.16,61.52,3.9,4.66,8.27,8.54,14.12,10.64,5.64,1.72,11.1,1.21,16.44-.62,11.14-3.8,22.27-7.63,33.41-11.49,.99-.33,1.91-.86,2.81-1.38,5.38-3.19,6.16-5.13,4.4-11.22-4.88-17.02-9.76-34.03-14.75-51.03-.54-1.81-1.92-3.43-2.89-5.14-11.43-8.83-24.12-15.53-37.39-21.15-10.63-4.5-21.33-8.84-32.16-12.87-8.14-3.06-16.47-5.79-25.19-6.5-5.98-.48-11.51,.05-15.03,5.5Z"/><path class="cls-1" d="M587.54,650.73c-.26-.24-.54-.49-.81-.73-.18,1.28-.18,2.64-.39,3.91-.1,.69-.28,1.34-.57,1.95-1.42,2.89-.72,6.61,2.15,8.53,11.77,7.91,23.43,16.01,33.87,25.57,10.83,9.93,21.58,19.95,32.29,29.99,1.93,1.8,2.85,2.67,3.74,2.74-.67-.4-1.52-1.21-2.87-2.45-10.72-10.04-21.46-20.07-32.29-29.99-10.45-9.57-22.1-17.66-33.89-25.58-2.88-1.92-3.58-5.64-2.14-8.52,.77-1.57,.68-3.58,.9-5.42Z"/><path class="cls-1" d="M587.6,650.29c-.03,.14-.04,.29-.06,.44,.99,.91,2.01,1.79,2.9,2.78,6.14,6.93,12.06,14.02,18.57,20.58,14.22,14.35,28.89,28.28,43.47,42.26,1.95,1.87,3.95,3.89,6.67,4.66-2.3-.92-4.05-2.7-5.8-4.37-13.72-13.17-27.53-26.27-40.96-39.72-7.44-7.45-14.16-15.52-21.25-23.29-1.08-1.19-2.35-2.24-3.54-3.35Z"/><path class="cls-1" d="M586.64,656.15c-1.44,2.88-.74,6.6,2.14,8.52,11.79,7.92,23.44,16.01,33.89,25.58,10.83,9.93,21.58,19.95,32.29,29.99,1.35,1.24,2.19,2.05,2.87,2.45,.72,.07,1.41-.38,2.61-1.28-.45-.1-.89-.24-1.28-.4-2.73-.77-4.73-2.79-6.67-4.66-14.59-13.98-29.25-27.91-43.47-42.26-6.52-6.56-12.44-13.65-18.57-20.58-.88-.99-1.91-1.87-2.9-2.78-.22,1.84-.13,3.84-.9,5.42Z"/><path class="cls-1" d="M665.7,641.97c-12.82-2.98-24.79,4.44-27.41,16.98-2.55,12.27,5.07,24.17,17.3,27.02,12.38,2.89,24.64-4.78,27.29-17.05,2.56-11.88-5.27-24.16-17.19-26.94Zm-21.48,18.26c1.88-8.92,10.89-14.66,19.88-12.66,8.8,1.96,14.5,10.9,12.65,19.85-1.91,9.21-10.79,14.91-19.91,12.76-8.77-2.04-14.51-11.12-12.62-19.95Z"/><path class="cls-5" d="M664.1,647.57c-8.99-2-18,3.74-19.88,12.66-1.89,8.84,3.85,17.91,12.62,19.95,9.12,2.14,18-3.55,19.91-12.76,1.85-8.95-3.85-17.89-12.65-19.85Zm-16.1,12.99c1.17-5.21,8.98-9.28,15.05-7.83,6.48,1.55,10.72,7.88,9.43,14.05-1.35,6.49-7.84,10.28-14.79,8.64-6.43-1.52-11.1-8.68-9.69-14.86Z"/><path class="cls-1" d="M663.04,652.73c-6.07-1.45-13.87,2.62-15.05,7.83-1.41,6.18,3.26,13.34,9.69,14.86,6.95,1.64,13.44-2.15,14.79-8.64,1.28-6.17-2.95-12.49-9.43-14.05Zm-12.17,9.36c1.01-5.08,6.22-8.36,11.46-7.19,5.25,1.17,8.62,6.15,7.59,11.24-1.04,5.1-6.22,8.4-11.43,7.3-5.08-1.09-8.59-6.31-7.62-11.34Z"/><path class="cls-5" d="M662.34,654.9c-5.23-1.17-10.45,2.12-11.46,7.19-.97,5.03,2.54,10.25,7.62,11.34,5.22,1.1,10.39-2.19,11.43-7.3,1.03-5.09-2.34-10.06-7.59-11.24Z"/><path class="cls-1" d="M666.6,604.72c3.74,.7,7.43,1.22,11.15,1.49,15.12,1.04,30.18,.95,45.2-.24,18.45-1.46,36.18-4.93,52.41-13.49,7.14-3.76,8.75-5.99,7.73-14.11-.47-3.86-1.09-7.71-1.84-11.52-2.66-13.95-7.2-27.4-13.6-40.32-9.38-18.95-20.54-36.97-32.68-54.46-.64-.93-1.5-1.7-2.26-2.53l-.12,.06c2.75,7.62,5.48,15.25,8.25,22.86,2.73,7.55,5.47,15.07,8.23,22.62,.97,1.71,2.36,3.33,2.89,5.14,4.99,17,9.87,34.01,14.75,51.03,1.76,6.09,.99,8.03-4.4,11.22-.89,.52-1.81,1.05-2.81,1.38-11.14,3.85-22.27,7.69-33.41,11.49-5.34,1.82-10.8,2.34-16.44,.62-1.12,.23-2.4,.95-3.32,.61-2.83-1.02-5.7-2.15-8.16-3.79-2.84-1.92-5.25-4.45-7.86-6.71l-.1,.06c.35,.79,.54,1.68,1.06,2.31,2.98,3.69,6.05,7.32,9.23,11.16-10.76,3.56-22.32,4.32-33.93,5.13Z"/><path class="cls-9" d="M689.67,585.2c.07,.08,.14,.18,.21,.28h.02c-.04-.08-.03-.17-.07-.23-.03-.05-.11-.04-.16-.06Z"/><path class="cls-9" d="M689.88,585.48c.13,.22,.24,.43,.37,.64l.1-.06c-.16-.19-.31-.39-.45-.59h-.02Z"/><path class="cls-9" d="M732.56,468.84c-.07,.03-.19,.09-.2,.11,.07,.23,.16,.44,.25,.66l.12-.06c-.07-.23-.11-.48-.17-.71Z"/><path class="cls-1" d="M657.83,722.69c1.17,.67,1.86,.21,3.62-1.11-.35-.04-.69-.1-1.01-.17-1.2,.9-1.89,1.35-2.61,1.28Z"/><path class="cls-1" d="M659.16,721.01c.39,.15,.83,.3,1.28,.4l.16-.12c-.5-.06-.98-.14-1.44-.28Z"/><path class="cls-6" d="M889.53,74.07c1.17,1.3,1.81,1.99,2.46,2.71-.58,.8-1.09,1.49-1.73,2.36,2.79,2.06,5.42,4.05,8.09,5.99,16.64,12.01,32.78,24.53,46.89,39.38,2.3,2.45,5.38,4.55,8.49,5.89,8.41,3.6,16.99,6.79,25.57,9.92,1.15,.43,2.92-.02,4.04-.66,1.71-.97,.73-2.55,.03-3.88-3.84-7.18-9.43-13.01-15.59-18.44-17.89-15.83-37.98-28.65-58.4-41.03-4.35-2.65-8.98-4.07-13.99-3.7-1.88,.15-3.7,.91-5.85,1.46Z"/><path class="cls-1" d="M802.49,486.7c-5.96-1.6-12.1,1.5-13.37,6.77-1.16,4.81,2.52,10.05,8.13,11.55,5.52,1.46,11.94-1.74,13.13-6.57,1.29-5.31-1.96-10.17-7.88-11.76Z"/><path class="cls-1" d="M759.76,639.17c-6.92-1.11-11.95,3.64-10.33,9.91,1.26,4.91,4.74,7.82,8.5,9.06,8.25,1.98,13.97-2.99,12.37-9.49-1.08-4.47-5.81-8.72-10.54-9.48Z"/><path class="cls-1" d="M743.8,769.09c-.04,.87-.09,1.75-.13,2.64,1.13,2.64,3.01,3.78,6.04,3.63,6.62-.31,13.36,.12,19.91-.62,17.3-1.97,34.55-4.26,51.76-6.72,6.59-.94,13.01-2.68,19.5-4.08-.18-.12-.34-.25-.52-.37-2.66-1.96-5.29-3.9-7.95-5.86-.37,.2-.72,.42-1.13,.5-13.91,2.28-27.73,5.07-41.77,6.64-13.51,1.5-27.19,1.73-40.82,2.48-1.87,.11-3.69,.14-4.89,1.79Z"/><path class="cls-1" d="M840.55,480.52c-4.14,5.18-5.49,10.85-1.75,17.18,1.08,1.82,1.94,3.74,2.85,5.64,8.03,16.69,15.99,33.39,24.07,50.06,11.27,23.31,22.6,46.59,33.94,69.87,1.9,3.88,3.99,7.66,5.98,11.47,1.22-2.94,2.41-5.86,3.63-8.8,.07-.17,.12-.32,.2-.49-.31-.35-.58-.69-.77-1.09-6.45-13.38-12.91-26.73-19.3-40.15-7.1-14.9-14.16-29.82-21.21-44.74-6.68-14.14-13.33-28.28-20.04-42.41-1.8-3.81-2.14-7.64,0-11.14,.13-.22,.28-.44,.43-.64,1.05-1.62,2.28-3.11,3.55-4.6,.38-.5,.8-.97,1.2-1.47,.28-.36,.57-.71,.85-1.07l.05,.02c3.9-4.61,8.57-9.55,10.65-10.28l.03-.03s.03-.05,.06-.07c-3.23-.58-2.82-4.69-4.49-6.91-2.43,2.64-17.71,16.86-19.94,19.65Z"/><path class="cls-7" d="M743.67,771.73c-.75,3.79-.66,5.48,1.37,6.36h.02c.89,.25,2.04,.41,3.48,.56,5.3,.52,10.65,1.11,15.95,1.34,18.63,.76,37.13-.05,55.54-1.82,11.44-1.09,22.84-2.64,34.24-3.97,.08-.32,.09-.33,.15-.66-4.51-3.22-9.02-6.42-13.53-9.62-6.49,1.39-12.92,3.14-19.5,4.08-17.2,2.46-34.45,4.76-51.76,6.72-6.54,.74-13.28,.31-19.91,.62-3.03,.16-4.91-.98-6.04-3.63Z"/><path class="cls-1" d="M745.06,778.1c.95,.42,2.38,.66,4.35,.85,5.3,.52,10.63,1.1,15.95,1.34,18.61,.75,37.11-.06,55.52-1.83,11.44-1.09,22.84-2.64,34.26-3.96,.05-.23,.1-.44,.15-.66-4.69-3.34-9.38-6.67-14.06-9.99-.11,.02-.24,.05-.35,.07,4.51,3.2,9.02,6.4,13.53,9.62-.06,.32-.07,.34-.15,.66-11.4,1.33-22.79,2.88-34.24,3.97-18.41,1.77-36.91,2.58-55.54,1.82-5.3-.23-10.64-.82-15.95-1.34-1.44-.15-2.6-.31-3.48-.55Z"/><path class="cls-7" d="M848.15,485.92c-2.15,3.5-1.8,7.33,0,11.14,6.71,14.13,13.35,28.27,20.04,42.41,7.05,14.92,14.11,29.84,21.21,44.74,6.4,13.42,12.85,26.77,19.3,40.15,.19,.39,.47,.73,.77,1.09,.58-1.49,1.07-3.03,1.84-4.41,2.24-3.97,2.3-7.05-1.02-11.44-8.41-11.13-13.29-23.88-16.35-37.23-4.59-19.96-1.15-38.23,10.3-54.56,15.9-22.67,32.19-45.07,48.38-67.52,9.74-13.52,19.6-26.93,29.4-40.39,.03-.03,.05-.04,.06-.07-11-.33-22.03-.88-33.01-.8-3.07,.03-6.19,1.82-9,3.28-13.13,6.76-25.85,14.19-37.28,23.33-1.55,1.24-3.1,2.49-4.62,3.75-10.93,9.02-22.73,19.68-33.11,28.42,.9,2.17,2.14,4.25,2.64,6.49,1.2,5.33-1.77,7.84-7.24,6.27-2.12-.6-4.15-1.6-6.22-2.4-.32,.35-.61,.71-.91,1.05-.4,.5-.82,.97-1.2,1.47-1.55,1.91-2.83,3.56-3.55,4.6-.15,.2-.3,.42-.43,.64Z"/><path class="cls-1" d="M848.58,485.28c.72-1.04,2-2.69,3.55-4.6-1.27,1.48-2.5,2.98-3.55,4.6Z"/><path class="cls-1" d="M854.18,478.15c-.28,.36-.57,.71-.85,1.07,.29-.34,.59-.7,.91-1.05l-.05-.02Z"/><path class="cls-7" d="M864.84,467.97s.02-.05,.05-.08c-2.09,.73-6.76,5.67-10.65,10.28,2.07,.8,4.1,1.8,6.22,2.4,5.47,1.57,8.44-.94,7.24-6.27-.5-2.24-1.73-4.32-2.64-6.49-.11,.1-.19,.15-.21,.16Z"/><path class="cls-1" d="M860.49,460.88c2.11,1.85,2.42,5.04,4.52,6.88,.09-.1,.2-.18,.22-.17,.59-.7,1.13-1.49,1.82-2.08,10.34-8.7,20.58-17.57,31.11-26.12,1.52-1.26,3.07-2.52,4.62-3.75,11.43-9.14,24.15-16.57,37.28-23.33,2.81-1.46,5.93-3.25,9-3.28,10.97-.08,22,.47,33.01,.8,2.58-2.61,5.11-5.19,7.69-7.8,.92-.66,1.84-1.31,2.79-1.9-1.2-.1-2.41-.19-3.61-.23-11.89-.56-23.76-1.19-35.64-1.6-2.94-.12-6.44-.43-8.71,.87-10.92,6.15-22.01,12.16-32.09,19.44-14.82,10.72-28.87,22.41-43.13,33.8-3.2,2.55-5.92,5.63-8.88,8.47Z"/><path class="cls-1" d="M865.01,467.75c-2.1-1.84-2.41-5.03-4.52-6.88,1.67,2.22,1.26,6.33,4.49,6.91t.03-.03Z"/><path class="cls-1" d="M865.01,467.75s.03,.05,.04,.05c.06-.07,.13-.15,.17-.23-.02,0-.12,.07-.22,.17Z"/><path class="cls-1" d="M865.23,467.58c-.05,.08-.11,.15-.17,.23,10.38-8.75,22.18-19.4,33.11-28.42-10.53,8.54-20.77,17.41-31.11,26.12-.69,.59-1.23,1.38-1.82,2.08Z"/><path class="cls-5" d="M826.65,684.54c-4.58,5.72-3.39,11.2,.67,16.12,3.76-5.81,7.56-11.6,11.31-17.41,3.34-5.2,6.62-10.43,9.92-15.64-.73-.61-1.44-1.22-2.18-1.83-1.04-.87-2.1-1.77-3.22-2.7-.35,.34-1.17,.98-1.77,1.77-4.92,6.56-9.62,13.29-14.73,19.7Z"/><path class="cls-11" d="M944.27,341.31l.03,.03s.03-.03,.03-.05c-.02,.01-.04,0-.07,.02Z"/><path class="cls-1" d="M944.52,341.13l-.18,.17s.1,0,.13-.03c.05-.02,.03-.09,.04-.14Z"/><path class="cls-1" d="M827.31,700.66c1.58,1.4,3.15,2.8,4.73,4.21,1-1.4,2.01-2.78,3.01-4.17-1.46-4.59-.16-8.42,2.43-12.23,4.01-5.89,7.56-12.08,11.26-18.19,.48-.79,1.7-1.83-.2-2.67-3.31,5.21-6.58,10.44-9.92,15.64-3.74,5.81-7.54,11.61-11.31,17.41Z"/><path class="cls-7" d="M829.14,710.44c-4.33,5.02-6.83,11.08-7.6,17.96-.88,7.78,1.12,14.53,7.8,19.68,2.88,2.21,6.12,4,9.07,6.13,20.75,15.06,41.54,30.09,62.22,45.24,24.93,18.26,50.13,36.08,77.52,50.69,6.91,3.69,13.85,7.58,21.15,10.31,9.86,3.66,20.02,6.44,30.13,9.32,15.39,4.39,30.77,8.91,46.3,12.69,19.99,4.88,40.06,9.41,60.23,13.49,12.45,2.51,25.1,3.8,37.66,5.79,1.7,.27,2.62-.26,3.62-1.3,2.21-2.27,4.46-4.5,6.71-6.76,0,1.42-.53,2.5-.78,3.64-.48,2.15-1.5,4.47-1.03,6.5,.82,3.61,4.01,5.65,7.65,6.18,3.75,.55,6.95-.76,9.08-3.9,1.26-1.89,2.53-3.75,4.23-6.26,.73,1.42,1.21,2.34,1.67,3.29,2.99,6.02,10.83,7.9,15.88,2.29,4.55-5.06,9.4-9.94,13.39-15.4,17.25-23.68,28.87-50.28,39.21-77.46,4.56-11.97,8.72-24.13,12.62-36.34,3.55-11.2,7-22.48,9.59-33.95,2.92-12.99,5.05-26.18,7.16-39.35,1.65-10.18,1.68-20.53,.99-30.95-.75-11.55-5.72-20.75-16.14-27.05-6.71-4.04-13.99-7.09-21.61-8.73-23.44-5.02-46.93-9.77-70.45-14.41-21.92-4.33-43.89-8.41-65.85-12.54-5.53-1.06-11.1-1.9-17.05-2.89,.22,1.68,.23,3.12,.6,4.51,1.66,6.04,5.73,10.83,9.49,15.77,.35,.48,1.2,.77,1.86,.9,8.46,1.57,16.92,3.17,25.41,4.66,13.43,2.34,26.86,4.59,40.29,6.86,6.71,1.13,13.44,2.25,20.17,3.27,8.91,1.36,17.84,2.62,26.77,3.95,7.97,1.18,15.95,2.38,23.91,3.63,4.61,.73,9.21,1.56,13.85,2.35-.03,.14-.04,.31-.05,.46-.93,.03-1.87,.07-2.81,.04-19.41-.66-38.81-1.34-58.21-2.02-2.83-.1-5.68-.05-8.49-.38-1.18-.13-2.28-1.41-3.45-1.52-10.55-1.04-21.1-2-31.65-2.87-13.57-1.11-27.14-2.14-40.71-3.16-1.87-.14-3.32-.61-4.57-2.22-2.28-2.94-5.07-5.55-7.18-8.59-3.99-5.74-7.99-11.49-11.33-17.56-2.46-4.44-1.91-9.23,.57-13.56,1.39-2.4,3-4.69,4.24-7.16,22.72-44.98,45.42-89.96,68.07-134.96,.68-1.36,1.58-1.89,3.12-2.1,17.77-2.48,35.55-5.02,53.3-7.56l-.96-4.89c-5.11-7.29-9.83-14.68-14.28-22.2-1.46-2.45-3.3-3.9-5.99-4.79-1.03-.35-2.02-.78-2.92-1.3-2.65-1.5-4.73-3.7-6.22-6.48s-.22-4.27,2.84-4.21c4.41,.06,8.83,.13,13.24-.06,3.55-.15,6.43-1.63,7.85-4.95,1.17-2.67,.21-5.64-2.7-6.53-3.36-1.01-6.9-1.6-10.4-1.81-8.66-.53-17.38-1.2-26.03-1.04-19.04,.38-38.07,.79-57.11,1.23l.28,4.15c-.41,4.48-.77,8.68-1.18,13.21,4.56-.21,8.83-.43,13.11-.64,12.59-.64,25.18-1.24,37.77-1.96,4.88-.28,8.38,2.02,10.66,5.83,3.63,6.04,6.81,12.33,10.18,18.53,.54,.99,1.03,2.02,1.67,3.27-14.86,2.86-29.82,4.42-44.89,5.42l1.91,4.58c-3.07,6.29-5.63,12.91-9.35,18.81-11.04,17.6-19.22,36.63-28.77,54.96-11.53,22.12-22.65,44.44-33.95,66.68-.31,5.89-4.41,10.28-6.11,15.62-1.54,4.84-1.27,9.58,1.08,14.29,.39,.78,.82,1.56,1.18,2.37,2.37,5.27,5.48,10.17,7.85,15.52,3.45,7.88,8.89,15.03,13.47,22.47,.47,.73,.92,1.44,1.07,2.45l-.07,4.8c6.56,.37,13.12,.75,19.69,1.1,17.38,.95,34.75,1.87,52.14,2.81,15.42,.84,30.84,1.64,46.28,2.5,5.47,.31,10.96,.78,16.55,1.16,.23,2.76,.59,5.05,.54,7.31-.15,7.19-.42,14.37-.7,21.54-.2,5.56-.24,5.8-6.06,5.69-22.93-.42-45.85-.84-68.79-1.61-14.63-.49-29.26-1.54-43.89-2.47-13.66-.89-27.31-1.97-40.98-3-6.56-.49-13.12-1.11-19.69-1.52-7.06-.45-14.12-.7-21.2-1.04-.03-.16-.04-.3-.08-.45,3.08-1.06,6.18-2.11,9.49-3.25-3.04-8.54-6-16.86-8.96-25.2-6.67-.35-13.11-.7-19.78-1.06,2.33,6.33,4.55,12.29,6.75,18.27,.41,1.14,.55,2.56,1.34,3.37,1.59,1.61,1.65,3.45,.64,4.77-.76,.97-2.72,1.56-4.11,1.42-8.17-.81-16.33-1.76-24.48-2.88-12.78-1.8-24.85-5.88-36.3-12.05-13.03-7.01-26.19-13.82-39.4-20.79,3.67-8.56,7.2-16.78,10.58-24.65-6.35-4.53-12.41-8.85-18.55-13.24-2.15,5.47-3.85,11.21-6.6,16.43-2.42,4.6-1.94,8.24,1.7,11.95,.15,.15,.12,.44,.26,.99-4.77-2.18-9.22-4.51-14.43-4.08-1.92,.15-3.9-.14-5.84-.28-9.81-.83-18.62,1.18-26.1,7.27-3.82,3.13-7.23,6.45-9.45,10.92-1.66,3.36-2.08,3.91,1.17,6.22,.96,.69,1.94,1.33,2.93,1.95,2.99,1.88,6.13,3.56,9.17,5.32,1.57,.92,2.68,.6,3.58-1.04,1.07-1.92,2.57-3.57,3.67-5.47,2.27-3.94,6.04-5.26,10.43-5.07,7.42,.32,14.52,2.62,21.1,5.89,13.19,6.51,26.11,13.64,39.19,20.43,13.13,6.82,26.28,13.74,41,16.41,13.79,2.51,27.51,4.87,41.63,4.85,11.05-.01,22.22,2.34,33.34,3.37,12.84,1.17,25.71,2.13,38.57,3,20.41,1.36,40.79,2.86,61.2,3.72,20.98,.91,41.97,1.15,62.94,1.58,2.42,.04,4.81-.57,7.31-.88,1.85-3.72,3.76-7.59,5.69-11.47,.16,.07,.32,.13,.48,.2-.68,4.67-1.33,9.35-1.99,13.97,2.31,1.19,4.5,2.31,7.36,3.79-2.48,.02-4.15,.14-5.83,.03-2.35-.19-3.5,.61-3.69,3-.27,3.07-.73,6.13-1.4,9.12-3.49,15.42-6.8,30.88-10.67,46.18-2.4,9.48-5.39,18.85-8.71,28.04-4.28,11.97-9.07,23.76-13.81,35.56-2.43,6.03-5.19,11.91-7.91,18.11-4.62-2.14-8.98-4.14-13.35-6.17-22.47-10.4-44.87-20.98-67.46-31.13-23.09-10.38-46.36-20.36-69.57-30.47-9.36-4.06-18.07-9.03-25.09-16.53-.53-.54-1.18-1-1.87-1.55-4.6,2.95-9.1,5.83-13.61,8.72,6.78,8.55,14.9,15.31,24.71,19.85,20.54,9.49,41.17,18.8,61.8,28.07,19.66,8.85,39.38,17.58,59.09,26.31,8.84,3.93,17.73,7.79,26.63,11.6,.9,.38,2.04,.23,3.07,.34-.07-1.09,.19-2.37-.29-3.26-.86-1.57-2.17-2.92-3.29-4.37,3.54,1.93,6.87,4.04,9.7,6.69,3.12,2.96,2.26,5.23-1.87,6.05-.86,.17-1.75,.36-2.61,.3-4.53-.31-9.08-.41-13.54-1.12-10.97-1.79-21.95-3.54-32.79-5.92-22.11-4.85-44.2-9.82-66.18-15.3-15.68-3.89-31.19-8.61-46.72-13.13-6.46-1.87-13.09-3.57-19.13-6.41-9.36-4.39-18.34-9.62-27.39-14.64-5.37-2.97-10.57-6.28-15.92-9.34-5.28-3-10.64-5.88-15.98-8.82,.1-.19,.19-.4,.27-.6,4.2,1.18,8.43,2.31,12.6,3.58,1.6,.47,2.83,.33,4.18-.59,6.65-4.48,13.25-9.04,20.07-13.24,15.26-9.4,29.55-20.17,45.66-28.41,14.39-7.35,25.11-18.27,30.28-33.64,1.6-4.74,2.56-9.66,1.92-14.97-7.02-.64-13.89-1.28-20.73-1.92-1,4.79-1.57,9.33-2.91,13.58-1.92,6.03-4.94,11.65-10.29,15.46-6.88,4.88-13.83,9.72-21.08,14.11-13.33,8.07-25.56,17.68-39.73,24.66-8.37,4.13-15.92,9.77-23.72,14.92-1.76,1.14-2.87,1.09-4.52-.2-27.25-21.19-54.52-42.38-81.85-63.46-5.44-4.19-7.96-9.31-7.69-15.81,.03-.7-.55-1.78-1.17-2.16-5.53-3.34-11.13-6.56-16.73-9.82Zm432.98-50.06c-.01-.52,.07-1.03,.16-2.28,2.01,3.77,3.8,6.88,5.39,10.09,.77,1.58,1.64,2.26,3.48,1.87,3.85-.76,7.87-1,11.6-2.11,7.52-2.27,9.78-7.65,6.7-14.88-.44-1.05-1-2.05-1.51-3.08-.16-.25-.32-.49-.48-.76l.25-.2c.25,.22,.52,.44,.79,.67,4.78,3.87,8.14,8.36,6.72,14.58-.98,4.36-4.35,6.85-8.33,8.45-1.93,.78-2.16,1.74-2.04,3.6,.31,4.43,.25,8.87,.35,13.87l1.29,4.25c.25,.28,.51,.54,.76,.81,8.75,7.3,8.43,19.78-.7,26.55-1.05,.75-2.08,1.69-3.3,2.04-3.16,.94-3.75,3.28-4.46,6.05-3.5,13.52-6.93,27.09-11.07,40.41-4.12,13.21-8.79,26.25-13.69,39.2-6.18,16.3-13.24,32.25-21.73,47.5-4.35,7.85-8.62,15.76-13.35,23.38-3.39,5.46-8.04,9.98-13.97,13.31,2.35-5,4.54-10.1,7.08-15,8.22-15.97,15.09-32.54,21.35-49.37,9.73-26.22,17.05-53.16,21.91-80.81,.93-5.32,2.1-10.58,2.69-15.94,1.26-11.27,2.27-22.61,3.24-33.92,.58-6.72,1.14-13.44,1.28-20.17,.15-6.02-.25-12.07-.4-18.1Z"/><path class="cls-7" d="M835.05,700.71c-.99,1.39-2.01,2.76-3.01,4.17,.48,.62,.84,1.45,1.47,1.84,2.11,1.31,4.22,2.6,6.34,3.9l1.85-2.91c-2.67-1.69-4.87-4.07-6.66-6.99Z"/><path class="cls-1" d="M838.14,692.64c-.9,1.51-.75,3.67-1.08,5.53,.38-.85,.67-1.74,1.16-2.52,4.89-7.8,9.82-15.58,14.74-23.37-.54-.26-1.08-.52-1.62-.76-4.45,7.06-8.97,14.01-13.2,21.12Z"/><path class="cls-5" d="M846.9,662.65c-.1,.29,.37,.95,.94,1.49,.35,.33,.74,.62,1.07,.75,2.89,1.19,1.73-1.92,2.86-2.8-.56-.02-1.16-.22-1.74-.42-1.27-.43-2.46-.78-3.14,.98Z"/><path class="cls-7" d="M838.22,695.66c-.49,.77-.78,1.67-1.16,2.52,1.69,5.51,5.92,8.46,11.29,9.81,.65,.16,1.33,.32,1.99,.39,1.83,.24,3.7,0,5.09-1.72,4.06-6.22,8.11-12.47,12.18-18.68,1.15-1.75,2.37-3.45,3.56-5.19,.25-.51,.5-1.04,.51-1.07-3.68-2.29-7.32-4.54-10.92-6.77-2.24-1.39-4.49-2.77-6.72-4.16-.32,.43-.7,.97-1.09,1.5-4.91,7.79-9.84,15.57-14.74,23.37Z"/><path class="cls-7" d="M841.7,707.7l-1.85,2.91c2.9,1.77,5.81,3.53,8.72,5.3,.1,.05,.18,.12,.29,.17,1.12-1.82,2.21-3.63,3.33-5.46-.65-.03-1.33-.01-1.97-.06-.23-.02-.45-.04-.66-.07-2.99-.39-5.6-1.35-7.84-2.8Z"/><path class="cls-1" d="M904.23,517.82c-11.46,16.33-14.89,34.6-10.3,54.56,3.06,13.35,7.94,26.1,16.35,37.23,3.32,4.38,3.26,7.47,1.02,11.44-.77,1.38-1.25,2.92-1.84,4.41,.22,.26,.46,.52,.67,.78,.65-1.64,1.16-3.38,2.02-4.9,2.24-3.97,2.31-7.05-1.01-11.43-8.43-11.14-13.29-23.88-16.35-37.23-4.59-19.96-1.15-38.23,10.29-54.56,15.9-22.67,32.19-45.07,48.38-67.52,9.81-13.63,19.77-27.14,29.64-40.71-.34,0-.7-.03-1.03-.04-.01,.03-.03,.05-.06,.07-9.8,13.46-19.66,26.87-29.4,40.39-16.19,22.45-32.48,44.85-48.38,67.52Z"/><path class="cls-1" d="M922.85,39.26c45.2,15.9,86.74,38.93,124.4,69.5,27.76,22.52,52.02,48.13,72.87,76.74,27.02,37.09,46.81,77.25,59.59,120.43,1.01,3.39,1.88,6.83,2.83,10.27-6.97,.39-8.4-.71-7.81,8.15,1.3,19.55,2.19,39.12,3.25,58.67,.04,.51-.06,1.03-.11,1.88-4.61,.12-9.24,.25-13.88,.36-28.12,.63-56.23,1.24-84.35,1.87-.03,.1-.04,.2-.06,.31,28.42-.62,56.84-1.24,85.28-1.88,4.63-.11,9.27-.24,13.86-.36,.07-.84,.16-1.36,.13-1.87-1.06-19.55-1.97-39.12-3.27-58.67-.58-8.85,.85-7.75,7.82-8.14-.95-3.44-1.82-6.88-2.83-10.27-12.78-43.18-32.57-83.34-59.59-120.43-20.85-28.61-45.11-54.23-72.87-76.74-37.9-30.77-79.76-53.88-125.27-69.8Z"/><path class="cls-1" d="M832.4,757.7c2.66,1.96,5.29,3.9,7.95,5.86,.18,.12,.34,.25,.52,.37,.11-.02,.24-.05,.35-.07-2.86-2.1-5.72-4.2-8.55-6.3-.09,.04-.17,.09-.27,.14Z"/><path class="cls-7" d="M911.07,520.56c-7.47,10.39-11.55,22.04-11.84,34.98-.25,11.4,2.81,22.33,7,33,3.2,8.15,7.41,15.81,13.95,22.28,8.65,8.55,18.74,15.18,29.27,21.04,11.82,6.59,23.2,14.11,36.29,18.35,11.85,3.85,23.48,7.62,36.19,7.72,17.27,.13,34.58,1.61,51.88,2.55,11.69,.64,23.4,1.31,35.1,1.97l.07-4.8c-3.58-3.27-7.16-6.55-10.75-9.82-6.21-5.65-6.21-5.39-14.53-6.07-16.41-1.33-32.82-2.98-49.23-4.57-.74-.06-1.76-.54-2.17-1.14-4.18-6.07-8.16-12.25-12.37-18.32-3.4-4.87-5.53-10.15-7.04-15.72-1.38-5.1-3.23-10.1-4.51-15.2-2.18-8.75,.55-16.45,4.62-23.95,6.8-12.49,15.64-23.56,24.29-34.79,15.61-20.31,31.16-40.67,46.93-61.28-3.61-2.57-7-5-10.38-7.42l.12-.38c4.08,.62,8.22,1.03,12.23,1.94,7.74,1.75,15.42,.91,23.08,.64,12.36-.43,24.67-1.11,36.99-1.85,1.31-.07,2.81-.84,3.68-1.78,4.18-4.48,8.16-9.12,12.56-13.46l-1.91-4.58c-19.38,1.28-38.89,1.64-58.52,2.59,5.75-7.91,11.4-15.23,16.55-22.89,5.09-7.54,9.68-15.38,14.65-23.36l-.28-4.15c-25.97,.59-51.96,1.22-77.95,1.86-10.31,.25-20.73,.12-30.88,1.43-15.63,2.02-28.91,8.38-38.12,21.2-24.93,34.71-50.04,69.28-75,103.95Zm7.27,34.64c.22-9,3.63-17.07,8.85-24.32,24.56-34.12,49.27-68.16,73.74-102.37,6.06-8.47,14.72-12.52,24.85-13.9,7.7-1.04,15.64-.93,23.49-1.19,14.56-.45,29.12-.75,43.67-1.24,2.55-.09,4.47,.62,6.19,2.7-6.74,9.07-13.44,18.2-20.3,27.22-22.81,30.01-45.76,59.91-68.49,89.98-7.93,10.5-14.77,21.73-19.37,34.09-3.14,8.39-2.98,17.2-1.07,26.08,2.57,11.83,8.23,22.37,15.34,32.35,2.41,3.41,4.66,6.89,7.21,10.68-17.43,.51-32.91-4.62-47.3-13.59-11.13-6.92-21.56-14.8-30.72-24.06-3.65-3.69-6.93-8.06-9.11-12.63-4.49-9.45-7.22-19.48-6.97-29.81Z"/><path class="cls-1" d="M848.57,715.91l-2.7,4.35c.62,.38,1.2,1.46,1.17,2.16-.26,6.5,2.25,11.62,7.69,15.81,27.33,21.09,54.6,42.27,81.85,63.46,1.65,1.29,2.76,1.34,4.52,.2,7.79-5.14,15.35-10.79,23.72-14.92,14.17-6.98,26.39-16.59,39.73-24.66,7.25-4.39,14.2-9.23,21.08-14.11,5.35-3.81,8.36-9.43,10.29-15.46,1.35-4.25,1.92-8.79,2.91-13.58,6.84,.64,13.71,1.27,20.73,1.92,.64,5.31-.31,10.23-1.92,14.97-5.17,15.36-15.89,26.29-30.28,33.64-16.11,8.24-30.4,19-45.66,28.41-6.83,4.21-13.42,8.77-20.07,13.24-1.35,.92-2.58,1.06-4.18,.59-4.18-1.27-8.4-2.4-12.6-3.58-.09,.2-.17,.4-.27,.6,5.34,2.95,10.7,5.82,15.98,8.82,5.34,3.06,10.55,6.36,15.92,9.34,9.05,5.01,18.04,10.25,27.39,14.64,6.04,2.84,12.67,4.54,19.13,6.41,15.54,4.52,31.05,9.23,46.72,13.13,21.98,5.48,44.07,10.44,66.18,15.3,10.84,2.38,21.82,4.12,32.79,5.92,4.46,.71,9.02,.81,13.54,1.12,.86,.06,1.75-.13,2.61-.3,4.13-.82,4.99-3.09,1.87-6.05-2.82-2.64-6.16-4.76-9.7-6.69,1.12,1.45,2.43,2.8,3.29,4.37,.48,.89,.22,2.16,.29,3.26-1.03-.1-2.17,.05-3.07-.34-8.9-3.81-17.79-7.67-26.63-11.6-19.72-8.73-39.43-17.46-59.09-26.31-20.63-9.27-41.26-18.58-61.8-28.07-9.81-4.54-17.93-11.3-24.71-19.85,4.5-2.89,9-5.77,13.61-8.72,.68,.56,1.34,1.01,1.87,1.55,7.02,7.5,15.72,12.47,25.09,16.53,23.21,10.11,46.49,20.09,69.57,30.47,22.59,10.15,44.99,20.73,67.46,31.13,4.37,2.02,8.73,4.02,13.35,6.17,2.72-6.2,5.48-12.08,7.91-18.11,4.75-11.79,9.53-23.59,13.81-35.56,3.32-9.19,6.31-18.56,8.71-28.04,3.88-15.3,7.18-30.76,10.67-46.18,.67-2.99,1.13-6.05,1.4-9.12,.19-2.39,1.34-3.18,3.69-3,1.67,.11,3.34-.01,5.83-.03-2.86-1.47-5.05-2.6-7.36-3.79,.66-4.62,1.32-9.3,1.99-13.97-.16-.07-.32-.13-.48-.2-1.93,3.88-3.83,7.75-5.69,11.47-2.5,.32-4.89,.92-7.31,.88-20.97-.43-41.96-.67-62.94-1.58-20.41-.87-40.79-2.36-61.2-3.72-12.86-.87-25.73-1.83-38.57-3-11.12-1.02-22.28-3.38-33.34-3.37-14.12,.03-27.84-2.34-41.63-4.85-14.73-2.67-27.87-9.59-41-16.41-13.09-6.78-26-13.91-39.19-20.43-6.58-3.27-13.68-5.57-21.1-5.89-4.39-.19-8.16,1.13-10.43,5.07-1.1,1.9-2.61,3.56-3.67,5.47-.9,1.65-2.01,1.96-3.58,1.04-3.05-1.76-6.18-3.44-9.17-5.32l-2.82,4.39c3.6,2.24,7.23,4.49,10.92,6.77-.01,.03-.26,.56-.51,1.07,.46,.5,.91,.98,1.49,1.6-4.8,6.81-9.53,13.63-14.38,20.37-.62,.86-1.89,1.29-2.85,1.9-1.38,1.71-3.25,1.96-5.09,1.72l-.13,2.2c.65,.05,1.32,.03,1.97,.06,3.93-.16,6.72-2.03,8.84-5.08,4.75-6.81,9.54-13.61,14.35-20.38,.63-.9,1.21-2.31,2.76-.82,9.84,5.24,19.68,10.5,29.53,15.73,5.68,3.02,11.49,5.82,17.07,9.02,7.55,4.33,12.09,10.45,11.48,19.2-.74,10.55-9.42,17.8-20.39,17.68-8.8-.12-16.45-3.49-24.05-7.43-12.11-6.32-24.27-12.56-36.41-18.83-.17-.15-.36-.31-.55-.47l-.06-.08c-1.96-1.03-3.94-2.07-5.9-3.08-.1-.05-.18-.12-.29-.17Zm8.19,16.32c-2.3-1.89-3.31-4.49-3.2-7.73,10.12,5.26,20.08,10.41,30.01,15.56,4.15,2.2,8.31,4.39,12.46,6.61,12.29,5.04,24.49,6.45,36.45,.6,9.19-4.48,14.33-11.73,15.21-21.81-.53-8.13-4.48-14.72-10.61-20.31-10.98-8.67-23.69-14.58-35.69-21.59l-2.55,4.25c9.81,5.71,19.66,11.45,29.45,17.29,4.99,2.98,9.07,6.95,11.62,12.2,3.45,7.09,2.3,14.49-3.23,20.06,.71-2.44,1.69-4.75,2.02-7.14,1.41-10.25-3.46-17.86-12.5-22.9-14.41-8.04-29.09-15.6-43.67-23.37-.76-.39-1.52-.84-2.15-1.19,1.44-1.08,2.91-2.19,4.25-3.23,.36,.2,.69,.41,1.05,.61l2.78-4.65c-1.05-.66-2.15-1.25-3.24-1.87,1.09-2.9,2.65-3.98,5.98-3.41,3.6,.61,7.21,1.4,10.71,2.47,10.07,3.14,18.84,8.88,27.97,13.93,4.33,2.22,8.66,4.42,13.01,6.64,8.59,4.16,17.12,8.42,25.76,12.47,3.72,1.73,7.66,2.99,11.8,4.57,.77,5.49,.94,10.89-2.9,15.88-5.85,7.59-13.29,13.23-21.59,17.97-17.28,9.81-36.23,15.91-55.63,20.88-.79,.19-1.98-.02-2.63-.51-5.4-4.19-10.74-8.49-16.09-12.75-3.15-2.51-6.32-5-9.49-7.51-5.12-4-10.32-7.91-15.36-12.04Zm82,63.86c-10.96-8.3-21.92-16.62-33.12-25.12,20.56-5.04,40.64-9.97,61.07-14.97,3.66,4.4,7.73,9.33,11.93,14.41-13.22,8.51-26.43,17.02-39.88,25.68Zm27.86-49.7c3.75-3.05,7.43-6.05,11.27-9.19,6.09,7.2,12.09,14.3,18.31,21.64-4.22,2.76-8.29,5.43-12.59,8.26-5.64-6.9-11.26-13.75-16.98-20.71Zm21.32-22.53c.22-3.89,.43-7.57,.67-11.59,3.45,.79,6.65,1.53,9.85,2.27l.18-.17c-.06,.06-.1,.14-.16,.19-2.02,2.11-3.96,4.3-6.09,6.28-1.29,1.17-2.91,2-4.44,3.01Zm-20.81,91.08c11.14-6.57,21.96-12.93,33.06-19.46,.66,.74,1.5,1.62,2.27,2.53,8.9,10.61,20.56,17.46,33.1,23.07,15.92,7.12,31.89,14.12,47.82,21.2,22.96,10.22,45.88,20.46,68.82,30.69-.11,.21-.21,.45-.3,.66-4.15-.68-8.3-1.2-12.38-2.08-18.17-3.97-36.38-7.75-54.43-12.19-15.62-3.83-31.07-8.34-46.56-12.76-10.19-2.89-20.42-5.76-30.39-9.39-6.31-2.3-12.26-5.8-18.2-9.06-7.49-4.14-14.82-8.56-22.81-13.21Zm71.47-23.79c-5.28-2.45-9.65-6.88-15.2-10.97,5.74-3.83,10.69-7.13,15.64-10.46,11.53-7.72,19.82-17.91,24.33-30.89,.97-2.79,1.76-5.7,2.25-8.64,.48-2.83,.48-5.75,.71-8.97,55.33,3.74,110.74,8.88,166.35,8.24-6.83,46.01-20.7,89.63-40.04,131.77-8.88-4.26-17.55-8.59-26.36-12.62-17.97-8.22-35.98-16.33-54.01-24.41-24.57-11-49.26-21.72-73.66-33.05Z"/><path class="cls-1" d="M852.18,710.63c-1.12,1.82-2.21,3.63-3.33,5.46,1.96,1.01,3.94,2.05,5.9,3.08,.37-.76,.65-1.56,1.11-2.24,5.85-8.81,11.72-17.62,17.61-26.39,1.44-2.13,3.09-4.12,4.65-6.18-1.55-1.48-2.13-.07-2.76,.82-4.8,6.77-9.59,13.57-14.35,20.38-2.12,3.05-4.9,4.92-8.84,5.08Z"/><path class="cls-1" d="M855.43,706.66c.96-.61,2.23-1.04,2.85-1.9,4.85-6.74,9.59-13.55,14.38-20.37-.58-.62-1.03-1.1-1.49-1.6-1.19,1.74-2.41,3.43-3.56,5.19-4.08,6.22-8.12,12.46-12.18,18.68Z"/><path class="cls-5" d="M854.75,719.16l.06,.08c.19,.16,.38,.32,.55,.47,12.15,6.27,24.3,12.51,36.41,18.83,7.59,3.94,15.25,7.31,24.05,7.43,10.97,.13,19.65-7.13,20.39-17.68,.62-8.75-3.93-14.87-11.48-19.2-5.58-3.2-11.39-6-17.07-9.02-9.85-5.23-19.69-10.48-29.53-15.73-1.56,2.06-3.21,4.04-4.65,6.18-5.9,8.78-11.76,17.58-17.61,26.39-.46,.68-.75,1.49-1.11,2.24Z"/><path class="cls-7" d="M853.56,724.5c-.11,3.24,.9,5.84,3.2,7.73,5.04,4.12,10.24,8.04,15.36,12.04,3.16-.94,6.36-1.84,9.49-2.88,.74-.23,1.31-.88,1.96-1.32-9.93-5.16-19.89-10.3-30.01-15.56Z"/><path class="cls-1" d="M927.19,530.89c-5.22,7.25-8.63,15.32-8.85,24.32-.25,10.33,2.49,20.36,6.97,29.81,2.17,4.57,5.46,8.94,9.11,12.63,9.16,9.26,19.6,17.14,30.72,24.06,14.39,8.97,29.86,14.1,47.3,13.59-2.55-3.8-4.79-7.28-7.21-10.68-7.11-9.98-12.78-20.52-15.34-32.35-1.92-8.89-2.07-17.69,1.07-26.08,4.61-12.36,11.45-23.59,19.37-34.09,22.74-30.07,45.68-59.98,68.49-89.98,6.86-9.02,13.56-18.16,20.3-27.22-1.72-2.08-3.64-2.79-6.19-2.7-14.55,.49-29.12,.79-43.67,1.24-7.85,.26-15.79,.15-23.49,1.19-10.13,1.38-18.79,5.43-24.85,13.9-24.47,34.21-49.18,68.25-73.74,102.37Zm-2.28,22.39c.84-6.47,3.07-12.44,6.82-17.66,25.22-35.18,50.58-70.26,75.9-105.37,3.75-5.2,9.53-7.37,15.58-9.14,7.34-2.16,14.99-1.61,22.55-1.83,13.76-.42,27.54-.69,41.31-1.03,.34,0,.69,.12,1.01,.17-2.23,6.1-6.69,8.12-13.4,8.26-11.82,.25-23.55,1.63-35.33,2.43-3.5,.25-7.06,.13-10.57,.27-8.58,.38-15.44,3.77-20.23,10.53-9.49,13.39-18.99,26.79-28.37,40.26-14.17,20.34-28.19,40.78-42.37,61.12-7.71,11.05-7.04,22.86-2.02,35.01,4.58,11.03,11.92,20.31,20.84,28.57,2.04,1.9,3.45,4.41,4.79,6.91-9.28-6.37-18.35-12.86-25.66-21.26-3.85-4.43-6.13-9.67-7.61-15.19-1.94-7.27-4.24-14.46-3.24-22.05Zm58.28,16.58c-4.42-10.33-6.28-20.14-.05-29.18,22.71-32.97,45.68-65.78,68.56-98.65,.47-.7,1.06-1.33,1.54-2.02,2.83-3.94,6.38-6.31,11.84-6.03,3.94,.19,7.9-.51,12.58-.87-4.84,6.45-9.25,12.44-13.76,18.34-19.67,25.79-39.48,51.46-59.02,77.33-8.29,10.99-15.22,22.8-20.19,35.67-.61,1.56-.91,3.22-1.51,5.42Z"/><path class="cls-5" d="M880.38,682.76c.63,.35,1.39,.8,2.15,1.19,14.58,7.77,29.26,15.33,43.67,23.37,9.04,5.05,13.91,12.66,12.5,22.9-.34,2.39-1.31,4.71-2.02,7.14,5.54-5.57,6.68-12.97,3.23-20.06-2.56-5.25-6.64-9.23-11.62-12.2-9.79-5.84-19.64-11.58-29.45-17.29-4.4-2.55-8.78-5.11-13.16-7.67-.36-.2-.69-.41-1.05-.61-1.34,1.04-2.81,2.15-4.25,3.23Z"/><path class="cls-7" d="M931.72,535.62c-3.75,5.22-5.98,11.18-6.82,17.66-1,7.59,1.3,14.79,3.24,22.05,1.48,5.52,3.76,10.76,7.61,15.19,7.31,8.4,16.38,14.89,25.66,21.26-1.34-2.5-2.75-5.02-4.79-6.91-8.92-8.26-16.27-17.54-20.84-28.57-5.02-12.14-5.68-23.95,2.02-35.01,14.17-20.34,28.19-40.78,42.37-61.12,9.38-13.47,18.87-26.87,28.37-40.26,4.8-6.76,11.66-10.15,20.23-10.53,3.51-.15,7.07-.03,10.57-.27,11.77-.8,23.51-2.18,35.33-2.43,6.7-.13,11.17-2.16,13.4-8.26-.32-.05-.67-.17-1.01-.17-13.77,.33-27.55,.61-41.31,1.03-7.56,.23-15.21-.33-22.55,1.83-6.05,1.77-11.83,3.94-15.58,9.14-25.32,35.11-50.67,70.19-75.9,105.37Z"/><path class="cls-7" d="M891.2,670.22c-3.33-.58-4.89,.5-5.98,3.41,1.09,.62,2.18,1.2,3.24,1.87,4.32,2.69,8.55,5.51,12.93,8.07,12.01,7.01,24.71,12.92,35.69,21.59-1.4-3.54-2.79-7.06-4.17-10.61-1.03-2.63-2.02-5.28-3.03-7.93-9.12-5.05-17.9-10.8-27.97-13.93-3.49-1.07-7.1-1.86-10.71-2.47Z"/><path class="cls-1" d="M888.46,675.49l-2.78,4.65c4.38,2.56,8.76,5.12,13.16,7.67l2.55-4.25c-4.38-2.56-8.61-5.38-12.93-8.07Z"/><path class="cls-1" d="M909.27,625.94c-1.22,2.94-2.41,5.86-3.63,8.8l.56,1.05c1.32-3.19,2.62-6.37,3.94-9.56-.22-.26-.46-.52-.67-.78-.07,.17-.12,.32-.2,.49Z"/><path class="cls-1" d="M872.12,744.27c3.17,2.51,6.34,5.01,9.49,7.51,1.92-.71,3.84-1.41,5.77-2.1,2.89-1.01,5.77-2.02,8.65-3.01-4.15-2.21-8.3-4.41-12.46-6.61-.65,.45-1.22,1.1-1.96,1.32-3.14,1.04-6.33,1.95-9.49,2.88Z"/><path class="cls-1" d="M982.07,409.83c.34,.02,.69,.04,1.03,.04,3.55-3.24,7.09-6.45,10.62-9.68-.4-.02-.77-.05-1.16-.07-.96,.59-1.87,1.24-2.79,1.9-2.58,2.61-5.11,5.19-7.69,7.8Z"/><path class="cls-7" d="M887.38,749.69c-1.93,.68-3.85,1.39-5.77,2.1,5.36,4.25,10.7,8.56,16.09,12.75,.65,.49,1.84,.7,2.63,.51,19.39-4.97,38.34-11.07,55.63-20.88,8.31-4.74,15.74-10.39,21.59-17.97,3.84-4.99,3.67-10.4,2.9-15.88-4.13-1.58-8.07-2.84-11.8-4.57-8.64-4.05-17.18-8.31-25.76-12.47,1.81,4.52,3.73,9,5.4,13.57,1.87,5.02,3.21,10.15,1.23,15.32-.44,1.17-1.2,2.21-1.82,3.31-.89,10.08-6.03,17.33-15.21,21.81-11.97,5.85-24.17,4.44-36.45-.6-2.88,.99-5.76,2-8.65,3.01Z"/><path class="cls-7" d="M944.09,635.69c-2.78,6.43-5.44,12.63-8.24,19.11,13.42,7.07,26.72,14.06,40.54,21.35-1.53-8.45-2.89-16.21-4.42-23.94-.14-.8-1.12-1.68-1.93-2.17-4.62-2.68-9.32-5.25-13.99-7.84-3.94-2.18-7.9-4.29-11.97-6.5Z"/><path class="cls-1" d="M942.89,693.27c-4.35-2.22-8.68-4.43-13.01-6.64,1.01,2.64,2,5.29,3.03,7.93,1.38,3.55,2.77,7.07,4.17,10.61,6.13,5.59,10.08,12.18,10.61,20.31,.62-1.09,1.38-2.14,1.82-3.31,1.98-5.17,.64-10.3-1.23-15.32-1.67-4.57-3.59-9.05-5.4-13.57Z"/><path class="cls-1" d="M1048.17,387.7c-.05,.1-.11,.21-.16,.31l31.58-.58c.02-.11,.03-.2,.06-.31-.3,0-.62,0-.93,0-10.19,.19-20.39,.37-30.55,.57Z"/><path class="cls-1" d="M1013.03,562.86c-4.07,7.5-6.8,15.21-4.62,23.95,1.28,5.11,3.13,10.1,4.51,15.2,1.51,5.57,3.63,10.85,7.04,15.72,4.2,6.06,8.19,12.24,12.37,18.32,.41,.6,1.42,1.08,2.17,1.14,16.41,1.59,32.81,3.25,49.23,4.57,8.31,.68,8.32,.41,14.53,6.07,3.58,3.27,7.16,6.55,10.75,9.82-.15-1.01-.61-1.72-1.07-2.45-4.58-7.44-10.02-14.59-13.47-22.47-2.37-5.34-5.48-10.25-7.85-15.52-.36-.81-.79-1.59-1.18-2.37-2.35-4.71-2.62-9.45-1.08-14.29,1.7-5.34,5.8-9.73,6.11-15.62,11.31-22.24,22.42-44.56,33.95-66.68,9.55-18.33,17.73-37.37,28.77-54.96,3.71-5.9,6.27-12.52,9.35-18.81-4.39,4.35-8.38,8.99-12.56,13.46-.87,.93-2.37,1.7-3.68,1.78-12.31,.73-24.63,1.41-36.99,1.85-7.66,.27-15.33,1.11-23.08-.64-4.01-.9-8.15-1.31-12.23-1.94l-.12,.38c3.38,2.41,6.77,4.85,10.38,7.42-15.77,20.61-31.31,40.96-46.93,61.28-8.65,11.23-17.49,22.3-24.29,34.79Zm1.08,19.19c-.72-5.83,1.78-10.65,4.28-15.47,6.22-12,14.66-22.53,22.88-33.22,16.11-20.99,32.13-42.06,48.14-63.14,1.15-1.5,2.36-2.3,4.46-2.37,16.21-.58,32.43-1.31,48.63-1.99,.26,0,.52,.12,1.1,.26-21.79,42.92-43.48,85.68-65.14,128.33-8.72-1.41-17.1-2.73-25.51-4.11-12.18-2.02-24.38-4.11-36.58-6.08-1.53-.25-2.04-.66-2.24-2.2Zm8.26,24.62c-1.46-5.34-3.36-10.58-5.22-16.35,19.99,3.25,39.62,6.46,59.51,9.72-1.38,6.58-.23,12.93,2.9,19.46-7.78-1.38-15.08-2.71-22.4-3.96-9.88-1.67-19.77-3.37-29.68-4.88-2.69-.4-4.32-1.18-5.1-3.99Zm5.8,9.88c3.82,.57,7.09,.97,10.34,1.56,14.29,2.52,28.59,5.1,42.87,7.7,.72,.13,1.7,.46,2.03,1,1.95,3.02,3.76,6.14,5.86,9.63-9.43-.64-18.33-1.14-27.22-1.9-7.81-.66-15.6-1.61-23.39-2.51-.85-.1-2.01-.55-2.39-1.18-2.69-4.53-5.23-9.17-8.1-14.3Z"/><path class="cls-5" d="M977.88,737.2c-3.84,3.14-7.51,6.14-11.27,9.19,5.72,6.96,11.34,13.81,16.98,20.71,4.3-2.83,8.37-5.5,12.59-8.26-6.22-7.34-12.22-14.44-18.31-21.64Z"/><path class="cls-7" d="M1017.15,590.33c1.87,5.77,3.76,11.01,5.22,16.35,.78,2.81,2.41,3.6,5.1,3.99,9.91,1.51,19.8,3.21,29.68,4.88,7.32,1.24,14.62,2.58,22.4,3.96-3.12-6.54-4.28-12.89-2.9-19.46-19.89-3.26-39.51-6.46-59.51-9.72Z"/><path class="cls-1" d="M988.62,712.28c-.24,4.02-.45,7.7-.67,11.59,1.54-1.01,3.15-1.84,4.44-3.01,2.13-1.98,4.07-4.17,6.09-6.28v-.02c-3.21-.74-6.41-1.49-9.86-2.27Z"/><path class="cls-1" d="M998.64,714.38l-.18,.17v.02c.07-.06,.12-.14,.18-.19Z"/><path class="cls-1" d="M1118.63,419.62c-5.15,7.65-10.8,14.98-16.55,22.89,19.63-.95,39.15-1.3,58.52-2.59,15.08-1,30.04-2.56,44.89-5.42-.64-1.25-1.13-2.28-1.67-3.27-3.37-6.2-6.56-12.49-10.18-18.53-2.28-3.8-5.78-6.1-10.66-5.83-12.59,.72-25.18,1.32-37.77,1.96-4.28,.21-8.55,.43-13.11,.64,.41-4.53,.77-8.74,1.18-13.21-4.97,7.98-9.56,15.82-14.65,23.36Zm-3.67,16.45c1.91-3.45,3.64-5.81,8.08-5.89,10.67-.18,21.29-.98,31.94-1.49,.78-.04,1.7-.21,2.34,.11,7.02,3.4,14.32,2.01,21.5,2.02,3.32,.02,6.63-.08,9.95,.15-24.26,3.62-48.89,4.16-73.81,5.11Zm9.12-12.85c1.77-2.52,3.35-4.84,5.06-7.07,.32-.43,1.19-.57,1.83-.6,14.52-.77,29.03-1.52,43.57-2.27,.25-.01,.51,.11,1.35,.31-16.28,8.16-33.61,9.71-51.8,9.64Zm45.56,1.05c6.27-2.52,12.57-4.86,16.57-11.83,2.57,4.03,4.77,7.46,7.24,11.33-8.29,.17-16.05,.35-23.81,.5Z"/><path class="cls-5" d="M1123.04,430.18c-4.43,.08-6.17,2.44-8.08,5.89,24.92-.95,49.55-1.48,73.81-5.11-3.33-.23-6.64-.13-9.95-.15-7.18,0-14.48,1.38-21.5-2.02-.64-.31-1.56-.15-2.34-.11-10.65,.51-21.28,1.31-31.94,1.49Z"/><path class="cls-5" d="M1129.14,416.15c-1.71,2.23-3.29,4.55-5.06,7.07,18.19,.07,35.52-1.48,51.8-9.64-.84-.19-1.1-.32-1.35-.31-14.53,.75-29.05,1.5-43.57,2.27-.63,.03-1.51,.18-1.83,.6Z"/><path class="cls-5" d="M1059.21,667.13c-2.97-.47-5.99-.39-9.19-.58,2.61,7.38,5.09,14.27,7.45,21.18,.52,1.5,1.28,1.99,2.88,2.11,8.68,.6,17.38,1.33,26.07,2.01,12.59,.95,25.19,2,37.79,2.79,16.66,1.05,33.34,2.01,50.02,2.82,13.43,.66,26.88,1.02,40.32,1.51,.03-.14,.06-.31,.09-.47-4.12-.94-8.2-2-12.34-2.84-22.79-4.67-45.59-9.24-68.37-13.9-16.11-3.29-32.17-6.78-48.28-10-8.79-1.74-17.61-3.21-26.44-4.64Z"/><path class="cls-5" d="M1188.73,323.23c-1.99,.05-3.73,.09-5.84,.14,1.12,20.6,2.23,41.11,3.35,61.59,4.65,0,8.88,.03,13.55,.05-3.68-20.57-7.35-41.12-11.05-61.78Z"/><path class="cls-1" d="M1199.17,326.4c-1.29-.13-2.57-.26-4.62-.46,4.14,19.62,8.15,38.73,12.21,57.98,1.96,.09,3.79,.16,5.64,.23-4.42-19.25-8.83-38.51-13.23-57.75Z"/><path class="cls-5" d="M1199.17,326.4c4.4,19.25,8.81,38.5,13.23,57.75,2.31,.15,4.6,.32,7.09,.48-2.46-9.2-4.74-18.06-7.16-26.89-2.05-7.48-4.15-14.95-6.42-22.38-1.12-3.66-2.61-7.26-6.74-8.96Z"/><path class="cls-5" d="M1207.46,326.04c-1.4-.47-2.84-.43-4.32-.03,3.19,3,4.78,6.76,5.86,10.73,4.2,15.35,8.35,30.72,12.55,46.07,.21,.76,.64,2,1.16,2.12,4.54,1.07,7.94,3.87,11.21,6.87,7.12,4.53,7.8,13.38,1.2,17.87-2.1,1.43-4.67,2.22-7.02,3.32-.52,.24-.99,.58-1.48,.9,5.81,.02,10.23-2.36,12.93-7.15,2.44-4.28,2.97-9.12,1.49-13.89-1.68-5.47-3.93-10.8-6.01-16.16-1-2.56-2.16-5.06-3.44-8.08-.2,.93-.21,1.27-.35,1.58-.44,1.11-.93,2.23-1.41,3.35-1.07-.79-2.57-1.37-3.16-2.4-1.72-3.07-3.39-6.23-4.51-9.5-2.78-8.15-6.54-16.18-4.99-24.96,.02-.11-.02-.24-.08-.37-.06-.12-.14-.24-.23-.35-2.14-2.7-4.05-5.61-6.48-8.04-.94-.93-1.92-1.53-2.91-1.87Z"/><path class="cls-1" d="M1208.86,321.31l-1.4,4.73c1,.34,1.97,.94,2.91,1.87,2.43,2.43,4.34,5.34,6.48,8.04,.09,.11,.17,.23,.23,.35l4.75-1.93c-.17-.4-.37-.79-.55-1.2-2.61-5.39-6.44-10-12.42-11.86Z"/><path class="cls-5" d="M1186.22,412.44c-4,6.97-10.3,9.31-16.57,11.83,7.76-.16,15.52-.33,23.81-.5-2.46-3.86-4.67-7.29-7.24-11.33Z"/><path class="cls-7" d="M1104.97,669.49c0,.13-.02,.26-.03,.39,43.57,8.91,87.15,17.85,131,26.82,.09-5.64,.17-10.86,.26-15.86-3.72-.86-6.94-1.69-10.2-2.36-5.45-1.13-10.89-2.71-16.37-3.13-13.28-1.05-26.6-1.52-39.88-2.26-14.37-.79-28.73-1.63-43.08-2.45-7.24-.39-14.46-.76-21.7-1.15Z"/><path class="cls-5" d="M1129.62,634.21c-.13,.28-.24,.55-.37,.83,.96,.69,1.87,1.86,2.86,1.97,4.36,.47,8.74,.61,13.32,.87-5.43-1.25-10.63-2.46-15.81-3.67Z"/><path class="cls-5" d="M1228.33,368.37c-.8-9.29-4.35-17.83-8.77-26.15,1.26,9.16,4.03,17.91,8.39,26.27,.13-.03,.25-.09,.38-.12Z"/><path class="cls-1" d="M1212.67,410.8c.35,.16,.68,.31,1,.45,5.35,2.41,8.5,3.12,11.26,2.7,.57-.03,1.16-.09,1.73-.12l-.03,.05c.48-.31,.96-.65,1.48-.9,2.35-1.1,4.92-1.89,7.02-3.32,6.6-4.5,5.92-13.35-1.2-17.87,.13,.66,.13,1.34,.36,1.98,2.46,6.66,.02,12.66-6.51,15.17-2.46,.94-5.23,1.3-7.92,1.65-2.14,.27-4.35,.15-7.17,.2Z"/><path class="cls-5" d="M1227.95,368.49c.15,.28,.31,.54,.47,.83,.1-.06,.22-.13,.34-.19-.16-.25-.3-.5-.44-.76-.13,.03-.25,.09-.38,.12Z"/><path class="cls-7" d="M1231.39,430.65c1.18,4.79,2.26,9.19,3.34,13.6l.96,4.89c3.9-.55,7.79-1.12,11.69-1.67,3.02-.43,5.4-1.94,6.92-4.5,1.83-3.13,2.04-6.45,.19-9.8-1.62-2.93-4.26-4.9-7.58-4.65-5.22,.39-10.36,1.4-15.53,2.13Z"/><path class="cls-1" d="M1262.28,658.09c-.09,1.25-.17,1.76-.16,2.28,.15,6.03,.55,12.08,.4,18.1-.14,6.73-.7,13.45-1.28,20.17-.97,11.31-1.98,22.65-3.24,33.92-.6,5.35-1.77,10.62-2.69,15.94-4.86,27.65-12.19,54.59-21.91,80.81-6.27,16.83-13.13,33.39-21.35,49.37-2.54,4.9-4.73,10-7.08,15,5.93-3.33,10.59-7.85,13.97-13.31,4.74-7.62,9-15.53,13.35-23.38,8.49-15.25,15.55-31.19,21.73-47.5,4.9-12.94,9.57-25.99,13.69-39.2,4.14-13.32,7.57-26.9,11.07-40.41,.72-2.76,1.3-5.11,4.46-6.05,1.22-.35,2.25-1.28,3.3-2.04,9.13-6.78,9.45-19.25,.7-26.55-.17,.09-.36,.17-.53,.26,.45,1.22,.98,2.44,1.36,3.68,2.87,9.06-.45,16.22-9.24,19.72-1.21,.49-2.74,.26-4.04,.62-2.72,.74-5.39,1.65-8.34,2.56,1.18-12.08,2.29-23.52,3.46-35.46,5.05,1.18,9.97,2.32,15.29,3.55-.1-4.99-.05-9.44-.35-13.87-.12-1.86,.11-2.82,2.04-3.6,3.98-1.6,7.35-4.09,8.33-8.45,1.42-6.22-1.94-10.71-6.72-14.58-.2,.11-.37,.2-.56,.29,.51,1.03,1.07,2.03,1.51,3.08,3.08,7.23,.82,12.61-6.7,14.88-3.72,1.11-7.75,1.35-11.6,2.11-1.84,.39-2.7-.29-3.48-1.87-1.59-3.2-3.38-6.32-5.39-10.09Zm7.89,21.37c-.1-1.07,.16-2.17,.28-3.39,2.55-.24,5.17-.48,8.01-.74,.14,2.54,.26,4.82,.41,7.63-2.68-.62-5.17-1.12-7.61-1.84-.49-.15-1.04-1.06-1.09-1.65Zm-21.68,126c7.8-25.36,12.31-51.52,17.26-77.78,2.3-.31,4.61-.62,7.26-.98-5.82,27.19-14.58,53.16-24.52,78.75Z"/><path class="cls-10" d="M1287.7,649.02l-.25,.2c.16,.26,.32,.51,.48,.76,.19-.09,.36-.18,.56-.29-.27-.23-.54-.45-.79-.67Z"/><path class="cls-7" d="M1269.91,686.63c-1.17,11.93-2.28,23.37-3.46,35.46,2.95-.91,5.62-1.82,8.34-2.56,1.3-.36,2.84-.13,4.04-.62,8.79-3.5,12.11-10.67,9.24-19.72-.38-1.24-.91-2.45-1.36-3.68-.17-.29-.32-.57-.46-.87,.06-.07,.15-.14,.23-.21l-1.29-4.25c-5.31-1.23-10.24-2.37-15.29-3.55Z"/><path class="cls-10" d="M1286.49,694.43c-.08,.07-.16,.14-.23,.21,.14,.3,.29,.58,.46,.87,.17-.09,.36-.17,.53-.26-.25-.28-.51-.54-.76-.81Z"/></g></g><g><path class="cls-1" d="M886.66,233.18c-.94-1.48-1.96-2.91-3-4.3-.21-.28-.41-.56-.62-.83-.94-1.21-1.92-2.39-2.94-3.53-.41-.47-.83-.93-1.26-1.39-.8-.86-1.62-1.71-2.46-2.53-.78-.77-1.58-1.51-2.38-2.25-.31-.28-.63-.56-.94-.84-1.49-1.32-3.03-2.6-4.62-3.84-5.33-4.14-11.13-7.84-17.25-11.19-11.22-6.14-23.96-11.22-38.02-14.96-11.13-3.01-23.02-5.22-35.37-6.43v.93l-.06,3.2-.86,57.87v.93l116.67,3.22c-.08-.32-.18-.62-.26-.94-1.36-4.82-4.05-9.09-6.63-13.14Zm-100.97,2.86l.67-45.62c8.37,1.19,16.6,2.88,24.58,5.04,13.09,3.48,25.19,8.24,35.98,14.15,6.07,3.33,11.33,6.73,16.07,10.41,1.41,1.1,2.82,2.27,4.2,3.48l.83,.74c.73,.66,1.44,1.33,2.16,2.04,.75,.73,1.48,1.48,2.18,2.24,.37,.4,.74,.81,1.12,1.24,.92,1.04,1.79,2.09,2.58,3.1l.55,.74c1.04,1.38,1.9,2.61,2.63,3.76,.27,.43,.55,.86,.82,1.29l-94.37-2.61Z"/><path class="cls-1" d="M919.45,274.29c-8.54-.24-17.09-.49-26.29-.74l-6.33-.17-2.02,5.66c-1.73,4.82-5.42,9.43-9.76,13.81-1.4-7.9-5.26-16.34-13.41-24.34l97.83,2.7-.11-8.46c-.35-26.98-14.53-45.23-25.17-56.61-11.84-12.66-26.66-23.28-46.62-33.41-37.49-19.04-86.91-30.32-139.14-31.77l-8.69-.24-1.39,93.81-95.03-2.62c6.07-9.43,15.36-17.37,28.5-24.48,16.78-9.08,35.46-15,55.53-17.57l7.3-.94,.7-47.55-9.69,.78c-38.26,3.06-73.91,13.16-103.09,29.2-15.7,8.62-28.11,18.26-37.94,29.47-11.15,12.72-24.07,30.05-24.92,51.34l-.34,8.43,178.51,4.94-.89,60.52c-8.4-1.13-17.32-3.01-27.03-5.7-36.66-10.13-61.17-26.83-72.85-49.62l-2.35-4.58-74.86-2.03,5.27,11.73c.83,1.85,21.07,45.7,80.33,72.62,31.73,14.42,72.88,22.71,119,23.98,3.51,.1,7.09,.16,10.65,.17l8.48,.04,1.43-94.8c.28,0,.55,.01,.82,.02,23.82,.66,27.87,12.17,29.2,15.96,2.95,8.36,2.15,19.7,1.38,30.66-.26,3.77-.54,7.66-.65,11.39-.03,.78-.06,1.58-.09,2.38-.26,6.18-.53,12.57,2.29,17.49,4.7,8.22,14.85,8.5,18.67,8.6,1.52,.04,3.14,.03,4.95-.04,9.53-.37,32.96-9.15,37.69-10.95,54.85-21.96,73.55-65.07,74.32-66.9l4.66-11.05-12.61-.35c-9.17-.25-17.71-.5-26.24-.74Zm-43.61,71.43s-26.17,9.99-34.7,10.32c-9.33,.36-13.66-.95-15.5-4.17-1.95-3.38-1.33-9.87-1.14-15.64,.46-14.73,3.45-31.83-1.17-44.93-5.68-16.16-22.05-23.21-46.83-21.46l-1.43,94.51c-48.82-.22-92.5-8.16-125.9-23.34-56.93-25.86-76-68.33-76-68.33l56.15,1.52c14.22,27.75,43.89,44.5,78.34,54.02,11.61,3.21,24.52,5.99,37.9,6.95l1.15-77.67-178.3-4.93c.77-19.2,13.12-35.25,22.95-46.46,9.97-11.37,22.19-20.25,35.66-27.65,27.2-14.95,61.03-25.05,99.51-28.13l-.46,31.33c-22.35,2.86-42.1,9.61-58.64,18.56-16.46,8.91-30.86,21.01-37.61,39.52l117.1,3.23,1.39-93.81c53.58,1.48,100.62,13.19,135.25,30.78,17.16,8.71,32.09,18.65,44.17,31.58,12.03,12.87,22.66,29.12,22.94,51.18l-113.13-3.12c.82,4.5,6.12,5.52,9.27,7.63,11.81,7.94,23.67,20.66,19.3,41.31,3.16-.45,7.16-2.36,9.32-4.32,6.84-6.17,14.47-13.64,17.61-22.42,18.39,.51,34.17,.98,52.53,1.48,0,0-17.52,41.56-69.73,62.46Z"/><path class="cls-6" d="M875.42,304.21c-2.16,1.96-6.16,3.87-9.32,4.32,4.37-20.65-7.49-33.37-19.3-41.31-3.14-2.11-8.45-3.13-9.27-7.63l113.13,3.12c-.29-22.06-10.91-38.31-22.94-51.18-12.08-12.92-27-22.87-44.17-31.58-34.63-17.59-81.66-29.3-135.25-30.78l-1.39,93.81-117.1-3.23c6.75-18.51,21.16-30.62,37.61-39.52,16.54-8.96,36.29-15.7,58.64-18.56l.46-31.33c-38.48,3.08-72.31,13.18-99.51,28.13-13.47,7.4-25.69,16.28-35.66,27.65-9.83,11.21-22.18,27.26-22.95,46.46l178.3,4.93-1.15,77.67c-13.38-.96-26.29-3.73-37.9-6.95-34.45-9.52-64.13-26.27-78.34-54.02l-56.15-1.52s19.07,42.47,76,68.33c33.4,15.17,77.08,23.12,125.9,23.34l1.43-94.51c24.78-1.75,41.15,5.31,46.83,21.46,4.62,13.11,1.63,30.21,1.17,44.93-.19,5.78-.81,12.26,1.14,15.64,1.84,3.22,6.17,4.53,15.5,4.17,8.53-.33,34.7-10.32,34.7-10.32,52.2-20.9,69.73-62.46,69.73-62.46-18.36-.51-34.15-.97-52.53-1.48-3.15,8.79-10.77,16.26-17.61,22.42Zm-98.55-60.17v-.93l.87-57.87,.05-3.2v-.93c12.36,1.21,24.25,3.41,35.38,6.43,14.06,3.74,26.8,8.82,38.02,14.96,6.12,3.35,11.92,7.05,17.25,11.19,1.59,1.23,3.13,2.51,4.62,3.84,.31,.28,.63,.56,.94,.84,.81,.74,1.61,1.48,2.38,2.25,.84,.82,1.66,1.67,2.46,2.53,.42,.46,.84,.92,1.26,1.39,1.01,1.15,2,2.32,2.94,3.53,.21,.27,.41,.55,.62,.83,1.05,1.39,2.06,2.82,3,4.3,2.58,4.05,5.27,8.32,6.63,13.14,.09,.31,.19,.62,.26,.94l-116.68-3.22Z"/></g></g><g><path class="cls-7" d="M565.69,1916.72h-62.36l-16.11-16.11v-32.23h32.23v16.11h30.13v-24.06h-46.25l-16.11-16.11v-56.29l16.11-16.12h62.36l16.11,16.12v32.23h-32.23v-16.11h-30.13v24.06h46.25l16.11,16.11v56.29l-16.11,16.11Z"/><path class="cls-7" d="M695.01,1804.14l-33.69,40.18,33.69,40.18h7.32v32.23h-48.34v-32.23h6.7c-3.32-4.05-6.64-8.06-9.96-12.03-3.32-3.98-6.71-7.98-10.16-12.03h-3.94v24.06h7.95v32.23h-48.34v-32.23h8.16v-80.36h-8.16v-32.23h48.34v32.23h-7.95v24.06h3.94c3.46-4.05,6.84-8.06,10.16-12.03,3.32-3.98,6.64-7.98,9.96-12.03h-6.7v-32.23h48.34v32.23h-7.32Z"/><path class="cls-7" d="M816.8,1804.14l-33.69,40.18,33.69,40.18h7.32v32.23h-48.34v-32.23h6.7c-3.32-4.05-6.64-8.06-9.96-12.03-3.32-3.98-6.71-7.98-10.16-12.03h-3.94v24.06h7.95v32.23h-48.34v-32.23h8.16v-80.36h-8.16v-32.23h48.34v32.23h-7.95v24.06h3.94c3.46-4.05,6.84-8.06,10.16-12.03,3.32-3.98,6.64-7.98,9.96-12.03h-6.7v-32.23h48.34v32.23h-7.32Z"/><path class="cls-7" d="M947.59,1804.14h-7.95v96.47l-16.11,16.11h-59.85l-16.11-16.11v-96.47h-7.95v-32.23h48.13v32.23h-7.95v80.36h27.62v-80.36h-7.95v-32.23h48.13v32.23Z"/><path class="cls-7" d="M1113.74,1916.72h-44.57v-32.02h6.49v-24.27h-24.9v24.27h7.95v32.02h-48.34v-32.02h8.16v-80.56h-8.16v-32.02h81.4l16.11,16.12v48.13l-7.95,7.95,7.95,8.16v32.23h5.86v32.02Zm-38.09-112.58h-24.9v24.27h24.9v-24.27Z"/><path class="cls-7" d="M1205.39,1916.72h-62.36l-15.9-16.11v-112.37l15.9-16.12h62.36l16.11,16.12v112.37l-16.11,16.11Zm-16.11-112.58h-29.92v80.56h29.92v-80.56Z"/><path class="cls-7" d="M1339.11,1772.12v32.23h-8.16l-28.46,58.8v21.55h7.95v32.02h-48.13v-32.02h7.95v-21.55c-2.65-5.58-4.95-10.43-6.91-14.54-1.96-4.11-4.08-8.61-6.38-13.5-2.3-4.88-4.5-9.49-6.59-13.81-2.09-4.32-3.91-8.06-5.44-11.2-1.54-3.14-2.44-5.06-2.72-5.75h-7.95v-32.23h48.13v32.23h-7.95l11.93,29.5,12.56-29.5h-8.16v-32.23h48.34Z"/><path class="cls-7" d="M1462.78,1916.72h-48.13v-32.02h7.95l-1.68-8.16h-28.67l-1.67,8.16h7.95v32.02h-48.13v-32.02h7.95l17.16-80.56h-9.21v-32.02h80.36v32.02h-9l17.16,80.56h7.95v32.02Zm-48.76-72.4l-7.53-34.74-7.32,34.74h14.86Z"/><path class="cls-7" d="M1567.2,1916.72h-91.24v-32.02h7.95v-80.56h-7.95v-32.02h48.13v32.02h-7.95v80.56h18.83v-16.11h32.23v48.13Z"/><path class="cls-7" d="M1659.27,1916.72h-62.36l-16.11-16.11v-32.23h32.23v16.11h30.13v-24.06h-46.25l-16.11-16.11v-56.29l16.11-16.12h62.36l16.11,16.12v32.23h-32.23v-16.11h-30.13v24.06h46.25l16.11,16.11v56.29l-16.11,16.11Z"/></g></g></svg>