<?xml version="1.0" encoding="utf-8"?>
<!-- Generator: Adobe Illustrator 26.3.1, SVG Export Plug-In . SVG Version: 6.00 Build 0)  -->
<svg version="1.1" id="_x38_13c2686-e70f-4fb0-bf6b-a2eb7b1db384"
	 xmlns="http://www.w3.org/2000/svg" xmlns:xlink="http://www.w3.org/1999/xlink" x="0px" y="0px" viewBox="0 0 1121 851.8"
	 width="1121.04" height="851.8" style="enable-background:new 0 0 1121 851.8;" xml:space="preserve">
<style type="text/css">
	.st0{fill:#002A5C;}
	.st1{fill:none;stroke:#FFFFFF;stroke-width:6;stroke-miterlimit:10;}
	.st2{fill:none;stroke:#002A5C;stroke-width:16;stroke-miterlimit:10;}
	.st3{fill:#002A5C;stroke:#FFFFFF;stroke-width:9;stroke-miterlimit:10;}
	.st4{fill:#002A5C;stroke:#231F20;stroke-miterlimit:10;}
	.st5{fill:#FDCB26;}
	.st6{fill:#FFFFFF;}
	.st7{fill:none;stroke:#FFFFFF;stroke-width:16;stroke-linecap:round;stroke-linejoin:round;}
	.st8{fill:#B2B5B5;}
	.st9{fill:#B1B5B5;}
	.st10{fill:#FCFCFB;}
	.st11{fill:#440D2E;}
	.st12{fill:#0A0C0C;}
</style>
<g>
	<g>
		<g id="XMLID_00000144329026360361839760000015287516136816484770_">
			<g>
				<polygon class="st0" points="1046.8,599.6 1046.8,625.6 1020,625.6 1020,607 993.2,607 993.2,644.2 1024.9,644.2 1046.7,674 
					1046.7,726.1 1025.3,755.9 987.8,755.9 966.4,726.1 966.4,700.1 993.2,700.1 993.2,718.7 1020,718.7 1020,681.5 987.9,681.5 
					966.5,651.7 966.5,599.6 987.9,569.8 1025.4,569.8 				"/>
				<polygon class="st0" points="954.1,569.9 954.1,607.1 940.7,607.1 940.7,755.9 914,755.9 873.9,649.6 873.9,718.7 887.3,718.7 
					887.3,755.9 833.8,755.9 833.8,718.7 847.2,718.7 847.2,607.1 833.8,607.1 833.8,569.9 873.9,569.9 914,676.2 914,607.1 
					900.6,607.1 900.6,569.9 				"/>
				<path class="st0" d="M821.6,599.6v126.5l-21.4,29.8h-37.5l-21.4-29.8V599.6l21.4-29.8h37.5L821.6,599.6z M794.8,718.7V607.1H768
					v111.6H794.8z"/>
				<polygon class="st0" points="729,718.7 729,755.9 677.4,755.9 677.4,718.7 690.8,718.7 690.8,607.1 677.4,607.1 677.4,569.9 
					729,569.9 729,607.1 717.5,607.1 717.5,718.7 				"/>
				<path class="st0" d="M665.1,599.7v52.1l-21.4,29.8h-32.1v37.2H625V756h-53.5v-0.1v-37.2h13.4V607.1h-13.4v-37.2h72.2
					L665.1,599.7z M638.5,644.3v-37.2h-26.8v37.2H638.5z"/>
				<path class="st0" d="M559.3,718.7v37.2h-51.6v-37.2h13.4v-53.2c-8.9,28.2-17.7,56.3-26.6,84.5c-9-28.2-17.9-56.3-26.9-84.5v53.2
					h13v37.2h-53.2v-37.2h13.4V607.1h-13.4v-37.2h40.1l26.8,90.4l26.8-90.4h38.2v37.2h-13.4v111.6H559.3z"/>
				<path class="st0" d="M415.2,718.7v37.2h-51.6v-37.2H375l-3.3-18.6h-20.1l-3.3,18.6h11.5v37.2h-51.6v-37.2h13.4l26.8-148.8H375
					l26.8,148.8H415.2z M365.1,662.9l-3.4-18.6l-3.3,18.6H365.1z"/>
				<polygon class="st0" points="295.9,718.7 295.9,755.9 244.3,755.9 244.3,718.7 255.8,718.7 255.8,681.5 229,681.5 229,718.7 
					240.5,718.7 240.5,755.9 188.9,755.9 188.9,718.7 202.3,718.7 202.3,607.1 188.9,607.1 188.9,569.9 240.5,569.9 240.5,607.1 
					229,607.1 229,644.3 255.8,644.3 255.8,607.1 244.3,607.1 244.3,569.9 295.9,569.9 295.9,607.1 282.5,607.1 282.5,718.7 				"/>
				<polygon class="st0" points="176.7,700 176.7,726 155.3,755.8 117.8,755.8 117.8,755.9 96.4,726.1 96.4,599.6 117.8,569.8 
					155.3,569.8 176.7,599.6 176.7,625.6 149.9,625.6 149.9,607 123.1,607 123.1,718.6 149.9,718.6 149.9,700 				"/>
			</g>
			<g>
				<polygon class="st1" points="117.8,755.9 96.4,726.1 96.4,599.6 117.8,569.8 155.3,569.8 176.7,599.6 176.7,625.6 149.9,625.6 
					149.9,607 123.1,607 123.1,718.6 149.9,718.6 149.9,700 176.7,700 176.7,726 155.3,755.8 117.8,755.8 				"/>
				<polygon class="st1" points="188.9,755.9 188.9,718.7 202.3,718.7 202.3,607.1 188.9,607.1 188.9,569.9 240.5,569.9 
					240.5,607.1 229,607.1 229,644.3 255.8,644.3 255.8,607.1 244.3,607.1 244.3,569.9 295.9,569.9 295.9,607.1 282.5,607.1 
					282.5,718.7 295.9,718.7 295.9,755.9 244.3,755.9 244.3,718.7 255.8,718.7 255.8,681.5 229,681.5 229,718.7 240.5,718.7 
					240.5,755.9 				"/>
				<polygon class="st1" points="308.2,755.9 308.2,718.7 321.6,718.7 348.4,569.9 375,569.9 401.8,718.7 415.2,718.7 415.2,755.9 
					363.6,755.9 363.6,718.7 375,718.7 371.7,700.1 351.6,700.1 348.3,718.7 359.8,718.7 359.8,755.9 				"/>
				<polygon class="st1" points="361.7,644.3 358.4,662.9 365.1,662.9 				"/>
				<path class="st1" d="M427.4,755.9v-37.2h13.4V607.1h-13.4v-37.2h40.1l26.8,90.4l26.8-90.4h38.2v37.2h-13.4v111.6h13.4v37.2
					h-51.6v-37.2h13.4v-53.2c-8.9,28.2-17.7,56.3-26.6,84.5c-9-28.2-17.9-56.3-26.9-84.5v53.2h13v37.2H427.4z"/>
				<polygon class="st1" points="571.5,755.9 571.5,718.7 584.9,718.7 584.9,607.1 571.5,607.1 571.5,569.9 643.7,569.9 
					665.1,599.7 665.1,651.8 643.7,681.6 611.6,681.6 611.6,718.8 625,718.8 625,756 571.5,756 				"/>
				<rect x="611.7" y="607.1" class="st1" width="26.8" height="37.2"/>
				<polygon class="st1" points="677.4,755.9 677.4,718.7 690.8,718.7 690.8,607.1 677.4,607.1 677.4,569.9 729,569.9 729,607.1 
					717.5,607.1 717.5,718.7 729,718.7 729,755.9 				"/>
				<polygon class="st1" points="762.7,755.9 741.3,726.1 741.3,599.6 762.7,569.8 800.2,569.8 821.6,599.6 821.6,726.1 
					800.2,755.9 				"/>
				<rect x="768" y="607.1" class="st1" width="26.8" height="111.6"/>
				<polygon class="st1" points="833.8,755.9 833.8,718.7 847.2,718.7 847.2,607.1 833.8,607.1 833.8,569.9 873.9,569.9 914,676.2 
					914,607.1 900.6,607.1 900.6,569.9 954.1,569.9 954.1,607.1 940.7,607.1 940.7,755.9 914,755.9 873.9,649.6 873.9,718.7 
					887.3,718.7 887.3,755.9 				"/>
				<polygon class="st1" points="966.4,700.1 993.2,700.1 993.2,718.7 1020,718.7 1020,681.5 987.9,681.5 966.5,651.7 966.5,599.6 
					987.9,569.8 1025.4,569.8 1046.8,599.6 1046.8,625.6 1020,625.6 1020,607 993.2,607 993.2,644.2 1024.9,644.2 1046.7,674 
					1046.7,726.1 1025.3,755.9 987.8,755.9 966.4,726.1 				"/>
			</g>
		</g>
	</g>
	<g>
		<line class="st2" x1="95.4" y1="26.8" x2="1051.1" y2="23.7"/>
		<line class="st2" x1="94.6" y1="395.1" x2="1050.2" y2="392"/>
		<g>
			<path class="st3" d="M98.8,366V227.3l48.4-50.4h72.7v-63h-60.6v31.5H98.8v-44.1l48.4-50.4H232l48.4,50.4v88.2L232,239.9h-72.7v63
				h60.6v-31.5h60.6V366H98.8z"/>
		</g>
		<g>
			<path class="st3" d="M863.6,366V227.3l48.4-50.4h72.7v-63h-60.6v31.5h-60.6v-44.1L912,50.8h84.8l48.4,50.4v88.2l-48.4,50.4h-72.7
				v63h60.6v-31.5h60.6V366H863.6z"/>
		</g>
		<g>
			<path class="st3" d="M639.5,366V227.3l48.4-50.4h72.7v-63H700v31.5h-60.6v-44.1l48.4-50.4h84.8l48.4,50.4v88.2l-48.4,50.4H700v63
				h60.6v-31.5h60.6V366H639.5z"/>
		</g>
		<path class="st4" d="M369.3,225.1"/>
	</g>
</g>
<g>
	<path class="st5" d="M332.4,457.8v77.5h-21.7v-77.5h-15.6v-20.4h53v20.4H332.4z"/>
	<path class="st5" d="M353.8,535.2v-20.4h4.1v-57.1h-4.1v-20.4h29.9v20.4h-4.1v57.1h4.1v20.4H353.8z"/>
	<path class="st5" d="M402.7,535.2c-6-2.2-10.6-6-10.6-16.3v-65.2c0-10.3,4.6-14.1,10.6-16.3h31.8c6,2.2,10.6,6,10.6,16.3V470h-21.7
		v-13.6L422,455h-6.8l-1.4,1.4v59.8l1.4,1.4h6.8l1.4-1.4v-17.7H418v-20.4h27.2v40.8c0,10.3-4.6,14.1-10.6,16.3H402.7z"/>
	<path class="st5" d="M453.5,437.4h44.9v20.4h-23.1v17.7H497v20.4h-21.7v19h23.8v20.4h-45.5L453.5,437.4L453.5,437.4z"/>
	<path class="st5" d="M507.5,535.2v-97.9h42.4c6,2.2,10.6,6,10.6,16.3v20.8c0,9.4-3.8,13.5-9.1,15.8l11.7,31.3v13.7h-19l-12.5-38.1
		h-2.3v38.1H507.5z M529.2,455v24.5h8.2l1.4-1.4v-21.7l-1.4-1.4H529.2z"/>
	<path class="st5" d="M590.7,535.2v-97.9h42.4c6,2.2,10.6,6,10.6,16.3v14.5c0,7.9-2.7,13.5-10.7,16.3c8,2.9,10.7,8.4,10.7,16.3v18.1
		c0,10.3-4.6,14.1-10.6,16.3h-42.4V535.2z M612.4,478.1h8.2l1.4-1.4V455l-1.4-1.4h-8.2V478.1z M621.9,517.6v-21.7l-1.4-1.4h-8.2V519
		h8.2L621.9,517.6z"/>
	<path class="st5" d="M705.1,518.9c0,10.3-4.6,14.1-10.6,16.3h-31.8c-6-2.2-10.6-6-10.6-16.3v-65.2c0-10.3,4.6-14.1,10.6-16.3h31.8
		c6,2.2,10.6,6,10.6,16.3V518.9z M683.4,456.4L682,455h-6.8l-1.4,1.4v59.8l1.4,1.4h6.8l1.4-1.4V456.4z"/>
	<path class="st5" d="M755.1,475.8h-1.4l-4.2,59.4h-26.6L712,454.4v-17h19.3l4.2,58h1.4l4.1-58h26.8l4.2,58h1.4l4.2-58h19.3v17
		L786,535.2h-26.6L755.1,475.8z"/>
	<path class="st5" d="M803.8,437.4h21.7v77.5H848v20.4h-44.2V437.4z"/>
</g>
<g>
	<rect x="95" y="437.4" class="st5" width="180.1" height="97.9"/>
	<rect x="95" y="468.1" class="st6" width="180.1" height="33.3"/>
</g>
<g>
	<rect x="868.4" y="435.8" class="st5" width="180.1" height="97.9"/>
	<rect x="868.4" y="466.6" class="st6" width="180.1" height="33.3"/>
</g>
<g>
	<g>
		<path class="st7" d="M348.2,298.3c4.8,3.5,9.8,6.8,14.3,10.6c5.2,4.4,10.1,9.2,15.1,13.9c2.9,2.7,4.3,3,7.4,0.8
			c1-0.7,1.7-0.3,2.5,0.2c8.8,5.6,17.7,11.2,26.5,16.7c1.1,0.7,1.4,1.4,1.2,2.5c-0.8,3.9,1.6,5.8,4.7,6.1c4.8,0.5,9.6,0.8,14.3,0.8
			c11.9,0,23.7-1.2,35.4-3c0.5-0.1,1.2,0.1,1.6,0.4c4,2.8,8,5.7,12,8.6c11.4,8.3,22.9,16.6,35.4,23.3c3.2,1.7,6.4,3.5,9.8,4.8
			c4.1,1.6,8.3,2.7,12.5,3.9c6.4,1.8,12.7,3.7,19.1,5.3c8,2,16,3.8,24,5.6c7.1,1.6,14.3,2.8,21.6,3.4c0.9,0.1,1.5,0.4,2.1,1.1
			c2.1,2.4,5.6,3.2,8.4,1.9c0.8-0.4,1.5-1,2.3-1.5c0.1,0.1,0.2,0.1,0.4,0.2c3.1,2,6.2,1.9,8.7-0.5c2.1-2,4.2-4.2,5.9-6.5
			c7.8-10.4,13-22.1,17.6-34c2.2-5.7,4.2-11.5,6-17.3c1.6-5.1,3.1-10.2,4.3-15.4c1.5-6.2,2.7-12.4,3.3-18.8
			c0.4-4.7,0.6-9.5-0.2-14.2c-0.4-2.2-0.9-4.4-2.4-6.2c-2.5-3.2-5.7-5.6-9.6-7.2c-3.9-1.6-7.9-2.7-12-3.5
			c-6.4-1.2-12.7-2.6-19.1-3.9c-7-1.4-14-2.7-21.1-4c-4-0.7-7.9-1.4-11.9-2.2c-2.8-0.5-5.6-1-8.5-1.6c0.2-0.5,0.4-1,0.6-1.4
			c9.7-19.3,19.5-38.7,29.3-58c0.2-0.4,0.8-0.8,1.2-0.9c9-1.4,18-2.6,27-4c1-0.2,2.1-0.6,2.9-1.1c2.7-1.7,3.6-5.2,2.3-8.1
			c-1.1-2.5-4.3-4.7-7.6-4c-2,0.4-4,0.6-5.4,0.9c-0.8-0.9-1.4-1.6-2.1-2.4c4.3-0.2,7.4-2,8.8-5.8c0.9-2.6,0.6-5.2-0.3-7.8
			c-0.8-2.3-1.8-4.5-2.7-6.8c-2.5-5.7-5.1-11.4-7.8-17.1c-1.3-2.7-3.3-4.9-6.5-5.4c-1.2-0.2-2.4,0-3.7,0c-0.2-1.9-1.6-1.9-2.9-1.9
			c-1.4-4.5-2.7-8.9-4.2-13.2c-5.9-17.1-14.5-32.9-25.5-47.5c-7-9.2-14.7-17.7-23.4-25.5c-15.5-13.9-32.9-25-52.3-33.1
			c-8.1-3.4-16.3-6.2-24.7-8.4c-10.9-2.9-22-4.8-33.2-5.7c-7.7-0.6-15.3-0.9-23-0.7c-23.7,0.7-46.2,5.4-67.3,15.1
			c-2.9,1.3-5.7,3-8.5,4.4c-2.5,1.2-5.1,2.3-7.5,3.5c-14.2,6.9-27.1,15.7-38.5,26.4c-9.1,8.6-17.4,17.9-23.9,28.4
			c-7.7,12.3-14.3,25.2-19.4,38.9c-0.8,2.2-1,4.2,0.1,6.6c1.7,3.5,2.8,7.2,4,10.9c0.4,1.2,0.6,2.5,0.5,3.7
			c-0.4,4.4-1.3,8.9-1.4,13.3c-0.2,6.6-0.3,13.2,0,19.9c0.8,16.3,3.2,32.6,5.9,48.8c0.2,1.2-0.1,2-0.9,2.8c-3.1,3-6.2,6-9.3,9
			c-2.3,2.2-3,4.8-1.8,7.8c3.3,8,6.8,15.9,10.1,23.9c1.3,3.1,3.5,5.2,6.4,6.8c3,1.7,6.2,2.9,9.5,3.6c7.6,1.6,15.3,3.3,23,4.6
			c5.9,1,12,1.5,17.9,2.5c3.1,0.5,6.1,1.1,9.1,2.1c2.2,0.7,4.2,2.1,6.2,3.1c2.7,1.3,4,1.2,5.4-0.1
			C347.1,297.3,347.6,297.8,348.2,298.3z"/>
		<g id="XMLID_00000143574832842999644000000017772793897755227036_">
			<g>
				<path class="st0" d="M261.5,127.6c-0.8,2.2-1,4.2,0.1,6.6c1.7,3.5,2.8,7.2,4,10.9c0.4,1.2,0.6,2.5,0.5,3.7
					c-0.4,4.4-1.3,8.9-1.4,13.3c-0.2,6.6-0.3,13.2,0,19.9c0.8,16.3,3.2,32.6,5.9,48.8c0.2,1.2-0.1,2-0.9,2.7c-3.1,3-6.2,6-9.3,9
					c-2.3,2.2-3,4.8-1.8,7.8c3.3,8,6.8,15.9,10.1,23.9c1.3,3.1,3.5,5.2,6.4,6.8c3,1.7,6.2,2.9,9.5,3.6c6.2,1.3,12.3,2.7,18.5,3.8
					l0.4-2.2c-1.2-0.2-2.4-0.5-3.6-0.7c-5.5-1.2-11-2.3-16.5-3.7c-3.2-0.8-6.2-2-8.9-4c-1.4-1-2.4-2.2-3-3.7
					c-3.4-8.1-6.9-16.2-10.3-24.3c-0.6-1.4-0.6-2.8,0.2-4.2c1.1,2.8,3.7,3.7,6.2,4.6c6.9,2.4,13.8,4.7,20.8,6.9
					c9.8,3.1,19.3,7,28.6,11.2c4.1,1.8,8.2,3.5,12.3,5.5c1.6,0.8,3.1,1.9,4.3,3.1c4.6,4.4,9.1,9,13.7,13.5c0.4,0.4,0.6,0.7,0.5,1
					l2,0.6c0.1-0.6,0.1-1.1,0.2-1.7h0.1c-0.1-0.1-0.2-0.2-0.2-0.3c-0.1-0.2-0.1-0.3-0.2-0.5c-0.1-0.1-0.2-0.2-0.3-0.3l0,0
					c-3.6-3.6-7.2-7.1-10.9-10.7c-1.3-1.3-2.6-2.5-3.8-3.8c-2.2-2.3-5.2-3.5-8.1-4.8c-7.2-3.2-14.4-6.4-21.7-9.3
					c-2.2-0.9-4.4-1.7-6.6-2.5c-2.8-1-5.7-1.9-8.6-2.9c-1.3-0.4-2.5-0.8-3.8-1.3c-2.4-0.8-4.7-1.5-7.1-2.3c-1-0.3-2-0.6-3-1
					c-0.7-0.2-1.3-0.5-2-0.7c-0.5-0.2-1-0.4-1.6-0.6c-1-0.4-2.1-0.7-3.1-1.1c-0.4-0.1-0.8-0.3-1.2-0.4c-0.1,0-0.1,0-0.2-0.1
					c-0.1,0-0.3-0.1-0.4-0.1c-0.9-0.3-1.4-1.1-1.4-1.9c0-0.6-0.1-1.3-0.1-1.9c-0.1-0.4-0.2-0.7-0.2-1c-0.1-1,0.2-2,0.9-2.8
					c0.1-0.2,0.3-0.3,0.4-0.5c0.1-0.1,0.2-0.1,0.3-0.2c0.7-0.6,1.4-1.2,2.1-1.8c1.1-1,2.2-2.1,3.4-3.1c0.9-1.2,0.9-2.5,0.7-3.9
					c-2.4-13.9-4.4-27.9-5.4-42c-0.5-7.5-0.8-15-0.7-22.4c0.1-5.5,1.1-11,1.6-16.5c0.1-1.9-0.1-3.8-0.7-5.7c-1.3-4-2.8-7.9-4.3-11.7
					c-0.4-0.9-0.3-1.6-0.1-2.5c5-14,11.9-27.1,19.7-39.7c5.3-8.5,11.8-16.1,18.9-23.3C316.7,52,333.7,40.8,353,32.6
					c2.4-1,4.6-2.4,6.9-3.6c0.7-0.3,1.4-0.6,2.1-0.9c2.6-1.1,5.2-2.3,7.9-3.4c2.1-0.8,4.2-1.5,6.4-2.2c0.3-0.1,0.6-0.2,0.9-0.3l0,0
					c0.2,0,0.5-0.1,0.7-0.1l0,0c0.3-0.2,0.6-0.4,0.9-0.5c16.5-5.2,33.5-7.8,51-7.9c7.3,0,14.6,0.4,21.9,1
					c10.4,0.8,20.6,2.8,30.7,5.5c3.2,0.8,6.3,1.8,9.4,2.8c1.5,0.5,3,1,4.5,1.5c19.8,6.9,38,17,54.5,30.4
					c12.1,9.8,22.6,20.9,31.7,33.4c11.8,16.1,20.4,33.6,25.9,52.4c0.4,1.5,0.8,3,1.2,4.5c-3,0.2-3.7-0.3-3.4,3.5
					c0.6,8.5,1,17,1.4,25.5c0,0.2,0,0.4-0.1,0.8c-2,0.1-4,0.1-6,0.2c-12.4,0.3-24.7,0.5-37.1,0.8c-4.6,0.1-9.2,0.2-13.7,0.3
					c0,0,0-0.1,0.1-0.1c-0.1,0-0.3,0-0.4,0c-1.9,0.1-3.7,0.1-5.6,0.2c-6.6,0.2-12.7,1.7-18.1,5.2c0.2,0,0.3,0,0.5,0
					c-1.5,1.4-3.1,2.8-4.6,4.2c-4.3,5.9-8.6,11.8-12.9,17.7c-7,9.8-14.1,19.5-21.1,29.4c-5,7.1-6.5,15.1-4.5,23.7
					c1.3,5.8,3.5,11.3,7.1,16.2c1.4,1.9,1.4,3.3,0.4,5c-0.4,0.7-0.6,1.4-0.9,2.1c-0.6,1.4-1.1,2.8-1.7,4.2c-0.1-0.2-0.2-0.3-0.2-0.5
					c0,0.1-0.1,0.2-0.1,0.3c0,1-0.4,1.4-1.6,1.3c-2-0.2-4.1-0.3-6.1-0.2c-6.5,0.2-11.1,3.4-14.7,8.3c-0.3-0.1-0.6-0.1-1-0.2
					l-0.7,2.2c0.2,0.1,0.5,0.2,0.8,0.2c-0.5,0.4,0,1.7-1.2,1.2c-0.1-0.1-0.3-0.2-0.5-0.3l-0.6,0.7c0.3,0.3,0.6,0.5,0.9,0.8
					c0.8,0.4,0.3,0.8,0.1,1.2c-1.6,2.7-3.2,5.4-4.9,7.9c-1.1,1.7-1.7,3.3-1.1,5.3c0.8,1.3,1.7,2.3,2.9,3.1c1,0.6,2.1,1,3.4,1.2
					c0.1,0,0.2,0,0.3,0l0.1-0.9c-0.3,0-0.6-0.1-0.9-0.2c-2.3-0.6-4.2-1.9-4.9-4.3c0.1-0.8,0.1-1.7,0.5-2.4c1.8-3.1,3.8-6.1,5.7-9.2
					c0.2,0.1,0.5,0.2,0.7,0.3c0.2-0.2,0.3-0.5,0.5-0.7c1,0.6,1.9,1.2,2.9,1.8l1.2-1.9c-0.4-0.3-0.9-0.6-1.3-0.8
					c-1.4-1-1.2-1.2-0.5-2.7c1-1.9,2.5-3.4,4.1-4.7c3.3-2.7,7.1-3.5,11.4-3.2c0.9,0.1,1.7,0.2,2.5,0.1c2.3-0.2,4.2,0.8,6.3,1.8
					c-0.1-0.2-0.1-0.4-0.1-0.4c-1.6-1.6-1.8-3.2-0.7-5.2c1.2-2.3,1.9-4.8,2.9-7.1c2.7,1.9,5.3,3.8,8.1,5.8c-1.5,3.4-3,7-4.6,10.7
					c5.8,3,11.5,6,17.2,9c5,2.7,10.2,4.5,15.8,5.2c3.5,0.5,7.1,0.9,10.7,1.3c0.6,0.1,1.5-0.2,1.8-0.6c0.4-0.6,0.4-1.4-0.3-2.1
					c-0.3-0.4-0.4-1-0.6-1.5c-1-2.6-1.9-5.2-2.9-7.9c2.9,0.2,5.7,0.3,8.6,0.5c1.3,3.6,2.6,7.3,3.9,11c-1.4,0.5-2.8,1-4.1,1.4
					c0,0.1,0,0.1,0,0.2c3.1,0.1,6.1,0.3,9.2,0.5c2.9,0.2,5.7,0.5,8.6,0.7c6,0.4,11.9,0.9,17.8,1.3c6.4,0.4,12.7,0.9,19.1,1.1
					c10,0.3,20,0.5,29.9,0.7c2.5,0,2.5-0.1,2.6-2.5c0.1-3.1,0.2-6.2,0.3-9.4c0-1-0.1-2-0.2-3.2c-2.4-0.2-4.8-0.4-7.2-0.5
					c-6.7-0.4-13.4-0.7-20.1-1.1c-7.6-0.4-15.1-0.8-22.7-1.2c-2.9-0.2-5.7-0.3-8.6-0.5c-5.1-0.3-10.2-0.6-15.3-0.9
					c-7.5-0.4-15.1-1.1-22.6-1.1c-5.5,0-10.6-1.7-15.7-3.4c-5.7-1.8-10.6-5.1-15.8-8c-4.6-2.6-9-5.4-12.7-9.2
					c-2.9-2.8-4.7-6.1-6.1-9.7c-1.8-4.6-3.2-9.4-3-14.4c0.1-5.6,1.9-10.7,5.2-15.2c10.9-15.1,21.8-30.1,32.6-45.3
					c4-5.6,9.8-8.3,16.6-9.2c4.4-0.6,8.9-0.5,13.4-0.6c11.3-0.3,22.6-0.6,33.9-0.8c8.3-0.2,16.6-0.4,24.9-0.5
					c3.8-0.1,7.6,0.2,11.3,0.4c1.5,0.1,3.1,0.4,4.5,0.8c1.3,0.4,1.7,1.7,1.2,2.8c-0.6,1.4-1.9,2.1-3.4,2.2c-1.9,0.1-3.8,0.1-5.8,0
					c-1.3,0-1.8,0.7-1.2,1.8c0.6,1.2,1.5,2.2,2.7,2.8l0.9-2c-0.1-0.1-0.3-0.1-0.4-0.2c1.2,0,2.2,0,3.1-0.1c1.2-0.2,2.4-0.3,3.4-0.7
					c2.8-1.1,3.9-3.7,2.8-6.6c-0.1-0.3-0.1-0.6-0.2-0.9c-1.4-1.3-2.9-2.5-4.9-3c-0.2-0.1-0.4-0.6-0.5-0.9c-1.8-6.7-3.6-13.4-5.5-20
					c-0.5-1.7-1.2-3.4-2.6-4.7c0.6-0.1,1.1-0.2,1.6-0.1l0.6-2.1c-0.3-0.1-0.6-0.1-0.8-0.2c-1.2-0.2-2.4,0-3.7,0
					c-0.2-1.9-1.6-1.9-2.9-1.9c-1.4-4.5-2.7-8.9-4.2-13.2c-5.9-17.1-14.5-32.9-25.5-47.5c-7-9.2-14.7-17.7-23.4-25.5
					c-15.5-13.9-32.9-25-52.3-33.1c-8.1-3.4-16.3-6.2-24.7-8.4c-10.9-2.9-22-4.8-33.2-5.7c-7.7-0.6-15.3-0.9-23-0.7
					c-23.6,0.7-46.2,5.4-67.3,15.1c-2.9,1.3-5.7,3-8.5,4.4c-2.5,1.2-5.1,2.2-7.5,3.5c-14.3,6.9-27.1,15.7-38.5,26.4
					c-9.1,8.6-17.4,17.9-23.9,28.4C273.2,101,266.6,113.9,261.5,127.6z M501.9,292.3c1.2-2.8,2.4-5.5,3.6-8.3c1.8,1,3.5,1.9,5.2,2.8
					c2,1.1,4.1,2.3,6.1,3.4c0.4,0.2,0.8,0.6,0.8,0.9c0.7,3.4,1.3,6.7,1.9,10.4C513.5,298.5,507.7,295.4,501.9,292.3z M551.5,297.5
					c1.4,0.1,2.7,0,4,0.3c3.8,0.6,7.7,1.3,11.5,2c7,1.4,14,2.9,21,4.4c9.9,2,19.8,4,29.8,6c1.8,0.4,3.6,0.8,5.4,1.2
					c0,0.1,0,0.1,0,0.2c-5.9-0.2-11.7-0.4-17.5-0.7c-7.3-0.4-14.5-0.8-21.8-1.2c-5.5-0.3-11-0.8-16.4-1.2c-3.8-0.3-7.6-0.6-11.3-0.9
					c-0.7,0-1-0.3-1.3-0.9C553.8,303.7,552.7,300.7,551.5,297.5z M609.4,148.1c0.9,0,1.7,0,2.5-0.1c1.6,9,3.2,17.9,4.8,26.9
					c-2,0-3.9,0-5.9,0C610.3,166,609.9,157.1,609.4,148.1z M614.4,149.2c0.9,0.1,1.4,0.2,2,0.2c1.8,0.7,2.5,2.3,2.9,3.9
					c1,3.2,1.9,6.5,2.8,9.7c1.1,3.8,2.1,7.7,3.1,11.7c-1.1-0.1-2.1-0.1-3.1-0.2c-0.8,0-1.6-0.1-2.5-0.1
					C618,166.1,616.2,157.8,614.4,149.2z M575.4,298.9c0,0,0-0.1,0-0.2c3.1,0.2,6.3,0.3,9.4,0.5c6.2,0.3,12.5,0.7,18.7,1.1
					c5.8,0.3,11.6,0.5,17.3,1c2.4,0.2,4.8,0.9,7.1,1.4c1.4,0.3,2.8,0.6,4.4,1c0,2.2-0.1,4.5-0.1,6.9
					C613.4,306.7,594.4,302.8,575.4,298.9z"/>
				<path class="st6" d="M263.8,129.7c-0.3,0.8-0.3,1.6,0.1,2.5c1.5,3.9,3.1,7.8,4.3,11.7c0.6,1.9,0.9,3.8,0.7,5.7
					c-0.4,5.5-1.5,11-1.6,16.5c-0.1,7.4,0.2,14.9,0.7,22.4c1,14.1,3,28,5.4,42c0.3,1.4,0.3,2.7-0.7,3.9c0.2,0.1,0.6,0.2,0.7,0.4
					c1.2,2.3,3.5,3.4,5.7,4.5c7.7,3.9,15.6,7.6,23.3,11.6c8.8,4.6,17.5,9.3,26.3,14c3.3,1.8,6.6,3.6,9.9,5.4c2.3,1.3,4,3.1,5.4,5.2
					c6.3,9.3,13.2,18.1,21.2,26c3.5,3.4,7.1,6.8,10.7,10.1c2.7,2.5,5.4,5,8.1,7.5c-0.2,0.5-0.4,0.8-0.6,1.2l0,0l0,0
					c1.9-1,3.6-0.3,5.2,0.7c8.9,5.6,17.8,11.2,26.7,16.8c1.5,0.9,2.4,2.1,2.7,3.8c0,0.4,0,0.8,0,1.3c-0.4,1.9-0.3,2.6,1,2.9
					c-0.9-0.4-0.9-1.1-0.6-2.8c0-0.4,0-0.8,0.1-1.1c0.5-0.7,1.3-0.7,2.1-0.8c5.9-0.3,11.9-0.4,17.8-1.1c6.1-0.7,12.1-1.9,18.2-2.9
					c0.2,0,0.3-0.1,0.5-0.2c-0.1-0.1-0.2-0.1-0.3-0.2c-0.1-0.1-0.2-0.2-0.4-0.3c-3.9-2.3-6.9-5.3-7.3-9.9c-0.3-4.1,0.7-8,3.3-11.2
					c0.7-0.9,0.7-1.5-0.1-2.4c-2.3-2.8-3-6.5,0.4-10c2-2,3.7-4.3,5.1-6.8c1.3-2.4,3.3-3.6,5.9-3.5c0.6,0,1.1,0.1,1.7,0.2
					c0.3,0.1,0.6,0.1,1,0.2c3.6-4.9,8.3-8.1,14.7-8.3c2-0.1,4.1,0,6.1,0.2c1.2,0.1,1.5-0.4,1.6-1.3c0-0.1,0.1-0.2,0.1-0.3
					c-0.9-1.7-1.8-3.3-2.6-5c-4.9-10.1-9.9-20.3-14.8-30.4c-3.5-7.3-7-14.5-10.5-21.8c-0.4-0.8-0.8-1.7-1.2-2.5
					c-1.6-2.8-1-5.2,0.8-7.5c1-1.2,7.6-7.4,8.7-8.5c1.3-1.2,2.5-2.6,3.9-3.7c6.2-5,12.3-10.1,18.8-14.7c4.4-3.2,9.2-5.8,14-8.5
					c1-0.6,2.5-0.4,3.8-0.4c5.2,0.2,10.3,0.5,15.5,0.7c0.5,0,1,0.1,1.6,0.1c5.4-3.5,11.6-5,18.1-5.2c1.9-0.1,3.7-0.1,5.6-0.2
					c0.1,0,0.3,0,0.4,0c1.3-2.6,2.5-5.2,3.9-7.8c3.6-7.2,7.3-14.3,10.9-21.5c0.2-0.5,0.4-1.1,0.3-1.7c-1.3-8.1-3.4-16-6-23.9
					c-2.2-6.7-4.8-13.3-7.9-19.7c-2.2-4.4-4.5-8.7-7-12.9c-2.2-3.7-4.6-7.3-7.1-10.8c-4-5.6-8.5-10.8-13.5-15.7
					c-7.8-7.7-16.5-14.2-25.9-19.9c-6.7-4.1-13.8-7.5-21.2-10.5c-7-2.8-14.2-5.2-21.5-7.1c-5.6-1.5-11.2-2.5-16.8-3.4
					c-9.2-1.5-18.5-2.1-27.8-1.8c-8.4,0.2-16.7,1.1-24.7,2.9c-7.7,1.8-15.3,3.9-22.9,5.8c-0.4,0.1-0.7,0.1-1.1,0.1
					c2.6-1.1,5.2-2.3,7.9-3.4c2.1-0.8,4.3-1.5,6.4-2.2c0.3-0.1,0.6-0.2,0.9-0.3l0,0l0,0c0.1,0,0.3,0,0.4-0.1c0.1,0,0.2,0,0.3-0.1
					l0,0l0,0c0.3-0.2,0.6-0.4,0.9-0.5c16.5-5.2,33.5-7.8,51-7.9c7.3,0,14.6,0.4,21.9,1c10.4,0.8,20.6,2.8,30.7,5.5
					c3,0.8,6,1.7,9,2.7c-3.1-1-6.2-1.9-9.4-2.8C472.6,17,462.3,15,452,14.2c-7.3-0.6-14.6-1-21.9-1c-17.5,0.1-34.6,2.7-51,7.9
					c-0.3,0.1-0.6,0.3-0.9,0.5l0,0c-0.2,0-0.5,0.1-0.7,0.1l0,0c-0.3,0.1-0.6,0.2-0.9,0.3c-2.1,0.7-4.3,1.4-6.4,2.2
					c-2.7,1.1-5.2,2.2-7.9,3.4c-0.7,0.3-1.4,0.5-2.1,0.9c-2.3,1.2-4.5,2.6-6.9,3.6c-19.3,8.2-36.2,19.4-50.6,34.1
					c-7.1,7.2-13.6,14.8-18.9,23.3C275.7,102.6,268.8,115.7,263.8,129.7z M264.9,132.4C264.9,132.5,264.9,132.5,264.9,132.4
					c0.1,0.1,0.1,0.1,0.1,0.1l0,0c1.4,0.9,2.8,1.9,4.2,2.8c8.3,5.8,16.6,11.7,25,17.4c9.7,6.5,19,13.5,27.9,21.1
					c3.8,3.2,7.6,6.5,11.3,9.7c0.4,0.3,0.7,0.7,0.9,1.2c-1.1-0.6-2.2-1.3-3.3-1.9c-6-3.6-12.1-7.1-18.1-10.6
					c-5.5-3.2-11-6.5-16.5-9.6c-6.7-3.8-13.5-7.4-20.3-11c-1.5-0.8-3.2-1.3-4.8-1.8c-0.8-0.2-1.2-0.5-1.3-1.4
					c-0.5-4.2-2.2-8.2-3.7-12.1C265.8,135,265.3,133.8,264.9,132.4L264.9,132.4C265,132.5,265,132.5,264.9,132.4
					C264.9,132.5,264.9,132.5,264.9,132.4C264.9,132.5,264.9,132.5,264.9,132.4z M289.8,120.4c-0.7-2.4-0.1-4.7,1-6.7
					c4.1-7.3,8.1-14.6,12.5-21.6c5.3-8.4,12-15.9,18.6-23.3c1.6-1.8,3.8-3.2,5.9-4.6c8.3-5.4,17.8-8,27.4-10.6
					c9.5-2.6,19.1-4.6,28.9-5.8c6.7-0.8,13.6-1.3,20.4-1.9c0.2,0,0.4,0,0.7,0.3c-1,0.2-1.9,0.4-2.9,0.6c-1,0.2-2,0.4-3,0.7
					c-7.4,1.8-14.8,3.5-22.2,5.4c-4.8,1.3-9.6,2.6-14.2,4.3c-5.5,2-11,4.2-16.3,6.6c-3.5,1.6-6.8,3.5-10.2,5.3
					c-0.3,0.1-0.4,0.5-0.6,0.7c0.1,0,0.2,0,0.3,0c0.2,0,0.5-0.1,0.7-0.1c0.6-0.1,1.2-0.2,1.8-0.2c1.1,0,1.6,0.7,1.1,1.6
					c-1.3,2.3-2.6,4.6-3.9,6.9c-5,8.6-10,17.3-14.2,26.4c-2.8,6.2-5.4,12.4-8,18.7c-0.9,2.2-1.8,4.3-2.8,6.7
					c-1.9-1.8-3.7-3.5-5.4-5.1c0.3,0.7,0.5,1.4,1,1.9c7.2,8.7,14.3,17.3,20.5,26.7c2.5,3.8,5.2,7.5,7.7,11.3
					c0.2,0.3,0.3,0.5,0.5,0.8c-0.1,0-0.2,0.1-0.2,0.2c-1.6-1.6-3.2-3.2-4.8-4.8c-9.2-9.2-18-18.7-27.9-27.2
					c-2.7-2.4-5.5-4.7-8.2-7.1C292,124.7,290.6,122.8,289.8,120.4z M376.3,25.8c-0.4,0.1-0.7,0-1.1,0c11.9-3,23.8-5.5,36.6-5.1
					c-3.7,1-7.1,2.1-10.6,2.8c-1.6,0.3-3.3-0.2-4.9-0.1c-4.3,0.4-8.6,0.8-12.9,1.3C381,25.1,378.7,25.4,376.3,25.8z M335.2,165.8
					l-0.1-0.1C335.1,165.8,335.2,165.8,335.2,165.8c0.1,0,0.1,0.1,0.1,0.1C335.3,165.9,335.3,165.9,335.2,165.8z M372,224.8
					c-0.9-3-0.9-5.8,0.8-8.5c1.5-2.4,3.9-2.6,6.5-2.4c3.8,0.3,7.4,1.5,11,2.8c4.7,1.8,9.4,3.6,14,5.6c5.8,2.4,11.3,5.4,16.3,9.2
					c-1.2-3.3-2.4-6.6-3.6-9.8c-1.2-3.3-2.4-6.6-3.6-9.9c0-0.1-0.1-0.2-0.1-0.3h0.1c0,0.1,0,0.2,0.1,0.3c0.3,0.4,0.7,0.7,1,1.1
					c5.3,7.6,10.1,15.5,14.2,23.7c2.8,5.6,4.8,11.5,5.9,17.5c0.3,1.7,0.6,3.3,0.8,5c0.4,3.5-0.3,4.5-3.4,6.1
					c-7.1,3.7-14.8,5.2-22.8,5.9c-6.5,0.5-13.1,0.6-19.7,0.1c-1.6-0.1-3.2-0.3-4.9-0.6c5.1-0.3,10.1-0.7,14.8-2.2
					c-1.4-1.7-2.7-3.2-4-4.8c-0.2-0.3-0.3-0.7-0.5-1c-0.1-0.1-0.1-0.2-0.2-0.3l-0.1-0.1h0.1v0.1c0.1,0.1,0.1,0.2,0.2,0.3
					c1.1,1,2.2,2.1,3.4,2.9c1.1,0.7,2.3,1.2,3.6,1.7c0.4,0.1,1-0.2,1.4-0.3c-2.5-0.9-4.5-2.6-6.1-4.6c-7.2-8.6-14.2-17.3-20.1-26.8
					C375.1,232,373.1,228.5,372,224.8z M372.4,294.1c1.1-5.4,6.3-8.7,11.9-7.4c5.2,1.2,8.6,6.6,7.5,11.7c-1.2,5.3-6.5,8.7-11.9,7.4
					C374.6,304.7,371.3,299.5,372.4,294.1z M482.8,40.8c-0.3-0.3-0.6-0.6-1.1-1.2c0.9-0.2,1.7-0.6,2.5-0.6c2.2-0.2,4.2,0.5,6.1,1.6
					c8.9,5.4,17.6,11,25.4,17.9c2.7,2.4,5.1,4.9,6.8,8c0.3,0.6,0.7,1.3,0,1.7c-0.5,0.3-1.3,0.5-1.8,0.3c-3.7-1.4-7.5-2.7-11.1-4.3
					c-1.4-0.6-2.7-1.5-3.7-2.6c-6.1-6.5-13.2-11.9-20.4-17.1c-1.2-0.8-2.3-1.7-3.5-2.6C482.3,41.4,482.5,41.1,482.8,40.8z
					 M438,222.1c0.6-2.3,3.2-3.6,5.8-2.9c2.6,0.7,4,2.8,3.4,5.1c-0.5,2.1-3.3,3.5-5.7,2.9C439.1,226.5,437.5,224.2,438,222.1z
					 M420.7,289.8c-0.7-2.7,1.5-4.8,4.5-4.3c2.1,0.3,4.1,2.2,4.6,4.1c0.7,2.8-1.8,5-5.4,4.1C422.8,293.2,421.3,292,420.7,289.8z
					 M505.5,155.9L505.5,155.9L505.5,155.9C505.6,155.9,505.6,155.9,505.5,155.9C505.6,155.8,505.6,155.9,505.5,155.9
					C505.6,155.9,505.6,155.9,505.5,155.9L505.5,155.9z"/>
				<path class="st8" d="M265,132.5C264.9,132.5,264.9,132.5,265,132.5C264.9,132.5,264.9,132.5,265,132.5
					C264.9,132.5,264.9,132.5,265,132.5z"/>
				<path class="st8" d="M265,132.5L265,132.5L265,132.5L265,132.5z"/>
				<path class="st0" d="M265,132.6L265,132.6L265,132.6L265,132.6z"/>
				<path class="st0" d="M265,132.6c0.5,1.3,1,2.5,1.5,3.8c1.5,4,3.2,7.9,3.7,12.1c0.1,0.8,0.5,1.1,1.3,1.4c1.6,0.5,3.3,1,4.8,1.8
					c6.8,3.6,13.6,7.3,20.3,11c5.6,3.1,11,6.4,16.5,9.6c6,3.5,12.1,7.1,18.1,10.6c1.1,0.6,2.2,1.3,3.3,1.9c-0.2-0.6-0.6-0.9-0.9-1.2
					c-3.8-3.3-7.5-6.5-11.3-9.7c-8.9-7.6-18.2-14.5-27.9-21.1c-8.4-5.7-16.7-11.6-25-17.4C267.8,134.4,266.4,133.5,265,132.6z"/>
				<path class="st0" d="M290.9,113.8c-1.1,2-1.7,4.3-1,6.7c0.7,2.3,2.2,4.2,4,5.9c2.7,2.4,5.5,4.8,8.2,7.1
					c9.9,8.5,18.7,18,27.9,27.2c1.6,1.6,3.2,3.2,4.8,4.8c0.1-0.1,0.2-0.1,0.2-0.2c-0.2-0.3-0.3-0.6-0.5-0.8
					c-2.6-3.8-5.2-7.5-7.7-11.3c-6.2-9.3-13.3-18-20.5-26.7c-0.5-0.5-0.7-1.3-1-1.9v0.1c-0.1-0.1-0.1-0.2-0.2-0.3
					c-0.1-0.1-0.1-0.2-0.2-0.2c-1.5-1.5-2.7-3.2-3.1-5.3c-0.4-1.6-0.3-3,0.4-4.4c8-14.8,17.1-28.8,28.3-41.4c1.2-1.3,3.2-2,4.8-3
					c0-0.1,0-0.2,0-0.4c0.1,0,0.3,0,0.4,0.1c0,0.1,0,0.1,0.1,0.1c0.2-0.3,0.3-0.6,0.6-0.7c3.4-1.8,6.7-3.8,10.2-5.3
					c5.4-2.4,10.8-4.6,16.3-6.6c4.6-1.7,9.4-3,14.2-4.3c7.4-1.9,14.8-3.6,22.2-5.4c1-0.2,2-0.5,3-0.7s1.9-0.4,2.9-0.6
					c-0.3-0.2-0.5-0.3-0.7-0.3c-6.8,0.6-13.6,1-20.4,1.9c-9.8,1.2-19.4,3.2-28.9,5.8c-9.6,2.6-19.1,5.2-27.4,10.6
					c-2.1,1.4-4.3,2.8-5.9,4.6c-6.6,7.5-13.3,14.9-18.6,23.3C299,99.2,294.9,106.5,290.9,113.8z"/>
				<path class="st5" d="M305,124.4c0.1,0.1,0.1,0.2,0.2,0.3v-0.1c1.8,1.7,3.6,3.4,5.4,5.1c1-2.4,1.8-4.5,2.8-6.7
					c2.7-6.2,5.3-12.5,8-18.7c4.1-9.1,9.2-17.7,14.2-26.4c1.3-2.3,2.7-4.6,3.9-6.9c0.5-0.9,0-1.6-1.1-1.6c-0.6,0-1.2,0.1-1.8,0.2
					c-0.2,0-0.5,0.1-0.7,0.1c-0.1,0-0.2,0-0.4,0.1l0,0c0,0-0.1,0-0.1-0.1c-0.1,0.1-0.2,0.2-0.4,0.3c-1.6,1-3.6,1.7-4.8,3
					c-11.2,12.6-20.3,26.6-28.3,41.4c-0.8,1.4-0.8,2.9-0.4,4.4c0.5,2.1,1.7,3.7,3.1,5.3C304.9,124.2,305,124.3,305,124.4z"/>
				<path class="st6" d="M261.3,245.6c-0.8,1.4-0.8,2.8-0.2,4.2c3.4,8.1,6.9,16.2,10.3,24.3c0.6,1.5,1.7,2.7,3,3.7
					c2.7,2,5.7,3.2,8.9,4c5.5,1.3,11,2.4,16.5,3.7c1.2,0.3,2.4,0.5,3.6,0.7c8.4,1.6,16.9,2.5,25.4,3.6c3,0.4,5.9,1.2,8.6,2.7
					c1.7,0.9,3.4,1.8,5.1,2.6c0.5,0.2,1.3,0.3,1.6,0c1.1-0.9,2-2,3.1-2.9c0.3-0.3,0.5-0.5,0.5-0.8s-0.1-0.6-0.5-1
					c-4.6-4.5-9.1-9-13.7-13.5c-1.3-1.2-2.7-2.3-4.3-3.1c-4-1.9-8.2-3.6-12.3-5.5c-9.4-4.2-18.8-8.1-28.6-11.2
					c-7-2.2-13.9-4.5-20.8-6.9C265,249.3,262.4,248.4,261.3,245.6z"/>
				<path class="st0" d="M266.6,240c-0.7,0.8-1,1.7-0.9,2.8C265.7,241.8,265.9,240.9,266.6,240z"/>
				<path class="st0" d="M266.6,240c-0.7,0.8-1,1.8-0.9,2.8c0,0.3,0.1,0.7,0.2,1c0.1,0.1,0.2,0.1,0.4,0.2c0,0,0,0,0-0.1
					c1.5,0.7,2.9,1.6,4.4,2.2c1.6,0.6,3.2,1.2,4.9,1.8c1.1,0.4,2.3,0.8,3.4,1.2c4.9,1.6,9.9,3,14.7,4.6c0.1,0,0.2,0.1,0.4,0.1
					c0.9,0.3,1.8,0.6,2.8,0.9c8.5,3,16.7,6.7,24.8,10.7c5.3,2.6,10.6,5.4,15.9,8c1.5,0.8,2.6,1.9,3.6,3.3c2.8,4,5.6,8,8.4,11.9
					c0.1,0.1,0.1,0.3,0.1,0.5c-0.1-0.1-0.3-0.3-0.4-0.4c0,0.1,0,0.2,0,0.3l0,0c0.1,0.1,0.2,0.2,0.3,0.3c0.1,0.2,0.1,0.3,0.2,0.5
					c0.1,0.1,0.2,0.2,0.2,0.3h-0.1c0.1,0.1,0.2,0.2,0.4,0.3c0-0.1,0-0.1,0-0.2c0.5,0.5,1.1,0.9,1.5,1.4c3.1,3.4,6,6.9,9.2,10.1
					c5.8,5.9,11.9,11.6,17.8,17.3c0.8,0.7,1.5,1.5,2.5,1.9c0.2,0.1,0.4,0.1,0.6,0.1h0.1v-0.1c0.1-0.1,0.3-0.2,0.4-0.3h0.1v-0.1
					c0.1-0.1,0.2-0.2,0.3-0.3l0,0c0.1-0.1,0.2-0.1,0.3-0.2l0,0c0.2-0.4,0.4-0.8,0.6-1.2c-2.7-2.5-5.4-4.9-8.1-7.5
					c-3.6-3.3-7.2-6.7-10.7-10.1c-8.1-7.9-14.9-16.8-21.2-26c-1.4-2.1-3.2-3.9-5.4-5.2c-3.3-1.8-6.6-3.6-9.9-5.4
					c-8.7-4.7-17.5-9.4-26.3-14c-7.7-4-15.5-7.7-23.3-11.6c-2.2-1.1-4.5-2.2-5.7-4.5c-0.1-0.2-0.4-0.3-0.7-0.4
					c-1.1,1-2.2,2.1-3.4,3.1c-0.7,0.6-1.4,1.2-2.1,1.8c-0.1,0.1-0.2,0.1-0.3,0.2C266.9,239.7,266.8,239.9,266.6,240z"/>
				<path class="st0" d="M267.1,239.6c-0.2,0.2-0.3,0.3-0.4,0.5C266.8,239.9,266.9,239.7,267.1,239.6z"/>
				<path class="st0" d="M267.3,239.4c-0.1,0.1-0.2,0.1-0.3,0.2C267.2,239.5,267.2,239.4,267.3,239.4c0.7-0.6,1.4-1.2,2.1-1.8
					C268.7,238.2,268,238.8,267.3,239.4z"/>
				<path class="st0" d="M266.3,244.1c-0.1-0.1-0.2-0.1-0.4-0.2c0,0.6,0.1,1.3,0.1,1.9c0,0.9,0.6,1.6,1.4,1.9c0.1,0,0.3,0.1,0.4,0.1
					c-1-0.3-1.4-0.9-1.4-1.9C266.4,245.3,266.3,244.7,266.3,244.1z"/>
				<path class="st0" d="M266.3,244L266.3,244c1.3,0.8,2.6,1.5,4,2.1c1.7,0.7,3.5,1.3,5.2,1.9c-1.6-0.6-3.3-1.2-4.9-1.8
					C269.2,245.6,267.8,244.7,266.3,244z"/>
				<path class="st0" d="M266.3,244.1c0,0.6,0.1,1.2,0.1,1.8c0,1,0.4,1.6,1.4,1.9c0.5,0.1,0.9,0.3,1.4,0.5c1,0.4,2.1,0.7,3.1,1.1
					c0.5,0.2,1,0.4,1.6,0.6c0.7,0.2,1.3,0.5,2,0.7c1,0.3,2,0.7,3,1c2.4,0.8,4.7,1.5,7.1,2.3c1.3,0.4,2.5,0.8,3.8,1.3
					c2.8,1,5.7,1.9,8.6,2.9c2.4,0.8,4.7,1.7,7,2.6c7.3,2.9,14.5,6.2,21.7,9.3c2.9,1.3,5.8,2.5,8.1,4.8c1.2,1.3,2.5,2.5,3.8,3.8
					c3.5,3.4,7,6.9,10.5,10.3c0-0.1,0-0.2-0.1-0.3c-2.8-4-5.6-8-8.4-11.9c-0.9-1.3-2-2.5-3.6-3.3c-5.3-2.7-10.6-5.4-15.9-8
					c-8-3.9-16.1-7.6-24.4-10.6c-0.9-0.3-1.8-0.6-2.8-0.9c-4.9-1.6-9.8-3-14.7-4.6c-0.1,0-0.3-0.1-0.4-0.1c-1.2-0.4-2.3-0.8-3.4-1.2
					c-1.8-0.6-3.5-1.3-5.2-1.9C268.9,245.5,267.6,244.8,266.3,244.1z"/>
				<path class="st0" d="M267.8,247.8c0.1,0,0.1,0,0.2,0.1c0.4,0.1,0.8,0.3,1.2,0.4C268.7,248.1,268.3,247.9,267.8,247.8z"/>
				<path class="st6" d="M335.2,69.7c0,0.1,0,0.2,0,0.4c0.1-0.1,0.3-0.2,0.4-0.3C335.5,69.7,335.3,69.7,335.2,69.7z"/>
				<path class="st6" d="M335.7,69.9L335.7,69.9c0.1,0,0.2,0,0.3,0C335.9,69.8,335.8,69.8,335.7,69.9z"/>
				<path class="st5" d="M336.7,69.7c-0.2,0-0.5,0.1-0.7,0.1C336.3,69.8,336.5,69.7,336.7,69.7z"/>
				<path class="st0" d="M278.8,251.6c2.4,0.8,4.7,1.5,7.1,2.3C283.6,253.1,281.2,252.4,278.8,251.6z"/>
				<path class="st0" d="M362.3,28.2c0.4,0,0.8,0,1.1-0.1c7.6-1.9,15.2-4.1,22.9-5.8c8.1-1.9,16.4-2.7,24.7-2.9
					c9.3-0.2,18.5,0.3,27.8,1.8c5.6,0.9,11.3,1.9,16.8,3.4c7.3,1.9,14.5,4.3,21.5,7.1c7.3,2.9,14.4,6.4,21.2,10.5
					c9.4,5.7,18.1,12.2,25.9,19.9c4.9,4.9,9.5,10.1,13.5,15.7c2.5,3.5,4.9,7.1,7.1,10.8c2.5,4.2,4.8,8.6,7,12.9
					c3.2,6.4,5.7,13,7.9,19.7c2.6,7.8,4.7,15.8,6,23.9c0.1,0.5,0,1.2-0.3,1.7c-3.6,7.2-7.3,14.3-10.9,21.5c-1.3,2.6-2.6,5.2-3.9,7.8
					c4.4-0.1,8.9-0.2,13.3-0.2c0.1,0,0.3,0,0.4,0v-0.1c4.6-9.7,9.3-19.5,13.9-29.2c0.5-1.1,0.6-2.2,0.3-3.4
					c-2.5-9.3-5.9-18.3-9.7-27.2c-3.5-8.2-7.6-16.1-12.3-23.7c-4.1-6.5-8.5-12.8-12.9-19.1c-1.6-2.2-3.3-4.4-5.3-6.3
					c-4.5-4.2-9-8.4-13.8-12.2c-5.4-4.3-11-8.4-16.7-12.2c-7.1-4.8-14.7-8.9-22.5-12.6c-6.6-3.1-13.4-5.8-20.4-7.7
					c-6.7-1.8-13.5-3.6-20.5-4.2c-5.4-0.4-10.8-0.9-16.2-1.1c-8.5-0.3-17,0-25.4,1.2c-7,1-14,2.3-21,3.5c-1.2,0.2-2.4,0.4-3.6,0.6
					l0,0l0,0c-0.1,0-0.2,0-0.3,0.1c-0.1,0-0.3,0-0.4,0.1l0,0l0,0c-0.3,0.1-0.6,0.2-0.9,0.3c-2.1,0.7-4.3,1.4-6.4,2.2
					C367.5,25.9,364.9,27.1,362.3,28.2z"/>
				<path class="st5" d="M375.2,25.8c0.4,0,0.8,0,1.1,0c2.3-0.3,4.7-0.7,7-1c4.3-0.5,8.6-1,12.9-1.3c1.6-0.1,3.4,0.4,4.9,0.1
					c3.5-0.7,6.9-1.8,10.6-2.8C399,20.3,387.1,22.8,375.2,25.8z"/>
				<path class="st6" d="M378.2,22.2c1.2-0.2,2.4-0.4,3.6-0.6c7-1.2,14-2.5,21-3.5c8.4-1.2,16.9-1.5,25.4-1.2
					c5.4,0.2,10.8,0.7,16.2,1.1c7,0.5,13.8,2.3,20.5,4.2c7,1.9,13.8,4.6,20.4,7.7c7.8,3.6,15.4,7.7,22.5,12.6
					c5.7,3.9,11.3,7.9,16.7,12.2c4.8,3.8,9.3,8,13.8,12.2c2,1.9,3.8,4,5.3,6.3c4.4,6.3,8.8,12.6,12.9,19.1
					c4.8,7.6,8.9,15.5,12.3,23.7c3.7,8.9,7.1,17.9,9.7,27.2c0.3,1.2,0.3,2.3-0.3,3.4c-4.7,9.7-9.3,19.5-13.9,29.2v0.1
					c12.2-0.3,24.5-0.5,36.7-0.8c2,0,4-0.1,6-0.2c0-0.4,0.1-0.6,0.1-0.8c-0.5-8.5-0.9-17-1.4-25.5c-0.3-3.9,0.4-3.4,3.4-3.5
					c-0.4-1.5-0.8-3-1.2-4.5c-5.6-18.8-14.2-36.3-25.9-52.4c-9.1-12.5-19.6-23.6-31.7-33.4c-16.4-13.3-34.5-23.3-54.2-30.3
					c-1.5-0.5-3-1-4.5-1.5c-3-1-6-1.8-9-2.7c-10.1-2.7-20.3-4.7-30.7-5.5c-7.3-0.6-14.6-1-21.9-1c-17.5,0.1-34.6,2.7-51,7.9
					C378.8,21.8,378.5,22,378.2,22.2z"/>
				<path class="st0" d="M298.2,258.1c2.2,0.8,4.4,1.6,6.6,2.5c7.3,2.9,14.5,6.1,21.7,9.3c2.9,1.3,5.8,2.5,8.1,4.8
					c1.2,1.3,2.5,2.5,3.8,3.8c3.6,3.6,7.2,7.1,10.9,10.7c0-0.1,0-0.2,0-0.3c-3.5-3.4-7-6.9-10.5-10.3c-1.3-1.3-2.5-2.5-3.8-3.8
					c-2.2-2.3-5.2-3.5-8.1-4.8c-7.2-3.2-14.4-6.4-21.7-9.3C302.9,259.8,300.6,258.9,298.2,258.1z"/>
				<path class="st9" d="M335.1,165.7l0.1,0.1l0,0C335.2,165.8,335.1,165.8,335.1,165.7z"/>
				<path class="st9" d="M335.2,165.8l0.1,0.1C335.3,165.9,335.3,165.9,335.2,165.8L335.2,165.8z"/>
				<path class="st0" d="M303.4,286.2l-0.4,2.2c1.5,0.3,3,0.6,4.5,0.8c5.9,1,12,1.5,17.9,2.4c3.1,0.5,6.1,1.1,9.1,2.1
					c2.2,0.7,4.2,2.1,6.3,3.1c2.7,1.3,4,1.3,5.4-0.1c0.6,0.5,1.2,1,1.8,1.4c4.8,3.5,9.8,6.8,14.3,10.6c5.2,4.4,10.1,9.2,15.1,13.9
					c2.9,2.7,4.3,3,7.4,0.8c1-0.7,1.7-0.3,2.5,0.2c8.8,5.6,17.7,11.2,26.5,16.7c1.1,0.7,1.4,1.4,1.2,2.5c-0.8,3.9,1.6,5.8,4.8,6.1
					c4.8,0.5,9.6,0.8,14.3,0.8c11.9,0.1,23.7-1.2,35.4-3c0.5-0.1,1.2,0.1,1.6,0.4c4,2.8,8,5.7,12,8.6c11.4,8.3,22.9,16.6,35.4,23.3
					c3.2,1.7,6.4,3.5,9.8,4.8c4.1,1.6,8.3,2.7,12.5,3.9c6.4,1.8,12.7,3.7,19.1,5.3c8,2,16,3.8,24,5.6c7.1,1.6,14.3,2.8,21.6,3.4
					c0.9,0.1,1.5,0.4,2.1,1.1c2.1,2.4,5.6,3.2,8.4,1.9c0.8-0.4,1.5-0.9,2.3-1.5c0.1,0,0.2,0.1,0.4,0.2c3.1,2,6.2,1.9,8.7-0.5
					c2.1-2,4.2-4.2,5.9-6.5c7.8-10.4,13-22.1,17.6-34c2.2-5.7,4.2-11.5,6-17.3c1.6-5.1,3.1-10.2,4.3-15.4c1.5-6.2,2.7-12.4,3.3-18.8
					c0.4-4.7,0.6-9.5-0.2-14.3c-0.4-2.2-0.9-4.4-2.4-6.2c-2.5-3.2-5.7-5.6-9.6-7.2c-3.9-1.6-7.9-2.7-12-3.5
					c-6.4-1.2-12.7-2.6-19.1-3.9c-7-1.4-14-2.7-21.1-4c-4-0.8-7.9-1.4-11.9-2.2c-2.8-0.5-5.6-1-8.5-1.6c0.2-0.5,0.4-1,0.6-1.4
					c9.7-19.3,19.5-38.7,29.3-58c0.2-0.4,0.8-0.8,1.2-0.8c9-1.4,18-2.6,27-4c1-0.1,2.1-0.6,2.9-1.1c2.7-1.7,3.6-5.2,2.3-8.1
					c-1.2-2.5-4.3-4.7-7.7-4c-2,0.4-4,0.6-5.4,0.9c-0.8-0.9-1.4-1.6-2.1-2.4c4.3-0.2,7.4-2,8.8-5.8c0.9-2.6,0.6-5.2-0.3-7.8
					c-0.8-2.3-1.8-4.5-2.7-6.8c-2.5-5.5-4.9-11.1-7.5-16.6l-2.1,0.8c0,0.1,0,0.1,0,0.2c-0.7,3.8,1,7.3,2.2,10.9
					c0.5,1.4,1.2,2.8,2,4.1c0.3,0.5,0.9,0.7,1.4,1c0.2-0.5,0.4-1,0.6-1.5c0.1-0.1,0.1-0.3,0.2-0.7c0.6,1.3,1.1,2.4,1.5,3.5
					c0.9,2.3,1.9,4.7,2.6,7c0.6,2.1,0.4,4.2-0.6,6.1c-1.2,2.1-3.1,3.1-5.6,3.1l0,0c-0.3,0-0.5,0-0.8,0.1c-1.2,0.2-2.6-0.1-4.9-1.2
					l-0.9,2c0.4,0.2,0.8,0.4,1.3,0.6c1.2,0.4,2,1,2.6,2.1c1.9,3.3,4,6.5,6.2,9.7c-0.5-1.9-0.9-3.8-1.5-5.9c2.2-0.3,4.5-0.8,6.8-0.9
					c1.4-0.1,2.6,0.7,3.3,2c0.8,1.5,0.7,2.9-0.1,4.3c-0.7,1.1-1.7,1.8-3,2c-1.7,0.2-3.4,0.5-5.1,0.7c-7.7,1.1-15.5,2.2-23.2,3.3
					c-0.7,0.1-1.1,0.3-1.4,0.9c-9.9,19.6-19.7,39.2-29.6,58.7c-0.5,1.1-1.2,2.1-1.8,3.1c-1.1,1.9-1.3,4-0.3,5.9
					c1.5,2.6,3.2,5.1,4.9,7.6c0.9,1.3,2.1,2.5,3.1,3.7c0.5,0.7,1.2,0.9,2,1c5.9,0.4,11.8,0.9,17.7,1.4c4.6,0.4,9.2,0.8,13.8,1.2
					c0.5,0.1,1,0.6,1.5,0.7c1.2,0.1,2.5,0.1,3.7,0.2c8.4,0.3,16.9,0.6,25.3,0.9c0.4,0,0.8,0,1.2,0c0-0.1,0-0.1,0-0.2
					c-2-0.3-4-0.7-6-1c-3.5-0.5-6.9-1.1-10.4-1.6c-3.9-0.6-7.8-1.1-11.7-1.7c-2.9-0.4-5.9-0.9-8.8-1.4c-5.8-1-11.7-2-17.5-3
					c-3.7-0.6-7.4-1.3-11.1-2c-0.3-0.1-0.7-0.2-0.8-0.4c-1.6-2.2-3.4-4.2-4.1-6.9c-0.2-0.6-0.2-1.2-0.3-2c2.6,0.4,5,0.8,7.4,1.2
					c9.6,1.8,19.1,3.6,28.7,5.5c10.2,2,20.5,4.1,30.7,6.3c3.3,0.7,6.5,2,9.4,3.8c4.5,2.7,6.7,6.7,7,11.8c0.3,4.5,0.3,9-0.4,13.5
					c-0.9,5.7-1.8,11.5-3.1,17.1c-1.1,5-2.6,9.9-4.2,14.8c-1.7,5.3-3.5,10.6-5.5,15.8c-4.5,11.8-9.6,23.4-17.1,33.7
					c-1.7,2.4-3.8,4.5-5.8,6.7c-2.2,2.4-5.6,1.6-6.9-1c-0.2-0.4-0.4-0.8-0.7-1.4c-0.7,1.1-1.3,1.9-1.8,2.7c-0.9,1.4-2.3,1.9-4,1.7
					c-1.6-0.2-3-1.1-3.3-2.7c-0.2-0.9,0.2-1.9,0.4-2.8c0.1-0.5,0.3-1,0.3-1.6c-1,1-2,2-2.9,2.9c-0.4,0.4-0.8,0.7-1.6,0.6
					c-5.5-0.9-11-1.4-16.4-2.5c-8.8-1.8-17.5-3.7-26.2-5.9c-6.8-1.6-13.4-3.6-20.1-5.5c-4.4-1.3-8.8-2.5-13.1-4.1
					c-3.2-1.2-6.2-2.9-9.2-4.5c-11.9-6.4-22.9-14.1-33.7-22.1c-9-6.6-18-13.1-27.1-19.7c-1.3-0.9-2.7-1.7-3.9-2.7
					c-2.9-2.2-3.8-5.2-3.4-8.6c0.3-3,1.4-5.6,3.3-7.8c2.4,1.4,4.9,2.8,7.3,4.3l1.2-1.9c-1.3-0.8-2.5-1.5-3.8-2.3
					c-0.9-0.6-1.9-1.1-2.8-1.7c-0.3-0.2-0.4-0.5-0.6-0.8c-0.7-0.6-1.4-1.2-2.1-1.8c-1.8-2.1-2.3-4.5-0.3-7c2.2-2.8,4.3-5.7,6.4-8.6
					c0.3-0.4,0.6-0.6,0.8-0.8c0.5,0.4,1,0.8,1.4,1.2l0.6-0.7c-0.2-0.2-0.5-0.5-0.4-0.6c0.3-0.8,0.8-0.6,1.4-0.4l0.7-2.2
					c-0.6-0.1-1.1-0.2-1.7-0.2c-2.6-0.1-4.6,1.1-5.9,3.5c-1.3,2.5-3.1,4.7-5.1,6.8c-3.5,3.5-2.7,7.2-0.4,10c0.8,0.9,0.8,1.6,0.1,2.4
					c-2.6,3.3-3.6,7.1-3.3,11.2c0.3,4.6,3.3,7.6,7.3,9.9c0.1,0.1,0.2,0.2,0.4,0.3c0.1,0.1,0.2,0.1,0.3,0.2c0,0,0.1,0,0.1-0.1
					c1.2,0.9,2.5,1.8,3.7,2.7c2,1.4,4.1,2.9,6.1,4.3c0,0.1,0,0.2-0.1,0.3c-5,0.6-9.9,1.3-14.9,1.7c-8,0.8-16.1,1.1-24.2,0.8
					c-2.3-0.1-4.6-0.3-6.9-0.6c-0.9-0.1-1.5-0.2-1.9-0.4l0,0c-1.2-0.3-1.3-1-1-2.9c0-0.4,0-0.8,0-1.3c-0.3-1.7-1.2-2.8-2.7-3.8
					c-8.9-5.6-17.8-11.2-26.7-16.8c-1.6-1-3.3-1.7-5.2-0.7l0,0c-0.1,0.1-0.2,0.1-0.3,0.2l0,0c-0.1,0.1-0.2,0.2-0.3,0.3v0.1h-0.1
					c-0.1,0.1-0.3,0.2-0.4,0.3v0.1h-0.1c0,0,0,0-0.1,0.1c0.1,0,0.3,0.1,0.4,0.1c-0.8,0.6-1.1,0.8-1.6,0.5c-0.4,0-0.8-0.4-1.6-1.2
					c-4.7-4.4-9.3-8.7-14.1-13.1c-4.5-4.2-9.6-7.7-14.7-11.1c-1.2-0.8-1.5-2.5-0.9-3.7c0.1-0.3,0.2-0.5,0.2-0.8l-2-0.6
					c0,0.3-0.2,0.5-0.5,0.8c-1,0.9-2,2-3.1,2.9c-0.3,0.3-1.2,0.2-1.6,0c-1.7-0.8-3.4-1.7-5.1-2.6c-2.7-1.5-5.6-2.3-8.6-2.7
					C320.3,288.7,311.8,287.9,303.4,286.2z M586,283.7c0.1-0.1,0.1-0.2,0.2-0.4c2.3,0.5,4.5,1,6.9,1.6c-2-0.1-3.9-0.2-5.8-0.4
					C586.8,284.6,586.4,284,586,283.7z M625.3,156.3c1.9,3.6,3.5,7.3,3.8,11.4c0.1,0.1,0.1,0.2,0.2,0.3l-0.1,0.1
					c-0.1-0.1-0.1-0.2-0.2-0.4l0,0l0,0C627.1,164.1,625.9,160.3,625.3,156.3z"/>
				<path class="st0" d="M296.9,254.8c8.4,3,16.4,6.7,24.4,10.6c5.3,2.6,10.6,5.4,15.9,8c1.5,0.8,2.6,1.9,3.6,3.3
					c2.8,4,5.6,8,8.4,11.9c0,0.1,0.1,0.2,0.1,0.3c0.1,0.1,0.3,0.3,0.4,0.4c0-0.2,0-0.4-0.1-0.5c-2.8-4-5.6-8-8.4-11.9
					c-0.9-1.3-2-2.5-3.6-3.3c-5.3-2.7-10.6-5.4-15.9-8C313.6,261.6,305.4,257.8,296.9,254.8z"/>
				<path class="st6" d="M372.8,216.3c-1.7,2.7-1.7,5.5-0.8,8.5c1.2,3.8,3.1,7.2,5.2,10.6c5.9,9.5,12.9,18.2,20.1,26.8
					c1.7,2,3.6,3.7,6.1,4.6c2.5,0.8,4.8,0.5,7.1-0.3c4.9-1.7,9.7-3.3,14.5-5c0.4-0.2,0.8-0.4,1.2-0.6c2.3-1.4,2.7-2.2,1.9-4.9
					c-2.1-7.4-4.2-14.8-6.4-22.2c-0.2-0.8-0.8-1.5-1.3-2.2c-5-3.8-10.5-6.8-16.3-9.2c-4.6-2-9.3-3.8-14-5.6c-3.5-1.3-7.2-2.5-11-2.8
					C376.7,213.7,374.3,213.9,372.8,216.3z"/>
				<path class="st0" d="M350.3,290.6c-0.1-0.1-0.2-0.2-0.4-0.3c-0.1,0.6-0.1,1.1-0.2,1.7c0,0.3-0.1,0.6-0.2,0.8
					c-0.6,1.3-0.3,2.9,0.9,3.7c5.1,3.4,10.2,7,14.7,11.1c4.7,4.3,9.4,8.7,14.1,13.1c0.8,0.8,1.2,1.2,1.6,1.2
					c-0.3-0.2-0.7-0.5-1.2-1.1c-4.7-4.4-9.3-8.7-14.1-13.1c-4.5-4.2-9.6-7.7-14.7-11.1c-1.2-0.8-1.6-2.5-0.9-3.7
					C350.2,292.2,350.2,291.4,350.3,290.6z"/>
				<path class="st0" d="M350.3,290.4c0,0.1,0,0.1,0,0.2c0.4,0.4,0.9,0.8,1.3,1.2c2.7,3,5.2,6.1,8.1,9c6.2,6.2,12.6,12.3,18.9,18.4
					c0.8,0.8,1.7,1.7,2.9,2c-1-0.4-1.8-1.2-2.5-1.9c-6-5.7-12-11.4-17.8-17.3c-3.2-3.2-6.2-6.8-9.2-10.1
					C351.4,291.3,350.8,290.9,350.3,290.4z"/>
				<path class="st0" d="M349.9,292.9c-0.6,1.3-0.3,2.9,0.9,3.7c5.1,3.4,10.2,7,14.7,11.1c4.7,4.3,9.4,8.7,14.1,13.1
					c0.6,0.5,1,0.9,1.2,1.1c0.3,0,0.6-0.2,1.1-0.5c-0.2,0-0.4-0.1-0.6-0.2c-1.2-0.3-2.1-1.2-2.9-2c-6.3-6.1-12.7-12.2-18.9-18.4
					c-2.8-2.9-5.4-5.9-8.1-9c-0.4-0.4-0.8-0.8-1.3-1.2C350.2,291.4,350.2,292.2,349.9,292.9z"/>
				<path class="st0" d="M384.3,286.8c-5.6-1.3-10.8,1.9-11.9,7.4c-1.1,5.3,2.2,10.5,7.5,11.8c5.4,1.3,10.7-2.1,11.9-7.4
					C392.9,293.3,389.5,288,384.3,286.8z M374.9,294.7c0.8-3.9,4.8-6.4,8.7-5.5c3.8,0.9,6.3,4.7,5.5,8.6c-0.8,4-4.7,6.5-8.7,5.6
					C376.6,302.5,374.1,298.5,374.9,294.7z"/>
				<path class="st10" d="M383.6,289.2c-3.9-0.9-7.8,1.6-8.7,5.5c-0.8,3.8,1.7,7.8,5.5,8.7c4,0.9,7.8-1.5,8.7-5.6
					C389.9,293.9,387.4,290,383.6,289.2z M376.6,294.8c0.5-2.3,3.9-4,6.5-3.4c2.8,0.7,4.7,3.4,4.1,6.1c-0.6,2.8-3.4,4.5-6.4,3.8
					C378,300.7,376,297.5,376.6,294.8z"/>
				<path class="st0" d="M383.1,291.4c-2.6-0.6-6,1.1-6.5,3.4c-0.6,2.7,1.4,5.8,4.2,6.5c3,0.7,5.9-0.9,6.4-3.8
					C387.8,294.9,385.9,292.1,383.1,291.4z M377.8,295.5c0.4-2.2,2.7-3.6,5-3.1s3.8,2.7,3.3,4.9c-0.5,2.2-2.7,3.7-5,3.2
					C378.9,300,377.4,297.7,377.8,295.5z"/>
				<path class="st10" d="M382.8,292.4c-2.3-0.5-4.5,0.9-5,3.1c-0.4,2.2,1.1,4.5,3.3,4.9c2.3,0.5,4.5-1,5-3.2
					C386.6,295.1,385.1,292.9,382.8,292.4z"/>
				<path class="st0" d="M384.7,270.5c1.6,0.3,3.2,0.5,4.9,0.6c6.6,0.5,13.1,0.4,19.7-0.1c8-0.6,15.7-2.1,22.8-5.9
					c3.1-1.6,3.8-2.6,3.4-6.1c-0.2-1.7-0.5-3.3-0.8-5c-1.2-6.1-3.1-11.9-5.9-17.5c-4.1-8.2-8.9-16.1-14.2-23.7
					c-0.3-0.4-0.7-0.7-1-1.1h-0.1c1.2,3.3,2.4,6.6,3.6,9.9c1.2,3.3,2.4,6.6,3.6,9.8c0.4,0.7,1,1.4,1.3,2.2
					c2.2,7.4,4.3,14.8,6.4,22.2c0.8,2.7,0.4,3.5-1.9,4.9c-0.4,0.2-0.8,0.4-1.2,0.6c-4.8,1.7-9.7,3.3-14.5,5c-2.3,0.8-4.7,1-7.1,0.3
					c-0.5,0.1-1,0.4-1.4,0.3c-1.2-0.5-2.5-0.9-3.6-1.7c-1.2-0.8-2.3-1.9-3.4-2.9l0,0c0.2,0.3,0.2,0.7,0.5,1c1.3,1.6,2.6,3.2,4,4.8
					C394.8,269.9,389.7,270.2,384.7,270.5z"/>
				<path class="st9" d="M394.7,262l0.1,0.1C394.8,262.1,394.8,262.1,394.7,262C394.8,262.1,394.7,262.1,394.7,262z"/>
				<path class="st9" d="M394.8,262.2c0.1,0.1,0.1,0.2,0.2,0.3l0,0C394.9,262.3,394.9,262.3,394.8,262.2z"/>
				<path class="st9" d="M413.3,211.5c0,0.1,0.1,0.2,0.1,0.3h0.1C413.4,211.6,413.4,211.5,413.3,211.5
					C413.4,211.4,413.3,211.4,413.3,211.5z"/>
				<path class="st0" d="M380.9,321.9c0.5,0.3,0.8,0.1,1.6-0.5c-0.2,0-0.3,0-0.4-0.1C381.5,321.7,381.2,321.9,380.9,321.9z"/>
				<path class="st0" d="M381.4,321.2c0.2,0.1,0.4,0.1,0.6,0.2c0,0,0,0,0.1-0.1C381.8,321.3,381.6,321.2,381.4,321.2z"/>
				<path class="st5" d="M481.7,39.6c0.5,0.6,0.8,0.9,1.1,1.2c-0.3,0.3-0.5,0.6-0.8,1c1.2,0.9,2.4,1.8,3.5,2.6
					c7.2,5.2,14.3,10.7,20.4,17.1c1,1.1,2.3,2,3.7,2.6c3.7,1.6,7.4,2.9,11.1,4.3c0.5,0.2,1.3,0,1.8-0.3c0.7-0.4,0.3-1.1,0-1.7
					c-1.7-3.1-4.1-5.7-6.8-8c-7.8-6.9-16.5-12.5-25.4-17.9c-1.9-1.1-3.9-1.8-6.1-1.6C483.4,39,482.6,39.4,481.7,39.6z"/>
				<path class="st0" d="M443.8,219.2c-2.6-0.7-5.3,0.7-5.8,2.9c-0.5,2.1,1.1,4.4,3.5,5s5.2-0.8,5.7-2.9
					C447.8,222,446.4,219.9,443.8,219.2z"/>
				<path class="st0" d="M425.2,285.5c-3-0.5-5.2,1.6-4.5,4.3c0.6,2.1,2.1,3.4,3.7,3.9c3.6,0.9,6.1-1.3,5.4-4.1
					C429.3,287.7,427.3,285.9,425.2,285.5z"/>
				<path class="st0" d="M418.3,342.1c0,0.4,0,0.8-0.1,1.1c0.5,1.2,1.3,1.6,2.6,1.6c2.9-0.1,5.8,0,8.7-0.3c7.5-0.9,15-1.8,22.5-2.9
					c2.9-0.4,5.7-1.2,8.5-1.8c-0.1-0.1-0.1-0.1-0.2-0.2c-1.2-0.8-2.3-1.7-3.5-2.5c-0.2,0.1-0.3,0.2-0.5,0.2
					c-6.1,1-12.1,2.2-18.2,2.9c-5.9,0.6-11.8,0.8-17.8,1.1C419.6,341.3,418.8,341.4,418.3,342.1z"/>
				<path class="st0" d="M460.4,216.5c-1.8,2.3-2.4,4.7-0.8,7.5c0.5,0.8,0.8,1.6,1.2,2.5c3.5,7.3,7,14.5,10.5,21.8
					c4.9,10.1,9.8,20.3,14.8,30.4c0.8,1.7,1.7,3.3,2.6,5c0.5-1.3,1-2.6,1.6-3.8c0-0.1,0.1-0.1,0.1-0.2c-0.1-0.2-0.3-0.3-0.3-0.5
					c-2.8-5.8-5.6-11.6-8.4-17.5c-3.1-6.5-6.2-13-9.2-19.5c-2.9-6.1-5.8-12.3-8.7-18.5c-0.8-1.7-0.9-3.3,0-4.8l0.1-0.1
					c0.5-0.9,1.2-1.6,1.9-2.4c0.1-0.1,0.2-0.3,0.3-0.4c0.1-0.1,0.2-0.3,0.3-0.4l0,0c1.7-2,3.7-4.1,4.6-4.5l0,0l0,0
					c-1.4-0.3-1.2-2-2-3C468,209.1,461.4,215.3,460.4,216.5z"/>
				<path class="st6" d="M418.2,343.2c-0.3,1.6-0.3,2.4,0.6,2.8l0,0c0.4,0.1,0.9,0.2,1.5,0.2c2.3,0.2,4.6,0.5,6.9,0.6
					c8.1,0.3,16.2,0,24.2-0.8c5-0.5,9.9-1.1,14.9-1.7c0-0.1,0-0.1,0.1-0.3c-2-1.4-3.9-2.8-5.9-4.2c-2.8,0.6-5.6,1.4-8.5,1.8
					c-7.5,1.1-15,2.1-22.5,2.9c-2.9,0.3-5.8,0.1-8.7,0.3C419.5,344.9,418.7,344.4,418.2,343.2z"/>
				<path class="st0" d="M418.8,346c0.4,0.2,1,0.3,1.9,0.4c2.3,0.2,4.6,0.5,6.9,0.6c8.1,0.3,16.1,0,24.2-0.8c5-0.5,9.9-1.1,14.9-1.7
					c0-0.1,0-0.2,0.1-0.3c-2-1.4-4.1-2.9-6.1-4.3c0,0-0.1,0-0.2,0c2,1.4,3.9,2.8,5.9,4.2c0,0.1,0,0.1-0.1,0.3
					c-5,0.6-9.9,1.3-14.9,1.7c-8,0.8-16.1,1.1-24.2,0.8c-2.3-0.1-4.6-0.4-6.9-0.6C419.7,346.2,419.2,346.1,418.8,346z"/>
				<path class="st6" d="M463.7,218.8c-0.9,1.5-0.8,3.2,0,4.8c2.9,6.2,5.8,12.3,8.7,18.5c3.1,6.5,6.1,13,9.2,19.5
					c2.8,5.8,5.6,11.6,8.4,17.5c0.1,0.2,0.2,0.3,0.3,0.5c0.2-0.6,0.5-1.3,0.8-1.9c1-1.7,1-3.1-0.4-5c-3.7-4.8-5.8-10.4-7.1-16.2
					c-2-8.7-0.5-16.6,4.5-23.7c6.9-9.9,14-19.6,21-29.4c4.2-5.9,8.5-11.7,12.8-17.6l0,0c-4.8-0.1-9.6-0.4-14.4-0.3
					c-1.3,0-2.7,0.8-3.9,1.4c-5.7,2.9-11.2,6.2-16.2,10.2c-0.7,0.5-1.3,1.1-2,1.6c-4.7,3.9-9.9,8.6-14.4,12.4
					c0.4,0.9,0.9,1.8,1.1,2.8c0.5,2.3-0.8,3.4-3.2,2.7c-0.9-0.3-1.8-0.7-2.7-1.1c-0.1,0.1-0.2,0.3-0.4,0.4c-0.1,0.1-0.2,0.3-0.3,0.4
					c-0.8,1-1.5,2-1.9,2.4C463.7,218.8,463.7,218.8,463.7,218.8z"/>
				<path class="st0" d="M465.6,216.3c-0.7,0.8-1.3,1.6-1.9,2.4C464.1,218.2,464.8,217.3,465.6,216.3z"/>
				<path class="st0" d="M466.3,215.5c-0.1,0.1-0.2,0.3-0.3,0.4C466.1,215.7,466.2,215.6,466.3,215.5L466.3,215.5z"/>
				<path class="st6" d="M471,211C470.9,211,471,211,471,211c-0.9,0.3-2.9,2.4-4.6,4.4c0.9,0.4,1.8,0.8,2.7,1.1
					c2.4,0.7,3.7-0.4,3.2-2.7C472,212.8,471.4,211.9,471,211L471,211z"/>
				<path class="st0" d="M469.1,207.9c0.9,0.8,1.1,2.2,2,3l0.1-0.1c0.3-0.3,0.5-0.6,0.8-0.9c4.5-3.8,9-7.6,13.5-11.4
					c0.7-0.5,1.3-1.1,2-1.6c5-4,10.5-7.2,16.2-10.2c1.2-0.6,2.6-1.4,3.9-1.4c4.8,0,9.6,0.2,14.4,0.3c1.1-1.1,2.2-2.3,3.3-3.4
					c0.4-0.3,0.8-0.6,1.2-0.8c-0.5,0-1-0.1-1.6-0.1c-5.2-0.2-10.3-0.5-15.5-0.7c-1.3,0-2.8-0.2-3.8,0.4c-4.7,2.7-9.6,5.3-14,8.5
					c-6.4,4.7-12.6,9.7-18.8,14.7C471.5,205.4,470.3,206.7,469.1,207.9z"/>
				<path class="st0" d="M471,210.9c-0.9-0.8-1-2.2-2-3C469.8,208.9,469.6,210.7,471,210.9L471,210.9z"/>
				<path class="st0" d="M471,210.9C471,210.9,471,211,471,210.9C471.1,210.9,471.1,210.9,471,210.9
					C471.1,210.9,471.1,210.9,471,210.9z"/>
				<path class="st0" d="M471.1,210.9L471.1,210.9c4.4-3.7,9.6-8.3,14.3-12.3c-4.6,3.7-9,7.6-13.5,11.4
					C471.6,210.2,471.4,210.6,471.1,210.9z"/>
				<path class="st10" d="M454.3,305.3c-2,2.5-1.5,4.9,0.3,7c1.6-2.5,3.3-5,4.9-7.6c1.5-2.3,2.9-4.5,4.3-6.8
					c-0.3-0.3-0.6-0.5-0.9-0.8c-0.5-0.4-0.9-0.8-1.4-1.2c-0.2,0.1-0.5,0.4-0.8,0.8C458.6,299.6,456.6,302.5,454.3,305.3z"/>
				<path class="st11" d="M505.5,155.9L505.5,155.9L505.5,155.9L505.5,155.9z"/>
				<path class="st0" d="M505.6,155.8C505.6,155.9,505.6,155.9,505.6,155.8C505.6,155.9,505.6,155.9,505.6,155.8
					C505.6,155.9,505.6,155.8,505.6,155.8z"/>
				<path class="st0" d="M454.6,312.3c0.7,0.6,1.4,1.2,2.1,1.8c0.4-0.6,0.9-1.2,1.3-1.8c-0.6-2-0.1-3.7,1.1-5.3
					c1.7-2.6,3.3-5.3,4.9-7.9c0.2-0.3,0.7-0.8-0.1-1.2c-1.4,2.3-2.9,4.6-4.3,6.8C457.9,307.3,456.3,309.8,454.6,312.3z"/>
				<path class="st6" d="M455.4,316.6c-1.9,2.2-3,4.8-3.3,7.8c-0.4,3.4,0.5,6.3,3.4,8.6c1.3,1,2.7,1.7,3.9,2.7
					c9,6.5,18.1,13.1,27.1,19.7c10.8,7.9,21.8,15.7,33.7,22.1c3,1.6,6,3.3,9.2,4.5c4.3,1.6,8.7,2.8,13.1,4.1
					c6.7,1.9,13.4,3.9,20.1,5.5c8.7,2.1,17.4,4.1,26.2,5.9c5.4,1.1,10.9,1.7,16.4,2.5c0.7,0.1,1.1-0.1,1.6-0.6c1-1,1.9-2,2.9-2.9
					c0,0.6-0.2,1.1-0.3,1.6c-0.2,0.9-0.7,1.9-0.4,2.8c0.4,1.6,1.7,2.5,3.3,2.7s3-0.3,4-1.7c0.5-0.8,1.1-1.6,1.8-2.7
					c0.3,0.6,0.5,1,0.7,1.4c1.3,2.6,4.7,3.4,6.9,1c2-2.2,4.1-4.3,5.8-6.7c7.5-10.3,12.6-21.9,17.1-33.7c2-5.2,3.8-10.5,5.5-15.8
					c1.5-4.9,3-9.8,4.2-14.8c1.3-5.7,2.2-11.4,3.1-17.1c0.7-4.4,0.7-8.9,0.4-13.5c-0.3-5-2.5-9-7-11.8c-2.9-1.8-6.1-3.1-9.4-3.8
					c-10.2-2.2-20.4-4.3-30.7-6.3c-9.5-1.9-19.1-3.7-28.7-5.5c-2.4-0.5-4.8-0.8-7.4-1.2c0.1,0.7,0.1,1.4,0.3,2
					c0.7,2.6,2.5,4.7,4.1,6.9c0.2,0.2,0.5,0.3,0.8,0.4c3.7,0.7,7.4,1.4,11.1,2c5.8,1,11.7,2,17.5,3c2.9,0.5,5.8,1,8.8,1.4
					c3.9,0.6,7.8,1.1,11.7,1.7c3.5,0.5,6.9,1,10.4,1.6c2,0.3,4,0.7,6,1c0,0.1,0,0.1,0,0.2c-0.4,0-0.8,0-1.2,0
					c-8.4-0.3-16.9-0.6-25.3-0.9c-1.2,0-2.5,0-3.7-0.2c-0.5-0.1-1-0.6-1.5-0.7c-4.6-0.5-9.2-0.9-13.8-1.2
					c-5.9-0.5-11.8-0.9-17.7-1.4c-0.8-0.1-1.4-0.3-2-1c-1-1.3-2.2-2.4-3.1-3.7c-1.7-2.5-3.5-5-4.9-7.6c-1.1-1.9-0.8-4,0.3-5.9
					c0.6-1,1.3-2,1.8-3.1c9.9-19.6,19.8-39.2,29.6-58.7c0.3-0.6,0.7-0.8,1.4-0.9c7.7-1.1,15.5-2.2,23.2-3.3l-0.4-2.1
					c-2.2-3.2-4.3-6.4-6.2-9.7c-0.6-1.1-1.4-1.7-2.6-2.1c-0.5-0.1-0.9-0.3-1.3-0.6c-1.1-0.6-2-1.6-2.7-2.8c-0.6-1.2-0.1-1.9,1.2-1.8
					c1.9,0,3.8,0.1,5.8,0c1.5-0.1,2.8-0.7,3.4-2.2c0.5-1.2,0.1-2.5-1.2-2.8c-1.5-0.4-3-0.7-4.5-0.8c-3.8-0.2-7.6-0.5-11.3-0.4
					c-8.3,0.2-16.6,0.3-24.9,0.5l0.1,1.8c-0.2,1.9-0.3,3.8-0.5,5.8c2-0.1,3.8-0.2,5.7-0.3c5.5-0.3,11-0.5,16.4-0.8
					c2.1-0.1,3.6,0.9,4.6,2.5c1.6,2.6,3,5.4,4.4,8.1c0.2,0.4,0.4,0.9,0.7,1.4c-6.3,1.2-12.6,1.9-19,2.3l0.2,2
					c-1.3,2.7-2.5,5.6-4.1,8.2c-4.8,7.6-8.4,15.9-12.5,23.9c-5,9.6-9.9,19.3-14.8,29c-0.1,2.6-1.9,4.5-2.7,6.8
					c-0.7,2.1-0.6,4.2,0.5,6.2c0.2,0.3,0.4,0.7,0.5,1c1,2.3,2.4,4.4,3.4,6.8c1.5,3.4,3.9,6.5,5.9,9.8c0.2,0.3,0.4,0.6,0.5,1.1v2.1
					c2.9,0.2,5.7,0.3,8.6,0.5c7.6,0.4,15.1,0.8,22.7,1.2c6.7,0.4,13.4,0.7,20.1,1.1c2.4,0.1,4.8,0.3,7.2,0.5
					c0.1,1.2,0.3,2.2,0.2,3.2c-0.1,3.1-0.2,6.2-0.3,9.4c-0.1,2.4-0.1,2.5-2.6,2.5c-10-0.2-20-0.4-29.9-0.7
					c-6.4-0.2-12.7-0.7-19.1-1.1c-5.9-0.4-11.9-0.8-17.8-1.3c-2.9-0.2-5.7-0.5-8.6-0.7c-3.1-0.2-6.1-0.3-9.2-0.5c0-0.1,0-0.1,0-0.2
					c1.3-0.5,2.7-0.9,4.1-1.4c-1.3-3.7-2.6-7.3-3.9-11c-2.9-0.2-5.7-0.3-8.6-0.5c1,2.8,2,5.4,2.9,7.9c0.2,0.5,0.2,1.1,0.6,1.5
					c0.7,0.7,0.7,1.5,0.3,2.1c-0.3,0.4-1.2,0.7-1.8,0.6c-3.6-0.4-7.1-0.8-10.7-1.3c-5.6-0.8-10.8-2.6-15.8-5.2
					c-5.7-3.1-11.4-6-17.2-9c1.6-3.7,3.1-7.3,4.6-10.7c-2.8-2-5.4-3.9-8.1-5.8c-0.9,2.4-1.7,4.9-2.9,7.1c-1.1,2-0.8,3.6,0.7,5.2
					c0.1,0.1,0,0.2,0.1,0.4c-2.1-0.9-4-2-6.3-1.8c-0.8,0.1-1.7-0.1-2.5-0.1c-4.3-0.3-8.1,0.5-11.4,3.2c-1.7,1.4-3.1,2.8-4.1,4.7
					c-0.7,1.5-0.9,1.7,0.5,2.7c0.4,0.3,0.8,0.6,1.3,0.8c1.3,0.8,2.7,1.5,4,2.3c0.7,0.4,1.2,0.3,1.6-0.5c0.5-0.8,1.1-1.6,1.6-2.4
					c1-1.7,2.6-2.3,4.5-2.2c3.2,0.1,6.3,1.1,9.2,2.6c5.7,2.8,11.4,5.9,17.1,8.9c5.7,3,11.4,6,17.8,7.1c6,1.1,12,2.1,18.1,2.1
					c4.8,0,9.7,1,14.5,1.5c5.6,0.5,11.2,0.9,16.8,1.3c8.9,0.6,17.7,1.3,26.6,1.6c9.1,0.4,18.3,0.5,27.4,0.7c1,0,2.1-0.2,3.2-0.4
					c0.8-1.6,1.6-3.3,2.5-5c0.1,0,0.1,0.1,0.2,0.1c-0.3,2-0.6,4.1-0.9,6.1c1,0.5,2,1,3.2,1.6c-1.1,0-1.8,0.1-2.5,0
					c-1-0.1-1.5,0.3-1.6,1.3c-0.1,1.3-0.3,2.7-0.6,4c-1.5,6.7-2.9,13.4-4.6,20.1c-1,4.1-2.3,8.2-3.8,12.2c-1.9,5.2-3.9,10.3-6,15.5
					c-1.1,2.6-2.3,5.2-3.4,7.9c-2-0.9-3.9-1.8-5.8-2.7c-9.8-4.5-19.5-9.1-29.4-13.5c-10-4.5-20.2-8.9-30.3-13.3
					c-4.1-1.8-7.9-3.9-10.9-7.2c-0.2-0.2-0.5-0.4-0.8-0.7c-2,1.3-4,2.5-5.9,3.8c2.9,3.7,6.5,6.7,10.8,8.6
					c8.9,4.1,17.9,8.2,26.9,12.2c8.6,3.9,17.1,7.7,25.7,11.5c3.8,1.7,7.7,3.4,11.6,5c0.4,0.2,0.9,0.1,1.3,0.2c0-0.5,0.1-1-0.1-1.4
					c-0.4-0.7-0.9-1.3-1.4-1.9c1.5,0.8,3,1.8,4.2,2.9c1.4,1.3,1,2.3-0.8,2.6c-0.4,0.1-0.8,0.2-1.1,0.1c-2-0.1-4-0.2-5.9-0.5
					c-4.8-0.8-9.6-1.5-14.3-2.6c-9.6-2.1-19.2-4.3-28.8-6.7c-6.8-1.7-13.6-3.8-20.3-5.7c-2.8-0.8-5.7-1.6-8.3-2.8
					c-4.1-1.9-8-4.2-11.9-6.4c-2.3-1.3-4.6-2.7-6.9-4.1c-2.3-1.3-4.6-2.6-7-3.8c0-0.1,0.1-0.2,0.1-0.3c1.8,0.5,3.7,1,5.5,1.6
					c0.7,0.2,1.2,0.2,1.8-0.2c2.9-2,5.8-3.9,8.7-5.8c6.6-4.1,12.9-8.8,19.9-12.4c6.3-3.2,10.9-8,13.2-14.6c0.7-2.1,1.1-4.2,0.8-6.5
					c-3.1-0.3-6-0.6-9-0.8c-0.4,2.1-0.7,4.1-1.3,5.9c-0.8,2.6-2.1,5.1-4.5,6.7c-3,2.1-6,4.2-9.2,6.1c-5.8,3.5-11.1,7.7-17.3,10.7
					c-3.6,1.8-6.9,4.3-10.3,6.5c-0.8,0.5-1.2,0.5-2-0.1c-11.9-9.2-23.7-18.4-35.6-27.6c-2.4-1.8-3.5-4.1-3.3-6.9
					c0-0.3-0.2-0.8-0.5-0.9C460.3,319.4,457.8,318,455.4,316.6z M643.8,294.8c0-0.2,0-0.4,0.1-1c0.9,1.6,1.7,3,2.3,4.4
					c0.3,0.7,0.7,1,1.5,0.8c1.7-0.3,3.4-0.4,5-0.9c3.3-1,4.3-3.3,2.9-6.5c-0.2-0.4-0.4-0.9-0.7-1.3c-0.1-0.1-0.1-0.2-0.2-0.3
					l0.1-0.1c0.1,0.1,0.2,0.2,0.4,0.3c2.1,1.7,3.5,3.6,2.9,6.3c-0.4,1.9-1.9,3-3.6,3.7c-0.8,0.3-0.9,0.8-0.9,1.6
					c0.1,1.9,0.1,3.9,0.2,6l0.6,1.8c0.1,0.1,0.2,0.2,0.3,0.3c3.8,3.2,3.7,8.6-0.3,11.6c-0.5,0.3-0.9,0.7-1.4,0.9
					c-1.4,0.4-1.6,1.4-1.9,2.6c-1.5,5.9-3,11.8-4.8,17.6c-1.8,5.7-3.8,11.4-6,17.1c-2.7,7.1-5.8,14-9.5,20.7
					c-1.9,3.4-3.7,6.9-5.8,10.2c-1.5,2.4-3.5,4.3-6.1,5.8c1-2.2,2-4.4,3.1-6.5c3.6-6.9,6.6-14.2,9.3-21.5
					c4.2-11.4,7.4-23.1,9.5-35.2c0.4-2.3,0.9-4.6,1.2-6.9c0.5-4.9,1-9.8,1.4-14.8c0.3-2.9,0.5-5.9,0.6-8.8
					C644.1,300,643.9,297.4,643.8,294.8z"/>
				<path class="st6" d="M458,312.3c-0.4,0.6-0.9,1.2-1.3,1.8c0.2,0.3,0.4,0.6,0.6,0.8c0.9,0.6,1.8,1.1,2.8,1.7l0.8-1.3
					C459.7,314.6,458.8,313.6,458,312.3z"/>
				<path class="st0" d="M459.3,308.8c-0.4,0.7-0.3,1.6-0.5,2.4c0.2-0.4,0.3-0.8,0.5-1.1c2.1-3.4,4.3-6.8,6.4-10.2
					c-0.2-0.1-0.5-0.2-0.7-0.3C463.1,302.7,461.2,305.7,459.3,308.8z"/>
				<path class="st10" d="M463.1,295.7c0,0.1,0.2,0.4,0.4,0.6c0.2,0.1,0.3,0.3,0.5,0.3c1.3,0.5,0.8-0.8,1.2-1.2
					c-0.2,0-0.5-0.1-0.8-0.2C464,295.1,463.4,295,463.1,295.7z"/>
				<path class="st6" d="M459.4,310.1c-0.2,0.3-0.3,0.7-0.5,1.1c0.7,2.4,2.6,3.7,4.9,4.3c0.3,0.1,0.6,0.1,0.9,0.2
					c0.8,0.1,1.6,0,2.2-0.7c1.8-2.7,3.5-5.4,5.3-8.1c0.5-0.8,1-1.5,1.5-2.3c0.1-0.2,0.2-0.5,0.2-0.5c-1.6-1-3.2-2-4.8-2.9
					c-1-0.6-2-1.2-2.9-1.8c-0.1,0.2-0.3,0.4-0.5,0.7C463.6,303.3,461.5,306.7,459.4,310.1z"/>
				<path class="st6" d="M460.9,315.4l-0.8,1.3c1.3,0.8,2.5,1.5,3.8,2.3l0.1,0.1c0.5-0.8,1-1.6,1.4-2.4c-0.3,0-0.6,0-0.9,0
					c-0.1,0-0.2,0-0.3,0C463,316.4,461.9,316,460.9,315.4z"/>
				<path class="st0" d="M488.1,232.7c-5,7.1-6.5,15-4.5,23.7c1.3,5.8,3.5,11.3,7.1,16.2c1.4,1.9,1.4,3.3,0.4,5
					c-0.3,0.6-0.6,1.3-0.8,1.9c0.1,0.1,0.2,0.2,0.3,0.3c0.3-0.7,0.5-1.5,0.9-2.1c1-1.7,1-3.1-0.4-5c-3.7-4.8-5.8-10.4-7.1-16.2
					c-2-8.7-0.5-16.6,4.5-23.7c6.9-9.9,14-19.6,21.1-29.4c4.3-5.9,8.6-11.8,12.9-17.7c-0.1,0-0.3,0-0.4,0l0,0
					c-4.3,5.9-8.6,11.7-12.8,17.6C502.1,213.1,495,222.9,488.1,232.7z"/>
				<path class="st0" d="M496.2,24.4c19.7,6.9,37.8,17,54.2,30.3c12.1,9.8,22.6,20.9,31.7,33.4c11.8,16.1,20.4,33.6,25.9,52.4
					c0.4,1.5,0.8,3,1.2,4.5c-3,0.2-3.7-0.3-3.4,3.5c0.6,8.5,1,17,1.4,25.5c0,0.2,0,0.4-0.1,0.8c-2,0.1-4,0.1-6,0.2
					c-12.2,0.3-24.5,0.5-36.7,0.8v0.1c12.4-0.3,24.7-0.5,37.1-0.8c2,0,4-0.1,6-0.2c0-0.4,0.1-0.6,0.1-0.8c-0.5-8.5-0.9-17-1.4-25.5
					c-0.3-3.9,0.4-3.4,3.4-3.5c-0.4-1.5-0.8-3-1.2-4.5c-5.6-18.8-14.2-36.3-25.9-52.4c-9.1-12.5-19.6-23.6-31.7-33.4
					C534.2,41.4,516,31.4,496.2,24.4z"/>
				<path class="st0" d="M456.9,337.1c0,0-0.1,0-0.1,0.1c1.2,0.9,2.3,1.7,3.5,2.5c0.1,0.1,0.1,0.1,0.2,0.2c0,0,0.1,0,0.2,0
					C459.4,338.9,458.2,338,456.9,337.1z"/>
				<path class="st6" d="M491.1,233.9c-3.3,4.5-5,9.6-5.2,15.2c-0.1,5,1.2,9.7,3,14.4c1.4,3.6,3.2,6.9,6.1,9.7
					c3.8,3.7,8.2,6.6,12.7,9.2c5.1,2.9,10.1,6.1,15.8,8c5.2,1.7,10.2,3.3,15.7,3.4c7.5,0.1,15,0.7,22.6,1.1
					c5.1,0.3,10.2,0.6,15.3,0.9v-2.1c-1.6-1.4-3.1-2.8-4.7-4.3c-2.7-2.5-2.7-2.3-6.3-2.6c-7.1-0.6-14.3-1.3-21.4-2
					c-0.3,0-0.8-0.2-0.9-0.5c-1.8-2.6-3.6-5.3-5.4-8c-1.5-2.1-2.4-4.4-3.1-6.8c-0.6-2.2-1.4-4.4-2-6.6c-0.9-3.8,0.2-7.2,2-10.4
					c3-5.4,6.8-10.2,10.6-15.1c6.8-8.8,13.6-17.7,20.4-26.7c-1.6-1.1-3-2.2-4.5-3.2c0-0.1,0-0.1,0.1-0.2c1.8,0.3,3.6,0.4,5.3,0.8
					c3.4,0.8,6.7,0.4,10,0.3c5.4-0.2,10.7-0.5,16.1-0.8c0.6,0,1.2-0.4,1.6-0.8c1.8-1.9,3.5-4,5.5-5.9l-0.2-2
					c-8.6,0.6-17.3,0.7-26.1,1.2c2.5-3.4,5-6.6,7.2-10c2.2-3.3,4.2-6.7,6.4-10.2l-0.1-1.8c-11.3,0.3-22.6,0.5-33.9,0.8
					c-4.5,0.1-9,0.1-13.4,0.6c-6.8,0.9-12.6,3.6-16.6,9.2C512.9,203.8,501.9,218.8,491.1,233.9z M494.2,249
					c0.1-3.9,1.6-7.4,3.8-10.6c10.7-14.9,21.4-29.7,32.1-44.6c2.6-3.7,6.4-5.5,10.8-6c3.4-0.5,6.8-0.4,10.2-0.5
					c6.3-0.2,12.7-0.3,19-0.5c1.1,0,1.9,0.3,2.7,1.2c-2.9,3.9-5.8,7.9-8.8,11.8c-9.9,13.1-19.9,26.1-29.8,39.2
					c-3.5,4.6-6.4,9.4-8.4,14.8c-1.4,3.7-1.3,7.5-0.5,11.3c1.1,5.2,3.6,9.7,6.7,14.1c1.1,1.5,2,3,3.1,4.6c-7.6,0.2-14.3-2-20.6-5.9
					c-4.8-3-9.4-6.4-13.4-10.5c-1.6-1.6-3-3.5-4-5.5C495.3,257.9,494.1,253.5,494.2,249z"/>
				<path class="st0" d="M463.9,318.9l-1.2,1.9c0.3,0.2,0.5,0.6,0.5,0.9c-0.1,2.8,1,5.1,3.3,6.9c11.9,9.2,23.8,18.4,35.6,27.6
					c0.7,0.6,1.2,0.6,2,0.1c3.4-2.2,6.7-4.7,10.3-6.5c6.2-3,11.5-7.2,17.3-10.7c3.2-1.9,6.2-4,9.2-6.1c2.3-1.7,3.6-4.1,4.5-6.7
					c0.6-1.9,0.8-3.8,1.3-5.9c3,0.3,6,0.5,9,0.8c0.3,2.3-0.1,4.5-0.8,6.5c-2.2,6.7-6.9,11.4-13.2,14.6c-7,3.6-13.2,8.3-19.9,12.4
					c-3,1.8-5.8,3.8-8.7,5.8c-0.6,0.4-1.1,0.5-1.8,0.2c-1.8-0.5-3.7-1-5.5-1.6c0,0.1-0.1,0.2-0.1,0.3c2.3,1.3,4.7,2.5,7,3.8
					c2.3,1.3,4.6,2.8,6.9,4.1c3.9,2.2,7.8,4.5,11.9,6.4c2.6,1.2,5.5,2,8.3,2.8c6.8,2,13.5,4,20.3,5.7c9.6,2.4,19.2,4.5,28.8,6.7
					c4.7,1,9.5,1.8,14.3,2.6c1.9,0.3,3.9,0.4,5.9,0.5c0.4,0,0.8-0.1,1.1-0.1c1.8-0.4,2.2-1.3,0.8-2.6c-1.2-1.2-2.7-2.1-4.2-2.9
					c0.5,0.6,1.1,1.2,1.4,1.9c0.2,0.4,0.1,0.9,0.1,1.4c-0.4,0-0.9,0-1.3-0.2c-3.9-1.7-7.7-3.3-11.6-5c-8.6-3.8-17.2-7.6-25.7-11.5
					c-9-4-18-8.1-26.9-12.2c-4.3-2-7.8-4.9-10.8-8.6c2-1.3,3.9-2.5,5.9-3.8c0.3,0.3,0.6,0.4,0.8,0.7c3.1,3.3,6.8,5.4,10.9,7.2
					c10.1,4.4,20.2,8.7,30.3,13.3c9.8,4.4,19.6,9,29.4,13.5c1.9,0.9,3.8,1.8,5.8,2.7c1.2-2.7,2.4-5.3,3.4-7.9
					c2.1-5.1,4.1-10.3,6-15.5c1.4-4,2.7-8.1,3.8-12.2c1.7-6.7,3.1-13.4,4.6-20.1c0.3-1.3,0.5-2.6,0.6-4c0.1-1,0.6-1.4,1.6-1.3
					c0.7,0.1,1.5,0,2.5,0c-1.2-0.6-2.2-1.1-3.2-1.6c0.3-2,0.6-4,0.9-6.1c-0.1,0-0.1-0.1-0.2-0.1c-0.8,1.7-1.7,3.4-2.5,5
					c-1.1,0.1-2.1,0.4-3.2,0.4c-9.1-0.2-18.3-0.3-27.4-0.7c-8.9-0.4-17.8-1-26.6-1.6c-5.6-0.4-11.2-0.8-16.8-1.3
					c-4.8-0.4-9.7-1.5-14.5-1.5c-6.1,0-12.1-1-18.1-2.1c-6.4-1.2-12.1-4.2-17.8-7.1c-5.7-3-11.3-6.1-17.1-8.9
					c-2.9-1.4-6-2.4-9.2-2.6c-1.9-0.1-3.5,0.5-4.5,2.2c-0.5,0.8-1.1,1.5-1.6,2.4c-0.4,0.7-0.9,0.9-1.6,0.5c-1.3-0.8-2.7-1.5-4-2.3
					l-1.2,1.9c1.6,1,3.1,1.9,4.8,2.9c0,0-0.1,0.2-0.2,0.5c0.2,0.2,0.4,0.4,0.7,0.7c-2.1,3-4.2,5.9-6.3,8.9c-0.3,0.4-0.8,0.6-1.2,0.8
					c-0.6,0.8-1.4,0.9-2.2,0.7l-0.1,0.9c0.3,0,0.6,0,0.9,0c1.7-0.1,2.9-0.9,3.8-2.2c2.1-3,4.2-5.9,6.2-8.9c0.3-0.4,0.5-1,1.2-0.4
					c4.3,2.3,8.6,4.6,12.9,6.8c2.5,1.3,5,2.5,7.4,3.9c3.3,1.9,5.3,4.6,5,8.4c-0.3,4.6-4.1,7.7-8.9,7.7c-3.8,0-7.2-1.5-10.5-3.2
					c-5.3-2.7-10.6-5.5-15.8-8.2c-0.1-0.1-0.2-0.1-0.2-0.2l0,0c-0.9-0.4-1.7-0.9-2.6-1.3C464,319,463.9,319,463.9,318.9z M467.4,326
					c-1-0.8-1.4-2-1.4-3.4c4.4,2.3,8.7,4.5,13.1,6.8c1.8,1,3.6,1.9,5.4,2.9c5.3,2.2,10.7,2.8,15.9,0.3c4-1.9,6.2-5.1,6.6-9.5
					c-0.2-3.5-2-6.4-4.6-8.8c-4.8-3.8-10.3-6.3-15.5-9.4l-1.1,1.8c4.3,2.5,8.6,5,12.8,7.5c2.2,1.3,3.9,3,5.1,5.3
					c1.5,3.1,1,6.3-1.4,8.7c0.3-1.1,0.7-2.1,0.9-3.1c0.6-4.5-1.5-7.8-5.4-10c-6.3-3.5-12.7-6.8-19-10.2c-0.3-0.2-0.7-0.4-0.9-0.5
					c0.6-0.5,1.3-1,1.9-1.4c0.2,0.1,0.3,0.2,0.5,0.3l1.2-2c-0.5-0.3-0.9-0.5-1.4-0.8c0.5-1.3,1.2-1.7,2.6-1.5
					c1.6,0.3,3.1,0.6,4.7,1.1c4.4,1.4,8.2,3.9,12.2,6.1c1.9,1,3.8,1.9,5.7,2.9c3.7,1.8,7.4,3.7,11.2,5.4c1.6,0.8,3.3,1.3,5.1,2
					c0.3,2.4,0.4,4.7-1.3,6.9c-2.5,3.3-5.8,5.8-9.4,7.8c-7.5,4.3-15.8,6.9-24.2,9.1c-0.3,0.1-0.9,0-1.1-0.2c-2.4-1.8-4.7-3.7-7-5.6
					c-1.4-1.1-2.8-2.2-4.1-3.3C471.9,329.5,469.6,327.8,467.4,326z M503.1,353.8c-4.8-3.6-9.5-7.2-14.4-10.9
					c8.9-2.2,17.7-4.3,26.6-6.5c1.6,1.9,3.4,4.1,5.2,6.3C514.7,346.3,509,350.1,503.1,353.8z M515.2,332.2c1.6-1.3,3.2-2.6,4.9-4
					c2.7,3.1,5.3,6.2,8,9.4c-1.8,1.2-3.6,2.4-5.5,3.6C520.2,338.2,517.7,335.2,515.2,332.2z M524.5,322.4c0.1-1.7,0.2-3.3,0.3-5
					c1.5,0.3,2.9,0.7,4.3,1c0,0,0.1,0,0.1-0.1l-0.1,0.1c-0.9,0.9-1.7,1.9-2.7,2.7C525.9,321.6,525.2,321.9,524.5,322.4z M515.5,362
					c4.9-2.9,9.6-5.6,14.4-8.5c0.3,0.3,0.7,0.7,1,1.1c3.9,4.6,8.9,7.6,14.4,10c6.9,3.1,13.9,6.1,20.8,9.2c10,4.4,20,8.9,29.9,13.4
					c0,0.1-0.1,0.2-0.1,0.3c-1.8-0.3-3.6-0.5-5.4-0.9c-7.9-1.7-15.8-3.4-23.7-5.3c-6.8-1.7-13.5-3.6-20.3-5.6
					c-4.4-1.3-8.9-2.5-13.2-4.1c-2.7-1-5.3-2.5-7.9-4C522.1,366,518.9,364.1,515.5,362z M546.6,351.7c-2.3-1.1-4.2-3-6.6-4.8
					c2.5-1.7,4.7-3.1,6.8-4.6c5-3.4,8.6-7.8,10.6-13.4c0.4-1.2,0.8-2.5,1-3.8c0.2-1.2,0.2-2.5,0.3-3.9c24.1,1.6,48.2,3.9,72.4,3.6
					c-3,20-9,39-17.4,57.3c-3.9-1.8-7.6-3.7-11.5-5.5c-7.8-3.6-15.7-7.1-23.5-10.6C567.9,361.3,557.2,356.6,546.6,351.7z"/>
				<path class="st0" d="M465.4,316.6c-0.5,0.8-1,1.6-1.4,2.4c0.9,0.4,1.7,0.9,2.6,1.3c0.2-0.3,0.3-0.7,0.5-1
					c2.5-3.8,5.1-7.7,7.7-11.5c0.6-0.9,1.3-1.8,2-2.7c-0.7-0.6-0.9,0-1.2,0.4c-2.1,2.9-4.2,5.9-6.2,8.9
					C468.4,315.7,467.2,316.6,465.4,316.6z"/>
				<path class="st0" d="M466.9,314.9c0.4-0.3,1-0.5,1.2-0.8c2.1-2.9,4.2-5.9,6.3-8.9c-0.3-0.3-0.5-0.5-0.7-0.7
					c-0.5,0.7-1,1.5-1.5,2.3C470.4,309.5,468.6,312.2,466.9,314.9z"/>
				<path class="st10" d="M466.6,320.3L466.6,320.3c0.1,0.1,0.2,0.2,0.3,0.2c5.3,2.7,10.6,5.4,15.8,8.2c3.3,1.7,6.6,3.2,10.5,3.2
					c4.8,0.1,8.5-3.1,8.9-7.7c0.3-3.8-1.7-6.5-5-8.4c-2.4-1.4-5-2.6-7.4-3.9c-4.3-2.3-8.6-4.6-12.9-6.8c-0.7,0.9-1.4,1.8-2,2.7
					c-2.6,3.8-5.1,7.7-7.7,11.5C466.8,319.7,466.7,320,466.6,320.3z"/>
				<path class="st6" d="M466,322.7c0,1.4,0.4,2.5,1.4,3.4c2.2,1.8,4.4,3.5,6.7,5.2c1.4-0.4,2.8-0.8,4.1-1.3
					c0.3-0.1,0.6-0.4,0.9-0.6C474.8,327.2,470.4,325,466,322.7z"/>
				<path class="st0" d="M498.1,238.4c-2.3,3.1-3.8,6.7-3.8,10.6c-0.1,4.5,1.1,8.9,3,13c0.9,2,2.4,3.9,4,5.5c4,4,8.5,7.5,13.4,10.5
					c6.3,3.9,13,6.1,20.6,5.9c-1.1-1.7-2.1-3.2-3.1-4.6c-3.1-4.3-5.6-8.9-6.7-14.1c-0.8-3.9-0.9-7.7,0.5-11.3c2-5.4,5-10.3,8.4-14.8
					c9.9-13.1,19.9-26.1,29.8-39.2c3-3.9,5.9-7.9,8.8-11.8c-0.7-0.9-1.6-1.2-2.7-1.2c-6.3,0.2-12.7,0.3-19,0.5
					c-3.4,0.1-6.9,0.1-10.2,0.5c-4.4,0.6-8.2,2.4-10.8,6C519.5,208.7,508.8,223.6,498.1,238.4z M497.1,248.2c0.4-2.8,1.3-5.4,3-7.7
					c11-15.3,22-30.6,33-45.9c1.6-2.3,4.1-3.2,6.8-4c3.2-0.9,6.5-0.7,9.8-0.8c6-0.2,12-0.3,18-0.4c0.2,0,0.3,0,0.4,0.1
					c-1,2.7-2.9,3.5-5.8,3.6c-5.1,0.1-10.2,0.7-15.4,1.1c-1.5,0.1-3.1,0-4.6,0.1c-3.7,0.2-6.7,1.6-8.8,4.6
					c-4.1,5.8-8.3,11.7-12.3,17.5c-6.2,8.9-12.3,17.7-18.4,26.6c-3.4,4.8-3.1,9.9-0.9,15.2c2,4.8,5.2,8.8,9.1,12.4
					c0.9,0.8,1.5,1.9,2.1,3c-4-2.8-8-5.6-11.2-9.3c-1.7-1.9-2.7-4.2-3.3-6.6C497.7,254.6,496.7,251.5,497.1,248.2z M522.5,255.4
					c-1.9-4.5-2.7-8.8,0-12.7c9.9-14.3,19.9-28.6,29.8-42.9c0.2-0.3,0.5-0.6,0.7-0.9c1.2-1.7,2.8-2.7,5.2-2.6
					c1.7,0.1,3.4-0.2,5.5-0.4c-2.1,2.8-4,5.4-6,8c-8.6,11.2-17.2,22.4-25.7,33.7c-3.6,4.8-6.6,9.9-8.8,15.5
					C522.8,253.7,522.7,254.4,522.5,255.4z"/>
				<path class="st10" d="M479.6,303.1c-0.6,0.4-1.2,0.9-1.9,1.4c0.3,0.2,0.6,0.3,0.9,0.5c6.3,3.4,12.7,6.7,19,10.2
					c3.9,2.2,6.1,5.5,5.4,10c-0.1,1-0.6,2.1-0.9,3.1c2.4-2.4,2.9-5.6,1.4-8.7c-1.1-2.3-2.9-4-5.1-5.3c-4.3-2.5-8.5-5-12.8-7.5
					c-1.9-1.1-3.8-2.2-5.7-3.3C479.9,303.3,479.7,303.2,479.6,303.1z"/>
				<path class="st6" d="M500.1,240.5c-1.6,2.3-2.6,4.9-3,7.7c-0.4,3.3,0.6,6.4,1.4,9.6c0.6,2.4,1.6,4.7,3.3,6.6
					c3.2,3.7,7.1,6.5,11.2,9.3c-0.6-1.1-1.2-2.2-2.1-3c-3.9-3.6-7.1-7.6-9.1-12.4c-2.2-5.3-2.5-10.4,0.9-15.2
					c6.2-8.9,12.3-17.7,18.4-26.6c4.1-5.9,8.2-11.7,12.3-17.5c2.1-2.9,5.1-4.4,8.8-4.6c1.5-0.1,3.1,0,4.6-0.1
					c5.1-0.4,10.2-1,15.4-1.1c2.9-0.1,4.9-0.9,5.8-3.6c-0.1,0-0.3-0.1-0.4-0.1c-6,0.1-12,0.3-18,0.4c-3.3,0.1-6.6-0.1-9.8,0.8
					c-2.6,0.8-5.1,1.7-6.8,4C522.1,209.9,511,225.2,500.1,240.5z"/>
				<path class="st6" d="M482.4,299c-1.5-0.2-2.1,0.2-2.6,1.5c0.5,0.3,1,0.5,1.4,0.8c1.9,1.2,3.7,2.4,5.6,3.5
					c5.2,3.1,10.8,5.6,15.5,9.4c-0.6-1.5-1.2-3.1-1.8-4.6c-0.5-1.1-0.9-2.3-1.3-3.4c-4-2.2-7.8-4.7-12.2-6.1
					C485.6,299.7,484,299.3,482.4,299z"/>
				<path class="st0" d="M481.2,301.3l-1.2,2c1.9,1.1,3.8,2.2,5.7,3.3l1.1-1.8C484.9,303.7,483.1,302.5,481.2,301.3z"/>
				<path class="st0" d="M490.3,279.8c-0.5,1.3-1,2.6-1.6,3.8c0.1,0.2,0.2,0.3,0.2,0.5c0.6-1.4,1.1-2.8,1.7-4.2
					c-0.1-0.1-0.2-0.2-0.3-0.3C490.3,279.6,490.3,279.7,490.3,279.8z"/>
				<path class="st0" d="M474.1,331.3c1.4,1.1,2.8,2.2,4.1,3.3c0.8-0.3,1.7-0.6,2.5-0.9c1.3-0.4,2.5-0.9,3.8-1.3
					c-1.8-1-3.6-1.9-5.4-2.9c-0.3,0.2-0.5,0.5-0.9,0.6C476.9,330.5,475.5,330.9,474.1,331.3z"/>
				<path class="st0" d="M522,185.7c0.1,0,0.3,0,0.4,0c1.5-1.4,3.1-2.8,4.6-4.2c-0.2,0-0.3,0-0.5,0c-0.4,0.3-0.8,0.5-1.2,0.8
					C524.2,183.5,523.1,184.6,522,185.7z"/>
				<path class="st6" d="M480.8,333.6c-0.8,0.3-1.7,0.6-2.5,0.9c2.3,1.9,4.6,3.7,7,5.6c0.3,0.2,0.8,0.3,1.1,0.2
					c8.4-2.2,16.7-4.8,24.2-9.1c3.6-2.1,6.9-4.5,9.4-7.8c1.7-2.2,1.6-4.5,1.3-6.9c-1.8-0.7-3.5-1.2-5.1-2c-3.8-1.8-7.5-3.6-11.2-5.4
					c0.8,2,1.6,3.9,2.4,5.9c0.8,2.2,1.4,4.4,0.5,6.7c-0.2,0.5-0.5,1-0.8,1.4c-0.4,4.4-2.6,7.5-6.6,9.5c-5.2,2.5-10.5,1.9-15.9-0.3
					C483.3,332.8,482,333.2,480.8,333.6z"/>
				<path class="st6" d="M505.4,284c-1.2,2.8-2.4,5.5-3.6,8.3c5.8,3.1,11.6,6.1,17.6,9.3c-0.7-3.7-1.3-7-1.9-10.4
					c-0.1-0.3-0.5-0.7-0.8-0.9c-2-1.2-4.1-2.3-6.1-3.4C508.9,285.9,507.2,285,505.4,284z"/>
				<path class="st0" d="M504.9,309.1c-1.9-1-3.8-1.9-5.7-2.9c0.4,1.1,0.9,2.3,1.3,3.4c0.6,1.5,1.2,3.1,1.8,4.6
					c2.7,2.4,4.4,5.3,4.6,8.8c0.3-0.5,0.6-0.9,0.8-1.4c0.9-2.2,0.3-4.5-0.5-6.7C506.5,313,505.7,311,504.9,309.1z"/>
				<path class="st0" d="M550.7,176.1c0,0,0,0.1-0.1,0.1c4.6-0.1,9.2-0.2,13.7-0.3v-0.1c-0.1,0-0.3,0-0.4,0
					C559.6,175.9,555.2,176,550.7,176.1z"/>
				<path class="st0" d="M535.4,252.3c-1.8,3.3-3,6.6-2,10.4c0.6,2.2,1.4,4.4,2,6.6c0.7,2.4,1.6,4.7,3.1,6.8c1.8,2.6,3.6,5.3,5.4,8
					c0.2,0.3,0.6,0.5,0.9,0.5c7.1,0.7,14.3,1.4,21.4,2c3.6,0.3,3.6,0.2,6.3,2.6c1.6,1.4,3.1,2.8,4.7,4.3c-0.1-0.4-0.3-0.7-0.5-1.1
					c-2-3.2-4.4-6.3-5.9-9.8c-1-2.3-2.4-4.5-3.4-6.8c-0.2-0.3-0.3-0.7-0.5-1c-1-2-1.1-4.1-0.5-6.2c0.7-2.3,2.5-4.2,2.7-6.8
					c4.9-9.7,9.8-19.4,14.8-29c4.2-8,7.7-16.3,12.5-23.9c1.6-2.6,2.7-5.4,4.1-8.2c-1.9,1.9-3.6,3.9-5.5,5.9c-0.4,0.4-1,0.7-1.6,0.8
					c-5.4,0.3-10.7,0.6-16.1,0.8c-3.3,0.1-6.7,0.5-10-0.3c-1.7-0.4-3.5-0.6-5.3-0.8c0,0.1,0,0.1-0.1,0.2c1.5,1.1,2.9,2.1,4.5,3.2
					c-6.9,9-13.6,17.8-20.4,26.7C542.2,242.1,538.4,246.9,535.4,252.3z M535.9,260.7c-0.3-2.5,0.8-4.6,1.9-6.7
					c2.7-5.2,6.4-9.8,10-14.5c7-9.1,14-18.3,20.9-27.5c0.5-0.7,1-1,1.9-1c7.1-0.3,14.1-0.6,21.2-0.9c0.1,0,0.2,0.1,0.5,0.1
					c-9.5,18.7-18.9,37.3-28.3,55.8c-3.8-0.6-7.4-1.2-11.1-1.8c-5.3-0.9-10.6-1.8-15.9-2.7C536.2,261.5,536,261.4,535.9,260.7z
					 M539.5,271.4c-0.6-2.3-1.5-4.6-2.3-7.1c8.7,1.4,17.2,2.8,25.9,4.2c-0.6,2.9-0.1,5.6,1.3,8.5c-3.4-0.6-6.6-1.2-9.8-1.7
					c-4.3-0.7-8.6-1.5-12.9-2.1C540.6,273,539.8,272.6,539.5,271.4z M542,275.7c1.7,0.2,3.1,0.4,4.5,0.7c6.2,1.1,12.4,2.2,18.7,3.4
					c0.3,0.1,0.7,0.2,0.9,0.4c0.9,1.3,1.6,2.7,2.5,4.2c-4.1-0.3-8-0.5-11.8-0.8c-3.4-0.3-6.8-0.7-10.2-1.1c-0.4,0-0.9-0.2-1-0.5
					C544.4,279.9,543.3,277.9,542,275.7z"/>
				<path class="st10" d="M520.1,328.2c-1.7,1.4-3.3,2.7-4.9,4c2.5,3,4.9,6,7.4,9c1.9-1.2,3.6-2.4,5.5-3.6
					C525.4,334.4,522.8,331.3,520.1,328.2z"/>
				<path class="st6" d="M537.2,264.3c0.8,2.5,1.6,4.8,2.3,7.1c0.3,1.2,1.1,1.6,2.2,1.7c4.3,0.7,8.6,1.4,12.9,2.1
					c3.2,0.5,6.4,1.1,9.8,1.7c-1.4-2.8-1.9-5.6-1.3-8.5C554.5,267.1,545.9,265.7,537.2,264.3z"/>
				<path class="st0" d="M524.8,317.3c-0.1,1.7-0.2,3.4-0.3,5c0.7-0.4,1.4-0.8,1.9-1.3c0.9-0.9,1.8-1.8,2.7-2.7l0,0
					C527.7,318,526.3,317.7,524.8,317.3z"/>
				<path class="st0" d="M529.2,318.3C529.2,318.3,529.1,318.3,529.2,318.3L529.2,318.3C529.1,318.3,529.2,318.3,529.2,318.3z"/>
				<path class="st0" d="M581.4,190c-2.2,3.3-4.7,6.5-7.2,10c8.7-0.4,17.4-0.6,26.1-1.2c6.4-0.4,12.7-1.1,19-2.3
					c-0.3-0.5-0.5-1-0.7-1.4c-1.5-2.7-2.9-5.4-4.4-8.1c-1-1.7-2.5-2.7-4.6-2.5c-5.5,0.3-11,0.6-16.4,0.8c-1.9,0.1-3.7,0.2-5.7,0.3
					c0.2-2,0.3-3.8,0.5-5.8C585.6,183.3,583.6,186.7,581.4,190z M579.8,197.2c0.8-1.5,1.6-2.5,3.5-2.6c4.6-0.1,9.3-0.4,13.9-0.7
					c0.3,0,0.7-0.1,1,0.1c3.1,1.5,6.2,0.9,9.4,0.9c1.4,0,2.9,0,4.3,0.1C601.4,196.5,590.6,196.7,579.8,197.2z M583.8,191.6
					c0.8-1.1,1.5-2.1,2.2-3.1c0.1-0.2,0.5-0.2,0.8-0.3c6.3-0.3,12.6-0.7,19-1c0.1,0,0.2,0,0.6,0.1
					C599.2,190.9,591.7,191.6,583.8,191.6z M603.6,192c2.7-1.1,5.5-2.1,7.2-5.2c1.1,1.8,2.1,3.3,3.2,4.9
					C610.4,191.9,607,191.9,603.6,192z"/>
				<path class="st10" d="M583.3,194.6c-1.9,0-2.7,1.1-3.5,2.6c10.8-0.4,21.6-0.6,32.1-2.2c-1.4-0.1-2.9,0-4.3-0.1
					c-3.1,0-6.3,0.6-9.4-0.9c-0.3-0.1-0.7-0.1-1-0.1C592.6,194.2,588,194.5,583.3,194.6z"/>
				<path class="st10" d="M586,188.5c-0.7,1-1.4,2-2.2,3.1c7.9,0,15.5-0.6,22.5-4.2c-0.4-0.1-0.5-0.1-0.6-0.1
					c-6.3,0.3-12.6,0.6-19,1C586.5,188.2,586.1,188.3,586,188.5z"/>
				<path class="st10" d="M555.5,297.7c-1.3-0.2-2.6-0.2-4-0.3c1.1,3.2,2.2,6.2,3.2,9.2c0.2,0.7,0.6,0.9,1.3,0.9
					c3.8,0.3,7.6,0.6,11.3,0.9c5.5,0.4,11,0.9,16.4,1.2c7.2,0.5,14.5,0.9,21.8,1.2c5.8,0.3,11.7,0.4,17.5,0.7c0-0.1,0-0.1,0-0.2
					c-1.8-0.4-3.6-0.9-5.4-1.2c-9.9-2-19.8-4-29.8-6c-7-1.4-14-3-21-4.4C563.2,299,559.4,298.3,555.5,297.7z"/>
				<path class="st10" d="M611.9,148c-0.9,0-1.6,0-2.5,0.1c0.5,9,1,17.9,1.5,26.8c2,0,3.9,0,5.9,0C615.1,166,613.5,157,611.9,148z"
					/>
				<path class="st0" d="M616.4,149.4c-0.6-0.1-1.1-0.1-2-0.2c1.8,8.5,3.5,16.9,5.3,25.2c0.8,0,1.7,0.1,2.5,0.1
					C620.3,166.2,618.4,157.8,616.4,149.4z"/>
				<path class="st10" d="M616.4,149.4c1.9,8.4,3.8,16.8,5.8,25.1c1,0.1,2,0.1,3.1,0.2c-1.1-4-2.1-7.9-3.1-11.7
					c-0.9-3.3-1.8-6.5-2.8-9.7C618.9,151.7,618.2,150.2,616.4,149.4z"/>
				<path class="st10" d="M619.8,149.2c-0.5-0.1-1.1-0.1-1.6,0.1c1.4,1.3,2.1,2.9,2.6,4.7c1.8,6.7,3.6,13.4,5.5,20
					c0.1,0.3,0.3,0.9,0.5,0.9c2,0.5,3.5,1.7,4.9,3c3.1,2,3.4,5.8,0.5,7.8c-0.9,0.6-2,1-3.1,1.4c-0.2,0.1-0.4,0.3-0.6,0.4
					c2.5,0,4.5-1,5.6-3.1c1.1-1.9,1.3-4,0.6-6.1c-0.7-2.4-1.7-4.7-2.6-7c-0.4-1.1-0.9-2.2-1.5-3.5c-0.1,0.4-0.1,0.6-0.2,0.7
					c-0.2,0.5-0.4,1-0.6,1.5c-0.5-0.3-1.1-0.6-1.4-1c-0.7-1.3-1.5-2.7-2-4.1c-1.2-3.5-2.8-7-2.2-10.9c0,0,0-0.1,0-0.2
					c0-0.1-0.1-0.1-0.1-0.2c-0.9-1.2-1.8-2.4-2.8-3.5C620.8,149.6,620.3,149.3,619.8,149.2z"/>
				<path class="st0" d="M620.4,147.1l-0.6,2.1c0.5,0.1,1,0.4,1.5,0.9c1.1,1.1,1.9,2.3,2.8,3.5c0,0,0.1,0.1,0.1,0.2l2.1-0.8
					c-0.1-0.2-0.2-0.3-0.2-0.5C624.9,149.9,623.1,147.9,620.4,147.1z"/>
				<path class="st10" d="M610.8,186.9c-1.7,3-4.5,4.1-7.2,5.2c3.4-0.1,6.8-0.1,10.4-0.2C612.9,190.1,611.9,188.6,610.8,186.9z"/>
				<path class="st6" d="M575.5,298.7c0,0.1,0,0.1,0,0.2c19,3.9,37.9,7.8,57,11.7c0-2.5,0.1-4.7,0.1-6.9c-1.6-0.4-3-0.7-4.4-1
					c-2.4-0.5-4.7-1.2-7.1-1.4c-5.8-0.4-11.6-0.7-17.3-1c-6.3-0.4-12.5-0.7-18.7-1.1C581.7,299.1,578.6,298.9,575.5,298.7z"/>
				<path class="st10" d="M586.2,283.4c-0.1,0.1-0.1,0.2-0.2,0.4c0.4,0.3,0.8,0.8,1.2,0.9c1.9,0.2,3.8,0.3,5.8,0.4
					C590.7,284.4,588.4,283.9,586.2,283.4z"/>
				<path class="st10" d="M629.1,167.7c-0.3-4-1.9-7.8-3.8-11.4C625.9,160.3,627,164.1,629.1,167.7L629.1,167.7L629.1,167.7z"/>
				<path class="st0" d="M622.3,186.1c0.1,0.1,0.3,0.1,0.4,0.2c2.3,1.1,3.7,1.4,4.9,1.2c0.3,0,0.5,0,0.8-0.1l0,0
					c0.2-0.1,0.4-0.3,0.6-0.4c1-0.5,2.1-0.8,3.1-1.4c2.9-2,2.6-5.8-0.5-7.8c0.1,0.3,0.1,0.6,0.2,0.9c1.1,2.9,0,5.5-2.8,6.6
					c-1.1,0.4-2.3,0.6-3.4,0.7C624.5,186.2,623.5,186.1,622.3,186.1z"/>
				<polygon class="st10" points="629,167.7 629,167.7 629,167.7 				"/>
				<path class="st10" d="M629,167.7L629,167.7c0.1,0.1,0.1,0.2,0.2,0.4l0.1-0.1C629.2,167.9,629.2,167.8,629,167.7
					C629.1,167.7,629,167.7,629,167.7z"/>
				<path class="st6" d="M630.5,194.8c0.5,2.1,1,4,1.5,5.9l0.4,2.1c1.7-0.2,3.4-0.5,5.1-0.7c1.3-0.2,2.4-0.9,3-2
					c0.8-1.4,0.9-2.8,0.1-4.3c-0.7-1.3-1.8-2.1-3.3-2C635,194,632.7,194.5,630.5,194.8z"/>
				<path class="st0" d="M643.9,293.8c0,0.5-0.1,0.8-0.1,1c0.1,2.6,0.2,5.3,0.2,7.9c-0.1,2.9-0.3,5.9-0.6,8.8
					c-0.4,4.9-0.9,9.8-1.4,14.8c-0.3,2.3-0.8,4.6-1.2,6.9c-2.1,12-5.3,23.8-9.5,35.2c-2.7,7.3-5.7,14.5-9.3,21.5
					c-1.1,2.1-2.1,4.4-3.1,6.5c2.6-1.4,4.6-3.4,6.1-5.8c2.1-3.3,3.9-6.8,5.8-10.2c3.7-6.6,6.8-13.6,9.5-20.7
					c2.1-5.6,4.2-11.3,6-17.1c1.8-5.8,3.3-11.7,4.8-17.6c0.3-1.2,0.6-2.2,1.9-2.6c0.5-0.2,1-0.6,1.4-0.9c4-2.9,4.1-8.4,0.3-11.6
					c-0.1,0-0.2,0.1-0.2,0.1c0.2,0.5,0.4,1.1,0.6,1.6c1.2,3.9-0.2,7.1-4,8.6c-0.5,0.2-1.2,0.1-1.8,0.3c-1.2,0.3-2.3,0.7-3.6,1.1
					c0.5-5.3,1-10.2,1.5-15.4c2.2,0.5,4.3,1,6.7,1.5c0-2.2,0-4.1-0.2-6c-0.1-0.8,0.1-1.2,0.9-1.6c1.7-0.7,3.2-1.8,3.6-3.7
					c0.6-2.7-0.8-4.7-2.9-6.3c-0.1,0-0.2,0.1-0.2,0.1c0.2,0.4,0.5,0.9,0.7,1.3c1.3,3.1,0.4,5.5-2.9,6.5c-1.6,0.5-3.4,0.6-5,0.9
					c-0.8,0.2-1.2-0.1-1.5-0.8C645.6,296.8,644.8,295.4,643.9,293.8z M647.3,303.1c0-0.5,0.1-0.9,0.1-1.5c1.1-0.1,2.2-0.2,3.5-0.3
					c0.1,1.1,0.1,2.1,0.2,3.3c-1.2-0.3-2.2-0.5-3.3-0.8C647.6,303.7,647.4,303.3,647.3,303.1z M637.9,357.9
					c3.4-11,5.4-22.4,7.5-33.8c1-0.1,2-0.3,3.2-0.4C646,335.5,642.2,346.8,637.9,357.9z"/>
				<path class="st12" d="M655,289.8C654.9,289.9,654.9,289.9,655,289.8c0,0.2,0,0.3,0.1,0.4c0.1,0,0.2-0.1,0.2-0.1
					C655.2,290,655.1,289.9,655,289.8z"/>
				<path class="st6" d="M647.2,306.2c-0.5,5.2-1,10.2-1.5,15.4c1.3-0.4,2.4-0.8,3.6-1.1c0.6-0.2,1.2-0.1,1.8-0.3
					c3.8-1.5,5.3-4.6,4-8.6c-0.2-0.5-0.4-1.1-0.6-1.6c-0.1-0.1-0.1-0.3-0.2-0.4l0.1-0.1l-0.6-1.8
					C651.6,307.2,649.4,306.7,647.2,306.2z"/>
				<path class="st12" d="M654.4,309.6L654.4,309.6c0,0.2,0,0.3,0.1,0.5c0.1,0,0.2-0.1,0.2-0.1C654.7,309.8,654.6,309.7,654.4,309.6
					z"/>
			</g>
		</g>
	</g>
	<g>
		<path class="st0" d="M480.4,108.9c-0.4-0.6-0.9-1.3-1.3-1.9c-0.1-0.1-0.2-0.2-0.3-0.4c-0.4-0.5-0.8-1-1.3-1.5
			c-0.2-0.2-0.4-0.4-0.5-0.6c-0.3-0.4-0.7-0.7-1.1-1.1c-0.3-0.3-0.7-0.7-1-1c-0.1-0.1-0.3-0.2-0.4-0.4c-0.7-0.6-1.3-1.1-2-1.7
			c-2.3-1.8-4.8-3.4-7.5-4.9c-4.9-2.7-10.4-4.9-16.5-6.5c-4.8-1.3-10-2.3-15.4-2.8v0.4v1.4l-0.4,25.2v0.4l50.8,1.4
			c0-0.1-0.1-0.3-0.1-0.4C482.7,112.5,481.6,110.6,480.4,108.9z M436.5,110.1l0.3-19.9c3.6,0.5,7.2,1.3,10.7,2.2
			c5.7,1.5,11,3.6,15.7,6.2c2.6,1.4,4.9,2.9,7,4.5c0.6,0.5,1.2,1,1.8,1.5l0.4,0.3c0.3,0.3,0.6,0.6,0.9,0.9s0.6,0.6,0.9,1
			c0.2,0.2,0.3,0.4,0.5,0.5c0.4,0.5,0.8,0.9,1.1,1.3l0.2,0.3c0.5,0.6,0.8,1.1,1.1,1.6c0.1,0.2,0.2,0.4,0.4,0.6L436.5,110.1z"/>
		<path class="st0" d="M494.7,126.7c-3.7-0.1-7.4-0.2-11.4-0.3l-2.8-0.1l-0.9,2.5c-0.8,2.1-2.4,4.1-4.2,6c-0.6-3.4-2.3-7.1-5.8-10.6
			l42.6,1.2v-3.7c-0.2-11.7-6.3-19.7-11-24.6c-5.2-5.5-11.6-10.1-20.3-14.5c-16.3-8.3-37.8-13.2-60.6-13.8l-3.8-0.1l-0.6,40.8
			l-41.4-1.1c2.6-4.1,6.7-7.6,12.4-10.7c7.3-4,15.4-6.5,24.2-7.6l3.2-0.4l0.3-20.7l-4.2,0.3c-16.7,1.3-32.2,5.7-44.9,12.7
			c-6.8,3.8-12.2,7.9-16.5,12.8c-4.9,5.5-10.5,13.1-10.8,22.3l-0.1,3.7l77.7,2.1l-0.4,26.3c-3.7-0.5-7.5-1.3-11.8-2.5
			c-16-4.4-26.6-11.7-31.7-21.6l-1-2l-32.6-0.9l2.3,5.1c0.4,0.8,9.2,19.9,35,31.6c13.8,6.3,31.7,9.9,51.8,10.4
			c1.5,0,3.1,0.1,4.6,0.1h3.7l0.6-41.3c0.1,0,0.2,0,0.4,0c10.4,0.3,12.1,5.3,12.7,6.9c1.3,3.6,0.9,8.6,0.6,13.3
			c-0.1,1.6-0.2,3.3-0.3,5c0,0.3,0,0.7,0,1c-0.1,2.7-0.2,5.5,1,7.6c2,3.6,6.5,3.7,8.1,3.7c0.7,0,1.4,0,2.2,0
			c4.1-0.2,14.3-4,16.4-4.8c23.9-9.6,32-28.3,32.3-29.1l2-4.8l-5.5-0.2C502.1,127,498.4,126.8,494.7,126.7z M475.7,157.8
			c0,0-11.4,4.3-15.1,4.5c-4.1,0.2-5.9-0.4-6.7-1.8c-0.8-1.5-0.6-4.3-0.5-6.8c0.2-6.4,1.5-13.9-0.5-19.6c-2.5-7-9.6-10.1-20.4-9.3
			l-0.6,41.1c-21.2-0.1-40.3-3.6-54.8-10.2C352.3,144.5,344,126,344,126l24.4,0.7c6.2,12.1,19.1,19.4,34.1,23.5
			c5.1,1.4,10.7,2.6,16.5,3l0.5-33.8l-77.6-2.1c0.3-8.4,5.7-15.3,10-20.2s9.7-8.8,15.5-12c11.8-6.5,26.6-10.9,43.3-12.2
			c-0.1,4.1-0.1,9.5-0.2,13.6c-9.7,1.2-18.3,4.2-25.5,8.1s-13.4,9.1-16.4,17.2l51,1.4l0.6-40.8c23.3,0.6,43.8,5.7,58.9,13.4
			c7.5,3.8,14,8.1,19.2,13.7s9.9,12.7,10,22.3c-16.4-0.5-32.9-0.9-49.2-1.4c0.4,2,2.7,2.4,4,3.3c5.1,3.5,10.3,9,8.4,18
			c1.4-0.2,3.1-1,4.1-1.9c3-2.7,6.3-5.9,7.7-9.8c8,0.2,14.9,0.4,22.9,0.6C506.1,130.6,498.5,148.7,475.7,157.8z"/>
		<path class="st5" d="M475.6,139.8c-0.9,0.9-2.7,1.7-4.1,1.9c1.9-9-3.3-14.5-8.4-18c-1.4-0.9-3.7-1.4-4-3.3
			c16.4,0.5,32.9,0.9,49.2,1.4c-0.1-9.6-4.7-16.7-10-22.3c-5.3-5.6-11.8-10-19.2-13.7C464,78,443.6,72.9,420.2,72.3l-0.6,40.8
			l-51-1.4c2.9-8.1,9.2-13.3,16.4-17.2c7.2-3.9,15.8-6.8,25.5-8.1c0.1-4.1,0.1-9.5,0.2-13.6c-16.7,1.3-31.5,5.7-43.3,12.2
			c-5.9,3.2-11.2,7.1-15.5,12s-9.7,11.9-10,20.2l77.6,2.1l-0.5,33.8c-5.8-0.4-11.4-1.6-16.5-3c-15-4.1-27.9-11.4-34.1-23.5L344,126
			c0,0,8.3,18.5,33.1,29.7c14.5,6.6,33.5,10.1,54.8,10.2l0.6-41.1c10.8-0.8,17.9,2.3,20.4,9.3c2,5.7,0.7,13.1,0.5,19.6
			c-0.1,2.5-0.4,5.3,0.5,6.8c0.8,1.4,2.7,2,6.7,1.8c3.7-0.1,15.1-4.5,15.1-4.5c22.7-9.1,30.3-27.2,30.3-27.2
			c-8-0.2-14.9-0.4-22.9-0.6C481.9,133.8,478.5,137.1,475.6,139.8z M432.7,113.6v-0.4L433,88v-1.4v-0.4c5.4,0.5,10.5,1.5,15.4,2.8
			c6.1,1.6,11.7,3.8,16.5,6.5c2.7,1.5,5.2,3.1,7.5,4.9c0.7,0.5,1.4,1.1,2,1.7c0.1,0.1,0.3,0.2,0.4,0.4c0.4,0.3,0.7,0.6,1,1
			c0.4,0.4,0.7,0.7,1.1,1.1c0.2,0.2,0.4,0.4,0.5,0.6c0.4,0.5,0.9,1,1.3,1.5c0.1,0.1,0.2,0.2,0.3,0.4c0.5,0.6,0.9,1.2,1.3,1.9
			c1.1,1.8,2.3,3.6,2.9,5.7c0,0.1,0.1,0.3,0.1,0.4L432.7,113.6z"/>
	</g>
</g>
<g>
	<path class="st5" d="M340.8,841.5h-27.1l-7-7v-14h14v7h13.1V817h-20.1l-7-7v-24.5l7-7h27.1l7,7v14h-14v-7h-13.1V803h20.1l7,7v24.5
		L340.8,841.5z"/>
	<path class="st5" d="M397,792.5L382.4,810l14.7,17.5h3.2v14h-21v-14h2.9c-1.4-1.8-2.9-3.5-4.3-5.2s-2.9-3.5-4.4-5.2h-1.7v10.5h3.5
		v14h-21v-14h3.6v-35h-3.6v-14h21v14h-3.5V803h1.7c1.5-1.8,3-3.5,4.4-5.2s2.9-3.5,4.3-5.2h-2.9v-14h21v14L397,792.5L397,792.5z"/>
	<path class="st5" d="M450,792.5L435.4,810l14.7,17.5h3.2v14h-21v-14h2.9c-1.4-1.8-2.9-3.5-4.3-5.2s-2.9-3.5-4.4-5.2h-1.7v10.5h3.5
		v14h-21v-14h3.6v-35h-3.6v-14h21v14h-3.5V803h1.7c1.5-1.8,3-3.5,4.4-5.2s2.9-3.5,4.3-5.2h-2.9v-14h21v14L450,792.5L450,792.5z"/>
	<path class="st5" d="M507,792.5h-3.5v42l-7,7h-26l-7-7v-42H460v-14h20.9v14h-3.5v35h12v-35H486v-14h21V792.5z"/>
	<path class="st5" d="M579.3,841.5h-19.4v-13.9h2.8V817h-10.8v10.6h3.5v13.9h-21v-13.9h3.6v-35.1h-3.6v-13.9h35.4l7,7v20.9l-3.5,3.5
		l3.5,3.6v14h2.6L579.3,841.5L579.3,841.5z M562.7,792.5h-10.8v10.6h10.8V792.5z"/>
	<path class="st5" d="M619.2,841.5H592l-6.9-7v-48.9l6.9-7h27.1l7,7v48.9L619.2,841.5z M612.1,792.5h-13v35.1h13V792.5z"/>
	<path class="st5" d="M677.3,778.6v14h-3.6l-12.4,25.6v9.4h3.5v13.9h-20.9v-13.9h3.5v-9.4c-1.2-2.4-2.2-4.5-3-6.3
		c-0.9-1.8-1.8-3.7-2.8-5.9c-1-2.1-2-4.1-2.9-6s-1.7-3.5-2.4-4.9s-1.1-2.2-1.2-2.5h-3.5v-14h20.9v14H649l5.2,12.8l5.5-12.8h-3.6v-14
		L677.3,778.6L677.3,778.6z"/>
	<path class="st5" d="M731.2,841.5h-20.9v-13.9h3.5L713,824h-12.5l-0.7,3.6h3.5v13.9h-20.9v-13.9h3.5l7.5-35.1h-4v-13.9h35v13.9
		h-3.9l7.5,35.1h3.5v13.9H731.2z M709.9,810l-3.3-15.1l-3.2,15.1H709.9z"/>
	<path class="st5" d="M776.6,841.5h-39.7v-13.9h3.5v-35.1h-3.5v-13.9h20.9v13.9h-3.5v35.1h8.2v-7h14L776.6,841.5L776.6,841.5z"/>
	<path class="st5" d="M816.7,841.5h-27.1l-7-7v-14h14v7h13.1V817h-20.1l-7-7v-24.5l7-7h27.1l7,7v14h-14v-7h-13.1V803h20.1l7,7v24.5
		L816.7,841.5z"/>
</g>
</svg>
