<?xml version="1.0" encoding="utf-8"?>
<!-- Generator: Adobe Illustrator 26.3.1, SVG Export Plug-In . SVG Version: 6.00 Build 0)  -->
<svg version="1.1" id="_x38_13c2686-e70f-4fb0-bf6b-a2eb7b1db384"
	 xmlns="http://www.w3.org/2000/svg" xmlns:xlink="http://www.w3.org/1999/xlink" x="0px" y="0px" viewBox="0 0 1121 851.8"
	 width="1121.04" height="851.8" style="enable-background:new 0 0 1121 851.8;" xml:space="preserve">
<style type="text/css">
	.st0{fill:none;stroke:#FFFFFF;stroke-width:16;stroke-linecap:round;stroke-linejoin:round;}
	.st1{fill:#002A5C;}
	.st2{fill:#FFFFFF;}
	.st3{fill:#B2B5B5;}
	.st4{fill:#FDCB26;}
	.st5{fill:#B1B5B5;}
	.st6{fill:#FCFCFB;}
	.st7{fill:#440D2E;}
	.st8{fill:#0A0C0C;}
	.st9{fill:#002A5C;stroke:#FFFFFF;stroke-width:6;stroke-miterlimit:10;}
</style>
<g>
	<g>
		<path class="st0" d="M413.8,577.9c10.2,3.6,20.7,6.6,30.6,10.8c11.5,4.8,22.6,10.6,33.7,16.1c6.5,3.2,9.2,2.9,13.4-2.6
			c1.3-1.7,2.8-1.5,4.4-1c18.4,5,36.7,10,55.1,14.9c2.2,0.6,3.2,1.7,3.4,3.8c0.7,7.2,5.8,9.3,11.6,8.1c8.6-1.7,17.1-3.8,25.4-6.3
			c20.8-6.3,40.6-14.8,60-24.3c0.8-0.4,2.1-0.5,2.9-0.2c8.6,2.8,17.1,5.7,25.6,8.6c24.4,8.3,48.7,16.7,74.2,21.6
			c6.5,1.3,13.1,2.7,19.7,3.1c7.9,0.5,16,0.2,23.9,0.1c12-0.2,24.1-0.4,36.1-1c14.9-0.8,29.9-1.9,44.8-3.1
			c13.3-1.1,26.4-2.8,39.4-5.6c1.6-0.3,2.9-0.1,4.3,0.8c4.9,3.2,11.5,2.6,15.7-1.3c1.2-1.1,2.1-2.5,3.2-3.8c0.2,0,0.5,0.1,0.7,0.1
			c6.4,1.8,11.8,0,14.8-5.5c2.6-4.6,5-9.5,6.8-14.5c8-22.2,10.8-45.4,12.4-68.7c0.8-11.1,1.1-22.2,1.2-33.3
			c0.1-9.7-0.2-19.5-0.8-29.2c-0.7-11.6-2-23.1-4.4-34.5c-1.8-8.5-4-16.8-8-24.7c-1.8-3.6-3.9-7.1-7.4-9.6c-6.1-4.3-13-6.6-20.6-7.3
			c-7.6-0.7-15.2-0.4-22.8,0.4c-11.8,1.2-23.5,2.3-35.3,3.5c-13,1.4-25.9,2.8-38.8,4.3c-7.3,0.8-14.5,1.8-21.8,2.6
			c-5.1,0.6-10.3,1.2-15.6,1.8c0.1-1,0.2-1.9,0.3-2.7c6.6-38.9,13.2-77.8,19.8-116.7c0.1-0.8,0.9-1.8,1.7-2.1
			c14.9-7.2,29.9-14.3,44.9-21.5c1.7-0.8,3.3-2.1,4.5-3.5c3.8-4.3,3.5-11-0.3-15.3c-3.4-3.8-10-5.9-15.5-2.9c-3.2,1.8-6.6,3.2-9,4.4
			c-1.9-1.2-3.3-2.1-4.9-3c7.4-2.6,11.8-7.4,12.2-14.8c0.3-5-1.7-9.4-4.8-13.4c-2.7-3.5-5.5-7-8.4-10.3
			c-7.5-8.6-14.9-17.2-22.7-25.6c-3.7-4-8.3-6.8-14.3-6c-2.2,0.3-4.2,1.3-6.4,1.9c-1.4-3.2-3.9-2.5-6-1.7c-4.9-7-9.4-14-14.4-20.7
			c-19.5-26.5-42.8-49.5-70-69.1c-17.1-12.3-35.2-23-54.4-31.8c-34.5-15.9-70.7-25.8-108.8-29.5c-15.8-1.5-31.7-2-47.6-1.3
			c-20.5,0.9-40.8,3.5-60.8,7.9c-13.7,3-27.2,6.6-40.4,11.1c-40.8,13.9-77.4,34.3-109,62.5c-4.4,3.9-8.3,8.2-12.5,12.2
			c-3.7,3.5-7.6,6.6-11.3,10.1c-21.1,19.7-38.8,41.9-52.9,66.7c-11.3,19.8-20.6,40.4-26.4,62.3c-6.8,25.6-11.4,51.6-12.9,78.1
			c-0.3,4.3,0.5,7.9,3.7,11.5c4.8,5.2,8.7,11.1,12.8,16.8c1.3,1.9,2.4,4.1,2.9,6.2c1.7,8,2.6,16.1,4.7,24
			c3.1,11.6,6.6,23.2,10.7,34.5c10.2,28,23,55,36.5,81.7c1,1.9,1,3.4-0.1,5.3c-3.9,6.9-7.6,13.8-11.4,20.7c-2.8,5-2.7,10,1.1,14.6
			c10.1,12.1,20.4,24.1,30.4,36.2c3.9,4.6,8.8,7.2,14.7,8.4c6.1,1.3,12.3,1.7,18.5,1.1c14.2-1.3,28.4-2.5,42.5-4.3
			c10.9-1.4,21.6-3.8,32.5-5.4c5.6-0.8,11.3-1.3,17-1.2c4.2,0.1,8.3,1.4,12.5,2c5.5,0.8,7.6,0,9.3-3.1
			C411.3,576.9,412.5,577.4,413.8,577.9z"/>
		<g id="XMLID_00000143574832842999644000000017772793897755227036_">
			<g>
				<path class="st1" d="M171.1,327.3c-0.2,4.3,0.5,7.9,3.7,11.5c4.8,5.2,8.7,11.1,12.8,16.8c1.3,1.8,2.4,4.1,2.9,6.2
					c1.7,8,2.5,16.1,4.7,24c3.1,11.6,6.6,23.2,10.7,34.5c10.2,28,23,55,36.4,81.8c1,1.9,1,3.4-0.1,5.3c-3.9,6.9-7.6,13.8-11.4,20.7
					c-2.8,5.1-2.7,10,1.1,14.6c10.1,12.1,20.4,24.1,30.4,36.2c3.9,4.6,8.8,7.2,14.7,8.4c6.1,1.3,12.3,1.7,18.5,1.1
					c11.4-1,22.9-2,34.2-3.3l-0.6-4.1c-2.2,0.2-4.4,0.4-6.7,0.6c-10.2,0.8-20.4,1.9-30.7,2.5c-5.9,0.3-11.9-0.2-17.6-2.2
					c-2.9-1-5.3-2.6-7.3-4.9c-10.3-12.3-20.7-24.5-31-36.8c-1.8-2.1-2.5-4.5-1.9-7.3c3.5,4.3,8.5,4.5,13.3,4.6
					c13.3,0.5,26.6,0.8,39.9,0.9c18.7,0.1,37.3,1.8,55.9,4.1c8.1,1,16.2,1.7,24.3,2.9c3.1,0.5,6.3,1.6,9.2,3.1
					c10.4,5.2,20.7,10.8,31.1,16.1c0.9,0.5,1.4,0.9,1.5,1.5l3.9-0.1c-0.1-1-0.5-2-0.6-3l0.1-0.1c-0.2-0.1-0.4-0.3-0.5-0.4
					c-0.2-0.3-0.4-0.5-0.6-0.8c-0.3-0.1-0.5-0.3-0.7-0.4l0,0.1c-8.2-4.3-16.4-8.5-24.7-12.8c-2.9-1.5-5.8-3-8.6-4.6
					c-5.1-2.9-10.9-3.4-16.6-4c-14.2-1.6-28.5-3.4-42.8-4.6c-4.3-0.4-8.6-0.6-12.9-0.8c-5.5-0.2-10.9-0.3-16.4-0.5
					c-2.4-0.1-4.8-0.1-7.2-0.2c-4.5-0.1-9.1-0.1-13.6-0.2c-1.9,0-3.8-0.1-5.7-0.1c-1.3,0-2.6-0.1-3.9-0.1c-2.2-0.1-4.5-0.2-6.7-0.3
					c-1.5-0.1-3-0.1-4.5-0.1c-0.1,0-0.1,0-0.2,0c-0.3,0-0.6,0-0.9,0c-1.6,0-3-1.1-3.5-2.6c-0.3-1.1-0.8-2.2-1.2-3.2
					c-1.8-2.9-2-5.6,0-8.6c2.5-3.7,4.6-7.6,6.9-11.5c1-2.5,0.2-4.8-1-7.1c-11.7-23-22.8-46.2-32-70.2c-4.9-12.7-9.4-25.6-13.2-38.6
					c-2.8-9.7-3.9-19.8-6.2-29.6c-0.8-3.4-2.3-6.6-4.3-9.5c-4.3-6.2-9.1-12.2-13.8-18.1c-1.1-1.4-1.5-2.7-1.4-4.3
					c1.2-27.1,6.1-53.6,12.9-79.7c4.6-17.7,12-34.4,20.4-50.7c17.2-33.3,40.7-62,69.8-86.5c3.6-3,6.7-6.7,10-10c1-1,2.1-1.8,3.2-2.6
					c4-3.4,7.8-6.8,11.9-10.1c3.2-2.6,6.6-4.9,9.9-7.3c0.5-0.3,1-0.6,1.4-1l0,0c0.4-0.2,0.8-0.4,1.2-0.6l0-0.1
					c0.4-0.4,0.8-1,1.4-1.4c25.9-17.9,54.2-31.6,84.6-41.1c12.6-4,25.6-7.2,38.5-10.1c18.5-4.1,37.4-6.2,56.4-6.9
					c6-0.2,11.9-0.3,17.8-0.2c2.9,0,5.8,0.1,8.6,0.2c38.2,1.4,75.3,9.1,111.2,23.6c26.3,10.6,50.7,24.3,73.2,41.1
					c29.1,21.8,53.5,47.6,73.3,77.3c1.6,2.3,3,4.7,4.5,7.1c-5.2,1.9-6.5,1.4-4,8c5.6,14.5,10.8,29.1,16.2,43.7
					c0.1,0.4,0.2,0.8,0.4,1.4c-3.5,1.2-6.9,2.3-10.4,3.5c-21.4,7.1-42.8,14.2-64.2,21.4c-7.9,2.6-15.9,5.2-23.8,7.8
					c0-0.1,0-0.2,0-0.3c-0.3,0.1-0.5,0.2-0.8,0.3c-3.2,1.1-6.5,2.2-9.7,3.3c-11.4,3.8-21.2,9.8-28.8,18.8c0.3-0.1,0.6-0.1,0.9-0.2
					c-1.9,3.3-3.9,6.5-5.8,9.8c-4.3,12.6-8.7,25.2-12.9,37.8c-7,20.8-14.1,41.6-20.9,62.5c-4.9,15-3.2,29.7,4.9,43.7
					c5.4,9.4,12.1,17.9,21.1,24.4c3.5,2.5,4.2,4.9,3.4,8.4c-0.3,1.4-0.3,2.8-0.4,4.2c-0.2,2.7-0.5,5.4-0.7,8.2
					c-0.2-0.2-0.4-0.4-0.7-0.7c0,0.2,0,0.4-0.1,0.6c0.4,1.7,0.1,2.7-2,3.1c-3.7,0.7-7.3,1.6-10.8,2.9c-11.1,3.9-17.5,11.9-21.2,22.3
					c-0.7,0.1-1.6,0.1-2.4,0.2l0.2,4.2c0.6,0,1.3,0.1,1.9-0.1c-0.6,0.9,1,3-1.5,2.8c-0.3,0-0.7-0.1-1-0.3l-0.7,1.6
					c0.7,0.3,1.4,0.6,2.1,0.9c1.6,0.2,0.9,1.3,0.8,2c-1.4,5.5-2.6,11-4.3,16.4c-1.1,3.5-1.2,6.7,1,9.8c2.1,1.8,4.3,3.1,6.7,3.7
					c2,0.6,4.2,0.7,6.6,0.3c0.2,0,0.3-0.1,0.5-0.1l-0.4-1.7c-0.5,0.1-1.1,0.1-1.6,0.2c-4.4,0.2-8.3-1-10.9-4.8
					c-0.2-1.5-0.8-3.1-0.5-4.4c1.5-6.4,3.3-12.7,5.1-19.1c0.5,0.1,0.9,0.1,1.4,0.2c0.2-0.5,0.3-1,0.5-1.4c2,0.5,4.1,1,6.1,1.6l1.1-4
					c-0.9-0.2-1.8-0.5-2.7-0.8c-3-1-2.8-1.5-2.3-4.4c0.6-3.9,2.4-7.2,4.6-10.5c4.2-6.4,10.5-10,18.1-11.6c1.5-0.3,3.1-0.6,4.5-1.2
					c3.8-1.5,7.8-0.8,11.9-0.3c-0.2-0.4-0.3-0.6-0.4-0.7c-3.6-2-4.8-4.6-4.1-8.7c0.9-4.6,0.8-9.3,1.2-14c5.7,1.9,11.3,3.7,17.1,5.7
					c-0.7,6.8-1.5,13.8-2.3,21.1c11.7,2.2,23.2,4.3,34.7,6.5c10.1,2,20.2,2.3,30.3,0.6c6.4-1.1,12.8-2.2,19.2-3.5
					c1.1-0.2,2.4-1.1,2.8-2c0.5-1.2,0-2.6-1.6-3.5c-0.8-0.4-1.2-1.5-1.8-2.2c-3.1-4-6.1-8-9.4-12.3c5.1-1.3,10.1-2.5,15.2-3.8
					c4.2,5.6,8.4,11.3,12.7,17c-2.3,1.6-4.3,3.2-6.4,4.7c0.1,0.1,0.1,0.2,0.2,0.3c5.4-1.4,10.8-2.9,16.3-4.2
					c5.1-1.2,10.2-2.3,15.3-3.4c10.6-2.4,21.2-4.8,31.7-7.3c11.3-2.7,22.6-5.3,33.8-8.4c17.6-4.8,35-9.8,52.5-14.9
					c4.5-1.3,4.4-1.5,3.3-5.7c-1.5-5.5-2.9-11-4.5-16.5c-0.5-1.7-1.3-3.4-2.1-5.4c-4.3,1-8.6,1.9-12.8,3c-11.9,3-23.8,6-35.6,8.9
					c-13.4,3.4-26.8,6.7-40.1,10.1c-5.1,1.3-10.1,2.5-15.2,3.8c-9,2.2-18.1,4.5-27.1,6.7c-13.3,3.3-26.8,6.3-39.9,10.2
					c-9.7,2.9-19.3,2.8-29.2,2.6c-10.9-0.2-21.3-3.2-31.8-5.4c-9.3-2-18.5-4.6-27.1-9.1c-6.5-3.4-11.4-8.2-15.8-13.6
					c-5.7-7.1-10.5-14.7-13-23.4c-2.8-9.9-2.5-19.7,0.8-29.3c10.8-32.1,21.7-64.2,32.5-96.3c4-11.9,12.6-19.8,23.9-25
					c7.4-3.4,15.3-5.7,23.1-8.3c19.5-6.6,39.1-13.1,58.6-19.6c14.3-4.8,28.7-9.5,43-14.3c6.5-2.1,13.3-3.7,20-5.3
					c2.7-0.7,5.5-1,8.3-1.1c2.4,0,3.8,2,3.6,4.3c-0.3,2.9-2.2,4.6-4.8,5.6c-3.3,1.2-6.6,2.2-10,3.1c-2.3,0.7-2.9,2.2-1.2,3.8
					c1.8,1.8,3.9,2.9,6.2,3.5l0.5-4.1c-0.3,0-0.6-0.1-0.9-0.1c2.1-0.7,3.8-1.1,5.4-1.8c2-0.9,4-1.8,5.6-3.1c4.4-3.4,4.8-8.6,1.4-13
					c-0.3-0.4-0.5-0.9-0.7-1.4c-3.2-1.5-6.4-2.8-10.1-2.6c-0.4,0-1-0.8-1.4-1.3c-6.8-10.6-13.5-21.3-20.3-32c-1.7-2.8-3.8-5.2-7-6.8
					c1-0.6,2.1-1,3.3-1l-0.2-3.9c-0.7,0-1.3,0-2,0.1c-2.2,0.3-4.2,1.2-6.4,1.9c-1.4-3.2-3.9-2.5-6-1.7c-4.9-7-9.4-14-14.4-20.7
					c-19.5-26.5-42.8-49.5-70-69.1c-17-12.3-35.2-23-54.4-31.8c-34.5-15.9-70.7-25.8-108.8-29.5c-15.8-1.5-31.7-2-47.6-1.3
					c-20.5,0.9-40.8,3.5-60.8,7.8c-13.7,3-27.2,6.6-40.4,11.1c-40.8,13.9-77.4,34.3-109,62.5c-4.4,3.9-8.3,8.2-12.5,12.2
					c-3.7,3.4-7.6,6.6-11.3,10.1c-21.1,19.8-38.8,41.9-52.9,66.7c-11.3,19.8-20.6,40.4-26.4,62.3
					C177.3,274.8,172.7,300.8,171.1,327.3z M678.1,485.1c0.6-5.6,1.2-10.9,1.8-16.4c3.6,0.7,7.1,1.4,10.6,2.1
					c4.2,0.9,8.3,1.7,12.4,2.7c0.7,0.2,1.7,0.6,2,1.2c2.9,5.5,5.8,11.1,8.9,17.1C701.6,489.5,689.9,487.3,678.1,485.1z M767.3,467.3
					c2.5-0.6,4.8-1.4,7.1-1.7c7-1,14.1-1.9,21.1-2.7c13-1.3,26-2.4,38.9-3.7c18.4-1.8,36.7-3.7,55-5.5c3.3-0.3,6.7-0.5,10-0.7
					c0,0.1,0,0.2,0,0.4c-10.3,2.8-20.6,5.6-30.9,8.3c-12.8,3.3-25.7,6.5-38.6,9.6c-9.7,2.3-19.5,4.5-29.3,6.7
					c-6.7,1.5-13.5,3-20.2,4.6c-1.2,0.3-1.9,0.1-2.7-0.9C774.5,476.9,771,472.3,767.3,467.3z M787.8,176.2c1.6-0.5,2.9-1,4.4-1.5
					c7.6,14.8,15.2,29.5,22.8,44.2c-3.5,1.1-6.7,2.1-10.3,3.1C799.1,206.8,793.4,191.6,787.8,176.2z M797.2,175.4
					c1.6-0.3,2.6-0.5,3.6-0.7c3.5,0.3,5.5,2.7,7.2,5.2c3.5,5.1,6.8,10.3,10.1,15.5c3.9,6.1,7.7,12.3,11.7,18.7
					c-1.9,0.5-3.7,0.9-5.5,1.3c-1.4,0.4-2.8,0.8-4.3,1.1C812.4,202.9,804.9,189.3,797.2,175.4z M809.7,457c0-0.1,0-0.2-0.1-0.3
					c5.6-1.4,11.1-2.8,16.7-4.2c11.1-2.7,22.1-5.5,33.2-8.2c10.2-2.5,20.4-5.3,30.7-7.6c4.2-1,8.7-1,13.1-1.5
					c2.6-0.3,5.3-0.4,8.3-0.6c1.1,3.8,2.3,7.8,3.5,12.1C879.9,450.1,844.8,453.5,809.7,457z"/>
				<path class="st2" d="M176.2,329.8c-0.1,1.6,0.3,2.9,1.4,4.3c4.7,5.9,9.5,11.9,13.8,18.1c2,2.9,3.5,6.1,4.3,9.5
					c2.3,9.8,3.4,19.9,6.2,29.6c3.8,13,8.3,25.9,13.2,38.6c9.3,23.9,20.4,47.2,32,70.2c1.2,2.4,1.9,4.6,1,7.1
					c0.5,0.1,1.1,0.1,1.3,0.3c3.4,3.3,7.9,4,12.3,4.8c15.6,2.7,31.2,4.9,46.7,7.7c17.8,3.2,35.5,6.8,53.2,10.3
					c6.7,1.3,13.4,2.8,20.1,4.1c4.7,0.9,8.7,3.2,12.3,6.1c15.9,12.8,32.6,24.4,50.9,33.9c7.9,4.1,16,8,24,11.9
					c6,2.9,12.2,5.8,18.2,8.6c-0.2,0.9-0.3,1.8-0.4,2.6c2.7-2.7,6.1-2.4,9.5-1.5c18.5,5,37,10,55.5,15c3.1,0.8,5.4,2.4,6.7,5.1
					c0.2,0.7,0.4,1.4,0.6,2.2c0.4,3.5,0.9,4.7,3.3,4.6c-1.7-0.2-2.2-1.5-2.5-4.5c-0.2-0.7-0.3-1.4-0.5-2c0.5-1.5,1.9-2,3.3-2.5
					c10.1-3.8,20.5-7.1,30.3-11.4c10.3-4.5,20.1-9.8,30.1-14.8c0.3-0.1,0.5-0.4,0.7-0.6c-0.2-0.1-0.4-0.1-0.6-0.2
					c-0.3-0.1-0.5-0.2-0.8-0.3c-8.1-1.9-14.9-5.5-18-13.3c-2.8-7-3.1-14.2-0.4-21.3c0.7-1.9,0.4-2.9-1.4-4.2
					c-5.5-3.7-8.8-9.6-4.7-17.6c2.4-4.6,4.2-9.4,5.2-14.5c0.9-4.9,3.8-8.1,8.4-9.3c0.8-0.2,1.6-0.3,2.5-0.4c0.8-0.1,1.6-0.1,2.4-0.2
					c3.7-10.4,10.1-18.5,21.2-22.3c3.5-1.2,7.1-2.1,10.8-2.9c2.1-0.4,2.4-1.4,2-3.1c0-0.2,0-0.4,0.1-0.6c-2.4-2.4-4.9-4.8-7.2-7.3
					c-14-15-28.1-30-42.1-45c-10-10.7-20-21.5-29.9-32.3c-1.1-1.2-2.3-2.5-3.5-3.6c-4.3-3.9-4.6-8.5-2.7-13.4
					c1-2.6,9.3-17,10.5-19.5c1.6-2.8,2.9-5.8,4.7-8.5c8.1-12,16.1-24.1,24.8-35.7c5.9-7.9,12.9-15,19.8-22.2
					c1.4-1.5,4.1-2.1,6.4-2.7c9.1-2.5,18.3-4.8,27.4-7.1c0.9-0.2,1.9-0.5,2.8-0.7c7.5-9.1,17.4-15,28.8-18.8
					c3.2-1.1,6.5-2.2,9.7-3.3c0.3-0.1,0.5-0.2,0.8-0.3c0.8-5.2,1.6-10.4,2.5-15.7c2.5-14.4,5-28.8,7.4-43.2c0.2-1,0-2.2-0.4-3.1
					c-6.6-13.4-14.4-26.1-23.2-38.4c-7.5-10.5-15.5-20.6-24.4-30c-6.1-6.5-12.5-12.7-19.1-18.8c-5.8-5.3-11.9-10.2-18.2-15
					c-10-7.6-20.6-14.2-31.9-20c-17.7-9.2-36.4-15.9-55.9-20.8c-13.9-3.5-28.2-5.7-42.5-6.9c-13.8-1.1-27.5-1.4-41.3-0.8
					c-10.5,0.4-20.8,1.7-31.1,3.1c-16.9,2.3-33.3,6.3-49.3,11.7c-14.4,4.9-28.4,10.8-41.5,18.4c-12.4,7.2-24.5,14.9-36.7,22.4
					c-0.6,0.3-1.2,0.5-1.9,0.8c4-3.4,7.8-6.8,11.9-10.1c3.2-2.6,6.6-4.9,9.9-7.3c0.5-0.3,0.9-0.6,1.4-1c0,0,0,0,0,0l0,0
					c0.2-0.1,0.4-0.2,0.7-0.3c0.1-0.1,0.3-0.1,0.4-0.2c0.1,0,0.1-0.1,0.2-0.1l0-0.1c0.4-0.4,0.8-1,1.4-1.4
					c25.9-17.9,54.2-31.6,84.6-41.1c12.6-4,25.6-7.2,38.6-10.1c18.5-4.1,37.4-6.2,56.4-6.9c5.7-0.2,11.4-0.3,17.1-0.2
					c-5.9-0.1-11.9,0-17.8,0.2c-19,0.7-37.9,2.8-56.4,6.9c-13,2.9-25.9,6.1-38.5,10.1c-30.5,9.5-58.7,23.2-84.6,41.1
					c-0.5,0.4-0.9,0.9-1.4,1.4l0,0.1c-0.4,0.2-0.8,0.4-1.2,0.6l0,0c-0.5,0.3-1,0.6-1.4,1c-3.3,2.4-6.7,4.8-9.9,7.3
					c-4.1,3.2-7.9,6.7-11.9,10.1c-1.1,0.9-2.2,1.7-3.2,2.6c-3.4,3.3-6.4,7-10,10c-29.1,24.6-52.6,53.3-69.8,86.5
					c-8.4,16.3-15.8,33.1-20.4,50.7C182.3,276.3,177.5,302.8,176.2,329.8z M179.7,334c0,0,0.1,0.1,0.1,0.1c0,0,0,0,0.1,0
					c0,0,0,0,0,0c3,0.9,5.9,1.7,8.9,2.7c17.6,5.6,35.2,11.5,52.9,16.9c20.4,6.2,40.4,13.3,60,21.7c8.4,3.6,16.7,7.2,25,10.9
					c0.8,0.4,1.6,0.8,2.3,1.7c-2.3-0.5-4.5-1.1-6.7-1.6c-12.4-2.9-24.8-5.9-37.2-8.8c-11.3-2.7-22.6-5.4-33.9-7.9
					c-13.7-2.9-27.5-5.7-41.2-8.3c-3-0.6-6.2-0.5-9.4-0.5c-1.5,0-2.3-0.3-2.9-1.7c-3.2-7.1-8.2-13.1-13-19.2
					c-1.5-1.9-3.1-3.9-4.6-5.8c0,0,0,0-0.1,0c0,0,0,0,0,0c0,0-0.1,0-0.1,0C179.7,334,179.7,334,179.7,334z M216.7,299.7
					c-2.6-3.8-2.7-8.1-1.8-12.2c3.2-14.8,6.3-29.7,10.2-44.3c4.7-17.5,12.4-34,19.8-50.6c1.8-4,4.9-7.7,7.8-11.2
					c11.5-13.9,26.7-23.6,42-33.2c15.1-9.6,30.7-18.2,47.1-25.6c11.3-5.1,22.9-9.5,34.4-14.2c0.4-0.2,0.8-0.2,1.4,0.1
					c-1.6,0.9-3.1,1.8-4.7,2.7c-1.6,0.9-3.3,1.8-4.9,2.8c-11.9,7.1-23.9,14-35.7,21.3c-7.7,4.8-15.3,9.7-22.5,15.1
					c-8.6,6.4-16.8,13.3-24.9,20.3c-5.3,4.6-10,9.8-15,14.8c-0.4,0.4-0.4,1.1-0.6,1.6c1.6-0.7,3.1-1.6,4.7-2.1
					c1.9-0.6,3.2,0.4,2.8,2.3c-0.9,4.7-2.1,9.4-3.1,14.1c-4.1,17.7-8.2,35.5-10.5,53.6c-1.6,12.3-2.7,24.5-4,36.8
					c-0.5,4.3-0.8,8.5-1.2,13.2c-4.2-2.1-8.2-4.1-12.2-6.1c0.9,1,1.7,2.1,2.8,2.9c17.1,11.2,34.2,22.5,50,35.4
					c6.4,5.2,13,10.3,19.5,15.4c0.4,0.4,0.8,0.8,1.2,1.2c-0.1,0.1-0.2,0.3-0.3,0.4c-3.6-2-7.2-3.9-10.9-5.9
					c-20.9-11.1-41.4-22.9-63.1-32.4c-6.1-2.6-12.1-5.2-18.1-8C222.7,305.9,219.1,303.3,216.7,299.7z M316.4,88.4
					c-0.6,0.3-1.3,0.4-1.9,0.6c19.1-11.6,38.5-22.3,61-28.5c-5.9,3.8-11.3,7.5-16.9,10.6c-2.5,1.4-5.9,1.4-8.7,2.5
					c-7.3,2.9-14.5,6.1-21.7,9.2C324.1,84.7,320.3,86.6,316.4,88.4z M320,354.4c-0.1,0-0.2-0.1-0.3-0.2
					C319.9,354.3,320,354.3,320,354.4c0.1,0,0.2,0.1,0.2,0.2C320.2,354.5,320.1,354.4,320,354.4z M415.7,437.2
					c-3.2-4.7-4.7-9.7-3.1-15.2c1.4-5,5.5-6.6,10.1-7.7c6.8-1.5,13.7-1.4,20.6-1c9.1,0.5,18.3,1.3,27.4,2.2
					c11.4,1.2,22.5,3.3,33.3,7.3c-3.8-5.1-7.7-10.1-11.5-15.2c-3.9-5.1-7.7-10.3-11.6-15.4c-0.1-0.1-0.2-0.3-0.3-0.4
					c0,0,0.1-0.1,0.1-0.1c0.1,0.2,0.2,0.3,0.3,0.5c0.8,0.5,1.6,0.8,2.3,1.4c13.3,10.4,25.9,21.5,37.5,33.6
					c7.9,8.3,14.4,17.4,19.7,27.4c1.4,2.7,2.8,5.5,4.1,8.3c2.7,5.9,2,8-2.6,12.5c-10.3,10.3-22.9,17.1-36.6,22.5
					c-11.1,4.4-22.5,8-34.2,10.7c-2.9,0.7-5.8,1.1-8.8,1.5c8.6-3.3,17.2-6.6,24.5-11.8c-3.3-2.2-6.5-4.2-9.6-6.3
					c-0.6-0.4-0.9-1-1.4-1.5c-0.1-0.1-0.3-0.3-0.4-0.4c-0.1-0.1-0.2-0.1-0.2-0.2c0,0,0.1,0,0.1,0c0,0,0.1,0.1,0.1,0.1
					c0.2,0.1,0.3,0.2,0.5,0.3c2.5,1.1,4.9,2.5,7.5,3.2c2.2,0.7,4.7,0.9,7.1,1c0.8,0,1.6-0.8,2.4-1.2c-4.9-0.2-9.2-2.2-13.2-4.8
					c-17.1-11.1-34-22.5-49.4-35.8C425,448,419.7,443.1,415.7,437.2z M453.6,557.8c-1-10.1,6.4-18.5,16.8-19.3
					c9.7-0.7,18.5,6.8,19.3,16.4c0.9,9.9-6.6,18.6-16.7,19.3C463.1,574.9,454.5,567.7,453.6,557.8z M509.7,57.4
					c-0.7-0.4-1.3-0.8-2.5-1.5c1.5-0.9,2.7-1.9,4.1-2.5c3.7-1.4,7.5-1.5,11.4-0.5c18.4,4.6,36.6,9.6,53.9,17.4
					c5.9,2.7,11.5,5.8,16.1,10.3c0.9,0.8,1.9,1.8,0.9,2.9c-0.7,0.7-2,1.5-2.9,1.4c-7.2-0.4-14.5-0.8-21.7-1.5
					c-2.7-0.3-5.5-1.2-7.8-2.5c-14.2-8-29.3-13.7-44.7-18.9c-2.5-0.8-4.9-1.7-7.5-2.6C509.3,58.8,509.5,58.1,509.7,57.4z
					 M529.2,397.1c-0.3-4.3,3.7-8.1,8.6-8.3c4.9-0.2,8.5,2.7,8.7,7.1c0.2,3.9-3.9,7.8-8.4,8C533.4,404.2,529.4,401.1,529.2,397.1z
					 M535.5,524.3c-2.7-4.4,0-9.1,5.5-9.9c3.8-0.5,8.3,1.6,10.2,4.7c2.7,4.5-0.5,9.7-7.2,10.1C540.9,529.1,537.6,527.7,535.5,524.3z
					 M611.2,245.6L611.2,245.6C611.2,245.6,611.2,245.6,611.2,245.6c0-0.1,0.1-0.2,0.1-0.2c0,0,0,0.1,0,0.1
					C611.3,245.5,611.3,245.6,611.2,245.6C611.2,245.6,611.2,245.6,611.2,245.6z"/>
				<path class="st3" d="M179.8,334.1c0,0-0.1-0.1-0.1-0.1C179.7,334,179.7,334,179.8,334.1C179.7,334.1,179.8,334.1,179.8,334.1z"
					/>
				<path class="st3" d="M179.8,334.1C179.8,334.1,179.8,334.1,179.8,334.1L179.8,334.1C179.8,334.1,179.8,334.1,179.8,334.1z"/>
				<path class="st1" d="M179.8,334.1C179.8,334.2,179.9,334.2,179.8,334.1C179.9,334.2,179.9,334.2,179.8,334.1L179.8,334.1z"/>
				<path class="st1" d="M179.9,334.2c1.5,1.9,3.1,3.9,4.6,5.8c4.8,6.1,9.8,12.1,13,19.2c0.6,1.4,1.5,1.7,2.9,1.7
					c3.1,0,6.3-0.1,9.4,0.5c13.8,2.6,27.5,5.4,41.2,8.3c11.3,2.5,22.6,5.2,33.9,7.9c12.4,2.9,24.8,5.9,37.2,8.8
					c2.3,0.5,4.5,1.1,6.7,1.6c-0.7-0.9-1.5-1.3-2.3-1.7c-8.3-3.6-16.7-7.3-25-10.9c-19.5-8.4-39.5-15.5-60-21.7
					c-17.7-5.4-35.3-11.3-52.9-16.9C185.8,335.9,182.9,335.1,179.9,334.2z"/>
				<path class="st1" d="M214.8,287.5c-0.9,4.1-0.7,8.4,1.8,12.2c2.5,3.7,6,6.2,10.1,8.1c6,2.8,12.1,5.3,18.1,8
					c21.8,9.5,42.2,21.3,63.1,32.4c3.6,1.9,7.3,3.9,10.9,5.9c0.1-0.1,0.2-0.3,0.3-0.4c-0.4-0.4-0.8-0.8-1.2-1.2
					c-6.5-5.1-13.1-10.2-19.5-15.4c-15.8-12.9-32.8-24.2-50-35.4c-1.1-0.7-1.9-1.9-2.8-2.9l0,0.1c-0.2-0.1-0.3-0.3-0.5-0.4
					c-0.2-0.1-0.3-0.2-0.5-0.3c-3.4-1.9-6.4-4.1-8.3-7.5c-1.5-2.5-2.2-5-1.6-7.9c5.9-30,14.3-59.3,27-87.2c1.4-3,4.5-5.3,6.8-7.9
					c-0.1-0.2-0.1-0.4-0.2-0.6c0.2,0,0.5-0.1,0.7-0.1c0,0.1,0.1,0.1,0.2,0.1c0.2-0.5,0.2-1.2,0.6-1.6c4.9-5,9.7-10.2,15-14.8
					c8.1-7,16.3-13.8,24.9-20.3c7.2-5.4,14.8-10.3,22.5-15.1C344,128,356,121,367.9,113.9c1.6-1,3.3-1.9,4.9-2.8
					c1.6-0.9,3.1-1.8,4.7-2.7c-0.6-0.3-1-0.2-1.4-0.1c-11.5,4.7-23.1,9.1-34.4,14.2c-16.4,7.4-32.1,16-47.1,25.6
					c-15.2,9.6-30.5,19.3-42,33.2c-2.9,3.5-5.9,7.1-7.8,11.2c-7.5,16.5-15.1,33.1-19.8,50.6C221.1,257.8,218,272.7,214.8,287.5z"/>
				<path class="st4" d="M234.8,282.7c-0.6,2.9,0.2,5.4,1.6,7.9c1.9,3.4,4.9,5.6,8.3,7.5c0.2,0.1,0.3,0.2,0.5,0.3
					c0.2,0.1,0.3,0.3,0.5,0.4l0-0.1c4,2,8,4,12.2,6.1c0.4-4.6,0.8-8.9,1.2-13.2c1.3-12.3,2.4-24.6,4-36.8
					c2.3-18.1,6.4-35.8,10.5-53.6c1.1-4.7,2.2-9.4,3.1-14.1c0.4-1.9-0.9-2.8-2.8-2.3c-1.6,0.5-3.1,1.4-4.7,2.1c-0.1,0-0.2,0-0.2-0.1
					c-0.2,0.2-0.3,0.5-0.5,0.7c-2.3,2.6-5.4,4.9-6.8,7.9C249.1,223.5,240.8,252.7,234.8,282.7z"/>
				<path class="st2" d="M234.1,532.9c-0.6,2.9,0.2,5.3,1.9,7.3c10.3,12.3,20.7,24.5,31,36.8c2,2.3,4.4,3.8,7.3,4.9
					c5.7,2,11.7,2.6,17.6,2.2c10.2-0.6,20.4-1.6,30.7-2.5c2.2-0.2,4.5-0.4,6.7-0.6c15.5-1.7,30.8-4.8,46.1-7.4
					c5.4-0.9,10.9-1,16.3,0.1c3.4,0.7,6.8,1.3,10.2,1.7c0.9,0.1,2.4-0.2,2.9-0.8c1.5-2.1,2.5-4.5,3.8-6.7c0.4-0.7,0.6-1.2,0.5-1.7
					c-0.1-0.6-0.6-1-1.5-1.5c-10.4-5.3-20.6-10.9-31.1-16.1c-2.8-1.4-6-2.6-9.2-3.1c-8.1-1.2-16.2-1.9-24.3-2.9
					c-18.6-2.3-37.2-4-55.9-4.1c-13.3,0-26.6-0.4-39.9-0.9C242.6,537.4,237.6,537.2,234.1,532.9z"/>
				<path class="st1" d="M241.3,518.8c-2,3-1.8,5.7,0,8.6c0.3,0.1,0.5,0.1,0.8,0.2c0,0,0-0.1,0-0.1c2.9,0.5,5.8,1.2,8.8,1.5
					c3.2,0.2,6.4,0.4,9.6,0.6c2.2,0.1,4.3,0.2,6.4,0.2c9.4,0.1,18.8-0.1,28.1,0.1c0.2,0,0.5,0,0.7,0c1.8,0,3.5,0.1,5.3,0.2
					c16.4,0.6,32.7,2.7,48.9,5.3c10.7,1.7,21.3,3.7,32,5.5c3.1,0.5,5.6,1.9,8,3.8c7,5.4,14,10.8,21,16.3c0.2,0.2,0.3,0.6,0.4,0.9
					c-0.3-0.2-0.6-0.3-0.9-0.5c0.1,0.2,0.1,0.3,0.2,0.5l0-0.1c0.2,0.1,0.5,0.3,0.7,0.4c0.2,0.2,0.4,0.5,0.6,0.8
					c0.2,0.1,0.4,0.3,0.5,0.4l-0.1,0.1c0.3,0.1,0.5,0.3,0.8,0.4c0-0.1-0.1-0.2-0.1-0.3c1.2,0.6,2.4,1.1,3.5,1.7
					c7.2,4.2,14.2,8.8,21.5,12.7c13.3,7.1,26.8,13.7,40.3,20.5c1.7,0.9,3.4,1.8,5.4,1.9c0.4,0,0.8-0.1,1.2-0.1l0.1-0.1l0-0.1
					c0.2-0.2,0.4-0.5,0.6-0.7l0.2-0.1l0-0.2c0.1-0.2,0.3-0.4,0.4-0.6l0,0.1c0.2-0.2,0.3-0.3,0.4-0.5l0,0.1c0.1-0.8,0.3-1.6,0.4-2.6
					c-6-2.8-12.1-5.7-18.2-8.6c-8-3.9-16.1-7.8-24-11.9c-18.3-9.5-35-21.1-50.9-33.9c-3.6-2.9-7.6-5.1-12.3-6.1
					c-6.7-1.4-13.4-2.8-20.1-4.1c-17.7-3.5-35.5-7.1-53.2-10.3c-15.5-2.8-31.2-5.1-46.7-7.7c-4.4-0.7-8.9-1.4-12.3-4.8
					c-0.3-0.3-0.9-0.2-1.3-0.3C245.9,511.2,243.8,515.1,241.3,518.8z"/>
				<path class="st1" d="M242.1,527.6c-0.3-0.1-0.5-0.1-0.8-0.2c0.4,1.1,0.9,2.1,1.2,3.2c0.4,1.5,1.8,2.6,3.5,2.6c0.3,0,0.6,0,0.9,0
					c-2-0.1-3.1-0.7-3.7-2.6C242.9,529.6,242.5,528.6,242.1,527.6z"/>
				<path class="st1" d="M242,527.4c0,0,0,0.1,0,0.1c2.7,0.5,5.3,1.1,8,1.3c3.4,0.3,6.9,0.5,10.4,0.6c-3.2-0.1-6.4-0.3-9.6-0.6
					C247.9,528.7,245,527.9,242,527.4z"/>
				<path class="st1" d="M242.1,527.6c0.4,1,0.8,2.1,1.1,3.1c0.5,1.9,1.7,2.5,3.7,2.6c0.1,0,0.1,0,0.2,0c1.5,0,3,0.1,4.5,0.1
					c2.2,0.1,4.5,0.2,6.7,0.3c1.3,0.1,2.6,0.1,3.9,0.1c1.9,0,3.8,0.1,5.7,0.1c4.5,0.1,9.1,0.1,13.6,0.2c2.4,0.1,4.8,0.1,7.2,0.2
					c5.5,0.2,10.9,0.3,16.4,0.5c4.6,0.2,9.1,0.4,13.7,0.8c14.3,1.2,28.5,2.9,42.8,4.6c5.7,0.7,11.5,1.2,16.6,4
					c2.8,1.6,5.7,3.1,8.6,4.6c7.9,4.1,15.8,8.2,23.8,12.3c-0.1-0.2-0.1-0.3-0.3-0.4c-7-5.4-14-10.9-21-16.3c-2.4-1.8-4.9-3.2-8-3.8
					c-10.7-1.8-21.3-3.8-32-5.5c-16-2.5-32.1-4.6-48.2-5.3c-1.8-0.1-3.5-0.1-5.3-0.2c-9.4-0.2-18.8,0.1-28.1-0.1c-0.2,0-0.5,0-0.7,0
					c-2.2,0-4.3-0.1-6.4-0.2c-3.5-0.1-6.9-0.3-10.4-0.6C247.4,528.7,244.7,528,242.1,527.6z"/>
				<path class="st2" d="M268.3,187c0.1,0.2,0.2,0.4,0.2,0.6c0.2-0.2,0.3-0.5,0.5-0.7C268.8,186.9,268.6,187,268.3,187z"/>
				<path class="st1" d="M267.9,533.9c4.5,0.1,9.1,0.1,13.6,0.2C277,534,272.4,534,267.9,533.9z"/>
				<path class="st1" d="M293.3,100.2c0.6-0.3,1.3-0.4,1.9-0.8c12.2-7.5,24.3-15.2,36.7-22.4c13.1-7.6,27-13.5,41.5-18.4
					c16-5.4,32.4-9.4,49.3-11.7c10.3-1.4,20.7-2.7,31.1-3.1c13.8-0.6,27.6-0.3,41.3,0.8c14.4,1.2,28.6,3.3,42.5,6.9
					c19.4,4.9,38.1,11.6,55.9,20.8c11.2,5.8,21.9,12.4,31.9,20c6.3,4.8,12.4,9.7,18.2,15c6.6,6,13,12.3,19.1,18.8
					c8.9,9.4,16.9,19.5,24.4,30c8.7,12.3,16.6,25,23.2,38.4c0.5,0.9,0.6,2.1,0.4,3.1c-2.4,14.4-4.9,28.8-7.4,43.2
					c-0.9,5.2-1.7,10.4-2.5,15.7c7.7-2.5,15.3-5,23-7.6c0.2-0.1,0.5-0.2,0.7-0.2c0-0.1,0-0.1,0-0.2c2.8-19.4,5.6-38.9,8.5-58.3
					c0.4-2.3-0.1-4.2-1.4-6.1c-9.4-14.8-20.1-28.6-31.4-42.2c-10.4-12.4-21.8-24-34.2-34.7c-10.6-9.1-21.6-17.7-32.7-26.3
					c-3.9-3-8.2-5.8-12.7-8C610.5,68,600.4,63.1,590,59c-11.7-4.6-23.6-8.6-35.7-12.3c-15-4.5-30.4-7.6-45.9-9.8
					c-13.2-1.8-26.5-2.9-39.7-2.5c-12.7,0.4-25.5,1-38,3.8c-9.6,2.2-19.3,4.2-28.8,6.8c-15,4.1-29.6,9.2-43.6,15.7
					c-11.7,5.5-23.2,11.6-34.7,17.4c-2,1-3.9,2-5.9,2.9l0,0.1c-0.1,0-0.1,0.1-0.2,0.1c-0.1,0.1-0.3,0.1-0.4,0.2
					c-0.2,0.1-0.4,0.2-0.7,0.3l0,0c0,0,0,0,0,0c-0.5,0.3-0.9,0.6-1.4,1c-3.3,2.4-6.7,4.8-9.9,7.3C301.1,93.4,297.2,96.8,293.3,100.2
					z"/>
				<path class="st4" d="M314.4,89c0.7-0.2,1.3-0.4,1.9-0.6c3.9-1.8,7.8-3.7,11.7-5.5c7.2-3.2,14.4-6.3,21.7-9.2
					c2.8-1.1,6.1-1.1,8.7-2.5c5.7-3.1,11-6.8,16.9-10.6C352.9,66.7,333.5,77.4,314.4,89z"/>
				<path class="st2" d="M317.6,81.2c2-1,3.9-2,5.9-2.9c11.5-5.8,23-11.9,34.7-17.4c14-6.5,28.6-11.6,43.6-15.7
					c9.5-2.6,19.2-4.7,28.8-6.8c12.4-2.8,25.2-3.4,38-3.8c13.3-0.5,26.5,0.7,39.7,2.5c15.6,2.1,30.9,5.2,45.9,9.8
					c12.1,3.7,24,7.7,35.7,12.3c10.5,4.1,20.6,9,30.6,13.8c4.5,2.2,8.8,5,12.7,8c11,8.6,22.1,17.3,32.7,26.3
					c12.4,10.6,23.8,22.2,34.2,34.7c11.3,13.5,22,27.4,31.4,42.2c1.2,1.9,1.7,3.8,1.4,6.1c-2.9,19.4-5.7,38.9-8.5,58.3
					c0,0.1,0,0.1,0,0.2c21.2-7,42.3-14.1,63.5-21.1c3.5-1.2,7-2.3,10.4-3.5c-0.2-0.7-0.2-1.1-0.3-1.4c-5.4-14.6-10.6-29.2-16.2-43.7
					c-2.5-6.6-1.2-6.1,4-8c-1.5-2.4-3-4.8-4.5-7.1c-19.8-29.7-44.1-55.5-73.3-77.3c-22.5-16.8-46.9-30.5-73.2-41.1
					C599.1,31,562.3,23.2,524.3,21.7c-2.9-0.1-5.7-0.2-8.6-0.2c-5.7-0.1-11.4,0-17.1,0.2c-19,0.7-37.9,2.8-56.4,6.9
					c-13,2.9-25.9,6.1-38.6,10.1C373.2,48.3,344.9,62,319,79.8C318.5,80.2,318.1,80.7,317.6,81.2z"/>
				<path class="st1" d="M305.1,534.8c4.3,0.2,8.6,0.4,12.9,0.8c14.3,1.2,28.5,2.9,42.8,4.6c5.7,0.7,11.5,1.2,16.6,4
					c2.8,1.6,5.7,3.1,8.6,4.6c8.2,4.3,16.4,8.5,24.7,12.8c-0.1-0.1-0.1-0.3-0.2-0.5c-7.9-4.1-15.9-8.2-23.8-12.3
					c-2.9-1.5-5.8-3-8.6-4.6c-5.2-2.9-10.9-3.4-16.6-4c-14.2-1.6-28.5-3.4-42.8-4.6C314.2,535.2,309.7,535,305.1,534.8z"/>
				<path class="st5" d="M319.7,354.2c0.1,0.1,0.2,0.1,0.3,0.2l0,0C320,354.3,319.9,354.3,319.7,354.2z"/>
				<path class="st5" d="M320.1,354.3L320.1,354.3c0,0.1,0.1,0.1,0.2,0.2C320.2,354.4,320.1,354.4,320.1,354.3z"/>
				<path class="st1" d="M329.3,581l0.6,4.1c2.8-0.3,5.5-0.6,8.3-1c10.9-1.4,21.6-3.8,32.5-5.4c5.6-0.8,11.3-1.3,17-1.2
					c4.2,0.1,8.4,1.4,12.5,2.1c5.5,0.8,7.6,0,9.3-3.1c1.3,0.5,2.5,1.1,3.8,1.5c10.2,3.6,20.7,6.6,30.6,10.8
					c11.5,4.8,22.6,10.6,33.7,16.1c6.5,3.2,9.2,2.9,13.4-2.6c1.3-1.7,2.8-1.5,4.4-1.1c18.4,5,36.7,10,55.1,14.9
					c2.2,0.6,3.2,1.7,3.4,3.8c0.7,7.2,5.8,9.3,11.6,8.1c8.6-1.7,17.1-3.8,25.4-6.3c20.8-6.3,40.6-14.8,60-24.3
					c0.8-0.4,2.1-0.5,2.9-0.2c8.6,2.8,17.1,5.7,25.6,8.6c24.4,8.3,48.7,16.7,74.2,21.6c6.5,1.3,13.1,2.7,19.7,3.1
					c7.9,0.5,16,0.2,23.9,0.1c12-0.2,24.1-0.4,36.1-1c14.9-0.8,29.9-1.9,44.8-3.1c13.3-1.1,26.4-2.8,39.4-5.6
					c1.6-0.4,2.9-0.1,4.3,0.8c4.9,3.2,11.5,2.6,15.7-1.3c1.2-1.1,2.1-2.5,3.2-3.8c0.2,0,0.5,0.1,0.7,0.2c6.4,1.8,11.8,0,14.8-5.5
					c2.6-4.6,5-9.5,6.8-14.5c8-22.2,10.8-45.4,12.3-68.7c0.7-11.1,1.1-22.2,1.2-33.3c0.1-9.7-0.2-19.5-0.7-29.2
					c-0.7-11.6-2-23.1-4.4-34.5c-1.8-8.5-4-16.8-8-24.7c-1.8-3.6-3.9-7.1-7.4-9.6c-6.1-4.3-13-6.6-20.6-7.3
					c-7.7-0.7-15.2-0.4-22.8,0.4c-11.7,1.2-23.5,2.3-35.3,3.5c-12.9,1.3-25.9,2.8-38.8,4.3c-7.3,0.8-14.5,1.8-21.8,2.6
					c-5.1,0.6-10.3,1.2-15.6,1.8c0.1-1,0.2-1.9,0.3-2.7c6.6-38.9,13.2-77.8,19.8-116.7c0.1-0.8,0.9-1.8,1.7-2.2
					c14.9-7.2,29.9-14.3,44.9-21.5c1.7-0.8,3.3-2.1,4.5-3.5c3.8-4.4,3.5-11-0.3-15.3c-3.4-3.8-10-5.9-15.5-2.9
					c-3.2,1.8-6.6,3.2-9,4.4c-1.9-1.2-3.4-2.1-4.9-3c7.4-2.6,11.8-7.4,12.2-14.8c0.3-5-1.7-9.4-4.8-13.4c-2.7-3.5-5.5-7-8.4-10.3
					c-7.3-8.4-14.5-16.8-22.1-24.9l-3.2,2.6c0.1,0.1,0.3,0.2,0.3,0.4c0.9,7,5.6,12.2,9.6,17.7c1.6,2.2,3.6,4.2,5.6,6.1
					c0.7,0.6,1.9,0.7,2.9,1.1c0.1-1,0.2-1.9,0.3-2.9c0-0.3-0.1-0.5-0.1-1.3c1.7,2,3.1,3.6,4.5,5.3c2.8,3.6,5.8,7.1,8.3,10.8
					c2.2,3.3,3,7.1,2.1,10.9c-0.9,4.3-3.7,7.1-8.1,8.4l0,0c-0.4,0.2-0.9,0.3-1.3,0.5c-2,1-4.6,1.2-9.2,0.6l-0.5,4.1
					c0.8,0.2,1.6,0.3,2.5,0.3c2.3,0,4,0.7,5.7,2.2c5.1,4.7,10.4,9.2,16,13.5c-1.8-3.1-3.7-6.2-5.7-9.5c3.7-1.8,7.4-3.7,11.3-5.2
					c2.5-1,4.9-0.1,6.8,1.7c2.2,2.1,2.8,4.7,2.1,7.5c-0.5,2.3-2,4-4.2,5c-2.8,1.3-5.6,2.7-8.5,4c-12.9,6.1-25.7,12.1-38.6,18.2
					c-1.1,0.5-1.7,1.1-1.9,2.3c-6.6,39.4-13.3,78.8-20,118.2c-0.4,2.2-1.1,4.3-1.5,6.4c-0.9,3.9-0.2,7.6,2.7,10.4
					c3.9,3.8,8.3,7.3,12.7,10.7c2.3,1.8,5,3.1,7.5,4.8c1.3,0.9,2.5,0.9,4,0.6c10.5-2.4,21-4.8,31.6-7.1c8.2-1.8,16.4-3.5,24.7-5.2
					c0.9-0.2,2,0.5,3,0.3c2.2-0.4,4.4-1.1,6.5-1.7c14.9-4,29.7-8,44.6-12.1c0.7-0.2,1.4-0.4,2.1-0.7c0-0.1-0.1-0.2-0.1-0.4
					c-3.7,0.5-7.4,0.9-11,1.5c-6.3,0.9-12.6,1.9-19,2.8c-7.1,1.1-14.1,2.2-21.2,3.3c-5.3,0.8-10.7,1.5-16,2.2
					c-10.7,1.4-21.4,2.9-32.1,4.2c-6.8,0.9-13.6,1.6-20.3,2.4c-0.5,0.1-1.2,0-1.6-0.2c-4-2.9-8.2-5.6-10.9-9.7c-0.6-1-1-2.1-1.5-3.3
					c4.7-0.6,9.2-1.3,13.6-1.8c17.6-2,35.2-4,52.8-5.9c18.9-2,37.8-3.9,56.8-5.5c6.1-0.5,12.4,0.1,18.4,1.6
					c9.4,2.3,15.3,8.1,18.6,16.7c2.9,7.7,5.3,15.6,6.5,23.7c1.5,10.5,3,21,3.8,31.5c0.7,9.3,0.8,18.6,0.7,28
					c-0.1,10.2-0.4,20.4-1.1,30.5c-1.5,23-4.1,45.9-11.6,67.9c-1.7,5.1-4.3,9.9-6.5,14.8c-2.5,5.4-8.9,5.8-12.6,2
					c-0.6-0.6-1.1-1.2-2-2.1c-0.7,2.3-1.2,4-1.7,5.7c-0.9,2.9-3,4.6-6,5.1c-2.9,0.5-5.8-0.4-7.2-2.9c-0.8-1.4-0.6-3.4-0.7-5.2
					c-0.1-0.9,0.1-1.9-0.3-3c-1.2,2.2-2.4,4.4-3.5,6.7c-0.5,1-1.1,1.6-2.5,1.8c-10,1.4-19.9,3.4-29.9,4.4
					c-16.2,1.6-32.5,2.9-48.8,3.9c-12.7,0.7-25.4,0.9-38,1.2c-8.3,0.2-16.7,0.5-25,0c-6.2-0.4-12.3-1.7-18.5-2.9
					c-24.2-4.7-47.4-12.3-70.6-20.3c-19.2-6.6-38.5-13.2-57.7-19.7c-2.7-0.9-5.6-1.5-8.3-2.5c-6.3-2.3-9.4-7-10.5-13.1
					c-1-5.4-0.5-10.6,1.6-15.4c5,1.2,10,2.3,15,3.5l1-3.9c-2.6-0.7-5.2-1.3-7.9-2c-1.9-0.5-3.8-1-5.7-1.5c-0.6-0.1-1-0.7-1.5-1.1
					c-1.5-0.7-3-1.4-4.6-2.1c-4.2-2.8-6.4-6.7-4.3-12.1c2.4-6,4.4-12.2,6.6-18.4c0.3-0.7,0.7-1.4,0.9-1.8c1.1,0.4,2.1,0.9,3.1,1.3
					l0.7-1.6c-0.6-0.3-1.1-0.7-1.1-0.9c0.1-1.3,0.8-1.5,1.7-1.5l-0.2-4.2c-0.8,0.1-1.7,0.2-2.5,0.4c-4.6,1.2-7.5,4.4-8.4,9.3
					c-0.9,5-2.8,9.9-5.2,14.5c-4.1,8-0.8,14,4.7,17.6c1.8,1.2,2.1,2.3,1.4,4.2c-2.7,7.1-2.4,14.3,0.4,21.3c3.1,7.8,9.9,11.4,18,13.3
					c0.3,0.1,0.5,0.2,0.8,0.3c0.2,0.1,0.4,0.1,0.6,0.2c0.1-0.1,0.1-0.1,0.2-0.2c2.7,0.9,5.3,1.8,8,2.8c4.3,1.4,8.7,2.8,13,4.3
					c0,0.2,0,0.4,0,0.5c-8.3,3.7-16.6,7.5-25,11c-13.5,5.6-27.4,10.6-41.6,14.4c-4.1,1.1-8.3,1.9-12.4,2.7c-1.5,0.3-2.7,0.5-3.5,0.4
					l0,0c-2.4,0.1-2.9-1.1-3.3-4.6c-0.2-0.7-0.4-1.5-0.6-2.2c-1.3-2.8-3.6-4.3-6.7-5.1c-18.5-5-37-10-55.5-15
					c-3.4-0.9-6.7-1.2-9.5,1.5l0-0.1c-0.1,0.2-0.3,0.3-0.4,0.5l0-0.1c-0.1,0.2-0.2,0.4-0.4,0.6l0,0.2l-0.2,0.1
					c-0.2,0.2-0.4,0.4-0.6,0.7l0,0.1l-0.1,0.1c0,0-0.1,0.1-0.1,0.1c0.3,0,0.5-0.1,0.8-0.1c-1,1.4-1.5,1.9-2.5,1.7
					c-0.7,0.2-1.6-0.3-3.5-1.2c-10.5-5.1-20.9-10.2-31.5-15.2c-10.2-4.8-20.9-8.2-31.7-11.5c-2.6-0.8-4-3.4-3.6-6
					c0.1-0.5,0.1-1.1,0-1.6l-3.9,0.1c0.1,0.5-0.1,1-0.5,1.7c-1.3,2.2-2.3,4.6-3.8,6.7c-0.4,0.6-1.9,1-2.9,0.8
					c-3.4-0.4-6.9-1-10.2-1.7c-5.5-1.1-10.9-1-16.3-0.1C360.1,576.3,344.8,579.4,329.3,581z M820,424.9c0-0.2,0.1-0.5,0.1-0.7
					c4.2-0.3,8.4-0.6,12.8-0.9c-3.5,0.9-6.9,1.8-10.3,2.4C821.8,425.9,820.9,425.2,820,424.9z M820,181.9c5.3,5.3,10,10.9,12.8,17.8
					c0.2,0.2,0.3,0.3,0.5,0.5c-0.1,0.1-0.1,0.2-0.2,0.2c-0.2-0.2-0.4-0.3-0.6-0.5C827.2,194.5,823.1,188.6,820,181.9z"/>
				<path class="st1" d="M301.1,529.9c16.2,0.7,32.2,2.8,48.2,5.3c10.7,1.7,21.3,3.7,32,5.5c3.1,0.5,5.6,1.9,8,3.8
					c7,5.4,14,10.8,21,16.3c0.1,0.1,0.2,0.3,0.3,0.4c0.3,0.2,0.6,0.3,0.9,0.5c-0.1-0.3-0.2-0.7-0.4-0.9c-7-5.4-14-10.9-21-16.3
					c-2.4-1.8-4.9-3.2-8-3.8c-10.7-1.8-21.3-3.8-32-5.5C333.8,532.6,317.5,530.5,301.1,529.9z"/>
				<path class="st2" d="M412.6,422c-1.6,5.5-0.1,10.5,3.1,15.2c4,5.9,9.3,10.8,14.7,15.6c15.3,13.3,32.2,24.7,49.4,35.8
					c4,2.6,8.3,4.5,13.2,4.8c4.7,0,8.7-1.7,12.3-4.3c7.6-5.5,15.1-11,22.6-16.5c0.7-0.5,1.2-1.1,1.8-1.7c3.3-3.7,3.5-5.3,0.7-9.5
					c-7.7-11.8-15.4-23.5-23.1-35.2c-0.8-1.2-2.2-2.1-3.4-3.2c-10.7-4-21.9-6.1-33.3-7.3c-9.1-0.9-18.2-1.7-27.4-2.2
					c-6.9-0.4-13.8-0.5-20.6,1C418,415.3,414,417,412.6,422z"/>
				<path class="st1" d="M413.2,563.4c-0.3-0.1-0.5-0.2-0.8-0.4c0.2,1,0.5,2,0.6,3c0.1,0.5,0.1,1.1,0,1.6c-0.4,2.5,1,5.2,3.6,6
					c10.8,3.2,21.5,6.7,31.7,11.5c10.5,5,21,10.1,31.5,15.2c1.9,0.9,2.8,1.4,3.5,1.2c-0.6-0.1-1.4-0.6-2.7-1.2
					c-10.5-5.1-20.9-10.2-31.5-15.2c-10.2-4.8-20.9-8.2-31.7-11.5c-2.6-0.8-4-3.4-3.6-6C414,566.3,413.5,564.9,413.2,563.4z"/>
				<path class="st1" d="M413.2,563.1c0,0.1,0,0.2,0.1,0.3c1,0.5,1.9,0.9,2.8,1.4c6.3,3.8,12.4,7.8,18.9,11.3
					c14.1,7.5,28.5,14.7,42.8,21.9c1.9,1,3.9,2,6.1,2c-2-0.2-3.7-1.1-5.4-1.9c-13.5-6.8-27-13.5-40.3-20.5
					c-7.4-3.9-14.4-8.4-21.5-12.7C415.5,564.1,414.3,563.6,413.2,563.1z"/>
				<path class="st1" d="M413.8,567.7c-0.4,2.5,1,5.2,3.6,6c10.8,3.2,21.5,6.7,31.7,11.5c10.5,5,21,10.1,31.5,15.2
					c1.3,0.6,2.1,1,2.7,1.2c0.6-0.1,1-0.6,1.7-1.6c-0.4,0-0.7,0-1.1,0c-2.2,0.1-4.2-1-6.1-2c-14.3-7.2-28.7-14.3-42.8-21.9
					c-6.5-3.4-12.6-7.4-18.9-11.3c-0.9-0.5-1.9-1-2.8-1.4C413.5,564.9,414,566.3,413.8,567.7z"/>
				<path class="st1" d="M470.4,538.5c-10.4,0.7-17.7,9.1-16.8,19.3c0.9,9.9,9.5,17.1,19.4,16.4c10.1-0.7,17.6-9.4,16.7-19.3
					C488.9,545.3,480.1,537.8,470.4,538.5z M458.4,557.4c-0.6-7.2,4.8-13.7,12.1-14.2c7.1-0.6,13.5,4.9,14.2,12.1
					c0.7,7.4-4.7,13.8-12.1,14.3C465.5,570,459,564.5,458.4,557.4z"/>
				<path class="st6" d="M470.5,543.1c-7.3,0.6-12.8,7-12.1,14.2c0.6,7.1,7.1,12.7,14.2,12.2c7.4-0.5,12.8-6.9,12.1-14.3
					C484,548,477.6,542.5,470.5,543.1z M461.3,556.7c-0.3-4.2,4.6-9.1,9.6-9.4c5.3-0.3,10,3.5,10.4,8.5c0.5,5.2-3.5,9.6-9.2,10
					C466.9,566.1,461.7,561.7,461.3,556.7z"/>
				<path class="st1" d="M470.9,547.3c-4.9,0.3-9.9,5.2-9.6,9.4c0.4,5,5.6,9.3,10.8,9c5.7-0.4,9.7-4.8,9.2-10
					C480.9,550.7,476.2,546.9,470.9,547.3z M463.9,557.2c-0.4-4.1,2.7-7.8,7-8.1c4.3-0.3,8,2.6,8.4,6.7c0.4,4.1-2.7,7.8-6.9,8.2
					C468.2,564.4,464.3,561.2,463.9,557.2z"/>
				<path class="st6" d="M470.9,549.1c-4.2,0.3-7.4,4-7,8.1c0.4,4,4.3,7.2,8.4,6.8c4.2-0.4,7.3-4.1,6.9-8.2
					C478.9,551.7,475.1,548.7,470.9,549.1z"/>
				<path class="st1" d="M462.4,510.1c3-0.3,5.9-0.8,8.8-1.5c11.7-2.7,23.1-6.3,34.2-10.7c13.7-5.4,26.3-12.2,36.6-22.5
					c4.5-4.5,5.2-6.6,2.6-12.5c-1.3-2.8-2.6-5.6-4.1-8.3c-5.3-9.9-11.9-19.1-19.7-27.4c-11.5-12.2-24.2-23.2-37.5-33.6
					c-0.7-0.6-1.5-0.9-2.3-1.4l-0.1,0.1c3.9,5.1,7.7,10.3,11.6,15.4c3.8,5.1,7.7,10.1,11.5,15.2c1.2,1.1,2.6,2,3.4,3.2
					c7.8,11.7,15.4,23.5,23.1,35.2c2.7,4.2,2.6,5.9-0.7,9.5c-0.5,0.6-1.1,1.2-1.8,1.7c-7.5,5.5-15.1,11-22.6,16.5
					c-3.6,2.6-7.6,4.3-12.3,4.3c-0.8,0.4-1.6,1.3-2.4,1.2c-2.4-0.1-4.8-0.3-7.1-1c-2.6-0.8-5-2.1-7.5-3.2c0,0,0,0.1-0.1,0.1
					c0.4,0.5,0.8,1.1,1.4,1.5c3.1,2.1,6.3,4.1,9.6,6.3C479.6,503.5,471,506.7,462.4,510.1z"/>
				<path class="st5" d="M475.3,489.9c0.1,0,0.2,0.1,0.2,0.2l0,0c0,0-0.1-0.1-0.1-0.1C475.4,489.9,475.3,489.9,475.3,489.9z"/>
				<path class="st5" d="M475.5,490L475.5,490c0.1,0.1,0.3,0.3,0.4,0.4c0,0,0.1-0.1,0.1-0.1C475.9,490.3,475.7,490.2,475.5,490z"/>
				<path class="st5" d="M480.5,391.8c0.1,0.1,0.2,0.3,0.3,0.4l0.1-0.1c-0.1-0.2-0.2-0.3-0.3-0.5
					C480.5,391.7,480.5,391.8,480.5,391.8z"/>
				<path class="st1" d="M483.3,601.5c1,0.2,1.5-0.3,2.5-1.7c-0.3,0-0.5,0.1-0.8,0.1C484.3,600.9,483.9,601.4,483.3,601.5z"/>
				<path class="st1" d="M483.9,599.9c0.3,0,0.7,0,1.1,0c0,0,0.1-0.1,0.1-0.1C484.7,599.9,484.3,599.9,483.9,599.9z"/>
				<path class="st4" d="M507.2,55.9c1.2,0.7,1.8,1.1,2.5,1.5c-0.3,0.7-0.5,1.4-0.8,2.2c2.6,0.9,5,1.8,7.5,2.6
					c15.4,5.2,30.6,10.9,44.7,18.9c2.3,1.3,5.1,2.2,7.8,2.5c7.2,0.8,14.5,1.2,21.7,1.5c1,0.1,2.2-0.7,2.9-1.4c1-1.1,0-2.1-0.9-2.9
					c-4.6-4.5-10.2-7.7-16.1-10.3c-17.3-7.8-35.5-12.8-53.9-17.4c-3.9-1-7.8-1-11.4,0.5C509.9,54,508.7,55,507.2,55.9z"/>
				<path class="st1" d="M537.7,388.9c-4.9,0.2-8.8,4-8.6,8.3c0.3,3.9,4.3,7,8.9,6.9c4.5-0.2,8.7-4.1,8.4-8
					C546.2,391.6,542.6,388.7,537.7,388.9z"/>
				<path class="st1" d="M541,514.4c-5.5,0.8-8.2,5.5-5.5,9.9c2.1,3.4,5.4,4.8,8.5,4.9c6.7-0.4,9.9-5.5,7.2-10.1
					C549.3,516,544.8,513.9,541,514.4z"/>
				<path class="st1" d="M559.3,616.6c0.2,0.7,0.3,1.3,0.5,2c1.5,1.7,3.2,2.2,5.4,1.3c5-1.8,10.2-3,14.9-5.1
					c12.7-5.5,25.2-11.3,37.7-17.2c4.8-2.3,9.2-5.1,13.8-7.6c-0.2,0-0.3-0.1-0.5-0.2c-2.5-0.9-4.9-1.7-7.4-2.6
					c-0.2,0.2-0.4,0.5-0.7,0.6c-10,5-19.8,10.3-30.1,14.8c-9.9,4.3-20.2,7.7-30.3,11.4C561.2,614.6,559.8,615,559.3,616.6z"/>
				<path class="st1" d="M565.1,375.3c-1.9,4.9-1.6,9.5,2.7,13.4c1.2,1.1,2.3,2.4,3.5,3.6c10,10.8,19.9,21.6,29.9,32.3
					c14,15,28,30,42.1,45c2.3,2.5,4.8,4.9,7.2,7.3c0.2-2.5,0.5-5,0.7-7.5c0-0.1,0-0.3,0-0.4c-0.3-0.2-0.6-0.4-0.8-0.6
					c-8-8.6-16-17.2-24-25.9c-8.9-9.6-17.7-19.3-26.5-28.9c-8.4-9.1-16.7-18.3-25.1-27.4c-2.3-2.5-3.4-5.3-2.6-8.4
					c0-0.2,0.1-0.4,0.2-0.6c0.4-1.5,1-2.9,1.6-4.3c0.2-0.5,0.4-0.9,0.6-1.4c0.1-0.3,0.3-0.7,0.4-1c0,0,0,0,0,0
					c1.9-4.4,4.3-9.2,5.7-10.3l0,0c0,0,0,0,0-0.1c-2.6,0.3-3.2-2.9-5-4.2C574.4,358.3,566.2,372.7,565.1,375.3z"/>
				<path class="st2" d="M559.8,618.6c0.3,3,0.8,4.3,2.5,4.5l0,0c0.7,0,1.6-0.2,2.8-0.4c4.2-0.8,8.3-1.6,12.4-2.7
					c14.3-3.8,28.1-8.7,41.6-14.4c8.4-3.5,16.7-7.3,25-11c0-0.3,0-0.3,0-0.5c-4.2-1.4-8.3-2.7-12.5-4.1c-4.6,2.6-9.1,5.4-13.8,7.6
					c-12.5,5.9-25,11.7-37.7,17.2c-4.8,2.1-10,3.3-14.9,5.1C563,620.7,561.3,620.3,559.8,618.6z"/>
				<path class="st1" d="M562.3,623.1c0.8,0.1,2-0.1,3.5-0.4c4.2-0.8,8.3-1.6,12.4-2.7c14.3-3.8,28.1-8.7,41.6-14.4
					c8.4-3.5,16.7-7.3,25-11c0-0.2,0-0.4,0-0.5c-4.3-1.4-8.7-2.8-13-4.3c-0.1,0-0.2,0.1-0.2,0.1c4.2,1.4,8.3,2.7,12.5,4.1
					c0,0.3,0,0.3,0,0.5c-8.3,3.7-16.6,7.5-25,11c-13.5,5.6-27.4,10.6-41.6,14.4c-4.1,1.1-8.3,1.9-12.4,2.7
					C564,622.9,563.1,623.1,562.3,623.1z"/>
				<path class="st2" d="M572.1,377.6c-0.8,3.2,0.3,6,2.6,8.4c8.4,9.1,16.7,18.3,25.1,27.4c8.8,9.7,17.7,19.3,26.5,28.9
					c8,8.7,16,17.3,24,25.9c0.2,0.3,0.5,0.4,0.8,0.6c0.1-1.2,0.1-2.5,0.4-3.8c0.8-3.5,0.1-5.9-3.4-8.4c-9-6.5-15.7-15-21.1-24.4
					c-8.1-14.1-9.8-28.7-4.9-43.7c6.7-20.9,13.9-41.7,20.9-62.5c4.2-12.5,8.6-25,12.8-37.5c0,0,0,0,0-0.1
					c-8.4,2.3-16.9,4.5-25.2,7.1c-2.3,0.7-4.3,2.8-6.1,4.6c-8.4,8.2-16.3,16.8-22.8,26.4c-0.9,1.3-1.8,2.6-2.6,3.9
					c-6.2,9.4-12.6,20.2-18.4,29.3c1.2,1.4,2.6,2.7,3.5,4.3c2.2,3.8,0.5,6.4-4,6.4c-1.8,0-3.5-0.2-5.3-0.4c-0.1,0.3-0.3,0.7-0.4,1
					c-0.2,0.5-0.4,0.9-0.6,1.4c-0.7,1.8-1.3,3.4-1.6,4.3C572.3,377.2,572.2,377.4,572.1,377.6z"/>
				<path class="st1" d="M572.3,377c0.3-1,0.9-2.5,1.6-4.3C573.3,374.1,572.7,375.5,572.3,377z"/>
				<path class="st1" d="M574.9,370.3c-0.1,0.3-0.3,0.7-0.4,1C574.6,371,574.8,370.7,574.9,370.3
					C574.9,370.3,574.9,370.3,574.9,370.3z"/>
				<path class="st2" d="M580.6,360.1C580.6,360.1,580.6,360.1,580.6,360.1c-1.4,1-3.8,5.8-5.7,10.2c1.8,0.1,3.5,0.4,5.3,0.4
					c4.5-0.1,6.2-2.7,4-6.4c-0.9-1.6-2.3-2.9-3.5-4.3C580.7,360.1,580.6,360.1,580.6,360.1z"/>
				<path class="st1" d="M575.7,355.8c2,0.9,3,3.2,5,4.2c0-0.1,0.1-0.2,0.1-0.2c0.3-0.7,0.5-1.4,0.9-2c5.8-9,11.5-18.1,17.5-27.1
					c0.9-1.3,1.7-2.6,2.6-3.9c6.5-9.6,14.4-18.2,22.8-26.4c1.8-1.8,3.7-3.8,6.1-4.6c8.3-2.6,16.8-4.8,25.2-7.1
					c1.3-2.6,2.7-5.1,4-7.7c0.5-0.7,1.1-1.4,1.7-2.1c-0.9,0.2-1.9,0.4-2.8,0.7c-9.1,2.4-18.3,4.7-27.4,7.1c-2.3,0.6-5,1.2-6.4,2.7
					c-6.8,7.2-13.8,14.4-19.8,22.2c-8.7,11.6-16.7,23.7-24.8,35.7C578.6,349.9,577.2,352.9,575.7,355.8z"/>
				<path class="st1" d="M580.7,359.9c-2-0.9-3-3.2-5-4.2C577.4,357,578.1,360.3,580.7,359.9C580.7,359.9,580.7,359.9,580.7,359.9z"
					/>
				<path class="st1" d="M580.7,359.9C580.7,359.9,580.7,359.9,580.7,359.9c0.1,0,0.1-0.1,0.1-0.2
					C580.8,359.7,580.7,359.8,580.7,359.9z"/>
				<path class="st1" d="M580.8,359.7c0,0.1,0,0.1-0.1,0.2c5.8-9.1,12.3-19.9,18.4-29.3c-6,8.9-11.7,18-17.5,27.1
					C581.3,358.3,581.1,359.1,580.8,359.7z"/>
				<path class="st6" d="M602.3,533.1c-2.1,5.4,0.1,9.3,4.3,12.1c1.5-5.3,3-10.6,4.5-15.8c1.3-4.7,2.6-9.4,3.9-14.2
					c-0.7-0.3-1.4-0.6-2.1-0.9c-1-0.4-2-0.8-3.1-1.3c-0.2,0.3-0.7,1-0.9,1.8C606.7,520.9,604.7,527.1,602.3,533.1z"/>
				<path class="st7" d="M611.2,245.6L611.2,245.6C611.2,245.6,611.2,245.6,611.2,245.6C611.2,245.6,611.2,245.6,611.2,245.6z"/>
				<path class="st1" d="M611.3,245.4c0,0.1-0.1,0.1-0.1,0.2c0,0,0.1-0.1,0.1-0.1C611.3,245.5,611.3,245.4,611.3,245.4z"/>
				<path class="st1" d="M606.6,545.2c1.5,0.7,3,1.4,4.6,2.1c0.4-1.3,0.9-2.6,1.3-3.9c-2.2-3.1-2.1-6.3-1-9.8
					c1.7-5.4,2.9-10.9,4.3-16.4c0.2-0.7,0.9-1.8-0.8-2c-1.3,4.7-2.6,9.4-3.9,14.2C609.6,534.6,608.1,539.9,606.6,545.2z"/>
				<path class="st2" d="M610.2,552.2c-2.1,4.8-2.6,10-1.6,15.4c1.1,6.1,4.2,10.7,10.5,13.1c2.7,1,5.6,1.6,8.3,2.5
					c19.2,6.6,38.5,13.1,57.7,19.7c23.2,8,46.4,15.6,70.6,20.3c6.1,1.2,12.3,2.5,18.5,2.9c8.3,0.5,16.7,0.2,25,0
					c12.7-0.3,25.4-0.4,38-1.2c16.3-1,32.6-2.3,48.8-3.9c10-1,19.9-3,29.9-4.4c1.4-0.2,1.9-0.8,2.5-1.8c1.1-2.2,2.3-4.4,3.5-6.7
					c0.3,1.1,0.2,2,0.3,3c0.1,1.7-0.1,3.7,0.7,5.2c1.5,2.5,4.4,3.3,7.2,2.9c3-0.5,5.1-2.2,6-5.1c0.5-1.7,1-3.4,1.7-5.7
					c0.9,0.9,1.5,1.5,2,2.1c3.7,3.9,10.1,3.5,12.6-2c2.3-4.9,4.8-9.7,6.5-14.8c7.5-22,10.1-44.8,11.6-67.9c0.7-10.1,1-20.3,1.1-30.5
					c0.1-9.3,0-18.7-0.7-28c-0.8-10.5-2.3-21-3.8-31.5c-1.1-8.1-3.5-15.9-6.5-23.7c-3.3-8.6-9.2-14.4-18.6-16.7
					c-6-1.5-12.3-2.1-18.4-1.6c-18.9,1.7-37.9,3.6-56.8,5.5c-17.6,1.8-35.2,3.9-52.8,5.9c-4.5,0.5-8.9,1.2-13.6,1.8
					c0.6,1.2,0.9,2.3,1.5,3.3c2.7,4.2,6.9,6.9,10.9,9.7c0.4,0.3,1.1,0.3,1.6,0.2c6.8-0.8,13.6-1.6,20.3-2.4
					c10.7-1.4,21.4-2.8,32.1-4.2c5.4-0.7,10.7-1.4,16-2.2c7.1-1.1,14.1-2.2,21.2-3.3c6.3-1,12.6-1.9,19-2.8c3.7-0.5,7.4-1,11-1.5
					c0,0.1,0.1,0.2,0.1,0.4c-0.7,0.2-1.4,0.5-2.1,0.7c-14.8,4-29.7,8.1-44.6,12.1c-2.2,0.6-4.3,1.3-6.5,1.7c-0.9,0.2-2-0.5-3-0.3
					c-8.2,1.7-16.5,3.4-24.7,5.2c-10.5,2.3-21.1,4.7-31.6,7.1c-1.5,0.3-2.7,0.3-4-0.6c-2.4-1.7-5.1-3-7.5-4.8
					c-4.3-3.4-8.7-6.8-12.7-10.7c-2.9-2.8-3.6-6.5-2.7-10.4c0.5-2.1,1.2-4.3,1.5-6.4c6.7-39.4,13.4-78.8,20-118.2
					c0.2-1.2,0.8-1.8,1.9-2.3c12.9-6,25.8-12.1,38.6-18.2l-1.9-3.5c-5.6-4.3-10.9-8.8-16-13.5c-1.7-1.5-3.4-2.2-5.7-2.2
					c-0.9,0-1.7-0.1-2.5-0.3c-2.4-0.5-4.5-1.7-6.2-3.5c-1.7-1.7-1.2-3.2,1.2-3.8c3.4-1,6.7-2,10-3.1c2.7-0.9,4.5-2.7,4.8-5.6
					c0.2-2.3-1.2-4.3-3.6-4.3c-2.8,0-5.6,0.4-8.3,1.1c-6.7,1.6-13.4,3.2-20,5.3c-14.3,4.7-28.7,9.5-43,14.3l1.2,3.1
					c0.7,3.5,1.4,6.8,2.2,10.3c3.4-1.2,6.6-2.4,9.8-3.6c9.4-3.4,18.8-6.8,28.2-10.3c3.6-1.3,6.8-0.4,9.4,1.9
					c4.2,3.7,8.1,7.8,12,11.7c0.6,0.6,1.3,1.3,2,2.1c-10.3,5.5-20.9,10-31.8,14.2l1.5,3.4c-0.9,5.5-1.3,11.1-2.7,16.4
					c-4.3,15.9-6,32.2-8.9,48.4c-3.6,19.5-6.8,39-10.1,58.5c1.1,4.5-1,8.8-1,13.3c0,4,1.3,7.6,4.2,10.6c0.5,0.5,1,1,1.4,1.5
					c3,3.4,6.5,6.4,9.6,9.9c4.5,5.1,10.2,9.3,15.5,13.9c0.5,0.4,1,0.9,1.4,1.6l1.1,3.7c5.1-1.3,10.1-2.5,15.2-3.8
					c13.4-3.3,26.8-6.7,40.1-10.1c11.9-3,23.8-6,35.6-8.9c4.2-1,8.5-2,12.8-3c0.8,2,1.6,3.7,2.1,5.4c1.6,5.5,3,11,4.5,16.5
					c1.1,4.3,1.2,4.4-3.3,5.7c-17.5,5-34.9,10.1-52.5,14.9c-11.2,3-22.5,5.7-33.8,8.4c-10.6,2.5-21.2,4.9-31.7,7.3
					c-5.1,1.2-10.2,2.2-15.3,3.4c-5.5,1.3-10.9,2.8-16.3,4.2c-0.1-0.1-0.1-0.2-0.2-0.3c2.1-1.5,4.2-3,6.4-4.7
					c-4.3-5.7-8.5-11.4-12.7-17c-5.1,1.3-10.1,2.5-15.2,3.8c3.3,4.2,6.3,8.2,9.4,12.3c0.6,0.8,1,1.8,1.8,2.2
					c1.6,0.9,2.1,2.2,1.6,3.5c-0.3,0.9-1.7,1.8-2.8,2c-6.4,1.3-12.8,2.5-19.2,3.5c-10.1,1.6-20.2,1.4-30.3-0.6
					c-11.5-2.3-23.1-4.4-34.7-6.5c0.8-7.3,1.5-14.4,2.3-21.1c-5.9-2-11.5-3.8-17.1-5.7c-0.3,4.6-0.3,9.4-1.2,14
					c-0.8,4,0.5,6.7,4.1,8.7c0.2,0.1,0.2,0.3,0.4,0.7c-4.1-0.5-8-1.3-11.9,0.3c-1.4,0.6-3,0.8-4.5,1.2c-7.6,1.7-13.8,5.2-18.1,11.6
					c-2.2,3.2-4,6.6-4.6,10.5c-0.5,2.9-0.7,3.4,2.3,4.4c0.9,0.3,1.8,0.6,2.7,0.8c2.7,0.7,5.5,1.3,8.2,1.9c1.4,0.3,2.2-0.2,2.5-1.6
					c0.3-1.7,1.1-3.3,1.5-5c0.8-3.5,3.4-5.4,6.7-6.3c5.7-1.5,11.6-1.4,17.4-0.5c11.5,1.9,23,4.2,34.5,6.3
					c11.5,2.1,23.1,4.3,34.9,2.8c11-1.3,22-2.7,32.7-6.1c8.4-2.6,17.4-3.4,26-5.2c10-2.1,20-4.4,29.9-6.7
					c15.8-3.7,31.6-7.4,47.2-11.5c16.1-4.2,32.1-9,48.1-13.5c1.8-0.5,3.5-1.6,5.3-2.4c0.5-3.2,1.1-6.6,1.6-10c0.1,0,0.3,0,0.4,0
					c0.6,3.7,1.2,7.4,1.8,11.1c2,0.4,4,0.7,6.5,1.1c-1.9,0.6-3.1,1.1-4.4,1.4c-1.8,0.4-2.5,1.3-2.1,3.1c0.5,2.4,0.9,4.8,1.1,7.2
					c1,12.5,2.1,25,2.7,37.5c0.4,7.7,0.3,15.5,0,23.3c-0.5,10.1-1.3,20.1-2.2,30.2c-0.4,5.1-1.2,10.2-1.8,15.6
					c-4-0.5-7.8-1-11.6-1.6c-19.5-2.6-38.9-5.4-58.4-7.8c-19.9-2.5-39.9-4.6-59.8-6.8c-8-0.9-15.8-2.6-22.9-6.7
					c-0.5-0.3-1.1-0.5-1.8-0.8c-2.8,3.3-5.5,6.5-8.3,9.8c7.1,4.9,14.9,8.1,23.4,9.3c17.8,2.4,35.6,4.6,53.4,6.8
					c17,2.1,33.9,4.1,50.9,6.1c7.6,0.9,15.3,1.7,22.9,2.5c0.8,0.1,1.6-0.3,2.4-0.5c-0.3-0.8-0.4-1.8-1-2.4c-1-1-2.3-1.7-3.5-2.5
					c3.1,0.6,6.2,1.5,8.9,2.8c3.1,1.5,3,3.4,0,5c-0.6,0.3-1.2,0.7-1.9,0.8c-3.5,0.8-7,1.8-10.5,2.3c-8.7,1.2-17.4,2.5-26.2,3.2
					c-17.9,1.5-35.8,2.9-53.7,3.9c-12.8,0.7-25.6,0.8-38.5,1c-5.3,0.1-10.7,0.4-16-0.4c-8.1-1.1-16.1-3-24.2-4.7
					c-4.8-1-9.5-2.3-14.2-3.4c-4.7-1-9.4-2-14.2-2.9c0-0.2,0-0.3,0.1-0.5c3.5-0.1,6.9-0.2,10.4-0.2c1.3,0,2.2-0.4,3-1.4
					c4-4.9,7.9-9.9,12.1-14.7c9.4-10.7,17.7-22.2,28-32.2c9.2-8.9,14.8-19.7,15.1-32.5c0.1-4-0.3-7.9-2-11.8
					c-5.5,1.2-10.8,2.3-16.2,3.4c0.4,3.9,1,7.4,1,11c0,5-1,10-4.2,14.1c-4.1,5.3-8.2,10.6-12.7,15.6c-8.2,9.2-15.2,19.4-24.3,28
					c-5.4,5.1-9.8,11.1-14.5,16.8c-1.1,1.3-1.9,1.5-3.5,0.9c-25.6-9.7-51.2-19.4-76.8-28.9c-5.1-1.9-8.2-5.2-9.5-10.2
					c-0.1-0.6-0.8-1.2-1.4-1.4C620.2,554.5,615.2,553.3,610.2,552.2z M926.6,413c-0.1-0.4-0.2-0.8-0.4-1.8c2.4,2.4,4.5,4.3,6.4,6.4
					c1,1,1.8,1.3,3.1,0.6c2.7-1.5,5.7-2.6,8.3-4.3c5.2-3.5,5.6-8.1,1.6-12.8c-0.6-0.7-1.2-1.3-1.9-2c-0.2-0.2-0.3-0.3-0.5-0.5
					c0-0.1,0.1-0.1,0.1-0.2c0.3,0.1,0.5,0.2,0.8,0.3c4.5,1.8,8.1,4.4,8.5,9.5c0.3,3.5-1.7,6.2-4.3,8.3c-1.3,1-1.2,1.8-0.7,3.2
					c1.3,3.3,2.2,6.7,3.5,10.4l2,2.9c0.3,0.2,0.5,0.3,0.8,0.4c8.3,3.5,11,13,5.7,20.3c-0.6,0.8-1.2,1.8-2,2.3
					c-2.2,1.4-2.1,3.4-2,5.6c0.5,11.1,1.1,22.1,1,33.2c0,11-0.5,21.9-1.2,32.9c-0.9,13.8-2.5,27.5-5.4,41.1c-1.5,7-2.9,14-4.7,20.8
					c-1.3,4.9-3.8,9.4-7.5,13.3c0.6-4.3,1.1-8.7,1.8-13c2.5-14,3.8-28.2,4.6-42.4c1.2-22.2,0.5-44.3-2.3-66.4
					c-0.5-4.2-0.9-8.5-1.7-12.7c-1.7-8.8-3.6-17.6-5.5-26.5c-1.1-5.2-2.3-10.4-3.7-15.6C929.8,422,928.1,417.5,926.6,413z"/>
				<path class="st2" d="M612.4,543.4c-0.4,1.3-0.9,2.6-1.3,3.9c0.5,0.4,1,0.9,1.5,1.1c1.9,0.5,3.8,1,5.7,1.5l0.7-2.6
					C616.7,546.5,614.5,545.2,612.4,543.4z"/>
				<path class="st1" d="M612.9,536.6c-0.3,1.4,0.3,3,0.5,4.4c0.1-0.7,0.1-1.5,0.3-2.2c1.9-7.1,3.8-14.1,5.7-21.2
					c-0.5-0.1-1-0.1-1.4-0.2C616.2,523.9,614.4,530.2,612.9,536.6z"/>
				<path class="st6" d="M612.5,511.8c0,0.2,0.5,0.6,1.1,0.9c0.3,0.2,0.7,0.3,1,0.3c2.5,0.2,0.9-1.9,1.5-2.8
					c-0.5,0.1-1.2,0.1-1.9,0.1C613.3,510.3,612.6,510.5,612.5,511.8z"/>
				<path class="st2" d="M613.7,538.8c-0.2,0.7-0.2,1.4-0.3,2.2c2.6,3.8,6.5,5,10.9,4.8c0.5,0,1-0.1,1.6-0.2
					c1.5-0.2,2.8-0.9,3.5-2.5c1.6-5.7,3.2-11.4,4.9-17c0.4-1.6,1-3.2,1.5-4.7c0.1-0.4,0.1-0.9,0.1-0.9c-3.3-0.9-6.6-1.7-9.8-2.6
					c-2-0.5-4.1-1.1-6.1-1.6c-0.1,0.4-0.3,0.9-0.5,1.4C617.5,524.7,615.5,531.8,613.7,538.8z"/>
				<path class="st2" d="M619.1,547.2l-0.7,2.6c2.6,0.7,5.2,1.3,7.9,2c0.1,0,0.2,0,0.3,0.1c0.4-1.6,0.8-3.3,1.2-4.9
					c-0.5,0.1-1,0.3-1.5,0.4c-0.2,0-0.4,0.1-0.5,0.1C623.3,547.8,621.2,547.7,619.1,547.2z"/>
				<path class="st1" d="M622.1,388.7c-4.9,15-3.2,29.7,4.9,43.7c5.4,9.4,12.1,17.9,21.1,24.4c3.5,2.5,4.2,4.9,3.4,8.4
					c-0.3,1.2-0.3,2.5-0.4,3.8c0.2,0.2,0.5,0.3,0.7,0.5c0.1-1.4,0.1-2.8,0.4-4.2c0.8-3.5,0.1-5.9-3.4-8.4c-9-6.5-15.7-15-21.1-24.4
					c-8.1-14.1-9.8-28.7-4.9-43.7c6.7-20.9,13.9-41.7,20.9-62.5c4.2-12.6,8.6-25.2,12.9-37.8c-0.3,0.1-0.5,0.1-0.8,0.2
					c0,0,0,0,0,0.1c-4.3,12.5-8.6,25-12.8,37.5C636,347,628.8,367.8,622.1,388.7z"/>
				<path class="st1" d="M524.3,21.7c38,1.5,74.8,9.2,110.5,23.6c26.3,10.6,50.7,24.3,73.2,41.1c29.1,21.8,53.5,47.6,73.3,77.3
					c1.6,2.3,3,4.7,4.5,7.1c-5.2,1.9-6.5,1.4-4,8c5.6,14.5,10.8,29.1,16.2,43.7c0.1,0.4,0.2,0.8,0.3,1.4c-3.5,1.2-6.9,2.3-10.4,3.5
					c-21.2,7-42.3,14.1-63.5,21.1c0,0.1,0,0.2,0,0.3c21.4-7.1,42.8-14.2,64.2-21.4c3.5-1.2,7-2.3,10.4-3.5c-0.2-0.7-0.2-1.1-0.4-1.4
					c-5.4-14.6-10.6-29.2-16.2-43.7c-2.5-6.6-1.2-6.1,4-8c-1.5-2.4-3-4.8-4.5-7.1c-19.8-29.7-44.2-55.5-73.3-77.3
					c-22.5-16.8-46.9-30.5-73.2-41.1C599.7,30.9,562.5,23.2,524.3,21.7z"/>
				<path class="st1" d="M623.8,587.2c2.5,0.9,4.9,1.7,7.4,2.6c0.2,0,0.3,0.1,0.5,0.2c0.1,0,0.2-0.1,0.2-0.1c-2.7-0.9-5.3-1.8-8-2.8
					C623.9,587.1,623.8,587.2,623.8,587.2z"/>
				<path class="st2" d="M627.9,389.2c-3.2,9.6-3.6,19.4-0.8,29.3c2.5,8.7,7.3,16.3,13,23.4c4.3,5.4,9.3,10.2,15.8,13.6
					c8.5,4.5,17.7,7.1,27.1,9.1c10.5,2.2,20.9,5.3,31.8,5.4c9.9,0.2,19.6,0.3,29.2-2.6c13.1-3.9,26.6-6.9,39.9-10.2
					c9-2.3,18-4.5,27.1-6.7l-1.1-3.7c-3.5-1.6-7-3.3-10.4-4.9c-6-2.8-6-2.6-12.4-1.2c-12.7,2.8-25.6,5.4-38.4,8
					c-0.6,0.1-1.5,0-1.9-0.4c-4.6-3.6-9.1-7.4-13.7-11c-3.7-2.9-6.5-6.4-9-10.3c-2.2-3.5-4.8-6.9-7-10.5c-3.7-6.1-3.4-12.6-2.1-19.2
					c2.2-11.1,6.3-21.5,10.3-32c7.1-19.1,14.1-38.1,21.2-57.4c-3.3-1.1-6.5-2.2-9.6-3.2c0-0.1,0-0.2,0-0.3c3.2-0.5,6.5-1.1,9.7-1.4
					c6.3-0.5,11.9-2.9,17.6-4.9c9.2-3.2,18.4-6.6,27.6-10c1-0.4,1.9-1.3,2.4-2.2c2.1-4.4,4-8.8,6.4-13.1l-1.5-3.4
					c-14.7,5.7-29.7,10.6-44.7,16c2.5-7.3,5.1-14.2,7.2-21.2c2.1-6.9,3.7-13.9,5.6-21.1l-1.2-3.1c-19.5,6.5-39.1,13.1-58.6,19.6
					c-7.8,2.6-15.7,4.9-23.1,8.3c-11.4,5.2-20,13.1-23.9,25C649.7,325,638.7,357,627.9,389.2z M641.5,413.7
					c-1.9-6.9-1.3-13.8,1-20.5c10.6-31.6,21.4-63.2,31.9-94.8c2.6-7.8,8.2-12.9,15.6-16.3c5.6-2.6,11.6-4.4,17.5-6.4
					c10.9-3.7,21.9-7.4,32.8-11.1c1.9-0.7,3.5-0.6,5.3,0.6c-3,8.4-5.9,16.9-9,25.4c-10.3,28.1-20.7,56.1-30.9,84.2
					c-3.6,9.8-6.1,19.9-6.7,30.4c-0.4,7.1,1.8,13.7,5.3,20c4.7,8.4,11.5,15,19.2,20.9c2.6,2,5.1,4.1,8,6.4c-13.1,4.5-26,4.2-39,0.8
					c-10-2.7-19.8-6.2-28.9-11.1c-3.6-1.9-7.1-4.5-9.8-7.4C648.2,428.5,643.8,421.6,641.5,413.7z"/>
				<path class="st1" d="M739.5,515.7L739.5,515.7c-1,2.1-2,4.2-3.1,6.2c-0.7,1.2-1.7,2.2-2.7,3.3c-0.7-3-1.4-5.9-2.2-9
					C734.3,516.1,736.9,515.9,739.5,515.7z M626.2,551.8l-1,3.9c0.6,0.1,1.2,0.8,1.4,1.4c1.3,5,4.4,8.3,9.5,10.2
					c25.6,9.6,51.2,19.3,76.8,28.9c1.6,0.6,2.4,0.4,3.5-0.9c4.7-5.7,9.1-11.8,14.5-16.8c9.1-8.6,16.1-18.7,24.3-28
					c4.5-5,8.6-10.3,12.7-15.6c3.2-4.1,4.1-9.1,4.2-14.1c0-3.5-0.6-7.1-1-11c5.3-1.1,10.7-2.2,16.2-3.4c1.7,3.9,2.1,7.8,2,11.8
					c-0.3,12.8-5.9,23.6-15.1,32.5c-10.3,10-18.6,21.5-28,32.2c-4.2,4.8-8.1,9.8-12.1,14.7c-0.8,1-1.7,1.4-3,1.4
					c-3.5,0-6.9,0.1-10.4,0.2c0,0.2,0,0.3-0.1,0.5c4.7,1,9.5,1.9,14.2,2.9c4.8,1.1,9.5,2.4,14.2,3.4c8,1.7,16.1,3.5,24.2,4.7
					c5.3,0.7,10.7,0.5,16,0.4c12.8-0.2,25.7-0.3,38.5-1c17.9-1,35.8-2.4,53.7-3.9c8.8-0.7,17.5-2,26.2-3.2c3.6-0.5,7-1.5,10.5-2.3
					c0.7-0.2,1.3-0.5,1.9-0.8c3-1.6,3.1-3.5,0-5c-2.7-1.3-5.8-2.2-8.9-2.8c1.2,0.8,2.5,1.6,3.5,2.5c0.6,0.6,0.7,1.6,1,2.4
					c-0.8,0.2-1.6,0.5-2.4,0.5c-7.6-0.8-15.3-1.7-22.9-2.5c-17-2-33.9-4-50.9-6.1c-17.8-2.2-35.6-4.4-53.4-6.8
					c-8.5-1.1-16.2-4.4-23.4-9.3c2.8-3.2,5.5-6.5,8.3-9.8c0.6,0.3,1.2,0.5,1.8,0.8c7.1,4,14.8,5.8,22.9,6.7
					c20,2.2,39.9,4.3,59.8,6.8c19.5,2.4,38.9,5.2,58.4,7.8c3.8,0.5,7.6,1,11.6,1.6c0.6-5.3,1.3-10.4,1.8-15.6
					c0.8-10,1.7-20.1,2.2-30.2c0.3-7.7,0.4-15.5,0-23.3c-0.6-12.5-1.7-25-2.7-37.5c-0.2-2.4-0.6-4.9-1.1-7.2
					c-0.4-1.9,0.3-2.7,2.1-3.1c1.3-0.3,2.5-0.8,4.4-1.4c-2.5-0.4-4.4-0.8-6.5-1.1c-0.6-3.7-1.2-7.4-1.8-11.1c-0.1,0-0.3,0-0.4,0
					c-0.5,3.4-1.1,6.8-1.6,10c-1.8,0.8-3.5,1.9-5.3,2.4c-16,4.6-32,9.3-48.1,13.5c-15.6,4.1-31.5,7.7-47.2,11.5
					c-9.9,2.3-19.9,4.6-29.9,6.7c-8.7,1.8-17.7,2.6-26,5.2c-10.7,3.3-21.6,4.7-32.7,6.1c-11.8,1.4-23.4-0.8-34.9-2.8
					c-11.5-2.1-22.9-4.5-34.5-6.3c-5.8-0.9-11.7-1-17.4,0.5c-3.4,0.9-5.9,2.8-6.7,6.3c-0.4,1.7-1.1,3.3-1.5,5
					c-0.3,1.5-1.1,2-2.5,1.6c-2.7-0.6-5.5-1.2-8.2-1.9l-1.1,4c3.2,0.8,6.5,1.7,9.8,2.6c0,0-0.1,0.5-0.1,0.9c0.5,0.3,0.9,0.5,1.5,0.8
					c-2,6.3-4,12.6-6.2,18.8c-0.3,0.8-1.1,1.4-1.7,2.1c-0.6,1.6-2,2.2-3.5,2.5l0.4,1.7c0.5-0.1,1-0.3,1.5-0.4c2.9-1,4.6-3.1,5.5-5.9
					c2-6.3,4-12.5,6.1-18.8c0.3-0.8,0.4-2,1.9-1.3c8.7,1.7,17.4,3.4,26.1,5c5,1,10.1,1.7,15,2.8c6.7,1.5,11.6,5.1,13.2,11.9
					c1.9,8.2-3,15.7-11.3,18.2c-6.7,2-13.3,1.2-20,0c-10.7-2-21.3-3.8-32-5.8c-0.2-0.1-0.4-0.2-0.5-0.2l-0.1,0
					c-1.7-0.3-3.5-0.6-5.2-1C626.4,551.8,626.3,551.8,626.2,551.8z M636.3,562.2c-2.2-0.9-3.5-2.6-4.2-5.1
					c8.9,1.6,17.6,3.2,26.4,4.8c3.7,0.7,7.3,1.4,11,2.1c10.5,0.9,20.1-0.8,27.8-8.1c5.9-5.5,8.1-12.2,6.4-20.1
					c-2.3-6-6.9-10.1-12.8-12.9c-10.3-4-21.3-5.5-32.1-8l-0.9,3.8c8.8,2,17.6,4.1,26.4,6.2c4.5,1.1,8.5,3.1,11.6,6.5
					c4.3,4.6,5.1,10.4,2.3,16c0-2,0.2-4-0.2-5.9c-1.3-8.1-6.8-12.7-14.8-14.4c-12.8-2.7-25.7-5-38.5-7.5c-0.7-0.1-1.4-0.3-1.9-0.4
					c0.8-1.2,1.7-2.4,2.5-3.5c0.3,0.1,0.6,0.1,0.9,0.2l1-4.2c-0.9-0.3-1.9-0.4-2.9-0.7c0.1-2.5,1.1-3.6,3.7-4
					c2.9-0.4,5.8-0.6,8.7-0.6c8.3,0,16.4,2.3,24.4,4c3.8,0.7,7.6,1.3,11.4,2c7.5,1.1,14.9,2.4,22.4,3.4c3.2,0.4,6.5,0.5,10,0.7
					c1.9,4,3.3,8,1.5,12.7c-2.6,7.1-7,13.1-12.2,18.7c-10.8,11.5-23.7,20.5-37.3,28.8c-0.5,0.3-1.5,0.4-2.1,0.2
					c-5.1-1.9-10.1-3.9-15.2-5.9c-3-1.2-6-2.3-8.9-3.5C645.9,565.9,641,564.2,636.3,562.2z M713.3,591.5
					c-10.2-3.7-20.5-7.5-30.9-11.3c14.4-8.6,28.5-17.1,42.8-25.6c3.8,2.5,8,5.3,12.4,8.1C729.5,572.2,721.5,581.7,713.3,591.5z
					 M722.8,547.3c2.1-3.2,4.2-6.3,6.4-9.6c6.3,4,12.5,8,18.9,12.1c-2.5,3.1-5,6.1-7.6,9.2C734.6,555.1,728.8,551.2,722.8,547.3z
					 M739.2,599.1c6.9-7.6,13.6-14.9,20.5-22.5c0.7,0.4,1.5,0.9,2.3,1.4c9.2,6,19.7,8.4,30.5,9.7c13.7,1.7,27.5,3.2,41.2,4.9
					c19.8,2.4,39.5,4.8,59.3,7.2c0,0.2-0.1,0.4-0.1,0.6c-3.3,0.5-6.6,1-9.9,1.3c-14.7,1.2-29.4,2.6-44.1,3.5
					c-12.7,0.7-25.5,0.9-38.3,1.2c-8.4,0.2-16.8,0.4-25.2,0c-5.3-0.3-10.6-1.5-15.9-2.6C752.9,602.4,746.4,600.7,739.2,599.1z
					 M787.8,564.4c-4.6-0.6-8.9-3-14.1-4.8c3.5-4.2,6.5-7.9,9.4-11.6c6.9-8.6,10.8-18.2,11.2-29.1c0.1-2.3,0-4.7-0.3-7.1
					c-0.3-2.3-1-4.5-1.5-7c42.8-10.1,86-19.2,128-32.6c5.6,36.5,5.3,72.7,0.5,109.2c-7.7-1.2-15.3-2.4-22.9-3.4
					c-15.5-2-31.1-4-46.6-5.9C830.2,569.6,808.9,567.2,787.8,564.4z"/>
				<path class="st1" d="M627.7,546.9c-0.4,1.6-0.8,3.3-1.2,4.9c1.7,0.3,3.5,0.6,5.2,1c0.1-0.7,0.1-1.3,0.3-2
					c2.4-8,4.8-16.1,7.2-24.1c0.6-2,1.4-3.8,2.1-5.8c-1.5-0.7-1.6,0.4-1.9,1.3c-2.1,6.3-4.1,12.5-6.1,18.8
					C632.4,543.8,630.7,545.9,627.7,546.9z"/>
				<path class="st1" d="M629.3,543.2c0.6-0.7,1.4-1.3,1.7-2.1c2.1-6.2,4.1-12.5,6.2-18.8c-0.6-0.3-1.1-0.6-1.5-0.8
					c-0.5,1.6-1,3.1-1.5,4.7C632.5,531.8,630.9,537.5,629.3,543.2z"/>
				<path class="st6" d="M631.7,552.8L631.7,552.8c0.2,0.1,0.4,0.2,0.6,0.3c10.7,1.9,21.3,3.8,32,5.8c6.7,1.2,13.2,2,20,0
					c8.3-2.5,13.2-10,11.3-18.2c-1.6-6.8-6.5-10.4-13.2-11.9c-5-1.1-10-1.9-15-2.8c-8.7-1.7-17.4-3.3-26.1-5
					c-0.7,1.9-1.5,3.8-2.1,5.8c-2.4,8-4.8,16.1-7.2,24.1C631.8,551.5,631.8,552.1,631.7,552.8z"/>
				<path class="st2" d="M632,557.1c0.7,2.5,2,4.2,4.2,5.1c4.8,1.9,9.6,3.7,14.5,5.5c2.2-1.4,4.4-2.9,6.5-4.4c0.5-0.4,0.8-1,1.2-1.5
					C649.7,560.3,640.9,558.7,632,557.1z"/>
				<path class="st1" d="M642.5,393.2c-2.3,6.7-2.9,13.6-1,20.5c2.2,7.9,6.6,14.8,12.3,20.9c2.7,3,6.2,5.5,9.8,7.4
					c9.1,4.9,18.9,8.4,28.9,11.1c13,3.4,25.9,3.7,39-0.8c-2.8-2.3-5.3-4.4-8-6.4c-7.7-5.9-14.5-12.6-19.2-20.9
					c-3.5-6.3-5.7-12.9-5.3-20c0.6-10.4,3.2-20.5,6.7-30.4c10.2-28.1,20.6-56.1,30.9-84.2c3.1-8.4,6-16.9,9-25.4
					c-1.8-1.2-3.4-1.3-5.3-0.6c-10.9,3.8-21.9,7.4-32.8,11.1c-5.9,2-11.9,3.8-17.5,6.4c-7.4,3.4-13,8.5-15.6,16.3
					C663.9,330,653.2,361.6,642.5,393.2z M646,410.7c-0.9-5.1-0.6-10.2,1-15c10.9-32.6,21.9-65.1,32.9-97.6
					c1.6-4.8,5.5-7.8,9.6-10.6c5.1-3.4,11-4.7,16.7-6.7c10.3-3.5,20.7-7,31.1-10.4c0.2-0.1,0.5-0.1,0.8-0.1
					c-0.3,5.1-3.2,7.7-8.2,9.4c-8.9,3-17.5,6.7-26.2,10.1c-2.6,1-5.3,1.7-7.9,2.7c-6.4,2.3-10.8,6.5-12.9,12.7
					c-4.1,12.4-8.1,24.7-12.1,37.1c-6,18.7-11.8,37.5-17.8,56.2c-3.3,10.2,0,19,6.7,27c6,7.3,13.8,12.6,22.5,16.8
					c2,1,3.7,2.5,5.3,4.1c-8.5-2.7-16.9-5.5-24.4-10.1c-4-2.5-6.9-5.9-9.3-9.7C650.5,421.6,647.1,416.7,646,410.7z M694.1,409.6
					c-5.8-6.8-9.5-13.8-6.8-22.1c9.5-30.3,19.2-60.5,28.9-90.8c0.2-0.6,0.5-1.3,0.7-1.9c1.2-3.6,3.4-6.3,7.6-7.3
					c3-0.8,5.8-2.2,9.3-3.6c-2.2,6-4.1,11.6-6.1,17.1c-8.9,24.1-17.9,48.2-26.6,72.4c-3.7,10.3-6.2,20.8-7,31.8
					C693.9,406.5,694,407.8,694.1,409.6z"/>
				<path class="st6" d="M642.6,519.2c0.5,0.1,1.2,0.3,1.9,0.4c12.8,2.5,25.7,4.8,38.5,7.5c8,1.7,13.5,6.3,14.8,14.4
					c0.3,1.9,0.1,3.9,0.2,5.9c2.9-5.5,2-11.4-2.3-16c-3.2-3.4-7.2-5.4-11.6-6.5c-8.8-2.1-17.6-4.2-26.4-6.2
					c-3.9-0.9-7.9-1.8-11.8-2.7c-0.3-0.1-0.6-0.1-0.9-0.2C644.3,516.9,643.4,518.1,642.6,519.2z"/>
				<path class="st2" d="M647.1,395.7c-1.6,4.8-1.9,9.9-1,15c1,6,4.4,10.9,7.6,15.9c2.4,3.8,5.4,7.3,9.3,9.7
					c7.5,4.7,15.9,7.5,24.4,10.1c-1.6-1.6-3.3-3.2-5.3-4.1c-8.7-4.2-16.4-9.5-22.5-16.8c-6.7-8-9.9-16.8-6.7-27
					c6-18.7,11.8-37.5,17.8-56.2c4-12.4,8-24.8,12.1-37.1c2-6.2,6.5-10.4,12.9-12.7c2.6-0.9,5.4-1.7,7.9-2.7
					c8.7-3.4,17.3-7.1,26.2-10.1c5.1-1.7,8-4.2,8.2-9.4c-0.3,0-0.6,0-0.8,0.1c-10.4,3.5-20.7,6.9-31.1,10.4
					c-5.7,1.9-11.6,3.3-16.7,6.7c-4.2,2.8-8,5.8-9.6,10.6C669,330.7,658,363.2,647.1,395.7z"/>
				<path class="st2" d="M647.9,507.2c-2.7,0.3-3.6,1.5-3.7,4c1,0.2,1.9,0.4,2.9,0.7c3.9,1,7.8,2.2,11.7,3.1c10.7,2.5,21.7,4,32.1,8
					c-1.9-2.4-3.8-4.7-5.6-7c-1.4-1.8-2.8-3.5-4.2-5.3c-8.1-1.7-16.1-4-24.4-4C653.6,506.6,650.7,506.8,647.9,507.2z"/>
				<path class="st1" d="M647,511.8l-1,4.2c3.9,0.9,7.8,1.8,11.8,2.7l0.9-3.8C654.8,514,650.9,512.9,647,511.8z"/>
				<path class="st1" d="M651.2,469.4c-0.2,2.5-0.5,5-0.7,7.5c0.2,0.2,0.4,0.4,0.7,0.7c0.2-2.7,0.5-5.4,0.7-8.2
					c-0.2-0.2-0.5-0.3-0.7-0.5C651.2,469.1,651.2,469.3,651.2,469.4z"/>
				<path class="st1" d="M650.7,567.8c3,1.2,6,2.3,8.9,3.5c1.3-1,2.6-2,3.9-2.9c1.9-1.4,3.9-2.9,5.8-4.3c-3.7-0.7-7.3-1.4-11-2.1
					c-0.4,0.5-0.7,1.1-1.2,1.5C655.1,564.9,652.9,566.3,650.7,567.8z"/>
				<path class="st1" d="M655.8,288.7c0.3-0.1,0.5-0.1,0.8-0.2c1.9-3.3,3.9-6.5,5.8-9.8c-0.3,0.1-0.6,0.1-0.9,0.2
					c-0.6,0.7-1.1,1.4-1.7,2.1C658.5,283.5,657.2,286.1,655.8,288.7z"/>
				<path class="st2" d="M663.5,568.3c-1.3,1-2.6,2-3.9,2.9c5.1,2,10.1,4,15.2,5.9c0.6,0.2,1.6,0.1,2.1-0.2
					c13.5-8.3,26.5-17.4,37.3-28.8c5.2-5.5,9.5-11.6,12.2-18.7c1.7-4.7,0.3-8.7-1.5-12.7c-3.5-0.2-6.8-0.3-10-0.7
					c-7.5-1-15-2.3-22.4-3.4c2.4,3,4.9,6,7.3,9c2.6,3.4,4.8,6.9,4.5,11.3c-0.1,1-0.4,2-0.6,2.9c1.7,7.8-0.5,14.6-6.4,20.1
					c-7.7,7.2-17.3,9-27.8,8.1C667.4,565.4,665.5,566.9,663.5,568.3z"/>
				<path class="st2" d="M679.9,468.7c-0.6,5.5-1.2,10.8-1.8,16.4c11.8,2.2,23.5,4.4,35.7,6.7c-3.1-6-6-11.6-8.9-17.1
					c-0.3-0.6-1.2-1-2-1.2c-4.1-1-8.3-1.8-12.4-2.7C686.9,470.1,683.5,469.4,679.9,468.7z"/>
				<path class="st1" d="M681,510.6c1.4,1.8,2.8,3.5,4.2,5.3c1.9,2.4,3.8,4.7,5.6,7c6,2.8,10.5,6.9,12.8,12.9c0.2-1,0.5-1.9,0.6-2.9
					c0.3-4.4-1.9-7.9-4.5-11.3c-2.3-3.1-4.9-6-7.3-9C688.6,511.9,684.8,511.2,681,510.6z"/>
				<path class="st1" d="M700.7,256.4c0,0.1,0,0.2,0,0.3c7.9-2.6,15.8-5.2,23.8-7.8c0-0.1,0-0.2,0-0.3c-0.2,0.1-0.5,0.2-0.7,0.2
					C716.1,251.4,708.4,253.9,700.7,256.4z"/>
				<path class="st1" d="M715.1,397.4c-1.3,6.6-1.6,13.1,2.1,19.2c2.2,3.6,4.7,6.9,7,10.5c2.5,3.9,5.3,7.4,9,10.3
					c4.6,3.6,9.1,7.4,13.7,11c0.4,0.4,1.3,0.5,1.9,0.4c12.8-2.6,25.6-5.2,38.4-8c6.5-1.4,6.4-1.6,12.4,1.2c3.5,1.6,7,3.3,10.4,4.9
					c-0.4-0.7-0.9-1.2-1.4-1.6c-5.2-4.6-11-8.7-15.5-13.9c-3-3.5-6.5-6.5-9.6-9.9c-0.5-0.5-1-1-1.4-1.5c-2.9-3-4.2-6.5-4.2-10.6
					c0-4.4,2.1-8.7,1-13.3c3.4-19.5,6.6-39,10.1-58.5c3-16.1,4.7-32.5,8.9-48.4c1.4-5.3,1.8-10.9,2.7-16.4
					c-2.3,4.3-4.2,8.8-6.4,13.1c-0.4,0.9-1.4,1.8-2.4,2.2c-9.2,3.4-18.3,6.8-27.6,10c-5.8,2-11.4,4.4-17.6,4.9
					c-3.3,0.3-6.5,0.9-9.7,1.4c0,0.1,0,0.2,0,0.3c3.1,1,6.3,2.1,9.6,3.2c-7.1,19.3-14.1,38.4-21.2,57.4
					C721.4,375.9,717.3,386.3,715.1,397.4z M720.4,411.7c-1.9-4.2-1.2-8.5-0.4-12.7c1.9-10.5,5.8-20.5,9.6-30.5
					c7.3-19.7,14.5-39.4,21.7-59.1c0.5-1.4,1.2-2.3,2.8-2.8c12.1-4.2,24.2-8.6,36.4-12.9c0.2-0.1,0.4,0,0.9-0.1
					c-6.5,37.6-12.9,75.1-19.3,112.5c-6.9,1-13.6,1.9-20.3,2.8c-9.7,1.3-19.4,2.6-29.1,3.9C721.4,413,720.9,412.8,720.4,411.7z
					 M732.4,428.4c-2.4-3.7-5-7.2-7.8-11.2c15.9-2.2,31.5-4.4,47.4-6.5c0.5,5.3,2.9,9.8,6.8,14.1c-6.2,0.8-12.1,1.5-17.9,2.2
					c-7.9,1-15.8,2.1-23.6,3.2C735,430.5,733.6,430.3,732.4,428.4z M739.1,434.5c3-0.5,5.6-0.9,8.2-1.2c11.4-1.4,22.9-2.8,34.3-4.2
					c0.6-0.1,1.4,0,1.8,0.3c2.2,1.8,4.3,3.8,6.7,5.9c-7.3,1.7-14.2,3.4-21.1,4.9c-6.1,1.3-12.2,2.4-18.3,3.6
					c-0.7,0.1-1.7,0.1-2.1-0.3C745.5,440.6,742.5,437.7,739.1,434.5z"/>
				<path class="st6" d="M729.2,537.7c-2.2,3.3-4.3,6.4-6.4,9.6c6,3.9,11.8,7.8,17.7,11.7c2.6-3.1,5.1-6.1,7.6-9.2
					C741.7,545.7,735.5,541.7,729.2,537.7z"/>
				<path class="st2" d="M724.6,417.2c2.8,3.9,5.4,7.5,7.8,11.2c1.2,1.9,2.7,2.2,4.8,1.8c7.9-1.2,15.8-2.2,23.6-3.2
					c5.8-0.8,11.7-1.5,17.9-2.2c-3.9-4.2-6.3-8.7-6.8-14.1C756.1,412.8,740.5,415,724.6,417.2z"/>
				<path class="st1" d="M731.5,516.3c0.8,3.1,1.5,5.9,2.2,9c0.9-1.1,2-2.1,2.7-3.3c1.2-2,2.1-4.1,3.1-6.2l0,0
					C736.9,515.9,734.3,516.1,731.5,516.3z"/>
				<path class="st1" d="M761.6,264.2c-2.1,7-4.7,13.9-7.2,21.2c15-5.4,30-10.4,44.7-16c10.8-4.2,21.5-8.8,31.8-14.2
					c-0.8-0.8-1.4-1.5-2-2.1c-4-3.9-7.9-7.9-12-11.7c-2.6-2.3-5.8-3.3-9.4-1.9c-9.4,3.5-18.8,6.9-28.2,10.3
					c-3.2,1.2-6.4,2.3-9.8,3.6c-0.7-3.5-1.4-6.8-2.2-10.3C765.3,250.2,763.7,257.3,761.6,264.2z M762.7,277.5
					c0.6-3.1,1.4-5.3,4.7-6.4c8-2.6,15.9-5.7,23.9-8.6c0.6-0.2,1.2-0.6,1.8-0.5c6.1,0.9,11.3-1.8,16.8-3.5c2.5-0.8,5-1.6,7.6-2.2
					C799.8,264.8,781.3,270.9,762.7,277.5z M766.6,265.6c0.8-2.3,1.4-4.4,2.2-6.5c0.2-0.4,0.8-0.7,1.3-0.9
					c10.8-4,21.6-7.9,32.5-11.9c0.2-0.1,0.4,0,1.1-0.1C793.1,256.2,780.4,261.4,766.6,265.6z M801.3,255.7c4.2-3.4,8.4-6.6,9.8-12.8
					c2.9,2.5,5.4,4.5,8.1,6.9C813,251.9,807.2,253.8,801.3,255.7z"/>
				<path class="st6" d="M767.4,271.1c-3.3,1.1-4.1,3.3-4.7,6.4c18.7-6.5,37.2-12.7,54.7-21.1c-2.6,0.6-5,1.5-7.6,2.2
					c-5.5,1.7-10.6,4.4-16.8,3.5c-0.6-0.1-1.2,0.3-1.8,0.5C783.3,265.4,775.4,268.5,767.4,271.1z"/>
				<path class="st6" d="M768.7,259.1c-0.8,2.1-1.4,4.2-2.2,6.5c13.8-4.2,26.6-9.4,37-19.4c-0.7,0.1-0.9,0-1.1,0.1
					c-10.8,4-21.7,7.9-32.5,11.9C769.5,258.4,768.9,258.7,768.7,259.1z"/>
				<path class="st6" d="M774.4,465.6c-2.4,0.3-4.6,1.1-7.1,1.7c3.7,5,7.2,9.6,10.6,14.3c0.7,1,1.4,1.2,2.7,0.9
					c6.7-1.6,13.5-3.1,20.2-4.6c9.8-2.2,19.6-4.4,29.3-6.7c12.9-3.1,25.7-6.3,38.6-9.6c10.3-2.6,20.6-5.5,30.9-8.3
					c0-0.1,0-0.2,0-0.4c-3.3,0.2-6.7,0.4-10,0.7c-18.3,1.8-36.7,3.7-55,5.5c-13,1.3-26,2.4-38.9,3.7
					C788.5,463.6,781.4,464.6,774.4,465.6z"/>
				<path class="st6" d="M792.2,174.8c-1.5,0.5-2.8,0.9-4.4,1.5c5.7,15.3,11.3,30.6,16.9,45.9c3.5-1.1,6.8-2.1,10.3-3.1
					C807.4,204.2,799.8,189.5,792.2,174.8z"/>
				<path class="st1" d="M800.8,174.7c-1,0.2-2,0.4-3.6,0.7c7.7,13.9,15.2,27.4,22.8,41.1c1.5-0.4,2.9-0.8,4.3-1.1
					C816.5,201.8,808.7,188.3,800.8,174.7z"/>
				<path class="st6" d="M800.8,174.7c7.8,13.6,15.7,27.1,23.5,40.7c1.8-0.4,3.6-0.8,5.5-1.3c-4-6.4-7.8-12.6-11.7-18.7
					c-3.3-5.2-6.7-10.4-10.1-15.5C806.3,177.4,804.3,175,800.8,174.7z"/>
				<path class="st6" d="M807,172.5c-1.2,0-2.3,0.3-3.3,1c3.1,1.5,5.2,4,7,6.8c6.8,10.6,13.5,21.3,20.3,32c0.3,0.5,0.9,1.4,1.4,1.3
					c3.7-0.3,6.9,1.1,10.1,2.6c6.5,1.8,9,8.3,5.1,13.3c-1.3,1.6-3,2.8-4.6,4.2c-0.3,0.3-0.6,0.7-0.9,1c4.4-1.3,7.2-4.2,8.1-8.4
					c0.8-3.8,0.1-7.6-2.1-10.9c-2.6-3.8-5.5-7.3-8.3-10.8c-1.4-1.7-2.8-3.3-4.5-5.3c0.1,0.7,0.1,1,0.1,1.3c-0.1,0.9-0.2,1.9-0.3,2.9
					c-1-0.3-2.3-0.4-2.9-1.1c-2-1.9-4-3.9-5.6-6.1c-4-5.5-8.8-10.7-9.6-17.7c0-0.1-0.1-0.3-0.3-0.4c0,0-0.1-0.1-0.1-0.1
					c-2.2-1.5-4.4-3.3-6.8-4.6C808.7,172.7,807.8,172.5,807,172.5z"/>
				<path class="st1" d="M806.8,168.6l0.2,3.9c0.8,0,1.7,0.3,2.7,0.8c2.4,1.3,4.5,3,6.8,4.6c0,0,0.1,0.1,0.1,0.1l3.2-2.6
					c-0.2-0.2-0.4-0.4-0.6-0.7C815.9,171.2,811.8,168.5,806.8,168.6z"/>
				<path class="st6" d="M811.1,242.9c-1.4,6.2-5.6,9.5-9.8,12.8c5.8-1.9,11.7-3.9,17.9-5.9C816.5,247.5,814,245.4,811.1,242.9z"/>
				<path class="st2" d="M809.6,456.7c0,0.1,0,0.2,0.1,0.3c35.1-3.4,70.2-6.8,105.5-10.3c-1.2-4.3-2.4-8.3-3.5-12.1
					c-3,0.2-5.7,0.3-8.3,0.6c-4.4,0.4-8.9,0.5-13.1,1.5c-10.3,2.3-20.5,5.1-30.7,7.6c-11.1,2.8-22.1,5.5-33.2,8.2
					C820.8,453.9,815.2,455.3,809.6,456.7z"/>
				<path class="st6" d="M820.1,424.2c0,0.2-0.1,0.5-0.1,0.7c0.9,0.3,1.8,1,2.6,0.8c3.4-0.7,6.8-1.6,10.3-2.4
					C828.5,423.6,824.3,423.9,820.1,424.2z"/>
				<path class="st6" d="M832.7,199.7c-2.8-6.9-7.5-12.5-12.8-17.8c3.1,6.6,7.2,12.6,12.5,17.9C832.5,199.8,832.6,199.7,832.7,199.7
					z"/>
				<path class="st1" d="M830.8,235.5c0.3,0,0.6,0.1,0.9,0.1c4.6,0.6,7.2,0.4,9.2-0.6c0.4-0.2,0.8-0.3,1.3-0.5l0,0
					c0.3-0.3,0.6-0.7,0.9-1c1.5-1.4,3.3-2.6,4.6-4.2c3.9-5,1.4-11.5-5.1-13.3c0.2,0.5,0.4,1,0.7,1.4c3.4,4.5,3,9.6-1.4,13
					c-1.6,1.3-3.7,2.2-5.6,3.1C834.6,234.4,832.9,234.8,830.8,235.5z"/>
				<path class="st6" d="M832.5,199.9c0.2,0.2,0.4,0.3,0.6,0.5c0.1-0.1,0.1-0.2,0.2-0.2c-0.2-0.1-0.3-0.3-0.5-0.5
					C832.6,199.7,832.5,199.8,832.5,199.9z"/>
				<path class="st2" d="M849.6,246.1c2,3.4,3.8,6.4,5.7,9.5l1.9,3.5c2.8-1.3,5.7-2.7,8.5-4c2.2-1,3.7-2.7,4.2-5
					c0.7-2.8,0.1-5.4-2.1-7.5c-1.9-1.8-4.4-2.7-6.8-1.7C857,242.4,853.3,244.4,849.6,246.1z"/>
				<path class="st1" d="M926.2,411.3c0.2,1,0.3,1.4,0.4,1.8c1.5,4.5,3.3,9,4.6,13.6c1.5,5.1,2.6,10.4,3.7,15.6
					c1.9,8.8,3.8,17.6,5.5,26.5c0.8,4.2,1.1,8.5,1.7,12.7c2.8,22.1,3.5,44.2,2.3,66.4c-0.8,14.2-2.1,28.4-4.6,42.4
					c-0.8,4.3-1.2,8.7-1.8,13c3.7-3.9,6.2-8.4,7.5-13.3c1.8-6.9,3.2-13.9,4.7-20.8c2.9-13.5,4.5-27.3,5.4-41.1
					c0.7-11,1.2-21.9,1.2-32.9c0-11.1-0.5-22.1-1-33.2c-0.1-2.3-0.2-4.2,2-5.6c0.8-0.6,1.4-1.5,2-2.3c5.3-7.3,2.7-16.8-5.7-20.3
					c-0.1,0.1-0.2,0.2-0.4,0.3c0.6,0.8,1.3,1.6,1.9,2.5c4.3,6.2,3.4,12.4-2.4,17.1c-0.8,0.7-2,0.8-2.9,1.4c-1.9,1.2-3.7,2.5-5.7,3.9
					c-1.9-9.4-3.8-18.4-5.7-27.7c4.1-0.3,8.1-0.6,12.4-0.9c-1.2-3.8-2.2-7.1-3.5-10.4c-0.5-1.4-0.6-2.2,0.7-3.2
					c2.6-2.1,4.6-4.8,4.3-8.3c-0.4-5.1-4-7.7-8.5-9.5c-0.1,0.1-0.2,0.2-0.4,0.4c0.6,0.7,1.3,1.3,1.9,2c4,4.8,3.6,9.4-1.6,12.8
					c-2.5,1.7-5.6,2.8-8.3,4.3c-1.3,0.7-2.1,0.4-3.1-0.6C930.7,415.6,928.6,413.6,926.2,411.3z M937.1,425.6
					c-0.3-0.8-0.4-1.7-0.6-2.6c1.9-0.8,3.8-1.6,5.9-2.4c0.7,1.9,1.3,3.6,2.1,5.7c-2.2,0.2-4.2,0.4-6.2,0.4
					C938,426.6,937.3,426,937.1,425.6z M950.2,526.1c0-21-2.7-41.9-5.1-63c1.7-0.8,3.3-1.5,5.3-2.4
					C952.3,482.7,951.7,504.4,950.2,526.1z"/>
				<path class="st8" d="M943.3,398.4c0,0.1-0.1,0.1-0.1,0.2c0.2,0.2,0.3,0.3,0.5,0.5c0.1-0.1,0.2-0.2,0.4-0.4
					C943.8,398.7,943.6,398.5,943.3,398.4z"/>
				<path class="st2" d="M938.6,431.1c1.9,9.3,3.7,18.2,5.7,27.7c2-1.4,3.8-2.7,5.7-3.9c0.9-0.6,2.1-0.8,2.9-1.4
					c5.8-4.7,6.7-10.9,2.4-17.1c-0.6-0.9-1.3-1.6-1.9-2.5c-0.2-0.2-0.4-0.4-0.6-0.5c0-0.1,0.1-0.2,0.1-0.2l-2-2.9
					C946.7,430.5,942.7,430.8,938.6,431.1z"/>
				<path class="st8" d="M953,433.1c0,0.1-0.1,0.1-0.1,0.2c0.2,0.2,0.4,0.4,0.6,0.5c0.1-0.1,0.2-0.2,0.4-0.3
					C953.5,433.4,953.3,433.3,953,433.1z"/>
			</g>
			<g>
			</g>
		</g>
	</g>
	<g>
		<path class="st1" d="M572,198.8c-0.8-1.2-1.6-2.3-2.5-3.4c-0.2-0.2-0.3-0.4-0.5-0.6c-0.8-0.9-1.6-1.9-2.4-2.8
			c-0.3-0.4-0.7-0.7-1-1.1c-0.6-0.7-1.3-1.3-2-2c-0.6-0.6-1.3-1.2-1.9-1.7c-0.3-0.2-0.5-0.4-0.8-0.6c-1.2-1-2.4-2-3.7-3
			c-4.3-3.2-8.9-6-13.9-8.6c-9-4.7-19.2-8.5-30.4-11.2c-8.9-2.2-18.3-3.8-28.1-4.5l0,0.7l0,2.5l0.3,45.9l0,0.7l92.5,0.6
			c-0.1-0.3-0.1-0.5-0.2-0.7C576.3,205.3,574.1,202,572,198.8z M492,202.7l-0.2-36.2c6.7,0.8,13.2,2,19.6,3.6
			c10.4,2.5,20.1,6.1,28.8,10.6c4.9,2.5,9.1,5.1,12.9,8c1.1,0.8,2.3,1.8,3.4,2.7l0.7,0.6c0.6,0.5,1.2,1,1.7,1.6
			c0.6,0.6,1.2,1.2,1.8,1.7c0.3,0.3,0.6,0.6,0.9,1c0.7,0.8,1.5,1.6,2.1,2.4l0.4,0.6c0.8,1.1,1.5,2,2.1,2.9c0.2,0.3,0.4,0.7,0.7,1
			L492,202.7z"/>
		<path class="st1" d="M598.7,230.8c-6.8-0.1-13.6-0.1-20.9-0.2l-5,0l-1.5,4.5c-1.3,3.8-4.1,7.6-7.5,11.1c-1.2-6.2-4.4-12.9-11-19.1
			l77.6,0.5l-0.2-6.7c-0.7-21.4-12.3-35.6-20.9-44.5c-9.6-9.8-21.5-18-37.5-25.7c-30-14.5-69.4-22.6-110.8-22.9l-6.9,0l0.4,74.4
			l-75.4-0.5c4.7-7.6,11.9-14,22.2-19.9c13.2-7.5,27.9-12.5,43.7-14.8l5.8-0.9l-0.2-37.7l-7.7,0.8c-30.3,3.1-58.4,11.6-81.2,24.8
			c-12.3,7.1-22,14.9-29.6,24c-8.6,10.3-18.6,24.2-18.9,41.1l-0.1,6.7l141.6,1l0.3,48c-6.7-0.8-13.8-2.1-21.5-4.1
			c-29.2-7.4-48.9-20.3-58.6-38.1l-1.9-3.6l-59.4-0.4l4.4,9.2c0.7,1.5,17.5,35.9,64.9,56.2c25.4,10.9,58.2,16.8,94.7,17.1
			c2.8,0,5.6,0,8.4,0l6.7-0.1l-0.4-75.2c0.2,0,0.4,0,0.7,0c18.9,0.1,22.3,9.2,23.4,12.2c2.5,6.6,2,15.6,1.6,24.3
			c-0.1,3-0.3,6.1-0.3,9c0,0.6,0,1.3,0,1.9c-0.1,4.9-0.2,10,2.1,13.8c3.9,6.4,11.9,6.5,14.9,6.5c1.2,0,2.5,0,3.9-0.1
			c7.6-0.5,26-7.8,29.7-9.3c43.1-18.3,57.2-52.8,57.8-54.3l3.5-8.8l-10-0.1C612.2,230.9,605.4,230.9,598.7,230.8z M565.3,288.2
			c0,0-20.6,8.3-27.3,8.8c-7.4,0.4-10.8-0.5-12.4-3c-1.6-2.6-1.2-7.8-1.2-12.4c0.1-11.7,2.2-25.3-1.7-35.6
			c-4.8-12.7-17.9-18-37.5-16.2l0.4,74.9c-38.7,0.6-73.5-5-100.2-16.4c-45.6-19.6-61.4-52.9-61.4-52.9l44.5,0.3
			c11.7,21.8,35.5,34.6,63,41.5c9.3,2.4,19.5,4.3,30.2,4.9l-0.4-61.6l-141.4-1c0.3-15.2,9.8-28.2,17.4-37.2
			c7.7-9.2,17.3-16.4,27.8-22.5c21.3-12.3,48-20.9,78.4-23.9c0,7.6,0.1,17.3,0.1,24.8c-17.7,2.6-33.2,8.3-46.2,15.7
			c-12.9,7.3-24.1,17.2-29.2,31.9l92.9,0.6l-0.4-74.4c42.5,0.3,80,8.8,107.7,22.2c13.7,6.6,25.7,14.3,35.5,24.3
			c9.7,10,18.4,22.7,19,40.2c-29.8-0.2-59.9-0.4-89.7-0.6c0.7,3.6,4.9,4.3,7.5,5.9c9.5,6.1,19.1,16,16,32.4c2.5-0.4,5.6-2,7.3-3.6
			c5.3-5,11.2-11.1,13.6-18.1c14.6,0.1,27.1,0.2,41.7,0.3C619.5,237.5,606.3,270.8,565.3,288.2z"/>
		<path class="st4" d="M564.3,255.3c-1.7,1.6-4.8,3.2-7.3,3.6c3.1-16.4-6.5-26.3-16-32.4c-2.5-1.6-6.7-2.3-7.5-5.9
			c29.8,0.2,59.9,0.4,89.7,0.6c-0.6-17.5-9.3-30.2-19-40.2c-9.8-10-21.8-17.7-35.5-24.3c-27.7-13.4-65.2-21.9-107.7-22.2l0.4,74.4
			l-92.9-0.6c5-14.8,16.3-24.6,29.2-31.9c13-7.4,28.5-13,46.2-15.7c0-7.6-0.1-17.3-0.1-24.8c-30.5,3.1-57.1,11.6-78.4,23.9
			c-10.6,6.1-20.1,13.3-27.8,22.5c-7.6,9-17.1,22-17.4,37.2l141.4,1l0.4,61.6c-10.6-0.5-20.9-2.5-30.2-4.9
			c-27.5-7-51.3-19.8-63-41.5l-44.5-0.3c0,0,15.8,33.4,61.4,52.9c26.7,11.5,61.5,17.1,100.2,16.4l-0.4-74.9
			c19.6-1.8,32.7,3.5,37.5,16.2c3.9,10.3,1.8,23.9,1.7,35.6c-0.1,4.6-0.4,9.7,1.2,12.4c1.5,2.5,5,3.5,12.4,3
			c6.8-0.4,27.3-8.8,27.3-8.8c41-17.4,54.2-50.7,54.2-50.7c-14.6-0.1-27.1-0.2-41.7-0.3C575.5,244.2,569.6,250.3,564.3,255.3z
			 M485.1,209.2l0-0.7l-0.3-45.9l0-2.5l0-0.7c9.8,0.8,19.3,2.3,28.1,4.5c11.2,2.7,21.4,6.5,30.4,11.2c4.9,2.6,9.6,5.4,13.9,8.6
			c1.3,1,2.5,1.9,3.7,3c0.3,0.2,0.5,0.4,0.8,0.6c0.7,0.6,1.3,1.2,1.9,1.7c0.7,0.6,1.3,1.3,2,2c0.3,0.4,0.7,0.7,1,1.1
			c0.8,0.9,1.6,1.8,2.4,2.8c0.2,0.2,0.3,0.4,0.5,0.6c0.9,1.1,1.7,2.2,2.5,3.4c2.1,3.2,4.3,6.5,5.5,10.3c0.1,0.2,0.2,0.5,0.2,0.7
			L485.1,209.2z"/>
	</g>
</g>
<g>
	<path class="st9" d="M153.1,840.5l-20-27.8V694.5l20-27.8h35l20,27.8v24.3h-25v-17.4h-25v104.3h25v-17.4h25v24.3l-20,27.8H153.1z"
		/>
	<path class="st9" d="M219.5,840.5v-34.8H232V701.5h-12.5v-34.7h48.2v34.7h-10.7v34.8h25v-34.8h-10.7v-34.7h48.2v34.7h-12.5v104.3
		h12.5v34.8h-48.2v-34.8h10.7V771h-25v34.8h10.7v34.8H219.5z"/>
	<path class="st9" d="M330.8,840.5v-34.8h12.5l25-139h25l25,139h12.5v34.8h-48.2v-34.8h10.7l-3.1-17.4h-18.7l-3.1,17.4H379v34.8
		H330.8z M380.8,736.2l-3.1,17.4h6.2L380.8,736.2z"/>
	<path class="st9" d="M442.2,840.5v-34.8h12.5V701.5h-12.5v-34.7h37.5l25,84.4l25-84.4h35.7v34.7h-12.5v104.3h12.5v34.8h-48.2v-34.8
		h12.5v-49.6c-8.3,26.3-16.6,52.6-24.8,78.9c-8.4-26.3-16.8-52.6-25.1-78.9v49.6h12.1v34.8H442.2z"/>
	<path class="st9" d="M576.8,840.5v-34.8h12.5V701.5h-12.5v-34.7h67.4l20,27.8v48.6l-20,27.8h-30v34.8h12.5v34.8H576.8z
		 M614.3,736.2h25v-34.8h-25V736.2z"/>
	<path class="st9" d="M675.7,840.5v-34.8h12.5V701.5h-12.5v-34.7h48.2v34.7h-10.7v104.3h10.7v34.8H675.7z"/>
	<path class="st9" d="M755.3,840.5l-20-27.8V694.5l20-27.8h35l20,27.8v118.1l-20,27.8H755.3z M760.3,805.7h25V701.5h-25V805.7z"/>
	<path class="st9" d="M821.7,840.5v-34.8h12.5V701.5h-12.5v-34.7h37.5l37.5,99.3v-64.5h-12.5v-34.7h50v34.7h-12.5v139h-25
		l-37.5-99.3v64.5h12.5v34.8H821.7z"/>
	<path class="st9" d="M945.6,788.3h25v17.4h25V771h-30l-20-27.8v-48.6l20-27.8h35l20,27.8v24.3h-25v-17.4h-25v34.8h29.6l20.3,27.8
		v48.7l-20,27.8h-35l-20-27.8V788.3z"/>
</g>
</svg>
